<svg width="228" height="24" viewBox="0 0 228 24" fill="none" xmlns="http://www.w3.org/2000/svg">
<line x1="-1.31134e-07" y1="10.5" x2="30" y2="10.5" stroke="#666666" stroke-width="3"/>
<line x1="198" y1="10.5" x2="228" y2="10.5" stroke="#666666" stroke-width="3"/>
<path d="M52.3039 1.464H49.2319V12.216L42.9199 1.464H40.0639V18H43.1119V7.128L49.4959 18H52.3039V1.464ZM66.5809 12.36C66.5809 8.808 64.0609 6.552 60.8929 6.552C57.7009 6.552 55.0849 8.808 55.0849 12.36C55.0849 15.888 57.7009 18.24 60.8929 18.24C62.9569 18.24 65.0929 17.448 66.1249 15.528C65.3809 15.144 64.5889 14.712 63.8929 14.328C63.3409 15.288 62.2129 15.768 61.0849 15.768C59.4289 15.768 58.1809 14.88 57.9889 13.368H66.5329C66.5569 13.104 66.5809 12.648 66.5809 12.36ZM57.9649 11.376C58.1809 9.84 59.3809 9 60.9169 9C62.3569 9 63.5089 9.84 63.7249 11.376H57.9649ZM85.4659 6.792H82.3459L80.0659 13.872L77.7859 6.792H75.1939L72.9379 13.872L70.6579 6.792H67.5379L71.6659 18H74.0899L76.5139 10.488L79.0099 18H81.4579L85.4659 6.792ZM99.9624 4.2C101.498 4.2 102.194 5.616 102.194 6.816C102.194 8.04 101.45 9.384 99.8664 9.384H96.3624V4.2H99.9624ZM93.2904 18H96.3624V12.12H100.01C103.682 12.12 105.266 9.504 105.266 6.816C105.266 4.128 103.682 1.464 100.01 1.464H93.2904V18ZM110.365 14.04C110.365 11.064 111.181 9.288 113.173 9.288C113.461 9.288 114.181 9.288 114.877 9.6L115.381 6.96C114.925 6.696 114.325 6.552 113.533 6.552C112.261 6.552 110.941 7.392 110.365 9.432V6.792H107.437V18H110.365V14.04ZM122.206 15.36C120.574 15.36 119.278 14.184 119.278 12.36C119.278 10.56 120.574 9.432 122.206 9.432C123.838 9.432 125.134 10.56 125.134 12.36C125.134 14.184 123.838 15.36 122.206 15.36ZM122.206 18.216C125.374 18.216 128.038 15.888 128.038 12.36C128.038 8.808 125.374 6.552 122.206 6.552C119.038 6.552 116.374 8.808 116.374 12.36C116.374 15.888 119.038 18.216 122.206 18.216ZM138.992 18H141.896V0.696H138.992V8.28C138.344 7.152 136.976 6.552 135.464 6.552C132.512 6.552 129.968 8.832 129.968 12.408C129.968 15.96 132.512 18.24 135.464 18.24C136.928 18.24 138.344 17.616 138.992 16.488V18ZM138.944 12.36C138.944 14.232 137.552 15.432 135.944 15.432C134.312 15.432 132.992 14.208 132.992 12.36C132.992 10.536 134.312 9.336 135.944 9.336C137.48 9.336 138.944 10.44 138.944 12.36ZM152.586 12.768C152.586 14.712 151.386 15.384 150.162 15.384C149.13 15.384 148.026 14.712 148.026 12.888V6.792H145.074V13.416C145.074 16.584 146.826 18.24 149.49 18.24C150.618 18.24 151.962 17.616 152.586 16.416V18H155.514V6.792H152.586V12.768ZM158.116 12.36C158.116 15.888 160.948 18.24 164.164 18.24C166.084 18.24 167.788 17.448 168.844 16.032L166.492 14.304C165.94 15.048 165.1 15.432 164.164 15.432C162.532 15.432 161.02 14.184 161.02 12.36C161.02 10.536 162.532 9.384 164.164 9.384C165.1 9.384 165.94 9.744 166.492 10.488L168.82 8.736C167.764 7.32 166.06 6.552 164.164 6.552C160.948 6.552 158.116 8.808 158.116 12.36ZM175.144 2.52H172.24V6.792H170.2V9.144H172.24V18H175.144V9.144H177.52V6.792H175.144V2.52ZM183.966 13.704C184.806 13.896 185.214 14.184 185.19 14.76C185.19 15.408 184.566 15.864 183.726 15.888C182.646 15.96 181.734 15.264 181.662 14.472H178.926C178.998 16.872 181.23 18.24 183.438 18.24C185.766 18.24 188.022 17.088 188.022 14.784C188.022 13.872 187.686 12.144 185.094 11.424L183.222 10.968C182.574 10.8 182.046 10.488 182.046 10.032C182.046 9.192 182.718 8.928 183.462 8.928C184.134 8.928 184.902 9.24 184.974 10.08H187.758C187.638 7.512 185.526 6.552 183.39 6.552C181.182 6.552 179.262 8.064 179.262 9.888C179.262 11.184 179.526 12.552 182.43 13.32L183.966 13.704Z" fill="#333333"/>
</svg>
