<svg width="149" height="149" viewBox="0 0 149 149" fill="none" xmlns="http://www.w3.org/2000/svg">
<rect y="74.5" width="105.359" height="105.359" rx="5" transform="rotate(-45 0 74.5)" fill="#E21A43" fill-opacity="0.07"/>
<path d="M75.26 27.0884C74.6155 27.2153 73.7463 27.5571 73.1799 27.8892C72.4866 28.2993 71.4417 29.3442 71.0315 30.0474C69.6155 32.4106 69.9377 35.438 71.803 37.479C72.3792 38.104 72.3987 38.1333 72.1741 38.1919C72.0471 38.231 71.5881 38.4263 71.1585 38.6411C69.6838 39.3735 68.2776 41.0728 67.4377 43.1528C67.2424 43.6313 67.0667 44.0415 67.0569 44.061C67.0374 44.0806 66.8713 43.9829 66.6663 43.8462C66.4612 43.7095 66.1389 43.5532 65.9436 43.4946C65.3674 43.3384 56.6956 43.3774 56.2366 43.5337C55.0647 43.9536 54.469 44.9302 55.0452 45.4966C55.3577 45.8188 55.7874 45.8188 56.0803 45.4966C56.4807 45.0669 56.7834 44.9595 57.6331 44.9595H58.4143V46.2778C58.4143 47.5571 58.4241 47.6157 58.6584 47.8403L58.8928 48.0845H61.1487H63.4045L63.6389 47.8403C63.8733 47.6157 63.8831 47.5571 63.8831 46.2681V44.9399L64.8108 44.979C65.6116 45.0083 65.7581 45.0376 65.9534 45.2329L66.178 45.4575V48.8657V52.2739L65.9534 52.4985L65.7288 52.7231L61.1877 52.7524L56.6467 52.7817L56.3635 52.4888C56.1975 52.3325 56.0706 52.1567 56.0706 52.0981C56.0706 52.0298 56.4026 51.9907 56.9983 51.9907C57.8577 51.9907 57.9553 51.9712 58.1702 51.7466C58.3264 51.6001 58.4143 51.395 58.4143 51.2095C58.4143 51.0239 58.3264 50.8188 58.1702 50.6724C57.9553 50.4478 57.8577 50.4282 56.9983 50.4282H56.0706V49.647V48.8657H56.6077C57.262 48.8657 57.6331 48.5825 57.6331 48.0845C57.6331 47.8989 57.5452 47.6938 57.3889 47.5474L57.1545 47.3032H54.8987H52.6428L52.4084 47.5474C52.0862 47.8599 52.0862 48.3091 52.4084 48.6216C52.6233 48.8462 52.7209 48.8657 53.5803 48.8657H54.5081V49.647V50.4282H52.7991C51.1096 50.4282 51.0803 50.4282 50.8459 50.6724C50.5237 50.9849 50.5237 51.4341 50.8459 51.7466C51.0803 51.9907 51.1096 51.9907 52.7698 51.9907H54.469L54.5862 52.4302C54.8108 53.2896 55.4163 53.9341 56.2561 54.2173C56.4709 54.2954 57.3499 54.3345 58.7268 54.3345H60.8752L60.5139 54.7544C59.5081 55.9165 58.5901 58.8364 58.4534 61.2876C58.385 62.4106 58.385 62.4204 58.6389 62.6743C58.8928 62.9185 58.9221 62.9282 60.2405 62.9282H61.5881L61.7444 63.6021C62.2815 65.8091 64.0393 67.5767 66.2756 68.1528C67.0276 68.3481 68.551 68.3481 69.303 68.1528C71.5295 67.5767 73.2971 65.8091 73.8245 63.6216L73.9905 62.9282H79.8987H85.8167L85.9436 63.5337C86.51 66.2778 89.1467 68.397 92.0081 68.397C95.4163 68.397 98.2581 65.5552 98.2581 62.147C98.2581 59.8325 96.8811 57.606 94.8401 56.5903C93.971 56.1704 92.9553 55.897 92.1936 55.897H91.7444L90.3577 52.6646C89.596 50.8774 88.9905 49.4126 89.0003 49.3931C89.0198 49.3833 89.2737 49.4321 89.5667 49.5103C90.3479 49.7153 90.7092 49.686 90.9827 49.4028L91.2268 49.1685V45.7407V42.313L90.9729 42.0591C90.7385 41.8247 90.6799 41.8149 90.0842 41.8638C88.8147 41.981 87.4963 42.8892 86.9885 43.9829L86.7639 44.4614L86.4807 44.1685C86.3245 44.0024 85.9827 43.7485 85.7092 43.6118C85.2307 43.3579 85.1819 43.3481 83.678 43.3774C81.8616 43.4067 81.4612 43.2896 80.7483 42.5278C80.3284 42.0786 79.4104 40.8384 79.4104 40.7212C79.4104 40.6919 79.5081 40.6626 79.635 40.6626C79.762 40.6626 80.1038 40.5454 80.3967 40.3892C80.9924 40.0864 81.4905 39.5005 81.676 38.8755C81.7444 38.6313 81.9202 38.3579 82.1155 38.1919C82.887 37.5278 83.0042 36.7075 82.4475 35.8286C82.2815 35.5649 82.096 35.1938 82.0471 34.9985C81.9202 34.5493 81.9202 34.022 82.0471 34.022C82.1057 34.022 82.262 33.9146 82.3889 33.7778C82.6819 33.4946 82.7112 32.9771 82.4866 31.9224C81.8909 29.0903 79.2444 26.9614 76.3342 27.0005C75.9631 27.0103 75.4749 27.0493 75.26 27.0884ZM77.5061 28.6997C78.3557 28.9243 79.1467 29.3833 79.7522 30.0278C80.2893 30.5845 80.8069 31.522 80.9338 32.1372L80.9924 32.4399L79.4983 32.479C78.219 32.5083 77.926 32.5376 77.5354 32.7231C76.8909 33.0161 76.2366 33.6606 75.9241 34.3052C75.6702 34.813 75.6506 34.9497 75.6213 36.356L75.5823 37.8501L75.2795 37.7915C74.6643 37.6646 73.7268 37.147 73.1702 36.6099C72.5256 36.0044 72.0667 35.2134 71.842 34.3638C70.9827 31.0532 74.1956 27.8403 77.5061 28.6997ZM80.3674 34.7446C80.4358 35.145 80.6409 35.7798 80.8362 36.1802L81.1877 36.9028L80.9534 37.0493C80.5335 37.3228 80.2893 37.6255 80.2893 37.8794C80.2893 38.27 80.0354 38.7778 79.762 38.9536C79.469 39.1489 78.5217 39.1099 77.7014 38.8755L77.2131 38.7388L77.1838 37.0298C77.1643 35.4087 77.1741 35.311 77.3889 34.9009C77.7307 34.2466 78.2288 34.022 79.3616 34.022H80.2502L80.3674 34.7446ZM75.1135 39.5884C76.4026 39.8325 77.2034 40.4478 78.512 42.2153C79.4983 43.5532 80.1233 44.1587 80.8655 44.5298C81.1682 44.6763 81.4221 44.813 81.4417 44.8228C81.4612 44.8325 81.3831 45.0181 81.2756 45.2427C81.1585 45.4575 81.012 45.9751 80.9534 46.3853C80.8362 47.1079 80.8362 47.1274 80.5823 47.0786C79.1272 46.7856 77.4475 45.5552 76.4417 44.0415C75.9241 43.2603 75.5627 43.1138 75.0745 43.5044C74.6057 43.8755 74.7327 44.3735 75.5823 45.4966L75.8752 45.8774L75.6018 46.229C75.1917 46.7563 74.7131 47.645 74.5276 48.2603L74.3518 48.8169L71.0608 48.8462L67.76 48.8657L67.8186 48.0649C67.9065 46.9712 68.2776 45.4087 68.7463 44.1587C70.0647 40.6724 72.3108 39.061 75.1135 39.5884ZM89.6643 45.7407C89.6643 48.2212 89.6741 48.2017 88.8538 47.3716C88.3264 46.854 88.1018 46.356 88.1018 45.7407C88.1018 45.1255 88.3264 44.6274 88.8538 44.1001C89.6741 43.2798 89.6643 43.2603 89.6643 45.7407ZM85.2307 45.1255C85.4065 45.2524 85.6311 45.5747 85.7874 45.936L86.0413 46.5317L85.6018 46.7173C84.8694 47.0396 83.9905 47.2251 83.219 47.2446L82.4866 47.2544L82.4573 46.9712C82.3792 46.2681 82.887 45.3501 83.5608 45.0083C83.971 44.7935 84.8499 44.8521 85.2307 45.1255ZM62.3206 45.7407V46.522H61.1487H59.9768V45.7407V44.9595H61.1487H62.3206V45.7407ZM77.7893 47.5376C78.5706 48.0454 79.2932 48.3579 80.3381 48.6216L81.217 48.8462L82.3108 53.563C82.9749 56.4438 83.4045 58.5044 83.4045 58.8364C83.4143 59.5005 83.1995 60.145 82.8577 60.5063L82.6038 60.77L82.4377 60.3013C82.1545 59.4614 81.471 58.7485 80.7092 58.4849L80.3381 58.3579L80.2795 55.6333C80.2307 52.7329 80.2307 52.7329 79.6545 51.5903C79.0881 50.4868 77.5842 49.3149 76.4514 49.1099C76.2463 49.0708 76.051 48.9731 76.0217 48.9048C75.9045 48.5923 76.8811 46.9419 77.1057 47.0884C77.1643 47.1274 77.467 47.3228 77.7893 47.5376ZM88.5217 52.3521L90.3284 56.5806L88.6292 58.9731L86.9299 61.3657H85.5823H84.2346L84.5569 60.7017C84.9475 59.9106 85.1038 58.9829 84.9866 58.2407C84.9085 57.7817 83.0042 49.5103 82.8674 49.0513C82.8284 48.9243 82.9553 48.8853 83.5999 48.8267C84.3811 48.7681 85.846 48.397 86.3342 48.1333C86.471 48.0649 86.6174 48.0356 86.6467 48.0649C86.6858 48.104 87.5256 50.0376 88.5217 52.3521ZM75.6018 50.5259C76.7542 50.7407 77.8381 51.4927 78.2874 52.3813C78.6487 53.104 78.7268 53.729 78.7268 56.0435V58.2407H77.1643H75.6018V57.1177C75.6018 55.3696 75.1428 54.2954 74.0588 53.5142C73.1702 52.8599 72.6819 52.772 69.9866 52.772H67.6038L67.7014 52.4595C67.7502 52.2837 67.7893 51.7563 67.7893 51.2876V50.4282H71.4417C73.4827 50.4282 75.3186 50.4673 75.6018 50.5259ZM72.4866 54.4517C72.9749 54.5981 73.5706 55.106 73.8049 55.5747C73.9612 55.8872 74.0002 56.2583 74.0393 57.9575L74.0881 59.9595L74.4397 60.6626L74.7815 61.3657H67.3694H59.9573L60.0256 60.7505C60.1917 59.1489 60.9534 56.8442 61.637 55.8481C62.0959 55.1841 62.8967 54.6372 63.7366 54.4321C64.2444 54.3052 72.0667 54.3149 72.4866 54.4517ZM93.1311 57.606C95.6311 58.2603 97.1838 60.8188 96.5491 63.27C96.0803 65.0669 94.5764 66.4536 92.7405 66.7661C90.8167 67.0981 88.717 66.0239 87.8577 64.2563C87.6721 63.8755 87.4866 63.4165 87.4573 63.2407L87.3987 62.9282H88.1799H88.971L89.2053 63.4458C89.5081 64.1196 90.0452 64.647 90.7288 64.9692C91.4807 65.3208 92.6038 65.3208 93.3264 64.979C93.9417 64.6763 94.5374 64.0903 94.8499 63.4653C95.1721 62.8013 95.1819 61.5415 94.8694 60.8579C94.6057 60.272 93.9417 59.6177 93.346 59.3247C92.4182 58.8755 91.1096 58.9731 90.3088 59.5396C90.1331 59.6567 90.0549 59.686 90.1038 59.5981C90.2307 59.3833 91.3342 57.8208 91.5003 57.6255C91.6858 57.4106 92.3401 57.4009 93.1311 57.606ZM80.2893 59.979C80.6702 60.1841 81.1389 60.9458 81.0413 61.1997C80.9827 61.3462 80.7776 61.3657 79.303 61.3657C77.4182 61.3657 77.0471 61.2974 76.4807 60.7993C76.1389 60.5161 75.7971 60.0376 75.7971 59.8521C75.7971 59.8228 76.7346 59.8032 77.8772 59.8032C79.7034 59.8032 79.9963 59.8228 80.2893 59.979ZM92.8674 60.8481C93.3655 61.2192 93.5217 61.5317 93.5217 62.147C93.5217 62.7622 93.3655 63.0747 92.8479 63.4556C92.428 63.7778 91.5588 63.7388 91.0999 63.3872C90.9045 63.2407 90.7385 63.0747 90.7385 63.0161C90.7385 62.9673 91.0901 62.9282 91.5198 62.9282C92.2327 62.9282 92.3303 62.8989 92.5452 62.6841C92.8674 62.3716 92.8674 61.9224 92.5452 61.6099C92.3303 61.395 92.2327 61.3657 91.5198 61.3657C91.0901 61.3657 90.7385 61.3267 90.7385 61.2876C90.7385 61.1704 91.0217 60.9263 91.3733 60.731C91.7542 60.5259 92.5159 60.5845 92.8674 60.8481ZM88.9905 61.2974C88.8928 61.3853 88.8831 61.3755 88.9417 61.2388C88.971 61.1411 89.0295 61.0923 89.0588 61.1216C89.0881 61.1509 89.0588 61.229 88.9905 61.2974ZM64.967 63.4165C65.4065 64.4517 66.6174 65.2134 67.7893 65.2134C68.9612 65.2134 70.1721 64.4517 70.6116 63.4165L70.8264 62.9282H71.6174H72.4085L72.3401 63.2407C72.2131 63.8755 71.6956 64.7935 71.1389 65.3794C69.3225 67.2837 66.2561 67.2837 64.4397 65.3794C63.8831 64.7935 63.3655 63.8755 63.2385 63.2407L63.1799 62.9282H63.9612H64.7522L64.967 63.4165ZM69.0588 63.0161C69.0588 63.1724 68.5608 63.5044 68.1702 63.6313C67.8772 63.7095 67.7014 63.7095 67.4085 63.6313C67.0178 63.5044 66.5198 63.1724 66.5198 63.0161C66.5198 62.9673 67.0764 62.9282 67.7893 62.9282C68.5022 62.9282 69.0588 62.9673 69.0588 63.0161Z" fill="#E21A43"/>
<path d="M31.4494 89.8657H33.3694V85.6357H36.8494V83.9257H33.3694V81.2407H37.7644V79.5307H31.4494V89.8657ZM40.583 87.3907C40.583 85.5307 41.093 84.4207 42.338 84.4207C42.518 84.4207 42.968 84.4207 43.403 84.6157L43.718 82.9657C43.433 82.8007 43.058 82.7107 42.563 82.7107C41.768 82.7107 40.943 83.2357 40.583 84.5107V82.8607H38.753V89.8657H40.583V87.3907ZM51.5235 86.3407C51.5235 84.1207 49.9485 82.7107 47.9685 82.7107C45.9735 82.7107 44.3385 84.1207 44.3385 86.3407C44.3385 88.5457 45.9735 90.0157 47.9685 90.0157C49.2585 90.0157 50.5935 89.5207 51.2385 88.3207C50.7735 88.0807 50.2785 87.8107 49.8435 87.5707C49.4985 88.1707 48.7935 88.4707 48.0885 88.4707C47.0535 88.4707 46.2735 87.9157 46.1535 86.9707H51.4935C51.5085 86.8057 51.5235 86.5207 51.5235 86.3407ZM46.1385 85.7257C46.2735 84.7657 47.0235 84.2407 47.9835 84.2407C48.8835 84.2407 49.6035 84.7657 49.7385 85.7257H46.1385ZM59.8145 86.3407C59.8145 84.1207 58.2395 82.7107 56.2595 82.7107C54.2645 82.7107 52.6295 84.1207 52.6295 86.3407C52.6295 88.5457 54.2645 90.0157 56.2595 90.0157C57.5495 90.0157 58.8845 89.5207 59.5295 88.3207C59.0645 88.0807 58.5695 87.8107 58.1345 87.5707C57.7895 88.1707 57.0845 88.4707 56.3795 88.4707C55.3445 88.4707 54.5645 87.9157 54.4445 86.9707H59.7845C59.7995 86.8057 59.8145 86.5207 59.8145 86.3407ZM54.4295 85.7257C54.5645 84.7657 55.3145 84.2407 56.2745 84.2407C57.1745 84.2407 57.8945 84.7657 58.0295 85.7257H54.4295ZM67.2513 81.2857H69.3663C71.1963 81.2857 72.1113 82.8457 72.1113 84.7207C72.1113 86.5807 71.1963 88.1107 69.3663 88.1107H67.2513V81.2857ZM69.3663 89.8657C72.3213 89.8657 74.0313 87.6607 74.0313 84.7207C74.0313 81.7807 72.3213 79.5307 69.3663 79.5307H65.3313V89.8657H69.3663ZM82.461 86.3407C82.461 84.1207 80.886 82.7107 78.906 82.7107C76.911 82.7107 75.276 84.1207 75.276 86.3407C75.276 88.5457 76.911 90.0157 78.906 90.0157C80.196 90.0157 81.531 89.5207 82.176 88.3207C81.711 88.0807 81.216 87.8107 80.781 87.5707C80.436 88.1707 79.731 88.4707 79.026 88.4707C77.991 88.4707 77.211 87.9157 77.091 86.9707H82.431C82.446 86.8057 82.461 86.5207 82.461 86.3407ZM77.076 85.7257C77.211 84.7657 77.961 84.2407 78.921 84.2407C79.821 84.2407 80.541 84.7657 80.676 85.7257H77.076ZM84.002 89.8657H85.832V79.0507H84.002V89.8657ZM89.7135 82.8607H87.8985V89.8657H89.7135V82.8607ZM87.6285 80.1457C87.6285 80.7907 88.1685 81.2557 88.8135 81.2557C89.4585 81.2557 89.9685 80.7907 89.9685 80.1457C89.9685 79.5307 89.4585 79.0507 88.8135 79.0507C88.1685 79.0507 87.6285 79.5307 87.6285 80.1457ZM93.8204 89.8657H95.4404L98.3954 82.8607H96.4304L94.6304 87.5257L92.8304 82.8607H90.8804L93.8204 89.8657ZM106.148 86.3407C106.148 84.1207 104.573 82.7107 102.593 82.7107C100.598 82.7107 98.9625 84.1207 98.9625 86.3407C98.9625 88.5457 100.598 90.0157 102.593 90.0157C103.883 90.0157 105.218 89.5207 105.863 88.3207C105.398 88.0807 104.903 87.8107 104.468 87.5707C104.123 88.1707 103.418 88.4707 102.713 88.4707C101.678 88.4707 100.898 87.9157 100.778 86.9707H106.118C106.133 86.8057 106.148 86.5207 106.148 86.3407ZM100.763 85.7257C100.898 84.7657 101.648 84.2407 102.608 84.2407C103.508 84.2407 104.228 84.7657 104.363 85.7257H100.763ZM109.519 87.3907C109.519 85.5307 110.029 84.4207 111.274 84.4207C111.454 84.4207 111.904 84.4207 112.339 84.6157L112.654 82.9657C112.369 82.8007 111.994 82.7107 111.499 82.7107C110.704 82.7107 109.879 83.2357 109.519 84.5107V82.8607H107.689V89.8657H109.519V87.3907ZM120.351 82.8607H118.401L116.646 87.2257L114.906 82.8607H112.956L115.686 89.3257L114.081 93.2857H116.016L120.351 82.8607Z" fill="#E21A43"/>
</svg>
