<svg width="240" height="18" viewBox="0 0 240 18" fill="none" xmlns="http://www.w3.org/2000/svg">
<path d="M1.692 1.598V14H3.366V1.598H1.692ZM15.6645 10.976C14.8185 11.966 13.6125 12.56 12.2265 12.56C9.6165 12.56 7.6185 10.472 7.6185 7.826C7.6185 5.18 9.6165 3.074 12.2265 3.074C13.5945 3.074 14.7825 3.686 15.6285 4.604L16.8885 3.56C15.7905 2.264 14.1525 1.454 12.2265 1.454C8.7165 1.454 5.9445 4.316 5.9445 7.826C5.9445 11.354 8.7165 14.18 12.2265 14.18C14.1705 14.18 15.8265 13.352 16.9245 12.038L15.6645 10.976ZM19.0416 1.598V14H26.5656V12.434H20.7156V8.69H25.6656V7.124H20.7156V3.164H26.3856V1.598H19.0416ZM33.0131 9.77C33.0131 12.434 35.0651 14.18 37.4591 14.18C38.7551 14.18 39.9251 13.676 40.7171 12.812L39.4571 11.768C38.9531 12.29 38.2331 12.596 37.4591 12.596C35.9471 12.596 34.6331 11.444 34.6331 9.77C34.6331 8.078 35.9471 7.016 37.4591 7.016C38.2331 7.016 38.9531 7.304 39.4571 7.808L40.6991 6.764C39.9071 5.9 38.7551 5.414 37.4591 5.414C35.0651 5.414 33.0131 7.106 33.0131 9.77ZM44.4201 10.94C44.4201 8.708 45.1041 6.98 46.7241 6.98C47.0661 6.98 47.5161 7.052 47.9661 7.268L48.2181 5.738C47.9841 5.576 47.3541 5.414 46.7601 5.414C45.6621 5.414 44.8521 5.99 44.4201 7.484V5.594H42.7821V14H44.4201V10.94ZM50.7527 9.14C50.9507 7.718 52.0307 6.89 53.4167 6.89C54.7847 6.89 55.7747 7.718 55.9727 9.14H50.7527ZM57.5927 9.77C57.5927 7.106 55.8107 5.414 53.4167 5.414C51.0227 5.414 49.1147 7.106 49.1147 9.77C49.1147 12.434 51.0227 14.18 53.4167 14.18C55.0547 14.18 56.5667 13.442 57.2867 11.948C56.8367 11.75 56.3147 11.606 55.8827 11.408C55.3967 12.254 54.4787 12.704 53.4707 12.704C52.0307 12.704 50.9507 11.84 50.7527 10.418H57.5747C57.5927 10.22 57.5927 9.968 57.5927 9.77ZM66.3346 14H67.9546V5.594H66.3346V6.854C65.7586 5.9 64.5526 5.414 63.3826 5.414C61.0786 5.414 59.1166 7.106 59.1166 9.788C59.1166 12.452 61.0786 14.18 63.3826 14.18C64.5526 14.18 65.7766 13.64 66.3346 12.704V14ZM66.3166 9.77C66.3166 11.552 65.0206 12.578 63.5266 12.578C62.0146 12.578 60.7906 11.426 60.7906 9.77C60.7906 8.114 62.0146 7.016 63.5266 7.016C64.8946 7.016 66.3166 7.97 66.3166 9.77ZM80.3621 7.016C81.5861 7.016 82.2881 7.862 82.2881 9.248V14H83.9261V9.14C83.9261 6.764 82.7921 5.414 80.6861 5.414C79.8761 5.414 78.5441 5.648 77.7701 7.142C77.3741 6.224 76.6361 5.666 75.5741 5.504C75.2861 5.45 74.9801 5.432 74.6561 5.45C73.9721 5.504 72.7661 5.918 72.3341 6.854V5.594H70.6961V14H72.3341V9.464C72.3341 7.7 73.5041 7.016 74.6741 7.016C75.7721 7.016 76.4921 7.844 76.4921 9.23V14H78.1301V9.464C78.1301 8.06 78.9761 7.016 80.3621 7.016ZM90.6694 9.77C90.6694 12.434 92.7214 14.18 95.1154 14.18C96.4114 14.18 97.5814 13.676 98.3734 12.812L97.1134 11.768C96.6094 12.29 95.8894 12.596 95.1154 12.596C93.6034 12.596 92.2894 11.444 92.2894 9.77C92.2894 8.078 93.6034 7.016 95.1154 7.016C95.8894 7.016 96.6094 7.304 97.1134 7.808L98.3554 6.764C97.5634 5.9 96.4114 5.414 95.1154 5.414C92.7214 5.414 90.6694 7.106 90.6694 9.77ZM104.061 14.18C106.455 14.18 108.471 12.434 108.471 9.77C108.471 7.106 106.455 5.414 104.061 5.414C101.667 5.414 99.6694 7.106 99.6694 9.77C99.6694 12.434 101.667 14.18 104.061 14.18ZM104.061 12.596C102.531 12.596 101.289 11.498 101.289 9.77C101.289 8.078 102.531 7.016 104.061 7.016C105.555 7.016 106.833 8.078 106.833 9.77C106.833 11.498 105.555 12.596 104.061 12.596ZM112.289 9.464C112.289 7.682 113.477 7.016 114.665 7.016C115.817 7.016 116.519 7.826 116.519 9.248V14H118.157V9.14C118.157 6.764 117.023 5.414 114.917 5.414C113.999 5.414 112.775 5.846 112.289 6.854V5.594H110.651V14H112.289V9.464ZM121.874 9.14C122.072 7.718 123.152 6.89 124.538 6.89C125.906 6.89 126.896 7.718 127.094 9.14H121.874ZM128.714 9.77C128.714 7.106 126.932 5.414 124.538 5.414C122.144 5.414 120.236 7.106 120.236 9.77C120.236 12.434 122.144 14.18 124.538 14.18C126.176 14.18 127.688 13.442 128.408 11.948C127.958 11.75 127.436 11.606 127.004 11.408C126.518 12.254 125.6 12.704 124.592 12.704C123.152 12.704 122.072 11.84 121.874 10.418H128.696C128.714 10.22 128.714 9.968 128.714 9.77ZM133.856 10.562C134.486 10.706 134.99 10.994 134.972 11.624C134.954 12.254 134.468 12.668 133.694 12.722C133.172 12.758 132.74 12.668 132.362 12.434C131.948 12.236 131.732 11.84 131.678 11.48H130.184C130.238 13.208 131.804 14.18 133.316 14.18C135.062 14.18 136.574 13.244 136.574 11.66C136.574 10.706 136.124 9.644 134.396 9.212L133.154 8.906C132.722 8.78 132.326 8.6 132.164 8.258C132.074 8.078 132.074 7.862 132.146 7.592C132.272 7.142 132.776 6.836 133.406 6.836C134.054 6.836 134.63 7.16 134.72 7.79H136.286C136.142 6.08 134.792 5.414 133.37 5.414C131.858 5.414 130.598 6.332 130.454 7.556C130.31 9.122 131.174 9.878 132.704 10.292L133.856 10.562ZM146.442 10.562C147.072 10.706 147.576 10.994 147.558 11.624C147.54 12.254 147.054 12.668 146.28 12.722C145.758 12.758 145.326 12.668 144.948 12.434C144.534 12.236 144.318 11.84 144.264 11.48H142.77C142.824 13.208 144.39 14.18 145.902 14.18C147.648 14.18 149.16 13.244 149.16 11.66C149.16 10.706 148.71 9.644 146.982 9.212L145.74 8.906C145.308 8.78 144.912 8.6 144.75 8.258C144.66 8.078 144.66 7.862 144.732 7.592C144.858 7.142 145.362 6.836 145.992 6.836C146.64 6.836 147.216 7.16 147.306 7.79H148.872C148.728 6.08 147.378 5.414 145.956 5.414C144.444 5.414 143.184 6.332 143.04 7.556C142.896 9.122 143.76 9.878 145.29 10.292L146.442 10.562ZM157.034 10.13C157.034 11.93 155.846 12.578 154.658 12.578C153.506 12.578 152.822 11.768 152.822 10.346V5.594H151.184V10.454C151.166 12.83 152.318 14.18 154.424 14.18C155.342 14.18 156.512 13.748 157.034 12.74V14H158.672V5.594H157.034V10.13ZM163.037 9.464C163.037 7.682 164.225 7.016 165.413 7.016C166.565 7.016 167.267 7.826 167.267 9.248V14H168.905V9.14C168.905 6.764 167.771 5.414 165.665 5.414C164.747 5.414 163.523 5.846 163.037 6.854V5.594H161.399V14H163.037V9.464ZM178.184 14H179.822V1.022H178.184V6.854C177.626 5.9 176.456 5.414 175.214 5.414C172.91 5.414 170.984 7.106 170.984 9.788C170.984 12.452 172.928 14.18 175.232 14.18C176.402 14.18 177.626 13.64 178.184 12.704V14ZM178.166 9.77C178.166 11.552 176.87 12.578 175.376 12.578C173.864 12.578 172.658 11.426 172.658 9.77C172.658 8.114 173.864 7.016 175.376 7.016C176.744 7.016 178.166 7.97 178.166 9.77ZM189.223 14H190.843V5.594H189.223V6.854C188.647 5.9 187.441 5.414 186.271 5.414C183.967 5.414 182.005 7.106 182.005 9.788C182.005 12.452 183.967 14.18 186.271 14.18C187.441 14.18 188.665 13.64 189.223 12.704V14ZM189.205 9.77C189.205 11.552 187.909 12.578 186.415 12.578C184.903 12.578 183.679 11.426 183.679 9.77C183.679 8.114 184.903 7.016 186.415 7.016C187.783 7.016 189.205 7.97 189.205 9.77ZM194.665 9.14C194.863 7.718 195.943 6.89 197.329 6.89C198.697 6.89 199.687 7.718 199.885 9.14H194.665ZM201.505 9.77C201.505 7.106 199.723 5.414 197.329 5.414C194.935 5.414 193.027 7.106 193.027 9.77C193.027 12.434 194.935 14.18 197.329 14.18C198.967 14.18 200.479 13.442 201.199 11.948C200.749 11.75 200.227 11.606 199.795 11.408C199.309 12.254 198.391 12.704 197.383 12.704C195.943 12.704 194.863 11.84 194.665 10.418H201.487C201.505 10.22 201.505 9.968 201.505 9.77ZM203.443 13.064C203.443 13.712 203.983 14.18 204.613 14.18C205.261 14.18 205.801 13.712 205.801 13.064C205.801 12.416 205.261 11.93 204.613 11.93C203.983 11.93 203.443 12.416 203.443 13.064ZM208.224 13.064C208.224 13.712 208.764 14.18 209.394 14.18C210.042 14.18 210.582 13.712 210.582 13.064C210.582 12.416 210.042 11.93 209.394 11.93C208.764 11.93 208.224 12.416 208.224 13.064ZM213.005 13.064C213.005 13.712 213.545 14.18 214.175 14.18C214.823 14.18 215.363 13.712 215.363 13.064C215.363 12.416 214.823 11.93 214.175 11.93C213.545 11.93 213.005 12.416 213.005 13.064Z" fill="#666666"/>
</svg>
