<svg width="225" height="18" viewBox="0 0 225 18" fill="none" xmlns="http://www.w3.org/2000/svg">
<path d="M1.63802 11.682C2.19602 12.618 3.40202 13.158 4.57202 13.158C6.87602 13.158 8.83802 11.43 8.83802 8.766C8.83802 6.084 6.91202 4.392 4.59002 4.392C3.36602 4.392 2.19602 4.878 1.63802 5.832V-3.45707e-06H1.91331e-05V12.978H1.63802V11.682ZM1.65602 8.748C1.65602 6.948 3.07802 5.994 4.44602 5.994C5.95802 5.994 7.16402 7.092 7.16402 8.748C7.16402 10.404 5.95802 11.556 4.44602 11.556C2.95202 11.556 1.65602 10.53 1.65602 8.748ZM17.6815 12.978H19.3015V4.572H17.6815V5.832C17.1055 4.878 15.8995 4.392 14.7295 4.392C12.4255 4.392 10.4635 6.084 10.4635 8.766C10.4635 11.43 12.4255 13.158 14.7295 13.158C15.8995 13.158 17.1235 12.618 17.6815 11.682V12.978ZM17.6635 8.748C17.6635 10.53 16.3675 11.556 14.8735 11.556C13.3615 11.556 12.1375 10.404 12.1375 8.748C12.1375 7.092 13.3615 5.994 14.8735 5.994C16.2415 5.994 17.6635 6.948 17.6635 8.748ZM23.663 8.874L27.497 12.978H29.657L25.193 8.208L28.793 4.572H26.561L23.663 7.506V-3.45707e-06H22.043V12.978H23.663V8.874ZM31.6308 8.118C31.8288 6.696 32.9088 5.868 34.2948 5.868C35.6628 5.868 36.6528 6.696 36.8508 8.118H31.6308ZM38.4708 8.748C38.4708 6.084 36.6888 4.392 34.2948 4.392C31.9008 4.392 29.9928 6.084 29.9928 8.748C29.9928 11.412 31.9008 13.158 34.2948 13.158C35.9328 13.158 37.4448 12.42 38.1648 10.926C37.7148 10.728 37.1928 10.584 36.7608 10.386C36.2748 11.232 35.3568 11.682 34.3488 11.682C32.9088 11.682 31.8288 10.818 31.6308 9.396H38.4528C38.4708 9.198 38.4708 8.946 38.4708 8.748ZM42.1908 9.918C42.1908 7.686 42.8748 5.958 44.4948 5.958C44.8368 5.958 45.2868 6.03 45.7368 6.246L45.9888 4.716C45.7548 4.554 45.1248 4.392 44.5308 4.392C43.4328 4.392 42.6228 4.968 42.1908 6.462V4.572H40.5528V12.978H42.1908V9.918ZM49.9223 17.064L55.1423 4.572H53.3963L50.8763 10.656L48.3563 4.572H46.6103L49.9763 12.726L48.2123 17.064H49.9223ZM62.6693 11.682C63.2273 12.618 64.4333 13.158 65.6033 13.158C67.9073 13.158 69.8693 11.43 69.8693 8.766C69.8693 6.084 67.9433 4.392 65.6213 4.392C64.3973 4.392 63.2273 4.878 62.6693 5.832V-3.45707e-06H61.0313V12.978H62.6693V11.682ZM62.6873 8.748C62.6873 6.948 64.1093 5.994 65.4773 5.994C66.9893 5.994 68.1953 7.092 68.1953 8.748C68.1953 10.404 66.9893 11.556 65.4773 11.556C63.9833 11.556 62.6873 10.53 62.6873 8.748ZM73.6908 9.918C73.6908 7.686 74.3748 5.958 75.9948 5.958C76.3368 5.958 76.7868 6.03 77.2368 6.246L77.4888 4.716C77.2548 4.554 76.6248 4.392 76.0308 4.392C74.9328 4.392 74.1228 4.968 73.6908 6.462V4.572H72.0528V12.978H73.6908V9.918ZM80.0234 8.118C80.2214 6.696 81.3014 5.868 82.6874 5.868C84.0554 5.868 85.0454 6.696 85.2434 8.118H80.0234ZM86.8634 8.748C86.8634 6.084 85.0814 4.392 82.6874 4.392C80.2934 4.392 78.3854 6.084 78.3854 8.748C78.3854 11.412 80.2934 13.158 82.6874 13.158C84.3254 13.158 85.8374 12.42 86.5574 10.926C86.1074 10.728 85.5854 10.584 85.1534 10.386C84.6674 11.232 83.7494 11.682 82.7414 11.682C81.3014 11.682 80.2214 10.818 80.0234 9.396H86.8454C86.8634 9.198 86.8634 8.946 86.8634 8.748ZM95.6053 12.978H97.2253V4.572H95.6053V5.832C95.0293 4.878 93.8233 4.392 92.6533 4.392C90.3493 4.392 88.3873 6.084 88.3873 8.766C88.3873 11.43 90.3493 13.158 92.6533 13.158C93.8233 13.158 95.0473 12.618 95.6053 11.682V12.978ZM95.5873 8.748C95.5873 10.53 94.2913 11.556 92.7973 11.556C91.2853 11.556 90.0613 10.404 90.0613 8.748C90.0613 7.092 91.2853 5.994 92.7973 5.994C94.1653 5.994 95.5873 6.948 95.5873 8.748ZM106.609 12.978H108.247V-3.45707e-06H106.609V5.832C106.051 4.878 104.881 4.392 103.639 4.392C101.335 4.392 99.4088 6.084 99.4088 8.766C99.4088 11.43 101.353 13.158 103.657 13.158C104.827 13.158 106.051 12.618 106.609 11.682V12.978ZM106.591 8.748C106.591 10.53 105.295 11.556 103.801 11.556C102.289 11.556 101.083 10.404 101.083 8.748C101.083 7.092 102.289 5.994 103.801 5.994C105.169 5.994 106.591 6.948 106.591 8.748ZM114.145 4.572L117.637 12.978H119.221H119.203L122.713 4.572H120.967L118.429 10.89L115.873 4.572H114.145ZM126.003 4.572H124.383V12.978H126.003V4.572ZM124.059 1.476C124.059 2.106 124.563 2.538 125.193 2.538C125.823 2.538 126.327 2.106 126.327 1.476C126.327 0.845996 125.823 0.413997 125.193 0.413997C124.563 0.413997 124.059 0.845996 124.059 1.476ZM129.822 8.118C130.02 6.696 131.1 5.868 132.486 5.868C133.854 5.868 134.844 6.696 135.042 8.118H129.822ZM136.662 8.748C136.662 6.084 134.88 4.392 132.486 4.392C130.092 4.392 128.184 6.084 128.184 8.748C128.184 11.412 130.092 13.158 132.486 13.158C134.124 13.158 135.636 12.42 136.356 10.926C135.906 10.728 135.384 10.584 134.952 10.386C134.466 11.232 133.548 11.682 132.54 11.682C131.1 11.682 130.02 10.818 129.822 9.396H136.644C136.662 9.198 136.662 8.946 136.662 8.748ZM140.382 8.442C140.382 6.66 141.57 5.994 142.758 5.994C143.91 5.994 144.612 6.804 144.612 8.226V12.978H146.25V8.118C146.25 5.742 145.116 4.392 143.01 4.392C142.092 4.392 140.868 4.824 140.382 5.832V4.572H138.744V12.978H140.382V8.442ZM150.525 8.442C150.525 6.66 151.713 5.994 152.901 5.994C154.053 5.994 154.755 6.804 154.755 8.226V12.978H156.393V8.118C156.393 5.742 155.259 4.392 153.153 4.392C152.235 4.392 151.011 4.824 150.525 5.832V4.572H148.887V12.978H150.525V8.442ZM162.863 13.158C165.257 13.158 167.273 11.412 167.273 8.748C167.273 6.084 165.257 4.392 162.863 4.392C160.469 4.392 158.471 6.084 158.471 8.748C158.471 11.412 160.469 13.158 162.863 13.158ZM162.863 11.574C161.333 11.574 160.091 10.476 160.091 8.748C160.091 7.056 161.333 5.994 162.863 5.994C164.357 5.994 165.635 7.056 165.635 8.748C165.635 10.476 164.357 11.574 162.863 11.574ZM171.073 4.572H169.453V12.978H171.073V4.572ZM169.129 1.476C169.129 2.106 169.633 2.538 170.263 2.538C170.893 2.538 171.397 2.106 171.397 1.476C171.397 0.845996 170.893 0.413997 170.263 0.413997C169.633 0.413997 169.129 0.845996 169.129 1.476ZM176.873 9.54C177.503 9.684 178.007 9.972 177.989 10.602C177.971 11.232 177.485 11.646 176.711 11.7C176.189 11.736 175.757 11.646 175.379 11.412C174.965 11.214 174.749 10.818 174.695 10.458H173.201C173.255 12.186 174.821 13.158 176.333 13.158C178.079 13.158 179.591 12.222 179.591 10.638C179.591 9.684 179.141 8.622 177.413 8.19L176.171 7.884C175.739 7.758 175.343 7.578 175.181 7.236C175.091 7.056 175.091 6.84 175.163 6.57C175.289 6.12 175.793 5.814 176.423 5.814C177.071 5.814 177.647 6.138 177.737 6.768H179.303C179.159 5.058 177.809 4.392 176.387 4.392C174.875 4.392 173.615 5.31 173.471 6.534C173.327 8.1 174.191 8.856 175.721 9.27L176.873 9.54ZM182.803 8.118C183.001 6.696 184.081 5.868 185.467 5.868C186.835 5.868 187.825 6.696 188.023 8.118H182.803ZM189.643 8.748C189.643 6.084 187.861 4.392 185.467 4.392C183.073 4.392 181.165 6.084 181.165 8.748C181.165 11.412 183.073 13.158 185.467 13.158C187.105 13.158 188.617 12.42 189.337 10.926C188.887 10.728 188.365 10.584 187.933 10.386C187.447 11.232 186.529 11.682 185.521 11.682C184.081 11.682 183.001 10.818 182.803 9.396H189.625C189.643 9.198 189.643 8.946 189.643 8.748ZM193.363 9.918C193.363 7.686 194.047 5.958 195.667 5.958C196.009 5.958 196.459 6.03 196.909 6.246L197.161 4.716C196.927 4.554 196.297 4.392 195.703 4.392C194.605 4.392 193.795 4.968 193.363 6.462V4.572H191.725V12.978H193.363V9.918ZM200.446 4.572H198.826V12.978H200.446V4.572ZM198.502 1.476C198.502 2.106 199.006 2.538 199.636 2.538C200.266 2.538 200.77 2.106 200.77 1.476C200.77 0.845996 200.266 0.413997 199.636 0.413997C199.006 0.413997 198.502 0.845996 198.502 1.476ZM204.266 8.118C204.464 6.696 205.544 5.868 206.93 5.868C208.298 5.868 209.288 6.696 209.486 8.118H204.266ZM211.106 8.748C211.106 6.084 209.324 4.392 206.93 4.392C204.536 4.392 202.628 6.084 202.628 8.748C202.628 11.412 204.536 13.158 206.93 13.158C208.568 13.158 210.08 12.42 210.8 10.926C210.35 10.728 209.828 10.584 209.396 10.386C208.91 11.232 207.992 11.682 206.984 11.682C205.544 11.682 204.464 10.818 204.266 9.396H211.088C211.106 9.198 211.106 8.946 211.106 8.748ZM213.044 12.042C213.044 12.69 213.584 13.158 214.214 13.158C214.862 13.158 215.402 12.69 215.402 12.042C215.402 11.394 214.862 10.908 214.214 10.908C213.584 10.908 213.044 11.394 213.044 12.042ZM217.825 12.042C217.825 12.69 218.365 13.158 218.995 13.158C219.643 13.158 220.183 12.69 220.183 12.042C220.183 11.394 219.643 10.908 218.995 10.908C218.365 10.908 217.825 11.394 217.825 12.042ZM222.606 12.042C222.606 12.69 223.146 13.158 223.776 13.158C224.424 13.158 224.964 12.69 224.964 12.042C224.964 11.394 224.424 10.908 223.776 10.908C223.146 10.908 222.606 11.394 222.606 12.042Z" fill="#666666"/>
</svg>
