<svg width="570" height="53" viewBox="0 0 570 53" fill="none" xmlns="http://www.w3.org/2000/svg">
<path d="M1.504 5.976V17H7.488V15.608H2.992V5.976H1.504ZM12.3896 17.16C14.5176 17.16 16.3096 15.608 16.3096 13.24C16.3096 10.872 14.5176 9.368 12.3896 9.368C10.2616 9.368 8.48563 10.872 8.48563 13.24C8.48563 15.608 10.2616 17.16 12.3896 17.16ZM12.3896 15.752C11.0296 15.752 9.92563 14.776 9.92563 13.24C9.92563 11.736 11.0296 10.792 12.3896 10.792C13.7176 10.792 14.8536 11.736 14.8536 13.24C14.8536 14.776 13.7176 15.752 12.3896 15.752ZM19.7033 14.28C19.7033 12.296 20.3113 10.76 21.7513 10.76C22.0553 10.76 22.4553 10.824 22.8553 11.016L23.0793 9.656C22.8713 9.512 22.3113 9.368 21.7833 9.368C20.8073 9.368 20.0873 9.88 19.7033 11.208V9.528H18.2473V17H19.7033V14.28ZM25.3323 12.68C25.5082 11.416 26.4683 10.68 27.7003 10.68C28.9163 10.68 29.7963 11.416 29.9723 12.68H25.3323ZM31.4123 13.24C31.4123 10.872 29.8283 9.368 27.7003 9.368C25.5723 9.368 23.8763 10.872 23.8763 13.24C23.8763 15.608 25.5723 17.16 27.7003 17.16C29.1563 17.16 30.5003 16.504 31.1403 15.176C30.7403 15 30.2763 14.872 29.8923 14.696C29.4603 15.448 28.6443 15.848 27.7483 15.848C26.4683 15.848 25.5082 15.08 25.3323 13.816H31.3963C31.4123 13.64 31.4123 13.416 31.4123 13.24ZM41.8549 10.792C42.9429 10.792 43.5669 11.544 43.5669 12.776V17H45.0229V12.68C45.0229 10.568 44.0149 9.368 42.1429 9.368C41.4229 9.368 40.2389 9.576 39.5509 10.904C39.1989 10.088 38.5429 9.592 37.5989 9.448C37.3429 9.4 37.0709 9.384 36.7829 9.4C36.1749 9.448 35.1029 9.816 34.7189 10.648V9.528H33.2629V17H34.7189V12.968C34.7189 11.4 35.7589 10.792 36.7989 10.792C37.7749 10.792 38.4149 11.528 38.4149 12.76V17H39.8709V12.968C39.8709 11.72 40.6229 10.792 41.8549 10.792ZM51.8009 5.976V17H53.2889V5.976H51.8009ZM57.4689 9.528H56.0129V20.632H57.4689V15.88C57.9809 16.728 59.0209 17.16 60.0769 17.16C62.1249 17.16 63.8209 15.656 63.8209 13.288C63.8209 10.92 62.1249 9.368 60.0769 9.368C59.0209 9.368 57.9809 9.848 57.4689 10.696V9.528ZM57.4849 13.304C57.4849 11.72 58.6209 10.792 59.9329 10.792C61.2769 10.792 62.3489 11.816 62.3489 13.304C62.3489 14.792 61.2769 15.736 59.9329 15.736C58.7329 15.736 57.4849 14.904 57.4849 13.304ZM68.4829 13.944C69.0429 14.072 69.4909 14.328 69.4749 14.888C69.4589 15.448 69.0269 15.816 68.3389 15.864C67.8749 15.896 67.4909 15.816 67.1549 15.608C66.7869 15.432 66.5949 15.08 66.5469 14.76H65.2189C65.2669 16.296 66.6589 17.16 68.0029 17.16C69.5549 17.16 70.8989 16.328 70.8989 14.92C70.8989 14.072 70.4989 13.128 68.9629 12.744L67.8589 12.472C67.4749 12.36 67.1229 12.2 66.9789 11.896C66.8989 11.736 66.8989 11.544 66.9629 11.304C67.0749 10.904 67.5229 10.632 68.0829 10.632C68.6589 10.632 69.1709 10.92 69.2509 11.48H70.6429C70.5149 9.96 69.3149 9.368 68.0509 9.368C66.7069 9.368 65.5869 10.184 65.4589 11.272C65.3309 12.664 66.0989 13.336 67.4589 13.704L68.4829 13.944ZM77.8981 13.56C77.8981 15.16 76.8421 15.736 75.7861 15.736C74.7621 15.736 74.1541 15.016 74.1541 13.752V9.528H72.6981V13.848C72.6821 15.96 73.7061 17.16 75.5781 17.16C76.3941 17.16 77.4341 16.776 77.8981 15.88V17H79.3541V9.528H77.8981V13.56ZM90.3705 10.792C91.4585 10.792 92.0825 11.544 92.0825 12.776V17H93.5385V12.68C93.5385 10.568 92.5305 9.368 90.6585 9.368C89.9385 9.368 88.7545 9.576 88.0665 10.904C87.7145 10.088 87.0585 9.592 86.1145 9.448C85.8585 9.4 85.5865 9.384 85.2985 9.4C84.6905 9.448 83.6185 9.816 83.2345 10.648V9.528H81.7785V17H83.2345V12.968C83.2345 11.4 84.2745 10.792 85.3145 10.792C86.2905 10.792 86.9305 11.528 86.9305 12.76V17H88.3865V12.968C88.3865 11.72 89.1385 10.792 90.3705 10.792ZM101.469 9.528H100.029V17H101.469V9.528ZM99.7405 6.776C99.7405 7.336 100.189 7.72 100.749 7.72C101.309 7.72 101.757 7.336 101.757 6.776C101.757 6.216 101.309 5.832 100.749 5.832C100.189 5.832 99.7405 6.216 99.7405 6.776ZM106.624 13.944C107.184 14.072 107.632 14.328 107.616 14.888C107.6 15.448 107.168 15.816 106.48 15.864C106.016 15.896 105.632 15.816 105.296 15.608C104.928 15.432 104.736 15.08 104.688 14.76H103.36C103.408 16.296 104.799 17.16 106.144 17.16C107.696 17.16 109.04 16.328 109.04 14.92C109.04 14.072 108.64 13.128 107.104 12.744L106 12.472C105.616 12.36 105.264 12.2 105.12 11.896C105.039 11.736 105.039 11.544 105.104 11.304C105.216 10.904 105.664 10.632 106.224 10.632C106.799 10.632 107.312 10.92 107.391 11.48H108.784C108.656 9.96 107.456 9.368 106.192 9.368C104.848 9.368 103.728 10.184 103.6 11.272C103.472 12.664 104.24 13.336 105.6 13.704L106.624 13.944ZM117.811 13.944C118.371 14.072 118.819 14.328 118.803 14.888C118.787 15.448 118.355 15.816 117.667 15.864C117.203 15.896 116.819 15.816 116.483 15.608C116.115 15.432 115.923 15.08 115.875 14.76H114.547C114.595 16.296 115.987 17.16 117.331 17.16C118.883 17.16 120.227 16.328 120.227 14.92C120.227 14.072 119.827 13.128 118.291 12.744L117.187 12.472C116.803 12.36 116.451 12.2 116.307 11.896C116.227 11.736 116.227 11.544 116.291 11.304C116.403 10.904 116.851 10.632 117.411 10.632C117.987 10.632 118.499 10.92 118.579 11.48H119.971C119.843 9.96 118.643 9.368 117.379 9.368C116.035 9.368 114.915 10.184 114.787 11.272C114.659 12.664 115.427 13.336 116.787 13.704L117.811 13.944ZM123.562 9.528H122.122V17H123.562V9.528ZM121.834 6.776C121.834 7.336 122.282 7.72 122.842 7.72C123.402 7.72 123.85 7.336 123.85 6.776C123.85 6.216 123.402 5.832 122.842 5.832C122.282 5.832 121.834 6.216 121.834 6.776ZM134.589 10.792C135.677 10.792 136.301 11.544 136.301 12.776V17H137.757V12.68C137.757 10.568 136.749 9.368 134.877 9.368C134.157 9.368 132.973 9.576 132.285 10.904C131.933 10.088 131.277 9.592 130.333 9.448C130.077 9.4 129.805 9.384 129.517 9.4C128.909 9.448 127.837 9.816 127.453 10.648V9.528H125.997V17H127.453V12.968C127.453 11.4 128.493 10.792 129.533 10.792C130.509 10.792 131.149 11.528 131.149 12.76V17H132.605V12.968C132.605 11.72 133.357 10.792 134.589 10.792ZM141.547 9.528H140.091V20.632H141.547V15.88C142.059 16.728 143.099 17.16 144.155 17.16C146.203 17.16 147.899 15.656 147.899 13.288C147.899 10.92 146.203 9.368 144.155 9.368C143.099 9.368 142.059 9.848 141.547 10.696V9.528ZM141.563 13.304C141.563 11.72 142.699 10.792 144.011 10.792C145.355 10.792 146.427 11.816 146.427 13.304C146.427 14.792 145.355 15.736 144.011 15.736C142.811 15.736 141.563 14.904 141.563 13.304ZM149.841 5.464V17H151.297V5.464H149.841ZM155.748 20.632L160.388 9.528H158.836L156.596 14.936L154.356 9.528H152.804L155.796 16.776L154.228 20.632H155.748ZM171.526 17H172.982V5.464H171.526V10.648C171.03 9.8 169.99 9.368 168.886 9.368C166.838 9.368 165.126 10.872 165.126 13.256C165.126 15.624 166.854 17.16 168.902 17.16C169.942 17.16 171.03 16.68 171.526 15.848V17ZM171.51 13.24C171.51 14.824 170.358 15.736 169.03 15.736C167.686 15.736 166.614 14.712 166.614 13.24C166.614 11.768 167.686 10.792 169.03 10.792C170.246 10.792 171.51 11.64 171.51 13.24ZM180.523 13.56C180.523 15.16 179.467 15.736 178.411 15.736C177.387 15.736 176.779 15.016 176.779 13.752V9.528H175.323V13.848C175.307 15.96 176.331 17.16 178.203 17.16C179.019 17.16 180.059 16.776 180.523 15.88V17H181.979V9.528H180.523V13.56ZM192.996 10.792C194.084 10.792 194.708 11.544 194.708 12.776V17H196.164V12.68C196.164 10.568 195.156 9.368 193.284 9.368C192.564 9.368 191.38 9.576 190.692 10.904C190.34 10.088 189.684 9.592 188.74 9.448C188.484 9.4 188.212 9.384 187.924 9.4C187.316 9.448 186.244 9.816 185.86 10.648V9.528H184.404V17H185.86V12.968C185.86 11.4 186.9 10.792 187.94 10.792C188.916 10.792 189.556 11.528 189.556 12.76V17H191.012V12.968C191.012 11.72 191.764 10.792 192.996 10.792ZM207.089 10.792C208.177 10.792 208.801 11.544 208.801 12.776V17H210.257V12.68C210.257 10.568 209.249 9.368 207.377 9.368C206.657 9.368 205.473 9.576 204.785 10.904C204.433 10.088 203.777 9.592 202.833 9.448C202.577 9.4 202.305 9.384 202.017 9.4C201.409 9.448 200.337 9.816 199.953 10.648V9.528H198.497V17H199.953V12.968C199.953 11.4 200.993 10.792 202.033 10.792C203.009 10.792 203.649 11.528 203.649 12.76V17H205.105V12.968C205.105 11.72 205.857 10.792 207.089 10.792ZM214.482 20.632L219.122 9.528H217.57L215.33 14.936L213.09 9.528H211.538L214.53 16.776L212.962 20.632H214.482ZM226.373 9.528V6.712H224.917V9.528H223.573V10.76H224.917V17H226.373V10.76H227.957V9.528H226.373ZM230.457 12.68C230.633 11.416 231.593 10.68 232.825 10.68C234.041 10.68 234.921 11.416 235.097 12.68H230.457ZM236.537 13.24C236.537 10.872 234.953 9.368 232.825 9.368C230.697 9.368 229.001 10.872 229.001 13.24C229.001 15.608 230.697 17.16 232.825 17.16C234.281 17.16 235.625 16.504 236.265 15.176C235.865 15 235.401 14.872 235.017 14.696C234.585 15.448 233.769 15.848 232.873 15.848C231.593 15.848 230.633 15.08 230.457 13.816H236.521C236.537 13.64 236.537 13.416 236.537 13.24ZM237.736 9.528L240.168 12.904L237.208 17H238.92L241.016 14.104L243.096 17H244.824L241.864 12.904L244.312 9.528H242.568L241.016 11.72L239.48 9.528H237.736ZM248.248 9.528V6.712H246.792V9.528H245.448V10.76H246.792V17H248.248V10.76H249.832V9.528H248.248ZM258.749 17.16C260.877 17.16 262.669 15.608 262.669 13.24C262.669 10.872 260.877 9.368 258.749 9.368C256.621 9.368 254.845 10.872 254.845 13.24C254.845 15.608 256.621 17.16 258.749 17.16ZM258.749 15.752C257.389 15.752 256.285 14.776 256.285 13.24C256.285 11.736 257.389 10.792 258.749 10.792C260.077 10.792 261.213 11.736 261.213 13.24C261.213 14.776 260.077 15.752 258.749 15.752ZM268.943 5.464H268.127C266.111 5.464 265.263 6.808 265.263 8.776V9.528H263.823V10.76H265.263V17H266.735V10.76H268.463V9.528H266.735V8.776C266.735 7.816 266.911 6.856 268.127 6.856H268.943V5.464ZM275.92 9.528V6.712H274.464V9.528H273.12V10.76H274.464V17H275.92V10.76H277.504V9.528H275.92ZM280.61 12.968C280.61 11.368 281.858 10.792 282.882 10.792C283.906 10.792 284.642 11.544 284.642 12.776V17H286.098V12.68C286.114 10.568 284.946 9.368 283.074 9.368C282.274 9.368 281.042 9.752 280.61 10.648V5.464H279.154V17H280.61V12.968ZM289.395 12.68C289.571 11.416 290.531 10.68 291.763 10.68C292.979 10.68 293.859 11.416 294.035 12.68H289.395ZM295.475 13.24C295.475 10.872 293.891 9.368 291.763 9.368C289.635 9.368 287.939 10.872 287.939 13.24C287.939 15.608 289.635 17.16 291.763 17.16C293.219 17.16 294.563 16.504 295.203 15.176C294.803 15 294.339 14.872 293.955 14.696C293.523 15.448 292.707 15.848 291.811 15.848C290.531 15.848 289.571 15.08 289.395 13.816H295.459C295.475 13.64 295.475 13.416 295.475 13.24ZM302.938 9.528H301.482V20.632H302.938V15.88C303.45 16.728 304.49 17.16 305.546 17.16C307.594 17.16 309.29 15.656 309.29 13.288C309.29 10.92 307.594 9.368 305.546 9.368C304.49 9.368 303.45 9.848 302.938 10.696V9.528ZM302.954 13.304C302.954 11.72 304.09 10.792 305.402 10.792C306.746 10.792 307.818 11.816 307.818 13.304C307.818 14.792 306.746 15.736 305.402 15.736C304.202 15.736 302.954 14.904 302.954 13.304ZM312.688 14.28C312.688 12.296 313.296 10.76 314.736 10.76C315.04 10.76 315.44 10.824 315.84 11.016L316.064 9.656C315.856 9.512 315.296 9.368 314.768 9.368C313.792 9.368 313.072 9.88 312.688 11.208V9.528H311.232V17H312.688V14.28ZM318.984 9.528H317.544V17H318.984V9.528ZM317.256 6.776C317.256 7.336 317.704 7.72 318.264 7.72C318.824 7.72 319.272 7.336 319.272 6.776C319.272 6.216 318.824 5.832 318.264 5.832C317.704 5.832 317.256 6.216 317.256 6.776ZM322.875 12.968C322.875 11.384 323.931 10.792 324.987 10.792C326.011 10.792 326.635 11.512 326.635 12.776V17H328.091V12.68C328.091 10.568 327.083 9.368 325.211 9.368C324.395 9.368 323.307 9.752 322.875 10.648V9.528H321.419V17H322.875V12.968ZM332.451 9.528V6.712H330.995V9.528H329.651V10.76H330.995V17H332.451V10.76H334.035V9.528H332.451ZM337.125 9.528H335.685V17H337.125V9.528ZM335.397 6.776C335.397 7.336 335.845 7.72 336.405 7.72C336.965 7.72 337.413 7.336 337.413 6.776C337.413 6.216 336.965 5.832 336.405 5.832C335.845 5.832 335.397 6.216 335.397 6.776ZM341.016 12.968C341.016 11.384 342.072 10.792 343.128 10.792C344.152 10.792 344.776 11.512 344.776 12.776V17H346.232V12.68C346.232 10.568 345.224 9.368 343.352 9.368C342.536 9.368 341.448 9.752 341.016 10.648V9.528H339.56V17H341.016V12.968ZM349.695 18.072C349.503 18.152 348.655 18.616 348.479 18.712C349.199 20.04 350.463 20.728 351.855 20.728C354.335 20.728 355.935 19.384 355.935 15.864V9.528H354.495V10.696C353.983 9.848 352.911 9.368 351.871 9.368C349.823 9.368 348.079 10.92 348.079 13.288C348.079 15.656 349.823 17.16 351.871 17.16C352.927 17.16 354.031 16.68 354.495 15.784C354.495 15.848 354.511 15.896 354.511 15.96C354.511 18.44 353.471 19.352 351.855 19.352C351.023 19.352 350.143 18.904 349.695 18.072ZM354.479 13.272C354.479 14.872 353.215 15.736 351.999 15.736C350.655 15.736 349.567 14.808 349.567 13.272C349.567 11.816 350.655 10.792 351.999 10.792C353.327 10.792 354.479 11.672 354.479 13.272ZM368.433 17H369.873V9.528H368.433V10.648C367.921 9.8 366.849 9.368 365.809 9.368C363.761 9.368 362.017 10.872 362.017 13.256C362.017 15.624 363.761 17.16 365.809 17.16C366.849 17.16 367.937 16.68 368.433 15.848V17ZM368.417 13.24C368.417 14.824 367.265 15.736 365.937 15.736C364.593 15.736 363.505 14.712 363.505 13.24C363.505 11.768 364.593 10.792 365.937 10.792C367.153 10.792 368.417 11.64 368.417 13.24ZM373.766 12.968C373.766 11.384 374.822 10.792 375.878 10.792C376.902 10.792 377.526 11.512 377.526 12.776V17H378.982V12.68C378.982 10.568 377.974 9.368 376.102 9.368C375.286 9.368 374.198 9.752 373.766 10.648V9.528H372.31V17H373.766V12.968ZM387.229 17H388.685V5.464H387.229V10.648C386.733 9.8 385.693 9.368 384.589 9.368C382.541 9.368 380.829 10.872 380.829 13.256C380.829 15.624 382.557 17.16 384.605 17.16C385.645 17.16 386.733 16.68 387.229 15.848V17ZM387.213 13.24C387.213 14.824 386.061 15.736 384.733 15.736C383.389 15.736 382.317 14.712 382.317 13.24C382.317 11.768 383.389 10.792 384.733 10.792C385.949 10.792 387.213 11.64 387.213 13.24ZM397.295 9.528V6.712H395.839V9.528H394.495V10.76H395.839V17H397.295V10.76H398.879V9.528H397.295ZM402.545 20.632L407.185 9.528H405.633L403.393 14.936L401.153 9.528H399.601L402.593 16.776L401.025 20.632H402.545ZM410.125 9.528H408.669V20.632H410.125V15.88C410.637 16.728 411.677 17.16 412.733 17.16C414.781 17.16 416.477 15.656 416.477 13.288C416.477 10.92 414.781 9.368 412.733 9.368C411.677 9.368 410.637 9.848 410.125 10.696V9.528ZM410.141 13.304C410.141 11.72 411.277 10.792 412.589 10.792C413.933 10.792 415.005 11.816 415.005 13.304C415.005 14.792 413.933 15.736 412.589 15.736C411.389 15.736 410.141 14.904 410.141 13.304ZM419.379 12.68C419.555 11.416 420.515 10.68 421.747 10.68C422.963 10.68 423.843 11.416 424.019 12.68H419.379ZM425.459 13.24C425.459 10.872 423.875 9.368 421.747 9.368C419.619 9.368 417.923 10.872 417.923 13.24C417.923 15.608 419.619 17.16 421.747 17.16C423.203 17.16 424.547 16.504 425.187 15.176C424.787 15 424.323 14.872 423.939 14.696C423.507 15.448 422.691 15.848 421.795 15.848C420.515 15.848 419.555 15.08 419.379 13.816H425.443C425.459 13.64 425.459 13.416 425.459 13.24ZM430.03 13.944C430.59 14.072 431.038 14.328 431.022 14.888C431.006 15.448 430.574 15.816 429.886 15.864C429.422 15.896 429.038 15.816 428.702 15.608C428.334 15.432 428.142 15.08 428.094 14.76H426.766C426.814 16.296 428.206 17.16 429.55 17.16C431.102 17.16 432.446 16.328 432.446 14.92C432.446 14.072 432.046 13.128 430.51 12.744L429.406 12.472C429.022 12.36 428.67 12.2 428.526 11.896C428.446 11.736 428.446 11.544 428.51 11.304C428.622 10.904 429.07 10.632 429.63 10.632C430.206 10.632 430.718 10.92 430.798 11.48H432.19C432.062 9.96 430.862 9.368 429.598 9.368C428.254 9.368 427.134 10.184 427.006 11.272C426.878 12.664 427.646 13.336 429.006 13.704L430.03 13.944ZM435.301 12.68C435.477 11.416 436.437 10.68 437.669 10.68C438.885 10.68 439.765 11.416 439.941 12.68H435.301ZM441.381 13.24C441.381 10.872 439.797 9.368 437.669 9.368C435.541 9.368 433.845 10.872 433.845 13.24C433.845 15.608 435.541 17.16 437.669 17.16C439.125 17.16 440.469 16.504 441.109 15.176C440.709 15 440.245 14.872 439.861 14.696C439.429 15.448 438.613 15.848 437.717 15.848C436.437 15.848 435.477 15.08 435.301 13.816H441.365C441.381 13.64 441.381 13.416 441.381 13.24ZM445.248 9.528V6.712H443.792V9.528H442.448V10.76H443.792V17H445.248V10.76H446.832V9.528H445.248ZM450.498 9.528V6.712H449.042V9.528H447.698V10.76H449.042V17H450.498V10.76H452.082V9.528H450.498ZM455.172 9.528H453.732V17H455.172V9.528ZM453.444 6.776C453.444 7.336 453.892 7.72 454.452 7.72C455.012 7.72 455.46 7.336 455.46 6.776C455.46 6.216 455.012 5.832 454.452 5.832C453.892 5.832 453.444 6.216 453.444 6.776ZM459.063 12.968C459.063 11.384 460.119 10.792 461.175 10.792C462.199 10.792 462.823 11.512 462.823 12.776V17H464.279V12.68C464.279 10.568 463.271 9.368 461.399 9.368C460.583 9.368 459.495 9.752 459.063 10.648V9.528H457.607V17H459.063V12.968ZM467.742 18.072C467.55 18.152 466.702 18.616 466.526 18.712C467.246 20.04 468.51 20.728 469.902 20.728C472.382 20.728 473.982 19.384 473.982 15.864V9.528H472.542V10.696C472.03 9.848 470.958 9.368 469.918 9.368C467.87 9.368 466.126 10.92 466.126 13.288C466.126 15.656 467.87 17.16 469.918 17.16C470.974 17.16 472.078 16.68 472.542 15.784C472.542 15.848 472.558 15.896 472.558 15.96C472.558 18.44 471.518 19.352 469.902 19.352C469.07 19.352 468.19 18.904 467.742 18.072ZM472.526 13.272C472.526 14.872 471.262 15.736 470.046 15.736C468.702 15.736 467.614 14.808 467.614 13.272C467.614 11.816 468.702 10.792 470.046 10.792C471.374 10.792 472.526 11.672 472.526 13.272ZM482 9.528H480.56V17H482V9.528ZM480.272 6.776C480.272 7.336 480.72 7.72 481.28 7.72C481.84 7.72 482.288 7.336 482.288 6.776C482.288 6.216 481.84 5.832 481.28 5.832C480.72 5.832 480.272 6.216 480.272 6.776ZM485.891 12.968C485.891 11.384 486.947 10.792 488.003 10.792C489.027 10.792 489.651 11.512 489.651 12.776V17H491.107V12.68C491.107 10.568 490.099 9.368 488.227 9.368C487.411 9.368 486.323 9.752 485.891 10.648V9.528H484.435V17H485.891V12.968ZM499.354 17H500.81V5.464H499.354V10.648C498.858 9.8 497.818 9.368 496.714 9.368C494.666 9.368 492.954 10.872 492.954 13.256C492.954 15.624 494.682 17.16 496.73 17.16C497.77 17.16 498.858 16.68 499.354 15.848V17ZM499.338 13.24C499.338 14.824 498.186 15.736 496.858 15.736C495.514 15.736 494.442 14.712 494.442 13.24C494.442 11.768 495.514 10.792 496.858 10.792C498.074 10.792 499.338 11.64 499.338 13.24ZM508.351 13.56C508.351 15.16 507.295 15.736 506.239 15.736C505.215 15.736 504.607 15.016 504.607 13.752V9.528H503.151V13.848C503.135 15.96 504.159 17.16 506.031 17.16C506.847 17.16 507.887 16.776 508.351 15.88V17H509.807V9.528H508.351V13.56ZM514.952 13.944C515.512 14.072 515.96 14.328 515.944 14.888C515.928 15.448 515.496 15.816 514.808 15.864C514.344 15.896 513.96 15.816 513.624 15.608C513.256 15.432 513.064 15.08 513.016 14.76H511.688C511.736 16.296 513.128 17.16 514.472 17.16C516.024 17.16 517.368 16.328 517.368 14.92C517.368 14.072 516.968 13.128 515.432 12.744L514.328 12.472C513.944 12.36 513.592 12.2 513.448 11.896C513.368 11.736 513.368 11.544 513.432 11.304C513.544 10.904 513.992 10.632 514.552 10.632C515.128 10.632 515.64 10.92 515.72 11.48H517.112C516.984 9.96 515.784 9.368 514.52 9.368C513.176 9.368 512.056 10.184 511.928 11.272C511.8 12.664 512.568 13.336 513.928 13.704L514.952 13.944ZM521.279 9.528V6.712H519.823V9.528H518.479V10.76H519.823V17H521.279V10.76H522.863V9.528H521.279ZM525.969 14.28C525.969 12.296 526.577 10.76 528.017 10.76C528.321 10.76 528.721 10.824 529.121 11.016L529.345 9.656C529.137 9.512 528.577 9.368 528.049 9.368C527.073 9.368 526.353 9.88 525.969 11.208V9.528H524.513V17H525.969V14.28ZM532.841 20.632L537.481 9.528H535.929L533.689 14.936L531.449 9.528H529.897L532.889 16.776L531.321 20.632H532.841ZM538.229 16.168C538.229 16.744 538.709 17.16 539.269 17.16C539.845 17.16 540.325 16.744 540.325 16.168C540.325 15.592 539.845 15.16 539.269 15.16C538.709 15.16 538.229 15.592 538.229 16.168ZM1.504 31.976V43H7.488V41.608H2.992V31.976H1.504ZM12.3896 43.16C14.5176 43.16 16.3096 41.608 16.3096 39.24C16.3096 36.872 14.5176 35.368 12.3896 35.368C10.2616 35.368 8.48563 36.872 8.48563 39.24C8.48563 41.608 10.2616 43.16 12.3896 43.16ZM12.3896 41.752C11.0296 41.752 9.92563 40.776 9.92563 39.24C9.92563 37.736 11.0296 36.792 12.3896 36.792C13.7176 36.792 14.8536 37.736 14.8536 39.24C14.8536 40.776 13.7176 41.752 12.3896 41.752ZM19.7033 40.28C19.7033 38.296 20.3113 36.76 21.7513 36.76C22.0553 36.76 22.4553 36.824 22.8553 37.016L23.0793 35.656C22.8713 35.512 22.3113 35.368 21.7833 35.368C20.8073 35.368 20.0873 35.88 19.7033 37.208V35.528H18.2473V43H19.7033V40.28ZM25.3323 38.68C25.5082 37.416 26.4683 36.68 27.7003 36.68C28.9163 36.68 29.7963 37.416 29.9723 38.68H25.3323ZM31.4123 39.24C31.4123 36.872 29.8283 35.368 27.7003 35.368C25.5723 35.368 23.8763 36.872 23.8763 39.24C23.8763 41.608 25.5723 43.16 27.7003 43.16C29.1563 43.16 30.5003 42.504 31.1403 41.176C30.7403 41 30.2763 40.872 29.8923 40.696C29.4603 41.448 28.6443 41.848 27.7483 41.848C26.4683 41.848 25.5082 41.08 25.3323 39.816H31.3963C31.4123 39.64 31.4123 39.416 31.4123 39.24ZM41.8549 36.792C42.9429 36.792 43.5669 37.544 43.5669 38.776V43H45.0229V38.68C45.0229 36.568 44.0149 35.368 42.1429 35.368C41.4229 35.368 40.2389 35.576 39.5509 36.904C39.1989 36.088 38.5429 35.592 37.5989 35.448C37.3429 35.4 37.0709 35.384 36.7829 35.4C36.1749 35.448 35.1029 35.816 34.7189 36.648V35.528H33.2629V43H34.7189V38.968C34.7189 37.4 35.7589 36.792 36.7989 36.792C37.7749 36.792 38.4149 37.528 38.4149 38.76V43H39.8709V38.968C39.8709 37.72 40.6229 36.792 41.8549 36.792ZM51.8009 31.976V43H53.2889V31.976H51.8009ZM57.4689 35.528H56.0129V46.632H57.4689V41.88C57.9809 42.728 59.0209 43.16 60.0769 43.16C62.1249 43.16 63.8209 41.656 63.8209 39.288C63.8209 36.92 62.1249 35.368 60.0769 35.368C59.0209 35.368 57.9809 35.848 57.4689 36.696V35.528ZM57.4849 39.304C57.4849 37.72 58.6209 36.792 59.9329 36.792C61.2769 36.792 62.3489 37.816 62.3489 39.304C62.3489 40.792 61.2769 41.736 59.9329 41.736C58.7329 41.736 57.4849 40.904 57.4849 39.304ZM68.4829 39.944C69.0429 40.072 69.4909 40.328 69.4749 40.888C69.4589 41.448 69.0269 41.816 68.3389 41.864C67.8749 41.896 67.4909 41.816 67.1549 41.608C66.7869 41.432 66.5949 41.08 66.5469 40.76H65.2189C65.2669 42.296 66.6589 43.16 68.0029 43.16C69.5549 43.16 70.8989 42.328 70.8989 40.92C70.8989 40.072 70.4989 39.128 68.9629 38.744L67.8589 38.472C67.4749 38.36 67.1229 38.2 66.9789 37.896C66.8989 37.736 66.8989 37.544 66.9629 37.304C67.0749 36.904 67.5229 36.632 68.0829 36.632C68.6589 36.632 69.1709 36.92 69.2509 37.48H70.6429C70.5149 35.96 69.3149 35.368 68.0509 35.368C66.7069 35.368 65.5869 36.184 65.4589 37.272C65.3309 38.664 66.0989 39.336 67.4589 39.704L68.4829 39.944ZM77.8981 39.56C77.8981 41.16 76.8421 41.736 75.7861 41.736C74.7621 41.736 74.1541 41.016 74.1541 39.752V35.528H72.6981V39.848C72.6821 41.96 73.7061 43.16 75.5781 43.16C76.3941 43.16 77.4341 42.776 77.8981 41.88V43H79.3541V35.528H77.8981V39.56ZM90.3705 36.792C91.4585 36.792 92.0825 37.544 92.0825 38.776V43H93.5385V38.68C93.5385 36.568 92.5305 35.368 90.6585 35.368C89.9385 35.368 88.7545 35.576 88.0665 36.904C87.7145 36.088 87.0585 35.592 86.1145 35.448C85.8585 35.4 85.5865 35.384 85.2985 35.4C84.6905 35.448 83.6185 35.816 83.2345 36.648V35.528H81.7785V43H83.2345V38.968C83.2345 37.4 84.2745 36.792 85.3145 36.792C86.2905 36.792 86.9305 37.528 86.9305 38.76V43H88.3865V38.968C88.3865 37.72 89.1385 36.792 90.3705 36.792ZM101.485 38.968C101.485 37.368 102.733 36.792 103.757 36.792C104.781 36.792 105.517 37.544 105.517 38.776V43H106.973V38.68C106.989 36.568 105.821 35.368 103.949 35.368C103.149 35.368 101.917 35.752 101.485 36.648V31.464H100.029V43H101.485V38.968ZM115.23 43H116.67V35.528H115.23V36.648C114.718 35.8 113.646 35.368 112.606 35.368C110.558 35.368 108.814 36.872 108.814 39.256C108.814 41.624 110.558 43.16 112.606 43.16C113.646 43.16 114.734 42.68 115.23 41.848V43ZM115.214 39.24C115.214 40.824 114.062 41.736 112.734 41.736C111.39 41.736 110.302 40.712 110.302 39.24C110.302 37.768 111.39 36.792 112.734 36.792C113.95 36.792 115.214 37.64 115.214 39.24ZM121.827 39.944C122.387 40.072 122.835 40.328 122.819 40.888C122.803 41.448 122.371 41.816 121.683 41.864C121.219 41.896 120.835 41.816 120.499 41.608C120.131 41.432 119.939 41.08 119.891 40.76H118.563C118.611 42.296 120.003 43.16 121.347 43.16C122.899 43.16 124.243 42.328 124.243 40.92C124.243 40.072 123.843 39.128 122.307 38.744L121.203 38.472C120.819 38.36 120.467 38.2 120.323 37.896C120.243 37.736 120.243 37.544 120.307 37.304C120.419 36.904 120.867 36.632 121.427 36.632C122.003 36.632 122.515 36.92 122.595 37.48H123.987C123.859 35.96 122.659 35.368 121.395 35.368C120.051 35.368 118.931 36.184 118.803 37.272C118.675 38.664 119.443 39.336 120.803 39.704L121.827 39.944ZM131.75 41.848C132.246 42.68 133.318 43.16 134.358 43.16C136.406 43.16 138.15 41.624 138.15 39.256C138.15 36.872 136.438 35.368 134.374 35.368C133.286 35.368 132.246 35.8 131.75 36.648V31.464H130.294V43H131.75V41.848ZM131.766 39.24C131.766 37.64 133.03 36.792 134.246 36.792C135.59 36.792 136.662 37.768 136.662 39.24C136.662 40.712 135.59 41.736 134.246 41.736C132.918 41.736 131.766 40.824 131.766 39.24ZM141.051 38.68C141.227 37.416 142.187 36.68 143.419 36.68C144.635 36.68 145.515 37.416 145.691 38.68H141.051ZM147.131 39.24C147.131 36.872 145.547 35.368 143.419 35.368C141.291 35.368 139.595 36.872 139.595 39.24C139.595 41.608 141.291 43.16 143.419 43.16C144.875 43.16 146.219 42.504 146.859 41.176C146.459 41 145.995 40.872 145.611 40.696C145.179 41.448 144.363 41.848 143.467 41.848C142.187 41.848 141.227 41.08 141.051 39.816H147.115C147.131 39.64 147.131 39.416 147.131 39.24ZM149.942 38.68C150.118 37.416 151.078 36.68 152.31 36.68C153.526 36.68 154.406 37.416 154.582 38.68H149.942ZM156.022 39.24C156.022 36.872 154.438 35.368 152.31 35.368C150.182 35.368 148.486 36.872 148.486 39.24C148.486 41.608 150.182 43.16 152.31 43.16C153.766 43.16 155.11 42.504 155.75 41.176C155.35 41 154.886 40.872 154.502 40.696C154.07 41.448 153.254 41.848 152.358 41.848C151.078 41.848 150.118 41.08 149.942 39.816H156.006C156.022 39.64 156.022 39.416 156.022 39.24ZM159.328 38.968C159.328 37.384 160.384 36.792 161.44 36.792C162.464 36.792 163.088 37.512 163.088 38.776V43H164.544V38.68C164.544 36.568 163.536 35.368 161.664 35.368C160.848 35.368 159.76 35.752 159.328 36.648V35.528H157.872V43H159.328V38.968ZM173.06 35.528V32.712H171.604V35.528H170.26V36.76H171.604V43H173.06V36.76H174.644V35.528H173.06ZM177.75 38.968C177.75 37.368 178.998 36.792 180.022 36.792C181.046 36.792 181.782 37.544 181.782 38.776V43H183.238V38.68C183.254 36.568 182.086 35.368 180.214 35.368C179.414 35.368 178.182 35.752 177.75 36.648V31.464H176.294V43H177.75V38.968ZM186.535 38.68C186.711 37.416 187.671 36.68 188.903 36.68C190.119 36.68 190.999 37.416 191.175 38.68H186.535ZM192.615 39.24C192.615 36.872 191.031 35.368 188.903 35.368C186.775 35.368 185.079 36.872 185.079 39.24C185.079 41.608 186.775 43.16 188.903 43.16C190.359 43.16 191.703 42.504 192.343 41.176C191.943 41 191.479 40.872 191.095 40.696C190.663 41.448 189.847 41.848 188.951 41.848C187.671 41.848 186.711 41.08 186.535 39.816H192.599C192.615 39.64 192.615 39.416 192.615 39.24ZM200.062 35.528H198.622V43H200.062V35.528ZM198.334 32.776C198.334 33.336 198.782 33.72 199.342 33.72C199.902 33.72 200.35 33.336 200.35 32.776C200.35 32.216 199.902 31.832 199.342 31.832C198.782 31.832 198.334 32.216 198.334 32.776ZM203.953 38.968C203.953 37.384 205.009 36.792 206.065 36.792C207.089 36.792 207.713 37.512 207.713 38.776V43H209.169V38.68C209.169 36.568 208.161 35.368 206.289 35.368C205.473 35.368 204.385 35.752 203.953 36.648V35.528H202.497V43H203.953V38.968ZM217.417 43H218.873V31.464H217.417V36.648C216.921 35.8 215.881 35.368 214.777 35.368C212.729 35.368 211.017 36.872 211.017 39.256C211.017 41.624 212.745 43.16 214.793 43.16C215.833 43.16 216.921 42.68 217.417 41.848V43ZM217.401 39.24C217.401 40.824 216.249 41.736 214.921 41.736C213.577 41.736 212.505 40.712 212.505 39.24C212.505 37.768 213.577 36.792 214.921 36.792C216.137 36.792 217.401 37.64 217.401 39.24ZM226.414 39.56C226.414 41.16 225.358 41.736 224.302 41.736C223.278 41.736 222.67 41.016 222.67 39.752V35.528H221.214V39.848C221.198 41.96 222.222 43.16 224.094 43.16C224.91 43.16 225.95 42.776 226.414 41.88V43H227.87V35.528H226.414V39.56ZM233.014 39.944C233.574 40.072 234.022 40.328 234.006 40.888C233.99 41.448 233.558 41.816 232.87 41.864C232.406 41.896 232.022 41.816 231.686 41.608C231.318 41.432 231.126 41.08 231.078 40.76H229.75C229.798 42.296 231.19 43.16 232.534 43.16C234.086 43.16 235.43 42.328 235.43 40.92C235.43 40.072 235.03 39.128 233.494 38.744L232.39 38.472C232.006 38.36 231.654 38.2 231.51 37.896C231.43 37.736 231.43 37.544 231.494 37.304C231.606 36.904 232.054 36.632 232.614 36.632C233.19 36.632 233.702 36.92 233.782 37.48H235.174C235.046 35.96 233.846 35.368 232.582 35.368C231.238 35.368 230.118 36.184 229.99 37.272C229.862 38.664 230.63 39.336 231.99 39.704L233.014 39.944ZM239.341 35.528V32.712H237.885V35.528H236.541V36.76H237.885V43H239.341V36.76H240.925V35.528H239.341ZM244.031 40.28C244.031 38.296 244.639 36.76 246.079 36.76C246.383 36.76 246.783 36.824 247.183 37.016L247.407 35.656C247.199 35.512 246.639 35.368 246.111 35.368C245.135 35.368 244.415 35.88 244.031 37.208V35.528H242.575V43H244.031V40.28ZM250.904 46.632L255.544 35.528H253.992L251.752 40.936L249.512 35.528H247.96L250.952 42.776L249.384 46.632H250.904ZM257.013 31.976V36.584H258.149V31.976H257.013ZM263.28 39.944C263.84 40.072 264.288 40.328 264.272 40.888C264.256 41.448 263.824 41.816 263.136 41.864C262.672 41.896 262.288 41.816 261.952 41.608C261.584 41.432 261.392 41.08 261.344 40.76H260.016C260.064 42.296 261.456 43.16 262.8 43.16C264.352 43.16 265.696 42.328 265.696 40.92C265.696 40.072 265.296 39.128 263.76 38.744L262.656 38.472C262.272 38.36 261.92 38.2 261.776 37.896C261.696 37.736 261.696 37.544 261.76 37.304C261.872 36.904 262.32 36.632 262.88 36.632C263.456 36.632 263.968 36.92 264.048 37.48H265.44C265.312 35.96 264.112 35.368 262.848 35.368C261.504 35.368 260.384 36.184 260.256 37.272C260.128 38.664 260.896 39.336 262.256 39.704L263.28 39.944ZM274.467 39.944C275.027 40.072 275.475 40.328 275.459 40.888C275.443 41.448 275.011 41.816 274.323 41.864C273.859 41.896 273.475 41.816 273.139 41.608C272.771 41.432 272.579 41.08 272.531 40.76H271.203C271.251 42.296 272.643 43.16 273.987 43.16C275.539 43.16 276.883 42.328 276.883 40.92C276.883 40.072 276.483 39.128 274.947 38.744L273.843 38.472C273.459 38.36 273.107 38.2 272.963 37.896C272.883 37.736 272.883 37.544 272.947 37.304C273.059 36.904 273.507 36.632 274.067 36.632C274.643 36.632 275.155 36.92 275.235 37.48H276.627C276.499 35.96 275.299 35.368 274.035 35.368C272.691 35.368 271.571 36.184 271.443 37.272C271.315 38.664 272.083 39.336 273.443 39.704L274.467 39.944ZM280.795 35.528V32.712H279.339V35.528H277.995V36.76H279.339V43H280.795V36.76H282.379V35.528H280.795ZM289.839 43H291.279V35.528H289.839V36.648C289.327 35.8 288.255 35.368 287.215 35.368C285.167 35.368 283.423 36.872 283.423 39.256C283.423 41.624 285.167 43.16 287.215 43.16C288.255 43.16 289.343 42.68 289.839 41.848V43ZM289.823 39.24C289.823 40.824 288.671 41.736 287.343 41.736C285.999 41.736 284.911 40.712 284.911 39.24C284.911 37.768 285.999 36.792 287.343 36.792C288.559 36.792 289.823 37.64 289.823 39.24ZM295.172 38.968C295.172 37.384 296.228 36.792 297.284 36.792C298.308 36.792 298.932 37.512 298.932 38.776V43H300.388V38.68C300.388 36.568 299.38 35.368 297.508 35.368C296.692 35.368 295.604 35.752 295.172 36.648V35.528H293.716V43H295.172V38.968ZM308.636 43H310.092V31.464H308.636V36.648C308.14 35.8 307.1 35.368 305.996 35.368C303.948 35.368 302.236 36.872 302.236 39.256C302.236 41.624 303.964 43.16 306.012 43.16C307.052 43.16 308.14 42.68 308.636 41.848V43ZM308.62 39.24C308.62 40.824 307.468 41.736 306.14 41.736C304.796 41.736 303.724 40.712 303.724 39.24C303.724 37.768 304.796 36.792 306.14 36.792C307.356 36.792 308.62 37.64 308.62 39.24ZM318.449 43H319.889V35.528H318.449V36.648C317.937 35.8 316.865 35.368 315.825 35.368C313.777 35.368 312.033 36.872 312.033 39.256C312.033 41.624 313.777 43.16 315.825 43.16C316.865 43.16 317.953 42.68 318.449 41.848V43ZM318.433 39.24C318.433 40.824 317.281 41.736 315.953 41.736C314.609 41.736 313.521 40.712 313.521 39.24C313.521 37.768 314.609 36.792 315.953 36.792C317.169 36.792 318.433 37.64 318.433 39.24ZM323.781 40.28C323.781 38.296 324.389 36.76 325.829 36.76C326.133 36.76 326.533 36.824 326.933 37.016L327.157 35.656C326.949 35.512 326.389 35.368 325.861 35.368C324.885 35.368 324.165 35.88 323.781 37.208V35.528H322.325V43H323.781V40.28ZM334.354 43H335.81V31.464H334.354V36.648C333.858 35.8 332.818 35.368 331.714 35.368C329.666 35.368 327.954 36.872 327.954 39.256C327.954 41.624 329.682 43.16 331.73 43.16C332.77 43.16 333.858 42.68 334.354 41.848V43ZM334.338 39.24C334.338 40.824 333.186 41.736 331.858 41.736C330.514 41.736 329.442 40.712 329.442 39.24C329.442 37.768 330.514 36.792 331.858 36.792C333.074 36.792 334.338 37.64 334.338 39.24ZM348.308 43H349.764V31.464H348.308V36.648C347.812 35.8 346.772 35.368 345.668 35.368C343.62 35.368 341.908 36.872 341.908 39.256C341.908 41.624 343.636 43.16 345.684 43.16C346.724 43.16 347.812 42.68 348.308 41.848V43ZM348.292 39.24C348.292 40.824 347.14 41.736 345.812 41.736C344.468 41.736 343.396 40.712 343.396 39.24C343.396 37.768 344.468 36.792 345.812 36.792C347.028 36.792 348.292 37.64 348.292 39.24ZM357.304 39.56C357.304 41.16 356.248 41.736 355.192 41.736C354.168 41.736 353.56 41.016 353.56 39.752V35.528H352.104V39.848C352.088 41.96 353.112 43.16 354.984 43.16C355.8 43.16 356.84 42.776 357.304 41.88V43H358.76V35.528H357.304V39.56ZM369.777 36.792C370.865 36.792 371.489 37.544 371.489 38.776V43H372.945V38.68C372.945 36.568 371.937 35.368 370.065 35.368C369.345 35.368 368.161 35.576 367.473 36.904C367.121 36.088 366.465 35.592 365.521 35.448C365.265 35.4 364.993 35.384 364.705 35.4C364.097 35.448 363.025 35.816 362.641 36.648V35.528H361.185V43H362.641V38.968C362.641 37.4 363.681 36.792 364.721 36.792C365.697 36.792 366.337 37.528 366.337 38.76V43H367.793V38.968C367.793 37.72 368.545 36.792 369.777 36.792ZM383.871 36.792C384.959 36.792 385.583 37.544 385.583 38.776V43H387.039V38.68C387.039 36.568 386.031 35.368 384.159 35.368C383.439 35.368 382.255 35.576 381.567 36.904C381.215 36.088 380.559 35.592 379.615 35.448C379.359 35.4 379.087 35.384 378.799 35.4C378.191 35.448 377.119 35.816 376.735 36.648V35.528H375.279V43H376.735V38.968C376.735 37.4 377.775 36.792 378.815 36.792C379.791 36.792 380.431 37.528 380.431 38.76V43H381.887V38.968C381.887 37.72 382.639 36.792 383.871 36.792ZM391.263 46.632L395.903 35.528H394.351L392.111 40.936L389.871 35.528H388.319L391.311 42.776L389.743 46.632H391.263ZM403.154 35.528V32.712H401.698V35.528H400.354V36.76H401.698V43H403.154V36.76H404.738V35.528H403.154ZM407.239 38.68C407.414 37.416 408.375 36.68 409.607 36.68C410.823 36.68 411.703 37.416 411.879 38.68H407.239ZM413.319 39.24C413.319 36.872 411.735 35.368 409.607 35.368C407.479 35.368 405.783 36.872 405.783 39.24C405.783 41.608 407.479 43.16 409.607 43.16C411.063 43.16 412.407 42.504 413.047 41.176C412.647 41 412.183 40.872 411.799 40.696C411.367 41.448 410.551 41.848 409.655 41.848C408.375 41.848 407.414 41.08 407.239 39.816H413.303C413.319 39.64 413.319 39.416 413.319 39.24ZM414.517 35.528L416.949 38.904L413.989 43H415.701L417.797 40.104L419.877 43H421.605L418.645 38.904L421.093 35.528H419.349L417.797 37.72L416.261 35.528H414.517ZM425.029 35.528V32.712H423.573V35.528H422.229V36.76H423.573V43H425.029V36.76H426.613V35.528H425.029ZM433.082 38.68C433.258 37.416 434.218 36.68 435.45 36.68C436.666 36.68 437.546 37.416 437.722 38.68H433.082ZM439.162 39.24C439.162 36.872 437.578 35.368 435.45 35.368C433.322 35.368 431.626 36.872 431.626 39.24C431.626 41.608 433.322 43.16 435.45 43.16C436.906 43.16 438.25 42.504 438.89 41.176C438.49 41 438.026 40.872 437.642 40.696C437.21 41.448 436.394 41.848 435.498 41.848C434.218 41.848 433.258 41.08 433.082 39.816H439.146C439.162 39.64 439.162 39.416 439.162 39.24ZM439.928 35.528L443.032 43H444.44H444.424L447.544 35.528H445.992L443.736 41.144L441.464 35.528H439.928ZM449.817 38.68C449.993 37.416 450.953 36.68 452.185 36.68C453.401 36.68 454.281 37.416 454.457 38.68H449.817ZM455.897 39.24C455.897 36.872 454.313 35.368 452.185 35.368C450.057 35.368 448.361 36.872 448.361 39.24C448.361 41.608 450.057 43.16 452.185 43.16C453.641 43.16 454.985 42.504 455.625 41.176C455.225 41 454.761 40.872 454.377 40.696C453.945 41.448 453.129 41.848 452.233 41.848C450.953 41.848 449.993 41.08 449.817 39.816H455.881C455.897 39.64 455.897 39.416 455.897 39.24ZM459.203 40.28C459.203 38.296 459.811 36.76 461.251 36.76C461.555 36.76 461.955 36.824 462.355 37.016L462.579 35.656C462.371 35.512 461.811 35.368 461.283 35.368C460.307 35.368 459.587 35.88 459.203 37.208V35.528H457.747V43H459.203V40.28ZM470.545 39.944C471.105 40.072 471.553 40.328 471.537 40.888C471.521 41.448 471.089 41.816 470.401 41.864C469.937 41.896 469.553 41.816 469.217 41.608C468.849 41.432 468.657 41.08 468.609 40.76H467.281C467.329 42.296 468.721 43.16 470.065 43.16C471.617 43.16 472.961 42.328 472.961 40.92C472.961 40.072 472.561 39.128 471.025 38.744L469.921 38.472C469.537 38.36 469.185 38.2 469.041 37.896C468.961 37.736 468.961 37.544 469.025 37.304C469.137 36.904 469.585 36.632 470.145 36.632C470.721 36.632 471.233 36.92 471.313 37.48H472.705C472.577 35.96 471.377 35.368 470.113 35.368C468.769 35.368 467.649 36.184 467.521 37.272C467.393 38.664 468.161 39.336 469.521 39.704L470.545 39.944ZM476.297 35.528H474.857V43H476.297V35.528ZM474.569 32.776C474.569 33.336 475.017 33.72 475.577 33.72C476.137 33.72 476.585 33.336 476.585 32.776C476.585 32.216 476.137 31.832 475.577 31.832C475.017 31.832 474.569 32.216 474.569 32.776ZM480.188 38.968C480.188 37.384 481.244 36.792 482.3 36.792C483.324 36.792 483.948 37.512 483.948 38.776V43H485.404V38.68C485.404 36.568 484.396 35.368 482.524 35.368C481.708 35.368 480.62 35.752 480.188 36.648V35.528H478.732V43H480.188V38.968ZM487.251 39.24C487.251 41.608 489.075 43.16 491.203 43.16C492.355 43.16 493.395 42.712 494.099 41.944L492.979 41.016C492.531 41.48 491.891 41.752 491.203 41.752C489.859 41.752 488.691 40.728 488.691 39.24C488.691 37.736 489.859 36.792 491.203 36.792C491.891 36.792 492.531 37.048 492.979 37.496L494.083 36.568C493.379 35.8 492.355 35.368 491.203 35.368C489.075 35.368 487.251 36.872 487.251 39.24ZM496.707 38.68C496.883 37.416 497.843 36.68 499.075 36.68C500.291 36.68 501.171 37.416 501.347 38.68H496.707ZM502.787 39.24C502.787 36.872 501.203 35.368 499.075 35.368C496.947 35.368 495.251 36.872 495.251 39.24C495.251 41.608 496.947 43.16 499.075 43.16C500.531 43.16 501.875 42.504 502.515 41.176C502.115 41 501.651 40.872 501.267 40.696C500.835 41.448 500.019 41.848 499.123 41.848C497.843 41.848 496.883 41.08 496.707 39.816H502.771C502.787 39.64 502.787 39.416 502.787 39.24ZM510.81 35.528V32.712H509.354V35.528H508.01V36.76H509.354V43H510.81V36.76H512.394V35.528H510.81ZM515.5 38.968C515.5 37.368 516.748 36.792 517.772 36.792C518.796 36.792 519.532 37.544 519.532 38.776V43H520.988V38.68C521.004 36.568 519.836 35.368 517.964 35.368C517.164 35.368 515.932 35.752 515.5 36.648V31.464H514.044V43H515.5V38.968ZM524.285 38.68C524.461 37.416 525.421 36.68 526.653 36.68C527.869 36.68 528.749 37.416 528.925 38.68H524.285ZM530.365 39.24C530.365 36.872 528.781 35.368 526.653 35.368C524.525 35.368 522.829 36.872 522.829 39.24C522.829 41.608 524.525 43.16 526.653 43.16C528.109 43.16 529.453 42.504 530.093 41.176C529.693 41 529.229 40.872 528.845 40.696C528.413 41.448 527.597 41.848 526.701 41.848C525.421 41.848 524.461 41.08 524.285 39.816H530.349C530.365 39.64 530.365 39.416 530.365 39.24ZM537.524 43H538.964V32.456L535.828 33.592V34.968L537.524 34.376V43ZM541.268 40.776C541.908 42.232 543.284 43.16 544.74 43.16C547.076 43.16 548.66 41.784 548.66 39.64C548.66 37.464 547.012 36.296 545.092 36.296C544.468 36.296 543.604 36.552 543.124 36.904L543.7 33.944H548.084V32.568H542.516L541.604 37.768L542.5 38.504C543.572 37.864 544.196 37.64 545.092 37.64C546.244 37.64 547.252 38.296 547.252 39.64C547.252 40.808 546.5 41.768 544.74 41.768C543.732 41.768 542.9 41.128 542.5 40.104L541.268 40.776ZM550.587 37.8C550.587 40.744 551.371 43.144 554.379 43.144C557.387 43.144 558.155 40.744 558.155 37.8C558.155 34.824 557.387 32.424 554.379 32.424C551.371 32.424 550.587 34.824 550.587 37.8ZM552.027 37.8C552.027 35.624 552.507 33.864 554.379 33.864C556.251 33.864 556.731 35.624 556.731 37.8C556.731 39.96 556.251 41.72 554.379 41.72C552.507 41.72 552.027 39.96 552.027 37.8ZM560.275 37.8C560.275 40.744 561.059 43.144 564.067 43.144C567.075 43.144 567.843 40.744 567.843 37.8C567.843 34.824 567.075 32.424 564.067 32.424C561.059 32.424 560.275 34.824 560.275 37.8ZM561.715 37.8C561.715 35.624 562.195 33.864 564.067 33.864C565.939 33.864 566.419 35.624 566.419 37.8C566.419 39.96 565.939 41.72 564.067 41.72C562.195 41.72 561.715 39.96 561.715 37.8Z" fill="#666666"/>
</svg>
