<svg width="240" height="19" viewBox="0 0 240 19" fill="none" xmlns="http://www.w3.org/2000/svg">
<path d="M1.692 1.598V14H3.384V9.356H6.642C9.27 9.356 10.332 7.43 10.332 5.486C10.332 3.542 9.27 1.598 6.642 1.598H1.692ZM6.624 3.164C8.064 3.164 8.658 4.352 8.658 5.486C8.658 6.638 8.046 7.79 6.534 7.79H3.384V3.164H6.624ZM18.6276 14H20.2476V5.594H18.6276V6.854C18.0516 5.9 16.8456 5.414 15.6756 5.414C13.3716 5.414 11.4096 7.106 11.4096 9.788C11.4096 12.452 13.3716 14.18 15.6756 14.18C16.8456 14.18 18.0696 13.64 18.6276 12.704V14ZM18.6096 9.77C18.6096 11.552 17.3136 12.578 15.8196 12.578C14.3076 12.578 13.0836 11.426 13.0836 9.77C13.0836 8.114 14.3076 7.016 15.8196 7.016C17.1876 7.016 18.6096 7.97 18.6096 9.77ZM24.6271 5.594H22.9891V18.086H24.6271V12.74C25.2031 13.694 26.3731 14.18 27.5611 14.18C29.8651 14.18 31.7731 12.488 31.7731 9.824C31.7731 7.16 29.8651 5.414 27.5611 5.414C26.3731 5.414 25.2031 5.954 24.6271 6.908V5.594ZM24.6451 9.842C24.6451 8.06 25.9231 7.016 27.3991 7.016C28.9111 7.016 30.1171 8.168 30.1171 9.842C30.1171 11.516 28.9111 12.578 27.3991 12.578C26.0491 12.578 24.6451 11.642 24.6451 9.842ZM40.6178 14H42.2378V5.594H40.6178V6.854C40.0418 5.9 38.8358 5.414 37.6658 5.414C35.3618 5.414 33.3998 7.106 33.3998 9.788C33.3998 12.452 35.3618 14.18 37.6658 14.18C38.8358 14.18 40.0598 13.64 40.6178 12.704V14ZM40.5998 9.77C40.5998 11.552 39.3038 12.578 37.8098 12.578C36.2978 12.578 35.0738 11.426 35.0738 9.77C35.0738 8.114 36.2978 7.016 37.8098 7.016C39.1778 7.016 40.5998 7.97 40.5998 9.77ZM47.2473 18.086L52.4673 5.594H50.7213L48.2013 11.678L45.6813 5.594H43.9353L47.3013 13.748L45.5373 18.086H47.2473ZM60.6042 14H62.2242V5.594H60.6042V6.854C60.0282 5.9 58.8222 5.414 57.6522 5.414C55.3482 5.414 53.3862 7.106 53.3862 9.788C53.3862 12.452 55.3482 14.18 57.6522 14.18C58.8222 14.18 60.0462 13.64 60.6042 12.704V14ZM60.5862 9.77C60.5862 11.552 59.2902 12.578 57.7962 12.578C56.2842 12.578 55.0602 11.426 55.0602 9.77C55.0602 8.114 56.2842 7.016 57.7962 7.016C59.1642 7.016 60.5862 7.97 60.5862 9.77ZM72.7014 10.562C73.3314 10.706 73.8354 10.994 73.8174 11.624C73.7994 12.254 73.3134 12.668 72.5394 12.722C72.0174 12.758 71.5854 12.668 71.2074 12.434C70.7934 12.236 70.5774 11.84 70.5234 11.48H69.0294C69.0834 13.208 70.6494 14.18 72.1614 14.18C73.9074 14.18 75.4194 13.244 75.4194 11.66C75.4194 10.706 74.9694 9.644 73.2414 9.212L71.9994 8.906C71.5674 8.78 71.1714 8.6 71.0094 8.258C70.9194 8.078 70.9194 7.862 70.9914 7.592C71.1174 7.142 71.6214 6.836 72.2514 6.836C72.8994 6.836 73.4754 7.16 73.5654 7.79H75.1314C74.9874 6.08 73.6374 5.414 72.2154 5.414C70.7034 5.414 69.4434 6.332 69.2994 7.556C69.1554 9.122 70.0194 9.878 71.5494 10.292L72.7014 10.562ZM78.6316 9.14C78.8296 7.718 79.9096 6.89 81.2956 6.89C82.6636 6.89 83.6536 7.718 83.8516 9.14H78.6316ZM85.4716 9.77C85.4716 7.106 83.6896 5.414 81.2956 5.414C78.9016 5.414 76.9936 7.106 76.9936 9.77C76.9936 12.434 78.9016 14.18 81.2956 14.18C82.9336 14.18 84.4456 13.442 85.1656 11.948C84.7156 11.75 84.1936 11.606 83.7616 11.408C83.2756 12.254 82.3576 12.704 81.3496 12.704C79.9096 12.704 78.8296 11.84 78.6316 10.418H85.4536C85.4716 10.22 85.4716 9.968 85.4716 9.77ZM88.6335 9.14C88.8315 7.718 89.9115 6.89 91.2975 6.89C92.6655 6.89 93.6555 7.718 93.8535 9.14H88.6335ZM95.4735 9.77C95.4735 7.106 93.6915 5.414 91.2975 5.414C88.9035 5.414 86.9955 7.106 86.9955 9.77C86.9955 12.434 88.9035 14.18 91.2975 14.18C92.9355 14.18 94.4475 13.442 95.1675 11.948C94.7175 11.75 94.1955 11.606 93.7635 11.408C93.2775 12.254 92.3595 12.704 91.3515 12.704C89.9115 12.704 88.8315 11.84 88.6335 10.418H95.4555C95.4735 10.22 95.4735 9.968 95.4735 9.77ZM104.198 14H105.836V1.022H104.198V6.854C103.64 5.9 102.47 5.414 101.228 5.414C98.9235 5.414 96.9975 7.106 96.9975 9.788C96.9975 12.452 98.9415 14.18 101.246 14.18C102.416 14.18 103.64 13.64 104.198 12.704V14ZM104.18 9.77C104.18 11.552 102.884 12.578 101.39 12.578C99.8775 12.578 98.6715 11.426 98.6715 9.77C98.6715 8.114 99.8775 7.016 101.39 7.016C102.758 7.016 104.18 7.97 104.18 9.77ZM119.913 14H121.533V5.594H119.913V6.854C119.337 5.9 118.131 5.414 116.961 5.414C114.657 5.414 112.695 7.106 112.695 9.788C112.695 12.452 114.657 14.18 116.961 14.18C118.131 14.18 119.355 13.64 119.913 12.704V14ZM119.895 9.77C119.895 11.552 118.599 12.578 117.105 12.578C115.593 12.578 114.369 11.426 114.369 9.77C114.369 8.114 115.593 7.016 117.105 7.016C118.473 7.016 119.895 7.97 119.895 9.77ZM130.016 10.13C130.016 11.93 128.828 12.578 127.64 12.578C126.488 12.578 125.804 11.768 125.804 10.346V5.594H124.166V10.454C124.148 12.83 125.3 14.18 127.406 14.18C128.324 14.18 129.494 13.748 130.016 12.74V14H131.654V5.594H130.016V10.13ZM135.642 15.206C135.426 15.296 134.472 15.818 134.274 15.926C135.084 17.42 136.506 18.194 138.072 18.194C140.862 18.194 142.662 16.682 142.662 12.722V5.594H141.042V6.908C140.466 5.954 139.26 5.414 138.09 5.414C135.786 5.414 133.824 7.16 133.824 9.824C133.824 12.488 135.786 14.18 138.09 14.18C139.278 14.18 140.52 13.64 141.042 12.632C141.042 12.704 141.06 12.758 141.06 12.83C141.06 15.62 139.89 16.646 138.072 16.646C137.136 16.646 136.146 16.142 135.642 15.206ZM141.024 9.806C141.024 11.606 139.602 12.578 138.234 12.578C136.722 12.578 135.498 11.534 135.498 9.806C135.498 8.168 136.722 7.016 138.234 7.016C139.728 7.016 141.024 8.006 141.024 9.806ZM145.386 1.022V14H147.024V1.022H145.386ZM151.383 5.594H149.763V14H151.383V5.594ZM149.439 2.498C149.439 3.128 149.943 3.56 150.573 3.56C151.203 3.56 151.707 3.128 151.707 2.498C151.707 1.868 151.203 1.436 150.573 1.436C149.943 1.436 149.439 1.868 149.439 2.498ZM157.182 10.562C157.812 10.706 158.316 10.994 158.298 11.624C158.28 12.254 157.794 12.668 157.02 12.722C156.498 12.758 156.066 12.668 155.688 12.434C155.274 12.236 155.058 11.84 155.004 11.48H153.51C153.564 13.208 155.13 14.18 156.642 14.18C158.388 14.18 159.9 13.244 159.9 11.66C159.9 10.706 159.45 9.644 157.722 9.212L156.48 8.906C156.048 8.78 155.652 8.6 155.49 8.258C155.4 8.078 155.4 7.862 155.472 7.592C155.598 7.142 156.102 6.836 156.732 6.836C157.38 6.836 157.956 7.16 158.046 7.79H159.612C159.468 6.08 158.118 5.414 156.696 5.414C155.184 5.414 153.924 6.332 153.78 7.556C153.636 9.122 154.5 9.878 156.03 10.292L157.182 10.562ZM171.34 1.022H170.422C168.154 1.022 167.2 2.534 167.2 4.748V5.594H165.58V6.98H167.2V14H168.856V6.98H170.8V5.594H168.856V4.748C168.856 3.668 169.054 2.588 170.422 2.588H171.34V1.022ZM174.27 10.94C174.27 8.708 174.954 6.98 176.574 6.98C176.916 6.98 177.366 7.052 177.816 7.268L178.068 5.738C177.834 5.576 177.204 5.414 176.61 5.414C175.512 5.414 174.702 5.99 174.27 7.484V5.594H172.632V14H174.27V10.94ZM185.475 10.13C185.475 11.93 184.287 12.578 183.099 12.578C181.947 12.578 181.263 11.768 181.263 10.346V5.594H179.625V10.454C179.607 12.83 180.759 14.18 182.865 14.18C183.783 14.18 184.953 13.748 185.475 12.74V14H187.113V5.594H185.475V10.13ZM191.461 5.594H189.841V14H191.461V5.594ZM189.517 2.498C189.517 3.128 190.021 3.56 190.651 3.56C191.281 3.56 191.785 3.128 191.785 2.498C191.785 1.868 191.281 1.436 190.651 1.436C190.021 1.436 189.517 1.868 189.517 2.498ZM196.468 5.594V2.426H194.83V5.594H193.318V6.98H194.83V14H196.468V6.98H198.25V5.594H196.468ZM199.628 13.064C199.628 13.712 200.168 14.18 200.798 14.18C201.446 14.18 201.986 13.712 201.986 13.064C201.986 12.416 201.446 11.93 200.798 11.93C200.168 11.93 199.628 12.416 199.628 13.064ZM204.41 13.064C204.41 13.712 204.95 14.18 205.58 14.18C206.228 14.18 206.768 13.712 206.768 13.064C206.768 12.416 206.228 11.93 205.58 11.93C204.95 11.93 204.41 12.416 204.41 13.064ZM209.191 13.064C209.191 13.712 209.731 14.18 210.361 14.18C211.009 14.18 211.549 13.712 211.549 13.064C211.549 12.416 211.009 11.93 210.361 11.93C209.731 11.93 209.191 12.416 209.191 13.064Z" fill="#666666"/>
</svg>
