<svg width="135" height="18" viewBox="0 0 135 18" fill="none" xmlns="http://www.w3.org/2000/svg">
<path d="M5.76001 -3.45707e-06H4.84201C2.57401 -3.45707e-06 1.62001 1.512 1.62001 3.726V4.572H7.58097e-06V5.958H1.62001V12.978H3.27601V5.958H5.22001V4.572H3.27601V3.726C3.27601 2.646 3.47401 1.566 4.84201 1.566H5.76001V-3.45707e-06ZM8.68993 9.918C8.68993 7.686 9.37393 5.958 10.9939 5.958C11.3359 5.958 11.7859 6.03 12.2359 6.246L12.4879 4.716C12.2539 4.554 11.6239 4.392 11.0299 4.392C9.93193 4.392 9.12193 4.968 8.68993 6.462V4.572H7.05193V12.978H8.68993V9.918ZM15.0226 8.118C15.2206 6.696 16.3006 5.868 17.6866 5.868C19.0546 5.868 20.0446 6.696 20.2426 8.118H15.0226ZM21.8626 8.748C21.8626 6.084 20.0806 4.392 17.6866 4.392C15.2926 4.392 13.3846 6.084 13.3846 8.748C13.3846 11.412 15.2926 13.158 17.6866 13.158C19.3246 13.158 20.8366 12.42 21.5566 10.926C21.1066 10.728 20.5846 10.584 20.1526 10.386C19.6666 11.232 18.7486 11.682 17.7406 11.682C16.3006 11.682 15.2206 10.818 15.0226 9.396H21.8446C21.8626 9.198 21.8626 8.946 21.8626 8.748ZM27.0045 9.54C27.6345 9.684 28.1385 9.972 28.1205 10.602C28.1025 11.232 27.6165 11.646 26.8425 11.7C26.3205 11.736 25.8885 11.646 25.5105 11.412C25.0965 11.214 24.8805 10.818 24.8265 10.458H23.3325C23.3865 12.186 24.9525 13.158 26.4645 13.158C28.2105 13.158 29.7225 12.222 29.7225 10.638C29.7225 9.684 29.2725 8.622 27.5445 8.19L26.3025 7.884C25.8705 7.758 25.4745 7.578 25.3125 7.236C25.2225 7.056 25.2225 6.84 25.2945 6.57C25.4205 6.12 25.9245 5.814 26.5545 5.814C27.2025 5.814 27.7785 6.138 27.8685 6.768H29.4345C29.2905 5.058 27.9405 4.392 26.5185 4.392C25.0065 4.392 23.7465 5.31 23.6025 6.534C23.4585 8.1 24.3225 8.856 25.8525 9.27L27.0045 9.54ZM33.4927 8.442C33.4927 6.642 34.8967 5.994 36.0487 5.994C37.2007 5.994 38.0287 6.84 38.0287 8.226V12.978H39.6667V8.118C39.6847 5.742 38.3707 4.392 36.2647 4.392C35.3647 4.392 33.9787 4.824 33.4927 5.832V-3.45707e-06H31.8547V12.978H33.4927V8.442ZM47.2914 0.575997H45.5454L49.3074 12.978H50.9094L54.6354 0.575997H52.9074L50.0994 10.152L47.2914 0.575997ZM56.753 8.118C56.951 6.696 58.031 5.868 59.417 5.868C60.785 5.868 61.775 6.696 61.973 8.118H56.753ZM63.593 8.748C63.593 6.084 61.811 4.392 59.417 4.392C57.023 4.392 55.115 6.084 55.115 8.748C55.115 11.412 57.023 13.158 59.417 13.158C61.055 13.158 62.567 12.42 63.287 10.926C62.837 10.728 62.315 10.584 61.883 10.386C61.397 11.232 60.479 11.682 59.471 11.682C58.031 11.682 56.951 10.818 56.753 9.396H63.575C63.593 9.198 63.593 8.946 63.593 8.748ZM66.935 14.184C66.719 14.274 65.765 14.796 65.567 14.904C66.377 16.398 67.799 17.172 69.365 17.172C72.155 17.172 73.955 15.66 73.955 11.7V4.572H72.335V5.886C71.759 4.932 70.553 4.392 69.383 4.392C67.079 4.392 65.117 6.138 65.117 8.802C65.117 11.466 67.079 13.158 69.383 13.158C70.571 13.158 71.813 12.618 72.335 11.61C72.335 11.682 72.353 11.736 72.353 11.808C72.353 14.598 71.183 15.624 69.365 15.624C68.429 15.624 67.439 15.12 66.935 14.184ZM72.317 8.784C72.317 10.584 70.895 11.556 69.527 11.556C68.015 11.556 66.791 10.512 66.791 8.784C66.791 7.146 68.015 5.994 69.527 5.994C71.021 5.994 72.317 6.984 72.317 8.784ZM77.7589 8.118C77.9569 6.696 79.0369 5.868 80.4229 5.868C81.7909 5.868 82.7809 6.696 82.9789 8.118H77.7589ZM84.5989 8.748C84.5989 6.084 82.8169 4.392 80.4229 4.392C78.0289 4.392 76.1209 6.084 76.1209 8.748C76.1209 11.412 78.0289 13.158 80.4229 13.158C82.0609 13.158 83.5729 12.42 84.2929 10.926C83.8429 10.728 83.3209 10.584 82.8889 10.386C82.4029 11.232 81.4849 11.682 80.4769 11.682C79.0369 11.682 77.9569 10.818 77.7589 9.396H84.5809C84.5989 9.198 84.5989 8.946 84.5989 8.748ZM88.9488 4.572V1.404H87.3108V4.572H85.7988V5.958H87.3108V12.978H88.9488V5.958H90.7308V4.572H88.9488ZM99.124 12.978H100.744V4.572H99.124V5.832C98.548 4.878 97.342 4.392 96.172 4.392C93.868 4.392 91.906 6.084 91.906 8.766C91.906 11.43 93.868 13.158 96.172 13.158C97.342 13.158 98.566 12.618 99.124 11.682V12.978ZM99.106 8.748C99.106 10.53 97.81 11.556 96.316 11.556C94.804 11.556 93.58 10.404 93.58 8.748C93.58 7.092 94.804 5.994 96.316 5.994C97.684 5.994 99.106 6.948 99.106 8.748ZM105.124 11.682C105.682 12.618 106.888 13.158 108.058 13.158C110.362 13.158 112.324 11.43 112.324 8.766C112.324 6.084 110.398 4.392 108.076 4.392C106.852 4.392 105.682 4.878 105.124 5.832V-3.45707e-06H103.486V12.978H105.124V11.682ZM105.142 8.748C105.142 6.948 106.564 5.994 107.932 5.994C109.444 5.994 110.65 7.092 110.65 8.748C110.65 10.404 109.444 11.556 107.932 11.556C106.438 11.556 105.142 10.53 105.142 8.748ZM114.507 -3.45707e-06V12.978H116.145V-3.45707e-06H114.507ZM119.964 8.118C120.162 6.696 121.242 5.868 122.628 5.868C123.996 5.868 124.986 6.696 125.184 8.118H119.964ZM126.804 8.748C126.804 6.084 125.022 4.392 122.628 4.392C120.234 4.392 118.326 6.084 118.326 8.748C118.326 11.412 120.234 13.158 122.628 13.158C124.266 13.158 125.778 12.42 126.498 10.926C126.048 10.728 125.526 10.584 125.094 10.386C124.608 11.232 123.69 11.682 122.682 11.682C121.242 11.682 120.162 10.818 119.964 9.396H126.786C126.804 9.198 126.804 8.946 126.804 8.748ZM131.946 9.54C132.576 9.684 133.08 9.972 133.062 10.602C133.044 11.232 132.558 11.646 131.784 11.7C131.262 11.736 130.83 11.646 130.452 11.412C130.038 11.214 129.822 10.818 129.768 10.458H128.274C128.328 12.186 129.894 13.158 131.406 13.158C133.152 13.158 134.664 12.222 134.664 10.638C134.664 9.684 134.214 8.622 132.486 8.19L131.244 7.884C130.812 7.758 130.416 7.578 130.254 7.236C130.164 7.056 130.164 6.84 130.236 6.57C130.362 6.12 130.866 5.814 131.496 5.814C132.144 5.814 132.72 6.138 132.81 6.768H134.376C134.232 5.058 132.882 4.392 131.46 4.392C129.948 4.392 128.688 5.31 128.544 6.534C128.4 8.1 129.264 8.856 130.794 9.27L131.946 9.54Z" fill="#666666"/>
</svg>
