<svg width="549" height="204" viewBox="0 0 549 204" fill="none" xmlns="http://www.w3.org/2000/svg">
<rect x="263" y="151" width="286" height="21" fill="#E21A43" fill-opacity="0.3"/>
<path d="M33.216 67H41.856L25.344 22.904H16.512L0 67H8.704L12.736 56.312H29.184L33.216 67ZM20.928 32.312L26.496 49.144H15.488L20.928 32.312ZM46.291 67H54.099V20.856H46.291V67ZM62.916 67H70.724V20.856H62.916V67ZM115.768 67V47.032L132.792 22.904H123L111.544 39.864L100.216 22.904H90.488L107.384 46.904V67H115.768ZM143.8 59.96C139.448 59.96 135.992 56.824 135.992 51.96C135.992 47.16 139.448 44.152 143.8 44.152C148.152 44.152 151.608 47.16 151.608 51.96C151.608 56.824 148.152 59.96 143.8 59.96ZM143.8 67.576C152.248 67.576 159.352 61.368 159.352 51.96C159.352 42.488 152.248 36.472 143.8 36.472C135.352 36.472 128.248 42.488 128.248 51.96C128.248 61.368 135.352 67.576 143.8 67.576ZM186.002 53.048C186.002 58.232 182.802 60.024 179.538 60.024C176.786 60.024 173.842 58.232 173.842 53.368V37.112H165.97V54.776C165.97 63.224 170.642 67.64 177.746 67.64C180.753 67.64 184.338 65.976 186.002 62.776V67H193.81V37.112H186.002V53.048ZM252.269 22.904H244.077V51.576L227.245 22.904H219.629V67H227.757V38.008L244.781 67H252.269V22.904ZM290.341 51.96C290.341 42.488 283.621 36.472 275.173 36.472C266.661 36.472 259.685 42.488 259.685 51.96C259.685 61.368 266.661 67.64 275.173 67.64C280.677 67.64 286.373 65.528 289.125 60.408C287.141 59.384 285.029 58.232 283.173 57.208C281.701 59.768 278.693 61.048 275.685 61.048C271.269 61.048 267.941 58.68 267.429 54.648H290.213C290.277 53.944 290.341 52.728 290.341 51.96ZM267.365 49.336C267.941 45.24 271.141 43 275.237 43C279.077 43 282.149 45.24 282.725 49.336H267.365ZM325.716 51.96C325.716 42.488 318.996 36.472 310.548 36.472C302.036 36.472 295.06 42.488 295.06 51.96C295.06 61.368 302.036 67.64 310.548 67.64C316.052 67.64 321.748 65.528 324.5 60.408C322.516 59.384 320.404 58.232 318.548 57.208C317.076 59.768 314.068 61.048 311.06 61.048C306.644 61.048 303.316 58.68 302.804 54.648H325.588C325.652 53.944 325.716 52.728 325.716 51.96ZM302.74 49.336C303.316 45.24 306.516 43 310.612 43C314.452 43 317.524 45.24 318.1 49.336H302.74ZM354.499 67H362.243V20.856H354.499V41.08C352.771 38.072 349.123 36.472 345.091 36.472C337.219 36.472 330.435 42.552 330.435 52.088C330.435 61.56 337.219 67.64 345.091 67.64C348.995 67.64 352.771 65.976 354.499 62.968V67ZM354.371 51.96C354.371 56.952 350.659 60.152 346.371 60.152C342.019 60.152 338.499 56.888 338.499 51.96C338.499 47.096 342.019 43.896 346.371 43.896C350.467 43.896 354.371 46.84 354.371 51.96ZM388.067 67H396.259V48.952H411.107V41.656H396.259V30.2H415.011V22.904H388.067V67ZM432.612 59.96C428.26 59.96 424.804 56.824 424.804 51.96C424.804 47.16 428.26 44.152 432.612 44.152C436.964 44.152 440.42 47.16 440.42 51.96C440.42 56.824 436.964 59.96 432.612 59.96ZM432.612 67.576C441.06 67.576 448.164 61.368 448.164 51.96C448.164 42.488 441.06 36.472 432.612 36.472C424.164 36.472 417.06 42.488 417.06 51.96C417.06 61.368 424.164 67.576 432.612 67.576ZM462.974 56.44C462.974 48.504 465.15 43.768 470.462 43.768C471.23 43.768 473.15 43.768 475.006 44.6L476.35 37.56C475.134 36.856 473.534 36.472 471.422 36.472C468.03 36.472 464.51 38.712 462.974 44.152V37.112H455.166V67H462.974V56.44ZM23.296 132.2C27.392 132.2 29.248 135.976 29.248 139.176C29.248 142.44 27.264 146.024 23.04 146.024H13.696V132.2H23.296ZM5.504 169H13.696V153.32H23.424C33.216 153.32 37.44 146.344 37.44 139.176C37.44 132.008 33.216 124.904 23.424 124.904H5.504V169ZM71.341 153.96C71.341 144.488 64.621 138.472 56.173 138.472C47.661 138.472 40.685 144.488 40.685 153.96C40.685 163.368 47.661 169.64 56.173 169.64C61.677 169.64 67.373 167.528 70.125 162.408C68.141 161.384 66.029 160.232 64.173 159.208C62.701 161.768 59.693 163.048 56.685 163.048C52.269 163.048 48.941 160.68 48.429 156.648H71.213C71.277 155.944 71.341 154.728 71.341 153.96ZM48.365 151.336C48.941 147.24 52.141 145 56.237 145C60.077 145 63.149 147.24 63.725 151.336H48.365ZM85.724 158.44C85.724 150.504 87.9 145.768 93.212 145.768C93.98 145.768 95.9 145.768 97.756 146.6L99.1 139.56C97.884 138.856 96.284 138.472 94.172 138.472C90.78 138.472 87.26 140.712 85.724 146.152V139.112H77.916V169H85.724V158.44ZM122.981 122.856H119.717C111.269 122.856 106.981 127.976 106.981 136.744V139.112H101.285V145.384H106.981V169H114.853V145.384H121.189V139.112H114.853V136.744C114.853 133.096 116.069 130.344 119.717 130.344H122.981V122.856ZM155.529 153.96C155.529 144.488 148.809 138.472 140.361 138.472C131.849 138.472 124.873 144.488 124.873 153.96C124.873 163.368 131.849 169.64 140.361 169.64C145.865 169.64 151.561 167.528 154.312 162.408C152.329 161.384 150.217 160.232 148.361 159.208C146.889 161.768 143.881 163.048 140.873 163.048C136.457 163.048 133.129 160.68 132.617 156.648H155.401C155.465 155.944 155.529 154.728 155.529 153.96ZM132.553 151.336C133.129 147.24 136.329 145 140.425 145C144.265 145 147.337 147.24 147.913 151.336H132.553ZM160.184 153.96C160.184 163.368 167.736 169.64 176.312 169.64C181.432 169.64 185.976 167.528 188.792 163.752L182.52 159.144C181.048 161.128 178.808 162.152 176.312 162.152C171.96 162.152 167.928 158.824 167.928 153.96C167.928 149.096 171.96 146.024 176.312 146.024C178.808 146.024 181.048 146.984 182.52 148.968L188.728 144.296C185.912 140.52 181.368 138.472 176.312 138.472C167.736 138.472 160.184 144.488 160.184 153.96ZM205.594 127.72H197.85V139.112H192.41V145.384H197.85V169H205.594V145.384H211.93V139.112H205.594V127.72ZM295.206 136.872C295.206 129.448 290.278 124.904 282.534 124.904H265.254V169H283.878C292.454 169 297.574 162.92 297.574 155.752C297.574 151.848 294.822 146.792 289.382 145.448C293.798 143.72 295.206 140.136 295.206 136.872ZM273.446 142.632V132.2H281.702C284.966 132.2 286.694 134.184 286.694 137.32C286.694 140.328 284.966 142.632 281.958 142.632H273.446ZM283.238 149.48C287.014 149.48 288.998 152.744 288.998 155.624C288.998 158.696 287.014 161.704 283.43 161.704H273.446V149.48H283.238ZM312.537 158.44C312.537 150.504 314.713 145.768 320.025 145.768C320.793 145.768 322.713 145.768 324.569 146.6L325.913 139.56C324.697 138.856 323.097 138.472 320.985 138.472C317.593 138.472 314.073 140.712 312.537 146.152V139.112H304.729V169H312.537V158.44ZM359.216 153.96C359.216 144.488 352.496 138.472 344.048 138.472C335.536 138.472 328.56 144.488 328.56 153.96C328.56 163.368 335.536 169.64 344.048 169.64C349.552 169.64 355.248 167.528 358 162.408C356.016 161.384 353.904 160.232 352.048 159.208C350.576 161.768 347.568 163.048 344.56 163.048C340.144 163.048 336.816 160.68 336.304 156.648H359.088C359.152 155.944 359.216 154.728 359.216 153.96ZM336.24 151.336C336.816 147.24 340.016 145 344.112 145C347.952 145 351.024 147.24 351.6 151.336H336.24ZM388.447 169H396.255V139.112H388.447V142.824C386.207 139.56 381.919 138.472 379.167 138.472C371.295 138.472 363.935 144.488 363.935 154.024C363.935 163.56 371.295 169.576 379.167 169.576C382.047 169.576 386.591 168.232 388.447 165.16V169ZM371.999 154.024C371.999 149.16 375.903 145.96 380.255 145.96C384.351 145.96 388.447 148.904 388.447 154.024C388.447 159.144 384.543 162.088 380.255 162.088C375.903 162.088 371.999 158.888 371.999 154.024ZM424.112 169H433.904L418.672 152.232L431.216 139.112H421.104L412.848 148.072V122.856H405.104V169H412.848V156.2L424.112 169ZM457.043 122.856H453.779C445.331 122.856 441.043 127.976 441.043 136.744V139.112H435.347V145.384H441.043V169H448.915V145.384H455.251V139.112H448.915V136.744C448.915 133.096 450.131 130.344 453.779 130.344H457.043V122.856ZM483.447 169H491.255V139.112H483.447V142.824C481.207 139.56 476.919 138.472 474.167 138.472C466.295 138.472 458.935 144.488 458.935 154.024C458.935 163.56 466.295 169.576 474.167 169.576C477.047 169.576 481.591 168.232 483.447 165.16V169ZM466.999 154.024C466.999 149.16 470.903 145.96 475.255 145.96C479.351 145.96 483.447 148.904 483.447 154.024C483.447 159.144 479.543 162.088 475.255 162.088C470.903 162.088 466.999 158.888 466.999 154.024ZM511.432 157.544C513.672 158.056 514.76 158.824 514.696 160.36C514.696 162.088 513.032 163.304 510.792 163.368C507.912 163.56 505.48 161.704 505.288 159.592H497.992C498.184 165.992 504.135 169.64 510.024 169.64C516.232 169.64 522.248 166.568 522.248 160.424C522.248 157.992 521.352 153.384 514.44 151.464L509.448 150.248C507.72 149.8 506.312 148.968 506.312 147.752C506.312 145.512 508.104 144.808 510.088 144.808C511.88 144.808 513.928 145.64 514.12 147.88H521.544C521.224 141.032 515.592 138.472 509.896 138.472C504.008 138.472 498.888 142.504 498.888 147.368C498.888 150.824 499.592 154.472 507.336 156.52L511.432 157.544ZM539.406 127.72H531.662V139.112H526.222V145.384H531.662V169H539.406V145.384H545.742V139.112H539.406V127.72Z" fill="#333333"/>
</svg>
