<svg width="87" height="82" viewBox="0 0 87 82" fill="none" xmlns="http://www.w3.org/2000/svg">
<path d="M22.6326 51.9246C22.6326 68.2888 40.239 81.5547 56.6032 81.5547C72.9674 81.5547 86.2333 68.2888 86.2333 51.9246C86.2333 35.5604 80.3712 20.821 64.007 20.821C47.6428 20.821 22.6326 35.5604 22.6326 51.9246Z" fill="#E21A43"/>
<mask id="mask0_308_989" style="mask-type:alpha" maskUnits="userSpaceOnUse" x="10" y="0" width="74" height="82">
<path d="M24.716 51.7052C24.716 68.0695 37.9819 81.3353 54.3461 81.3353C70.7103 81.3353 83.9761 68.0695 83.9761 51.7052C83.9761 35.341 31.8916 1.29041e-06 15.5274 1.29041e-06C-0.836838 1.29041e-06 24.716 35.341 24.716 51.7052Z" fill="#FFCB3C"/>
</mask>
<g mask="url(#mask0_308_989)">
<path fill-rule="evenodd" clip-rule="evenodd" d="M57.876 47.7382C59.7076 46.9698 61.7769 46.8168 64.0578 47.4843C71.8466 49.7636 75.036 55.8331 75.4626 63.0634C76.0601 73.2259 70.9902 85.736 66.4495 91.9521C65.9187 92.6782 64.8995 92.8361 64.1734 92.307C63.4489 91.7762 63.2894 90.757 63.8201 90.0309C68.0304 84.2675 72.7665 72.6788 72.2113 63.2555C71.8694 57.427 69.4207 52.4467 63.1428 50.6086C61.785 50.2113 60.5493 50.2667 59.4374 50.6574C59.7988 51.3819 60.144 52.108 60.4712 52.8341C61.7786 55.7419 63.7322 63.8156 63.0028 69.7516C62.4249 74.4486 60.2058 77.817 55.6277 77.6933C53.0065 77.6233 51.0722 76.0392 49.9114 73.4424C48.4803 70.24 48.285 65.3411 49.2911 60.644C50.1263 56.7383 51.7838 52.9904 54.1087 50.4702C54.4343 50.1169 54.7729 49.7864 55.1229 49.4803C47.4905 35.9493 33.7152 23.3936 19.5721 18.0453C18.732 17.7278 18.3088 16.7884 18.6263 15.9467C18.9437 15.1066 19.8847 14.6833 20.7248 15.0008C35.4768 20.5786 49.856 33.6342 57.876 47.7382ZM56.7021 52.4711C56.9789 53.036 57.246 53.6026 57.5 54.1692C58.6738 56.779 60.4256 64.0256 59.7711 69.3543C59.4243 72.1741 58.4621 74.512 55.7139 74.4388C54.3659 74.403 53.4802 73.4489 52.8843 72.1139C52.0931 70.3441 51.8114 67.9444 51.9367 65.3899C52.1337 61.4272 53.3304 57.09 55.4371 54.0227C55.8262 53.4561 56.2479 52.9335 56.7021 52.4711Z" fill="#35312B"/>
<path fill-rule="evenodd" clip-rule="evenodd" d="M30.4738 38.4091C29.2039 31.0029 24.3473 23.123 19.1293 17.6624C18.509 17.0128 18.5318 15.9822 19.1814 15.3603C19.831 14.74 20.8632 14.7628 21.4835 15.4124C27.1216 21.3142 32.3119 29.8567 33.6828 37.8587C33.8342 38.7444 33.2382 39.5861 32.3526 39.7376C31.4669 39.889 30.6252 39.2947 30.4738 38.4091Z" fill="#35312B"/>
<path fill-rule="evenodd" clip-rule="evenodd" d="M21.3434 15.1015C26.7079 18.1639 34.9363 18.5644 40.9341 17.0112C41.8052 16.7865 42.6941 17.3108 42.9188 18.1802C43.1434 19.0496 42.6208 19.9385 41.7498 20.1648C35.0063 21.9085 25.7604 21.3728 19.7284 17.9295C18.9485 17.485 18.6766 16.4886 19.1227 15.7087C19.5688 14.9289 20.5636 14.657 21.3434 15.1015Z" fill="#35312B"/>
</g>
<path fill-rule="evenodd" clip-rule="evenodd" d="M7.42081 7.51206C7.43645 7.18153 7.43332 6.85976 7.41768 6.55769C7.36452 5.64928 6.52023 5.65241 6.45457 5.65367C6.31698 5.65679 5.70404 5.69556 5.55707 6.40383C5.54769 6.44605 5.5258 6.75187 5.51955 6.86976C5.50704 7.12117 5.5008 7.36821 5.5352 7.61619C5.50393 8.03677 5.43513 8.46955 5.3038 8.87669C5.11305 9.47771 4.80347 10.0324 4.24373 10.3279C3.24307 10.8595 1.92661 10.838 0.825892 10.973C0.366218 11.0293 0.0159845 11.4127 0.000349045 11.8755C-0.0121593 12.3386 0.313041 12.7426 0.769588 12.8267C2.14549 13.0813 3.72779 14.3324 4.73469 15.3399C5.04427 15.6495 5.39136 16.3869 5.77911 16.859C6.09182 17.2374 6.43893 17.491 6.76727 17.5917C6.89548 17.6308 7.6053 17.7734 7.92426 17.0385C8.01182 16.8322 8.32139 15.7515 8.34953 15.6283C8.51839 14.9222 8.75916 14.2914 9.23134 13.7298C9.64098 13.2429 10.1382 12.8177 10.7355 12.5819C10.9762 12.4868 11.2264 12.4146 11.4766 12.3402C11.5641 12.3296 11.8112 12.2983 11.8987 12.2686C12.077 12.2092 12.2083 12.116 12.3021 12.0231C12.4804 11.8474 12.5711 11.6375 12.5867 11.3986C12.5992 11.241 12.5773 11.054 12.4647 10.8467C12.3803 10.6994 12.1896 10.4777 11.8456 10.3339C11.486 10.1835 10.7136 10.0406 10.576 10.0034C9.61911 9.74568 8.68099 9.35388 7.94613 8.67469C7.58027 8.33509 7.49586 7.96891 7.42081 7.51206ZM6.80789 10.1713C6.43889 10.9362 5.88857 11.58 5.12244 11.9856C4.80661 12.1541 4.46264 12.282 4.10616 12.3815C4.84101 12.893 5.52271 13.4747 6.06369 14.0138C6.2388 14.1892 6.42953 14.4731 6.63279 14.7849C6.87045 13.9525 7.22067 13.2048 7.79604 12.5206C8.13689 12.1172 8.52153 11.7486 8.94994 11.4412C8.17443 11.1341 7.43955 10.7232 6.80789 10.1713Z" fill="#35312B"/>
</svg>
