<svg width="25" height="27" viewBox="0 0 25 27" fill="none" xmlns="http://www.w3.org/2000/svg">
<path fill-rule="evenodd" clip-rule="evenodd" d="M0.0234458 21.2545C0.211146 22.4233 0.389723 23.5841 0.610586 24.7486C0.79827 25.7347 1.7527 26.3821 2.73884 26.1944C3.72498 26.0067 4.37195 25.054 4.18427 24.0679C3.96946 22.937 3.79692 21.8099 3.61351 20.6743C3.45372 19.6824 2.51957 19.0085 1.52772 19.1683C0.537622 19.3286 -0.136348 20.2627 0.0234458 21.2545Z" fill="#E21A43"/>
<path fill-rule="evenodd" clip-rule="evenodd" d="M8.01612 15.9659C10.8704 18.3426 13.8427 20.5739 16.7456 22.8883C17.5306 23.5148 18.6763 23.3848 19.3028 22.5999C19.9275 21.8145 19.799 20.671 19.014 20.0445C16.1315 17.7451 13.1788 15.5322 10.345 13.1705C9.57353 12.5288 8.42511 12.6334 7.78343 13.4048C7.13999 14.1758 7.24467 15.3243 8.01612 15.9659Z" fill="#E21A43"/>
<path fill-rule="evenodd" clip-rule="evenodd" d="M13.0428 3.62905C16.1527 3.94829 19.2782 4.18136 22.3839 4.53715C23.38 4.64964 24.282 3.93286 24.3967 2.93548C24.5097 1.93763 23.7929 1.03569 22.7955 0.920963C19.676 0.567149 16.5383 0.330792 13.4138 0.00954285C12.4149 -0.0924121 11.5216 0.634203 11.4197 1.63312C11.316 2.63157 12.0439 3.52709 13.0428 3.62905Z" fill="#E21A43"/>
</svg>
