<svg width="30" height="25" viewBox="0 0 30 25" fill="none" xmlns="http://www.w3.org/2000/svg">
<path fill-rule="evenodd" clip-rule="evenodd" d="M28.9295 6.76595C29.0529 5.5669 29.1832 4.37818 29.2728 3.17461C29.3481 2.15521 28.58 1.26694 27.5606 1.19165C26.5412 1.11635 25.6538 1.88289 25.5785 2.90228C25.4918 4.07117 25.3644 5.22518 25.2455 6.39049C25.1413 7.40814 25.8825 8.3172 26.9001 8.42143C27.9162 8.52473 28.8253 7.78361 28.9295 6.76595Z" fill="#E21A43"/>
<path fill-rule="evenodd" clip-rule="evenodd" d="M19.6745 9.86131C17.4935 6.77151 15.1581 3.79353 12.9128 0.752137C12.3059 -0.0708979 11.1447 -0.245069 10.3217 0.361863C9.50023 0.969722 9.32532 2.12828 9.93225 2.95132C12.1613 5.97265 14.4824 8.92731 16.6472 11.9971C17.2368 12.8315 18.3939 13.0313 19.2284 12.4416C20.0644 11.8529 20.2641 10.6958 19.6745 9.86131Z" fill="#E21A43"/>
<path fill-rule="evenodd" clip-rule="evenodd" d="M11.4791 20.6706C8.50441 19.537 5.49175 18.4841 2.5308 17.3156C1.58073 16.9424 0.504673 17.4097 0.128981 18.3605C-0.245106 19.3122 0.222204 20.3882 1.17295 20.7639C4.14791 21.934 7.17179 22.9934 10.1602 24.1328C11.1158 24.4963 12.1859 24.0171 12.5495 23.0615C12.9146 22.1068 12.4347 21.0341 11.4791 20.6706Z" fill="#E21A43"/>
</svg>
