<svg width="22" height="22" viewBox="0 0 22 22" fill="none" xmlns="http://www.w3.org/2000/svg">
<path fill-rule="evenodd" clip-rule="evenodd" d="M0.750122 0.750244L2.99721 1.14932L4.03757 13.8677C4.12075 14.9064 4.96665 15.7035 5.98216 15.7001H17.7675C18.7366 15.7024 19.5587 14.9707 19.6959 13.9863L20.7211 6.71646C20.8356 5.90389 20.2857 5.15008 19.4949 5.03257C19.4258 5.02259 3.35804 5.01705 3.35804 5.01705" fill="#E21A43" fill-opacity="0.1"/>
<path fill-rule="evenodd" clip-rule="evenodd" d="M13.0389 9.11414H16.0346H13.0389Z" fill="#E21A43" fill-opacity="0.1"/>
<path fill-rule="evenodd" clip-rule="evenodd" d="M5.50822 19.543C5.8334 19.543 6.09592 19.8135 6.09592 20.1461C6.09592 20.4798 5.8334 20.7502 5.50822 20.7502C5.18304 20.7502 4.92052 20.4798 4.92052 20.1461C4.92052 19.8135 5.18304 19.543 5.50822 19.543Z" fill="#E21A43" fill-opacity="0.1"/>
<path fill-rule="evenodd" clip-rule="evenodd" d="M17.6947 19.543C18.0199 19.543 18.2835 19.8135 18.2835 20.1461C18.2835 20.4798 18.0199 20.7502 17.6947 20.7502C17.3695 20.7502 17.107 20.4798 17.107 20.1461C17.107 19.8135 17.3695 19.543 17.6947 19.543Z" fill="#E21A43" fill-opacity="0.1"/>
<path d="M0.750122 0.750244L2.99721 1.14932L4.03757 13.8677C4.12075 14.9064 4.96665 15.7035 5.98216 15.7001H17.7675C18.7366 15.7024 19.5587 14.9707 19.6959 13.9863L20.7211 6.71646C20.8356 5.90389 20.2857 5.15008 19.4949 5.03257C19.4258 5.02259 3.35804 5.01705 3.35804 5.01705M13.0389 9.11414H16.0346M5.50822 19.543C5.8334 19.543 6.09592 19.8135 6.09592 20.1461C6.09592 20.4798 5.8334 20.7502 5.50822 20.7502C5.18304 20.7502 4.92052 20.4798 4.92052 20.1461C4.92052 19.8135 5.18304 19.543 5.50822 19.543ZM17.6947 19.543C18.0199 19.543 18.2835 19.8135 18.2835 20.1461C18.2835 20.4798 18.0199 20.7502 17.6947 20.7502C17.3695 20.7502 17.107 20.4798 17.107 20.1461C17.107 19.8135 17.3695 19.543 17.6947 19.543Z" stroke="#E21A43" stroke-width="1.5" stroke-linecap="round" stroke-linejoin="round"/>
</svg>
