<svg width="17" height="17" viewBox="0 0 17 17" fill="none" xmlns="http://www.w3.org/2000/svg">
<path fill-rule="evenodd" clip-rule="evenodd" d="M8.16897 1.45714C4.47946 1.45714 1.48853 4.38501 1.48853 7.99671C1.48853 11.6084 4.47946 14.5363 8.16897 14.5363C11.8585 14.5363 14.8494 11.6084 14.8494 7.99671C14.8494 4.38501 11.8585 1.45714 8.16897 1.45714ZM0 7.99671C0 3.58025 3.65737 0 8.16897 0C12.6806 0 16.3379 3.58025 16.3379 7.99671C16.3379 10.0386 15.5562 11.9017 14.2697 13.3149L16.7695 15.7556C17.0605 16.0397 17.0611 16.501 16.7709 16.7859C16.4806 17.0708 16.0093 17.0714 15.7183 16.7873L13.1821 14.311C11.7982 15.3654 10.0585 15.9934 8.16897 15.9934C3.65737 15.9934 0 12.4132 0 7.99671Z" fill="white"/>
</svg>
