<svg width="79" height="12" viewBox="0 0 79 12" fill="none" xmlns="http://www.w3.org/2000/svg">
<path d="M2.03202 6.04801C2.03202 4.04801 3.58402 2.40001 5.58402 2.40001C7.55202 2.40001 9.13602 4.04801 9.13602 6.04801C9.13602 8.06401 7.55202 9.68001 5.58402 9.68001C3.58402 9.68001 2.03202 8.06401 2.03202 6.04801ZM2.05636e-05 6.04801C2.05636e-05 9.15201 2.44802 11.696 5.58402 11.696C8.72002 11.696 11.184 9.15201 11.184 6.04801C11.184 2.92801 8.72002 0.38401 5.58402 0.38401C2.44802 0.38401 2.05636e-05 2.92801 2.05636e-05 6.04801ZM14.8676 8.89601C14.8676 6.91201 15.4116 5.72801 16.7396 5.72801C16.9316 5.72801 17.4116 5.72801 17.8756 5.93601L18.2116 4.17601C17.9076 4.00001 17.5076 3.90401 16.9796 3.90401C16.1316 3.90401 15.2516 4.46401 14.8676 5.82401V4.06401H12.9156V11.536H14.8676V8.89601ZM24.8895 11.536H26.8255V1.04904e-05H24.8895V5.05601C24.4575 4.30401 23.5455 3.90401 22.5375 3.90401C20.5695 3.90401 18.8735 5.42401 18.8735 7.80801C18.8735 10.176 20.5695 11.696 22.5375 11.696C23.5135 11.696 24.4575 11.28 24.8895 10.528V11.536ZM24.8575 7.77601C24.8575 9.02401 23.9295 9.82401 22.8575 9.82401C21.7695 9.82401 20.8895 9.00801 20.8895 7.77601C20.8895 6.56001 21.7695 5.76001 22.8575 5.76001C23.8815 5.76001 24.8575 6.49601 24.8575 7.77601ZM36.2406 7.77601C36.2406 5.40801 34.5606 3.90401 32.4486 3.90401C30.3206 3.90401 28.5766 5.40801 28.5766 7.77601C28.5766 10.128 30.3206 11.696 32.4486 11.696C33.8246 11.696 35.2486 11.168 35.9366 9.88801C35.4406 9.63201 34.9126 9.34401 34.4486 9.08801C34.0806 9.72801 33.3286 10.048 32.5766 10.048C31.4726 10.048 30.6406 9.45601 30.5126 8.44801H36.2086C36.2246 8.27201 36.2406 7.96801 36.2406 7.77601ZM30.4966 7.12001C30.6406 6.09601 31.4406 5.53601 32.4646 5.53601C33.4246 5.53601 34.1926 6.09601 34.3366 7.12001H30.4966ZM39.8364 8.89601C39.8364 6.91201 40.3804 5.72801 41.7084 5.72801C41.9004 5.72801 42.3804 5.72801 42.8444 5.93601L43.1804 4.17601C42.8764 4.00001 42.4764 3.90401 41.9484 3.90401C41.1004 3.90401 40.2204 4.46401 39.8364 5.82401V4.06401H37.8844V11.536H39.8364V8.89601ZM56.4883 0.512011H54.4403V7.68001L50.2323 0.512011H48.3283V11.536H50.3603V4.28801L54.6163 11.536H56.4883V0.512011ZM62.2303 9.77601C61.1423 9.77601 60.2783 8.99201 60.2783 7.77601C60.2783 6.57601 61.1423 5.82401 62.2303 5.82401C63.3183 5.82401 64.1823 6.57601 64.1823 7.77601C64.1823 8.99201 63.3183 9.77601 62.2303 9.77601ZM62.2303 11.68C64.3423 11.68 66.1183 10.128 66.1183 7.77601C66.1183 5.40801 64.3423 3.90401 62.2303 3.90401C60.1183 3.90401 58.3423 5.40801 58.3423 7.77601C58.3423 10.128 60.1183 11.68 62.2303 11.68ZM78.9088 4.06401H76.8288L75.3088 8.78401L73.7888 4.06401H72.0608L70.5568 8.78401L69.0368 4.06401H66.9568L69.7088 11.536H71.3248L72.9408 6.52801L74.6048 11.536H76.2368L78.9088 4.06401Z" fill="#E21A43"/>
</svg>
