<svg width="112" height="16" viewBox="0 0 112 16" fill="none" xmlns="http://www.w3.org/2000/svg">
<path d="M21.3578 1.66741C21.3576 2.10941 21.1805 2.53322 20.8655 2.84561C20.5505 3.158 20.1233 3.33337 19.6781 3.33315C19.2328 3.33293 18.8058 3.15713 18.4911 2.84443C18.1764 2.53173 17.9998 2.10774 18 1.66574C18.0002 1.22374 18.1773 0.799926 18.4923 0.487539C18.8073 0.175152 19.2345 -0.000220793 19.6797 2.08623e-07C20.125 0.00022121 20.552 0.176018 20.8667 0.488718C21.1814 0.801417 21.358 1.2254 21.3578 1.66741ZM21.4082 4.56725H18.0504V15H21.4082V4.56725ZM26.7135 4.56725H23.3725V15H26.68V9.5253C26.68 6.47547 30.6842 6.19216 30.6842 9.5253V15H34V8.39203C34 3.25065 28.0735 3.44231 26.68 5.96717L26.7135 4.56725Z" fill="#666666"/>
<path d="M52 5.6C51.3635 5.6 50.753 5.85286 50.3029 6.30294C49.8529 6.75303 49.6 7.36348 49.6 8C49.6 8.63652 49.8529 9.24697 50.3029 9.69706C50.753 10.1471 51.3635 10.4 52 10.4C52.6365 10.4 53.247 10.1471 53.6971 9.69706C54.1471 9.24697 54.4 8.63652 54.4 8C54.4 7.36348 54.1471 6.75303 53.6971 6.30294C53.247 5.85286 52.6365 5.6 52 5.6ZM52 4C53.0609 4 54.0783 4.42143 54.8284 5.17157C55.5786 5.92172 56 6.93913 56 8C56 9.06087 55.5786 10.0783 54.8284 10.8284C54.0783 11.5786 53.0609 12 52 12C50.9391 12 49.9217 11.5786 49.1716 10.8284C48.4214 10.0783 48 9.06087 48 8C48 6.93913 48.4214 5.92172 49.1716 5.17157C49.9217 4.42143 50.9391 4 52 4ZM57.2 3.8C57.2 4.06522 57.0946 4.31957 56.9071 4.50711C56.7196 4.69464 56.4652 4.8 56.2 4.8C55.9348 4.8 55.6804 4.69464 55.4929 4.50711C55.3054 4.31957 55.2 4.06522 55.2 3.8C55.2 3.53478 55.3054 3.28043 55.4929 3.09289C55.6804 2.90536 55.9348 2.8 56.2 2.8C56.4652 2.8 56.7196 2.90536 56.9071 3.09289C57.0946 3.28043 57.2 3.53478 57.2 3.8ZM52 1.6C50.0208 1.6 49.6976 1.6056 48.7768 1.6464C48.1496 1.676 47.7288 1.76 47.3384 1.912C46.9912 2.0464 46.7408 2.2072 46.4744 2.4744C46.224 2.71632 46.0315 3.01167 45.9112 3.3384C45.7592 3.7304 45.6752 4.1504 45.6464 4.7768C45.6048 5.66 45.6 5.9688 45.6 8C45.6 9.9792 45.6056 10.3024 45.6464 11.2232C45.676 11.8496 45.76 12.2712 45.9112 12.6608C46.0472 13.0088 46.2072 13.2592 46.4728 13.5248C46.7424 13.7936 46.9928 13.9544 47.3368 14.0872C47.732 14.24 48.1528 14.3248 48.7768 14.3536C49.66 14.3952 49.9688 14.4 52 14.4C53.9792 14.4 54.3024 14.3944 55.2232 14.3536C55.8488 14.324 56.2704 14.24 56.6608 14.0888C57.0072 13.9536 57.2592 13.7928 57.5248 13.5272C57.7944 13.2576 57.9552 13.0072 58.088 12.6632C58.24 12.2688 58.3248 11.8472 58.3536 11.2232C58.3952 10.34 58.4 10.0312 58.4 8C58.4 6.0208 58.3944 5.6976 58.3536 4.7768C58.324 4.1512 58.24 3.7288 58.088 3.3384C57.9674 3.012 57.7753 2.71677 57.5256 2.4744C57.2838 2.22388 56.9884 2.03133 56.6616 1.9112C56.2696 1.7592 55.8488 1.6752 55.2232 1.6464C54.34 1.6048 54.0312 1.6 52 1.6ZM52 0C54.1736 0 54.4448 0.00799995 55.2976 0.048C56.1496 0.088 56.7296 0.2216 57.24 0.42C57.768 0.6232 58.2128 0.8984 58.6576 1.3424C59.0644 1.74232 59.3792 2.22607 59.58 2.76C59.7776 3.2696 59.912 3.8504 59.952 4.7024C59.9896 5.5552 60 5.8264 60 8C60 10.1736 59.992 10.4448 59.952 11.2976C59.912 12.1496 59.7776 12.7296 59.58 13.24C59.3797 13.7742 59.0649 14.2581 58.6576 14.6576C58.2576 15.0643 57.7738 15.379 57.24 15.58C56.7304 15.7776 56.1496 15.912 55.2976 15.952C54.4448 15.9896 54.1736 16 52 16C49.8264 16 49.5552 15.992 48.7024 15.952C47.8504 15.912 47.2704 15.7776 46.76 15.58C46.2259 15.3796 45.742 15.0648 45.3424 14.6576C44.9355 14.2577 44.6207 13.774 44.42 13.24C44.2216 12.7304 44.088 12.1496 44.048 11.2976C44.0104 10.4448 44 10.1736 44 8C44 5.8264 44.008 5.5552 44.048 4.7024C44.088 3.8496 44.2216 3.2704 44.42 2.76C44.6202 2.22574 44.935 1.74186 45.3424 1.3424C45.7421 0.935385 46.2259 0.620583 46.76 0.42C47.2704 0.2216 47.8496 0.088 48.7024 0.048C49.5552 0.0104 49.8264 0 52 0Z" fill="#666666"/>
<path d="M74.654 3C75.1156 3 75.5425 3.03571 75.9326 3.14143C76.2865 3.20575 76.6244 3.33774 76.9272 3.53C77.2118 3.70643 77.4249 3.95428 77.5665 4.27214C77.7088 4.59 77.7796 4.97928 77.7796 5.40285C77.7796 5.89785 77.6734 6.32142 77.4249 6.63928C77.2118 6.95785 76.8565 7.23999 76.4303 7.45213C77.0342 7.62928 77.4957 7.94713 77.7796 8.3707C78.0642 8.79499 78.2419 9.32499 78.2419 9.9257C78.2419 10.4207 78.135 10.8443 77.9573 11.1978C77.7796 11.5514 77.4957 11.8693 77.1757 12.0814C76.8281 12.3088 76.4439 12.476 76.0395 12.5757C75.6133 12.6821 75.1871 12.7528 74.7609 12.7528H70V3H74.654ZM74.3694 6.95714C74.7602 6.95714 75.0802 6.85142 75.3287 6.67499C75.5772 6.49856 75.6841 6.17999 75.6841 5.79142C75.6841 5.57928 75.648 5.36714 75.5772 5.22642C75.5064 5.085 75.3995 4.97857 75.2579 4.87285C75.1156 4.80214 74.9733 4.73143 74.7956 4.69643C74.6179 4.66071 74.4409 4.66071 74.2271 4.66071H72.167V6.95785H74.3702L74.3694 6.95714ZM74.4763 11.1271C74.6894 11.1271 74.9025 11.0914 75.0802 11.0564C75.2596 11.0227 75.4293 10.9502 75.5772 10.8443C75.7219 10.7409 75.843 10.6085 75.9326 10.4557C76.0034 10.2793 76.0749 10.0671 76.0749 9.81999C76.0749 9.32499 75.9326 8.97142 75.6487 8.72427C75.3641 8.51213 74.9733 8.40642 74.5117 8.40642H72.167V11.1278H74.4763V11.1271ZM81.3328 11.0914C81.6167 11.3743 82.0429 11.5157 82.6113 11.5157C83.0021 11.5157 83.3575 11.41 83.6414 11.2336C83.926 11.0214 84.1037 10.8093 84.1745 10.5971H85.9153C85.6307 11.445 85.2045 12.0457 84.6368 12.4343C84.0676 12.7878 83.3929 13 82.5759 13C82.0532 13.0015 81.5349 12.9056 81.0482 12.7171C80.6102 12.5547 80.2197 12.2877 79.9112 11.94C79.5813 11.6147 79.3375 11.2141 79.2012 10.7736C79.0235 10.3143 78.952 9.81999 78.952 9.25427C78.952 8.72428 79.0235 8.22999 79.2012 7.76999C79.372 7.3272 79.6248 6.91977 79.9466 6.56856C80.2666 6.25071 80.6574 5.96857 81.0836 5.79142C81.558 5.6029 82.0647 5.50685 82.5759 5.50857C83.1798 5.50857 83.7129 5.615 84.1745 5.86214C84.6368 6.10928 84.9915 6.39214 85.2761 6.81642C85.5664 7.22394 85.7827 7.67835 85.9153 8.15928C85.9861 8.65356 86.0215 9.14856 85.9861 9.71356H80.8351C80.8351 10.2793 81.0482 10.8093 81.3328 11.0921V11.0914ZM83.5706 7.38142C83.3221 7.13428 82.9313 6.99285 82.469 6.99285C82.1498 6.99285 81.9006 7.06356 81.6875 7.16928C81.4744 7.27571 81.3328 7.41713 81.1905 7.55856C81.0597 7.69517 80.9732 7.86729 80.942 8.05285C80.9059 8.22999 80.8705 8.3707 80.8705 8.51213H84.0676C83.9968 7.98213 83.8191 7.62928 83.5706 7.38142ZM80.4443 3.67143H84.423V4.62571H80.445V3.67143H80.4443Z" fill="#E21A43"/>
<path d="M110.391 7.6576C110.326 6.39833 109.888 5.18688 109.133 4.1768C108.903 4.4245 108.657 4.65699 108.397 4.8728C107.598 5.53668 106.704 6.07855 105.746 6.4808C105.88 6.7608 106.002 7.032 106.11 7.288V7.2904C106.141 7.36193 106.17 7.43394 106.198 7.5064C107.41 7.3704 108.686 7.42 109.924 7.5872C110.089 7.6096 110.244 7.6336 110.391 7.6576ZM102.883 1.6976C103.663 2.79614 104.382 3.93651 105.037 5.1136C106.015 4.728 106.824 4.2416 107.475 3.7C107.701 3.51371 107.914 3.31188 108.112 3.096C106.961 2.12777 105.504 1.59787 104 1.6C103.626 1.59974 103.252 1.63213 102.883 1.6968V1.6976ZM97.8024 6.3976C98.3474 6.38385 98.8917 6.35103 99.4344 6.2992C100.746 6.18187 102.047 5.962 103.324 5.6416C102.656 4.48177 101.936 3.35337 101.164 2.26C100.34 2.66832 99.613 3.24913 99.033 3.96303C98.453 4.67693 98.0333 5.50723 97.8024 6.3976ZM99.0264 12.028C99.3368 11.5744 99.7448 11.064 100.286 10.5088C101.45 9.3168 102.822 8.3888 104.411 7.8768L104.461 7.8624C104.329 7.5712 104.205 7.3112 104.08 7.0664C102.611 7.4944 101.064 7.7616 99.5224 7.9C98.7704 7.968 98.096 7.9976 97.6 8.0024C97.5986 9.46847 98.1026 10.8902 99.0272 12.028H99.0264ZM106.404 13.932C106.095 12.3762 105.659 10.8486 105.098 9.3648C103.497 9.9464 102.221 10.7968 101.234 11.8112C100.836 12.2131 100.483 12.657 100.181 13.1352C101.284 13.9582 102.624 14.402 104 14.4C104.824 14.4012 105.64 14.2428 106.404 13.9336V13.932ZM107.902 13.072C109.151 12.1118 110.002 10.7246 110.292 9.176C110.02 9.108 109.675 9.04 109.296 8.9872C108.453 8.86579 107.597 8.85692 106.752 8.9608C107.228 10.3039 107.612 11.6777 107.902 13.0728V13.072ZM104 16C99.5816 16 96 12.4184 96 8C96 3.5816 99.5816 0 104 0C108.418 0 112 3.5816 112 8C112 12.4184 108.418 16 104 16Z" fill="#666666"/>
<path d="M5.33333 9.2H7.2381L8 6H5.33333V4.4C5.33333 3.576 5.33333 2.8 6.85714 2.8H8V0.112C7.75162 0.0776001 6.81371 0 5.82324 0C3.75467 0 2.28571 1.3256 2.28571 3.76V6H0V9.2H2.28571V16H5.33333V9.2Z" fill="#666666"/>
</svg>
