<svg width="94" height="351" viewBox="0 0 94 351" fill="none" xmlns="http://www.w3.org/2000/svg">
<path d="M23.2187 345.219L21.2187 343.719C18.3229 341.552 15.6146 338.99 13.0937 336.031C12.0729 334.844 11.5521 334.25 11.5312 334.25C11.5312 334.271 11.6562 334.448 11.9062 334.781C15.0104 338.698 18.25 341.844 21.625 344.219C22.625 344.885 23.1562 345.219 23.2187 345.219ZM27.0937 301.781C27.0937 301.74 26.8958 301.625 26.5 301.437C24.0625 300.354 22.0417 299.792 20.4375 299.75L19.625 299.719C19.5208 299.719 19.4687 299.729 19.4687 299.75C22.1562 300.333 24.2292 300.875 25.6875 301.375C26.4167 301.646 26.8854 301.781 27.0937 301.781ZM33.1875 303.219C33.1875 303.177 32.8125 302.906 32.0625 302.406C30.7292 301.552 29.9271 301.125 29.6562 301.125C29.6771 301.187 30.3125 301.594 31.5625 302.344C32.25 302.74 32.7917 303.031 33.1875 303.219ZM45 313.25C45 313.187 44.6667 312.646 44 311.625C42.9167 310.021 41.9792 308.823 41.1875 308.031C41.1875 308.156 41.4271 308.5 41.9062 309.062C42.6771 310.062 43.3021 310.917 43.7812 311.625C44.5521 312.708 44.9583 313.25 45 313.25ZM47.375 315.75C47.375 315.479 46.6458 314.208 45.1875 311.937C44.2083 310.417 43.6146 309.573 43.4062 309.406C43.4062 309.469 43.8229 310.135 44.6562 311.406C45.4687 312.677 46.1146 313.719 46.5937 314.531C47.0729 315.344 47.3333 315.75 47.375 315.75ZM47.6562 314.875C47.6562 314.75 47.1875 313.896 46.25 312.312C45.9375 311.771 45.6146 311.24 45.2812 310.719C44.9271 310.177 44.625 309.719 44.375 309.344C44.1042 308.969 43.9583 308.781 43.9375 308.781C43.9375 308.823 44.0521 309.031 44.2812 309.406C45.6146 311.531 46.5417 313.042 47.0625 313.937C47.3958 314.562 47.5937 314.875 47.6562 314.875ZM69.0312 331.375C68.9479 331.292 66.0729 331.115 60.4062 330.844L60.0937 330.875C60.1979 330.937 61.4583 331.042 63.875 331.187C65.9583 331.312 67.4896 331.385 68.4687 331.406C68.8229 331.406 69.0104 331.396 69.0312 331.375ZM69.3437 332.219C69.2396 332.177 67.0729 332.125 62.8437 332.062L62.0937 332.094C62.8229 332.198 64.7396 332.25 67.8437 332.25C68.8437 332.25 69.3437 332.24 69.3437 332.219ZM70.4375 333.25C70.4375 333.208 68.9583 333.167 66 333.125C61.6042 333 58.9896 332.917 58.1562 332.875L50.0937 332.156L50.0312 332.187L50.0625 332.187C50.1875 332.229 50.7812 332.312 51.8437 332.437C53.8646 332.708 56.2083 332.958 58.875 333.187C60.2917 333.333 62.625 333.406 65.875 333.406C68.9167 333.406 70.4375 333.354 70.4375 333.25ZM15.1562 336.219C15.1562 336.177 14.9375 335.906 14.5 335.406C13.6458 334.406 12.7604 333.271 11.8437 332L10 329.281L10.125 329.562C10.7292 330.687 11.875 332.302 13.5625 334.406C14.4375 335.531 14.9687 336.135 15.1562 336.219ZM18.0937 339.25C18.0937 339.229 17.9687 339.083 17.7187 338.812C17.4479 338.542 17.125 338.219 16.75 337.844C16.3542 337.448 16.0312 337.135 15.7812 336.906C15.5104 336.656 15.375 336.542 15.375 336.562C15.375 336.583 15.5104 336.729 15.7812 337C16.0312 337.271 16.3542 337.594 16.75 337.969C17.125 338.344 17.4479 338.656 17.7187 338.906C17.9687 339.156 18.0937 339.271 18.0937 339.25ZM17.625 339.781L16.2187 338.344C15.2604 337.365 14.2083 336.167 13.0625 334.75C12.0833 333.542 11.3229 332.531 10.7812 331.719C10.0312 330.594 9.625 330.031 9.5625 330.031C9.77083 330.469 10.1875 331.125 10.8125 332C12 333.667 13.0729 335.031 14.0312 336.094C14.9271 337.052 16.125 338.281 17.625 339.781ZM75.4687 334.219C75.4687 336.448 71.9375 337.75 64.875 338.125C63.875 338.187 62.8229 338.219 61.7187 338.219C58.8021 338.219 54.75 337.969 49.5625 337.469C46.5417 337.219 44.0937 336.948 42.2187 336.656C40.3229 336.365 37.9479 335.896 35.0937 335.25C28.1354 333.708 23.5208 332.219 21.25 330.781C19.9583 329.948 19.1042 329.094 18.6875 328.219C18.5417 327.906 18.4687 327.406 18.4687 326.719C18.4687 326.219 18.4792 325.875 18.5 325.687C18.5208 325.5 18.5521 325.375 18.5937 325.312C18.6354 325.25 18.7187 325.208 18.8437 325.187C18.9479 325.146 19 325.104 19 325.062C19 325.021 18.9792 324.979 18.9375 324.937C18.8958 324.875 18.8646 324.792 18.8437 324.687C18.8229 324.562 18.8125 324.448 18.8125 324.344C18.8542 324.052 19.0208 323.906 19.3125 323.906C19.5833 323.885 19.7187 323.854 19.7187 323.812C19.7187 323.771 19.6458 323.698 19.5 323.594C19.3542 323.49 19.2812 323.396 19.2812 323.312C19.2812 323.25 19.3229 323.156 19.4062 323.031C19.4896 322.906 19.5833 322.844 19.6875 322.844C19.7708 322.844 20.0937 322.937 20.6562 323.125C20.6562 323.062 20.5729 322.958 20.4062 322.812C20.1562 322.604 20.0312 322.448 20.0312 322.344C20.0312 322.219 20.1562 322.156 20.4062 322.156C20.6562 322.156 20.7812 322.115 20.7812 322.031C20.7812 321.927 20.9271 321.875 21.2187 321.875C21.5521 321.875 22.0208 321.948 22.625 322.094C23.0625 322.198 24.9687 322.74 28.3437 323.719C31.7187 324.698 34.2917 325.417 36.0625 325.875C37.8125 326.312 40 326.823 42.625 327.406C45.25 327.969 46.7812 328.25 47.2187 328.25C47.3646 328.25 47.4375 328.219 47.4375 328.156C47.4375 328.094 47.5833 328.042 47.875 328C48.1458 327.958 48.2812 327.771 48.2812 327.437C48.2812 327.146 48.1875 326.677 48 326.031C47.5417 324.469 46.6875 322.573 45.4375 320.344C44.1667 318.115 42.7812 316.062 41.2812 314.187C40.4896 313.229 39.4271 312.083 38.0937 310.75C36.7604 309.396 35.5937 308.302 34.5937 307.469C29.8229 303.635 24.5937 301.365 18.9062 300.656C18.2187 300.573 17.4687 300.531 16.6562 300.531C15.0312 300.531 13.5833 300.667 12.3125 300.937C9.8125 301.562 8.04166 302.927 7 305.031C5.95833 307.135 5.4375 309.531 5.4375 312.219C5.4375 315.76 6.26042 319.552 7.90625 323.594C9.55208 327.615 11.8854 331.406 14.9062 334.969C18.3646 339.052 22.6771 342.604 27.8437 345.625C29.4687 346.583 30.2812 347.177 30.2812 347.406C30.2604 347.427 30.2292 347.448 30.1875 347.469C30.125 347.49 30.0937 347.521 30.0937 347.562C30.0937 347.604 30.125 347.667 30.1875 347.75C30.25 347.812 30.2812 347.875 30.2812 347.937C30.2812 348 30.2708 348.052 30.25 348.094C30.2083 348.115 30.1771 348.167 30.1562 348.25C30.1146 348.312 30.0937 348.396 30.0937 348.5C30.0729 348.583 30.0417 348.677 30 348.781C29.9583 348.865 29.9167 348.927 29.875 348.969C29.8125 349.01 29.7812 349.042 29.7812 349.062L29.875 349.094C29.875 349.302 29.1875 349.521 27.8125 349.75L29.1562 349.687C29.3229 349.687 29.4062 349.708 29.4062 349.75C29.4062 349.771 29.3646 349.812 29.2812 349.875C28.8437 350.187 28.2604 350.344 27.5312 350.344C25.7812 350.344 23.625 349.562 21.0625 348C18.2708 346.187 15.3646 343.698 12.3437 340.531C8.53125 336.427 5.63542 332.323 3.65625 328.219C1.21875 323.469 -1.39193e-06 318.719 -1.59956e-06 313.969C-1.73525e-06 310.865 0.520831 308.135 1.5625 305.781C2.58333 303.406 4.21875 301.177 6.46875 299.094C8.57291 297.135 11.1042 295.698 14.0625 294.781C16.0208 294.156 17.9271 293.844 19.7812 293.844L20.9062 293.875C24.2812 293.917 27.5937 294.75 30.8437 296.375C36.4271 299.229 41.2187 303.625 45.2187 309.562C48.3854 314.479 50.4583 318.875 51.4375 322.75C51.625 323.562 51.7187 324.354 51.7187 325.125C51.7187 326.437 51.4479 327.542 50.9062 328.437C50.7396 328.667 50.6562 328.812 50.6562 328.875C50.6562 329.021 52.2708 329.26 55.5 329.594C57.8125 329.844 60.25 330.042 62.8125 330.187C66.2083 330.417 68.2604 330.531 68.9687 330.531C69.2396 330.531 69.375 330.51 69.375 330.469L69.3125 330.437C69.2708 330.396 69.25 330.354 69.25 330.312C69.25 330.292 69.3229 330.281 69.4687 330.281C69.6354 330.281 69.7187 330.271 69.7187 330.25C69.7187 330.229 69.6771 330.198 69.5937 330.156C69.5104 330.094 69.4687 330.042 69.4687 330C69.4687 329.958 69.5312 329.937 69.6562 329.937C70.0937 329.937 71.25 330.135 73.125 330.531C73.625 330.615 74.0104 330.75 74.2812 330.937C74.9896 331.437 75.3854 332.531 75.4687 334.219ZM56.7812 291.312C56.7812 291.687 56.7396 291.927 56.6562 292.031C56.5521 292.135 56.5 292.26 56.5 292.406L56.5312 292.656C56.5312 292.823 56.4062 293.01 56.1562 293.219L56.1562 293.344C56.1562 293.781 55.5833 294 54.4375 294C52.7083 294 50.5 293.75 47.8125 293.25C45.125 292.771 42.4167 292.177 39.6875 291.469C36.9583 290.781 34.6354 290.125 32.7187 289.5C30.8021 288.854 29.8437 288.385 29.8437 288.094L29.875 287.937C29.875 287.875 29.8229 287.74 29.7187 287.531C29.7187 287.469 29.8021 287.396 29.9687 287.312C30.1146 287.229 30.1875 287.167 30.1875 287.125C30.125 287.083 30.0729 287.052 30.0312 287.031C29.9687 286.99 29.9167 286.937 29.875 286.875C29.8125 286.792 29.7812 286.719 29.7812 286.656C29.7812 286.531 29.8958 286.469 30.125 286.469L31.2187 286.562C31.2396 286.562 31.25 286.552 31.25 286.531C30.625 286.24 30.2604 286.042 30.1562 285.937L30.125 285.781C30.125 285.677 30.1667 285.583 30.25 285.5C30.3333 285.396 30.4375 285.344 30.5625 285.344C30.6875 285.344 30.75 285.323 30.75 285.281C30.75 285.24 30.7292 285.198 30.6875 285.156C30.5833 285.052 30.5312 284.969 30.5312 284.906C30.5312 284.802 30.6458 284.708 30.875 284.625C30.9583 284.604 31.0312 284.562 31.0937 284.5C31.1562 284.437 31.1875 284.375 31.1875 284.312C31.1875 284.25 31.2396 284.187 31.3437 284.125C31.6146 284 31.9479 283.937 32.3437 283.937C33.2812 283.937 35.2708 284.333 38.3125 285.125C40.6875 285.708 41.9583 286 42.125 286C42.125 285.979 41.6354 285.625 40.6562 284.937C39.7396 284.333 38.8229 283.677 37.9062 282.969C37.2187 282.448 36.4062 281.854 35.4687 281.187C34.6771 280.625 34.1354 280.177 33.8437 279.844C33.6354 279.552 33.5312 279.281 33.5312 279.031C33.5937 278.156 33.7083 277.531 33.875 277.156C34.0208 276.781 34.2708 276.427 34.625 276.094C34.9792 275.698 35.3854 275.406 35.8437 275.219L37.625 274.625C38 274.479 38.3229 274.365 38.5937 274.281C38.8437 274.177 39 274.115 39.0625 274.094C39.125 274.052 39.1562 273.937 39.1562 273.75C39.1562 273.5 39.1042 273.062 39 272.437C38.625 270.271 38.0417 268.354 37.25 266.687C36.8125 265.771 36.5937 265.271 36.5937 265.187C36.6146 265.125 36.625 265.031 36.625 264.906C36.625 264.448 36.6771 264.219 36.7812 264.219L36.875 264.25L36.9062 264.187L36.8437 263.937C36.8437 263.917 36.8542 263.906 36.875 263.906C36.9167 263.906 37.0417 263.958 37.25 264.062L37.2812 264L37.2187 263.75C37.2187 263.729 37.2292 263.719 37.25 263.719L37.375 263.75C37.4167 263.75 37.4792 263.708 37.5625 263.625C37.7292 263.625 38.1771 264.198 38.9062 265.344C39.8021 266.802 40.5208 268.469 41.0625 270.344C41.4167 271.594 41.5937 272.646 41.5937 273.5C41.5312 274.354 41.4271 275 41.2812 275.437C41.1354 275.875 40.9062 276.344 40.5937 276.844C40.2604 277.323 39.9062 277.719 39.5312 278.031C39.1354 278.323 38.6354 278.583 38.0312 278.812C37.6146 278.937 37.4062 279.073 37.4062 279.219C37.4062 279.344 37.6146 279.583 38.0312 279.937C41.3646 282.979 46.8542 285.844 54.5 288.531C55.75 288.969 56.375 289.26 56.375 289.406L56.3125 289.562C56.3125 289.625 56.375 289.708 56.5 289.812C56.625 289.896 56.6875 289.958 56.6875 290C56.6875 290.062 56.6562 290.115 56.5937 290.156C56.5312 290.198 56.4792 290.24 56.4375 290.281C56.4375 290.302 56.4896 290.312 56.5937 290.312C56.6771 290.312 56.7187 290.396 56.7187 290.562L56.6875 290.75C56.75 291 56.7812 291.187 56.7812 291.312ZM54.4375 290.094L54.25 290C54.0417 289.917 53.3958 289.75 52.3125 289.5C49.8333 288.937 47.3542 288.417 44.875 287.937C43.6667 287.708 42.8646 287.583 42.4687 287.562C42.4687 287.583 43.1562 287.719 44.5312 287.969C46.8021 288.385 49.2396 288.917 51.8437 289.562C53.2396 289.896 54.0937 290.083 54.4062 290.125L54.4375 290.094ZM53.875 290.656C53.875 290.594 53.4687 290.458 52.6562 290.25C50.8646 289.792 48.7187 289.312 46.2187 288.812C45.0312 288.562 43.9167 288.354 42.875 288.187C42.875 288.208 43.5104 288.354 44.7812 288.625L46.5312 288.969C48.0521 289.302 49.4792 289.635 50.8125 289.969C52.6458 290.427 53.625 290.656 53.75 290.656L53.875 290.656ZM55.4687 289.594C55.4687 289.573 55.2812 289.51 54.9062 289.406C54.5312 289.302 54.1875 289.229 53.875 289.187L53.8125 289.187C53.8125 289.208 53.9792 289.271 54.3125 289.375L54.5625 289.437C54.7292 289.479 54.8958 289.521 55.0625 289.562C55.2292 289.583 55.3646 289.594 55.4687 289.594ZM37.9062 278.25L37.8125 278.219C37.4375 278.281 37.1771 278.354 37.0312 278.437C36.8646 278.521 36.7812 278.583 36.7812 278.625C36.7812 278.646 36.8125 278.656 36.875 278.656C36.9375 278.656 37.0521 278.635 37.2187 278.594C37.3854 278.531 37.5417 278.469 37.6875 278.406C37.8333 278.323 37.9062 278.271 37.9062 278.25ZM41.0312 258.844C41.0312 257.531 40.5729 256.312 39.6562 255.187C38.7187 254.042 37.5937 253.125 36.2812 252.437C34.9687 251.729 33.7396 251.375 32.5937 251.375C32.4896 251.375 32.3646 251.396 32.2187 251.437C32.0521 251.458 31.9062 251.521 31.7812 251.625C31.6562 251.708 31.5937 251.833 31.5937 252C31.5937 252.146 31.6562 252.333 31.7812 252.562C32.6146 253.875 34 255.302 35.9375 256.844C37.8542 258.365 39.4896 259.479 40.8437 260.187C40.9687 259.729 41.0312 259.281 41.0312 258.844ZM37.3437 259.594L36.6562 259C36.3229 258.729 35.9479 258.406 35.5312 258.031C35.0937 257.635 34.7083 257.281 34.375 256.969C33.9792 256.573 33.7604 256.375 33.7187 256.375L33.875 256.562C34.3125 257.021 34.8333 257.521 35.4375 258.062C36.0208 258.604 36.5625 259.062 37.0625 259.437L37.3125 259.594L37.3437 259.594ZM43.7187 264.031C43.7187 264.01 43.2708 263.781 42.375 263.344C41.9583 263.135 41.5312 262.917 41.0937 262.687C40.6354 262.437 40.2708 262.24 40 262.094C38.4792 261.177 37.1146 260.24 35.9062 259.281L35.1875 258.687L35.625 259.125C36.4792 259.917 37.5208 260.708 38.75 261.5C39.9792 262.292 41.1979 262.969 42.4062 263.531C43.1979 263.865 43.625 264.031 43.6875 264.031L43.7187 264.031ZM55.125 266.187L55.0937 266.187C55.0104 266.187 54.6979 266.344 54.1562 266.656C53.9271 266.802 53.7396 266.927 53.5937 267.031C53.4479 267.135 53.375 267.198 53.375 267.219C53.4167 267.219 53.5417 267.177 53.75 267.094C53.9375 267.01 54.1354 266.906 54.3437 266.781C54.5521 266.677 54.7083 266.573 54.8125 266.469C55.0208 266.323 55.125 266.229 55.125 266.187ZM36.2812 257.969L35.2187 256.937L33.4062 255.25C33.4062 255.271 33.4479 255.333 33.5312 255.437C33.6146 255.5 33.7083 255.604 33.8125 255.75C33.9792 255.937 34.2396 256.187 34.5937 256.5C34.9271 256.812 35.2604 257.115 35.5937 257.406C36.0104 257.781 36.2396 257.969 36.2812 257.969ZM57.1562 261.812L57.1562 262.031C57.1562 262.115 57.1458 262.26 57.125 262.469C57.1042 262.656 57.0729 262.865 57.0312 263.094C56.7812 264.698 56.3021 265.99 55.5937 266.969C54.8854 267.969 54 268.687 52.9375 269.125C51.875 269.583 50.7083 269.812 49.4375 269.812C47.2292 269.812 44.8958 269.281 42.4375 268.219C39.9792 267.177 37.7292 265.865 35.6875 264.281C33.6458 262.677 32.1146 261.021 31.0937 259.312C30.5729 258.417 30.1979 257.51 29.9687 256.594C29.7187 255.656 29.5937 254.771 29.5937 253.937C29.5937 252.583 29.8854 251.5 30.4687 250.687C30.8854 250.146 31.375 249.75 31.9375 249.5C32.4792 249.25 33.0521 249.125 33.6562 249.125C34.7604 249.125 35.9062 249.437 37.0937 250.062C38.2604 250.687 39.3229 251.479 40.2812 252.437C41.2396 253.396 41.9792 254.385 42.5 255.406C42.6458 255.719 42.7812 256.156 42.9062 256.719C43.0104 257.26 43.0625 257.833 43.0625 258.437C43.0625 259.312 42.875 260.073 42.5 260.719C46.4167 262.615 49.5 263.562 51.75 263.562C52.9375 263.562 53.7917 263.281 54.3125 262.719C54.625 262.323 54.7812 261.865 54.7812 261.344C54.7812 260.073 54.1042 258.521 52.75 256.687C51.375 254.854 49.75 253 47.875 251.125C45.9792 249.229 44.1667 247.531 42.4375 246.031C40.7083 244.531 39.4375 243.437 38.625 242.75C38.5208 242.667 38.4271 242.594 38.3437 242.531C38.3021 242.51 38.2708 242.479 38.25 242.437C37.8958 242.167 37.5937 241.896 37.3437 241.625C37.0729 241.354 36.9375 241.083 36.9375 240.812L36.9687 240.656C36.9896 240.573 37.0417 240.5 37.125 240.437C37.1875 240.375 37.2917 240.344 37.4375 240.344C37.6458 240.344 37.9479 240.458 38.3437 240.687L39.75 241.625C40.3333 242.021 41.25 242.687 42.5 243.625C43.75 244.562 45.0729 245.583 46.4687 246.687C46.5937 246.792 46.7187 246.885 46.8437 246.969C48.7812 248.427 50.6667 250.062 52.5 251.875C54.3333 253.687 55.6875 255.792 56.5625 258.187C56.7083 258.687 56.8437 259.323 56.9687 260.094C57.0937 260.844 57.1562 261.417 57.1562 261.812ZM71.9687 213C71.9687 214.479 71.8958 215.667 71.75 216.562C71.375 218.646 70.4792 220.417 69.0625 221.875C67.9583 223.104 66.5625 224.115 64.875 224.906C63.7708 225.427 62.8333 225.76 62.0625 225.906C61.3125 226.052 60.3125 226.135 59.0625 226.156C58.0625 226.156 57.1042 225.917 56.1875 225.437C55.25 224.937 54.4896 224.354 53.9062 223.687C53.6354 223.333 53.3437 222.906 53.0312 222.406C52.7187 221.906 52.4479 221.437 52.2187 221C51.9687 220.542 51.8437 220.26 51.8437 220.156C51.8646 220.115 51.8854 220.083 51.9062 220.062C51.9271 220.021 51.9375 219.958 51.9375 219.875L51.875 219.531C51.8958 219.531 52.0104 219.615 52.2187 219.781C52.3437 219.885 52.4167 219.937 52.4375 219.937C52.3333 219.75 52.2708 219.635 52.25 219.594C52.2292 219.531 52.1979 219.437 52.1562 219.312L52.1875 219.281C52.2708 219.281 52.4583 219.448 52.75 219.781L53 220.031L52.9375 219.937C52.7083 219.521 52.5937 219.229 52.5937 219.062C52.5937 219.021 52.6146 219 52.6562 219C52.7396 219 52.8646 219.104 53.0312 219.312L53.1875 219.5L53.2187 219.469C53.1979 219.365 53.1771 219.271 53.1562 219.187C53.1146 219.083 53.0937 218.99 53.0937 218.906C53.0937 218.76 53.1354 218.687 53.2187 218.687C53.2812 218.687 53.3646 218.729 53.4687 218.812C53.5521 218.896 53.6458 218.969 53.75 219.031L53.6562 218.75C53.6562 218.667 53.6979 218.625 53.7812 218.625C53.8229 218.625 53.8854 218.646 53.9687 218.687C54.1146 218.792 54.25 218.854 54.375 218.875C54.5 218.896 54.7292 219.083 55.0625 219.437C56.6042 221.479 58.1042 222.677 59.5625 223.031C59.8333 223.094 60.2187 223.125 60.7187 223.125C62.0729 223.125 63.1146 222.667 63.8437 221.75C64.3854 221.187 64.7604 220.542 64.9687 219.812C65.1771 219.062 65.2812 218.031 65.2812 216.719C65.1771 208.906 63.0417 201.542 58.875 194.625C55.6042 189.521 51.75 186.312 47.3125 185C46.4167 184.792 45.4687 184.687 44.4687 184.687C42.6562 184.687 40.9375 185.083 39.3125 185.875C37.6875 186.667 36.3021 187.594 35.1562 188.656C34.4479 189.323 33.7708 190.187 33.125 191.25C32.4583 192.292 32.125 193.073 32.125 193.594C32.125 193.969 32.3437 194.854 32.7812 196.25C32.9062 196.625 33.0104 197.167 33.0937 197.875C33.2812 199.292 33.375 200.344 33.375 201.031C33.375 201.26 33.3854 201.427 33.4062 201.531C33.4271 201.635 33.5104 201.719 33.6562 201.781C34.1354 201.99 35.7187 202.396 38.4062 203C42.8646 204 46.5208 204.74 49.375 205.219L51.8125 205.656C52.8542 205.885 53.4792 206 53.6875 206L53.7812 205.937C53.7604 205.917 53.7083 205.896 53.625 205.875C53.4375 205.854 53.3437 205.802 53.3437 205.719C53.3437 205.656 53.4583 205.625 53.6875 205.625C54.2083 205.625 54.8333 205.719 55.5625 205.906C56.0833 206.073 56.5208 206.49 56.875 207.156C57.2083 207.823 57.375 208.583 57.375 209.437C57.375 210.104 57.2708 210.635 57.0625 211.031C56.875 211.427 56.4375 211.875 55.75 212.375C54.875 213.021 53.8437 213.458 52.6562 213.687C51.4479 213.917 49.5833 214.031 47.0625 214.031C45.6458 214.031 44.4583 214 43.5 213.937C42.5417 213.875 41.4479 213.74 40.2187 213.531C38.9687 213.323 37.2917 213.01 35.1875 212.594C31.8958 211.948 29.3437 211.406 27.5312 210.969C25.6979 210.531 24.1875 210.115 23 209.719C21.625 209.24 19.875 208.552 17.75 207.656C15.6042 206.74 13.8646 205.948 12.5312 205.281C11.5521 204.802 11 204.562 10.875 204.562C10.875 204.708 11.125 205.437 11.625 206.75C12.6042 209.229 13.7812 211.396 15.1562 213.25C16.3229 214.812 17.4792 215.99 18.625 216.781C18.9792 217.031 19.2187 217.156 19.3437 217.156C19.4062 217.156 19.4792 217.104 19.5625 217C19.625 216.896 19.6875 216.844 19.75 216.844C19.7917 216.844 19.8333 216.865 19.875 216.906C19.8958 216.927 19.9375 216.979 20 217.062C20.0417 217.125 20.1042 217.198 20.1875 217.281L20.125 216.875C20.125 216.687 20.1875 216.594 20.3125 216.594C20.3958 216.594 20.4792 216.625 20.5625 216.687C20.625 216.75 20.6771 216.781 20.7187 216.781C20.7604 216.781 20.8021 216.75 20.8437 216.687C20.8646 216.625 20.9062 216.594 20.9687 216.594C21.1354 216.594 21.3646 216.698 21.6562 216.906C21.9479 217.094 22.1979 217.323 22.4062 217.594C22.6979 218.073 22.8437 218.51 22.8437 218.906C22.8437 219.073 22.8125 219.219 22.75 219.344C22.6667 219.448 22.5937 219.552 22.5312 219.656C22.4479 219.74 22.4062 219.812 22.4062 219.875C22.4062 219.937 22.2292 220.156 21.875 220.531C21.5208 220.885 21.1354 221.229 20.7187 221.562C20.2812 221.875 19.9271 222.031 19.6562 222.031C19.5312 222.031 19.3854 222.083 19.2187 222.187C18.9687 222.375 18.6562 222.469 18.2812 222.469C17.8437 222.469 17.3542 222.333 16.8125 222.062C16.25 221.771 15.5104 221.187 14.5937 220.312C13.6771 219.417 12.8542 218.5 12.125 217.562C7.91666 211.812 5.16666 204.375 3.87499 195.25C3.74999 194.042 3.68749 192.521 3.68749 190.687C3.68749 189.521 3.70833 188.385 3.74999 187.281C3.87499 184.448 4.53124 181.802 5.71874 179.344C6.11458 178.531 6.68749 177.75 7.43749 177C8.81249 175.604 10.4062 174.698 12.2187 174.281C12.9479 174.094 13.8542 174 14.9375 174C16.5833 174 17.9167 174.24 18.9375 174.719C19.9583 175.198 21.1667 176.167 22.5625 177.625C24.7292 179.729 26.875 182.875 29 187.062C29.75 188.458 30.1354 189.156 30.1562 189.156C30.1979 189.156 30.3542 188.937 30.625 188.5C31.3958 187.229 32.5833 186.031 34.1875 184.906C35.7917 183.76 37.5833 182.865 39.5625 182.219C40.7708 181.823 41.7917 181.562 42.625 181.437C43.4583 181.312 44.7083 181.25 46.375 181.25C48 181.25 49.1979 181.312 49.9687 181.437C50.7396 181.542 51.7396 181.781 52.9687 182.156C57.2396 183.615 60.9687 186.24 64.1562 190.031C68.0937 195.031 70.625 201.344 71.75 208.969C71.8958 210.198 71.9687 211.542 71.9687 213ZM62.7812 196.094C62.7812 195.948 62.4583 195.375 61.8125 194.375C61.1875 193.375 60.8437 192.875 60.7812 192.875L60.75 192.875C60.75 192.937 61.0729 193.5 61.7187 194.562C62.3646 195.604 62.7083 196.125 62.75 196.125L62.7812 196.094ZM57.625 191.219C56.7083 189.865 55.5521 188.677 54.1562 187.656L53.5312 187.25C53.5312 187.271 53.875 187.604 54.5625 188.25C55.2292 188.896 55.9479 189.594 56.7187 190.344C57.2812 190.927 57.5833 191.219 57.625 191.219ZM71.3437 213.375C71.2396 210.583 71.1458 209.187 71.0625 209.187L71.0312 209.5C71.0312 209.833 71.0521 210.354 71.0937 211.062C71.1562 212.146 71.2396 212.917 71.3437 213.375ZM70.4375 212.344C70.375 210.865 70.2812 209.937 70.1562 209.562L70.125 209.844C70.125 211.135 70.2292 212.437 70.4375 213.75L70.4375 212.344ZM56.1562 224.781C56.1562 224.76 56.0833 224.698 55.9375 224.594C55.7917 224.469 55.625 224.333 55.4375 224.187C55.25 224.042 55.0833 223.917 54.9375 223.812C54.7708 223.687 54.6771 223.625 54.6562 223.625C54.9062 223.937 55.1875 224.219 55.5 224.469C55.7917 224.698 56 224.812 56.125 224.812C56.125 224.792 56.1354 224.781 56.1562 224.781ZM27.7187 204.469L27.5937 204.125C27.4896 203.937 27.0104 203.708 26.1562 203.437C22.6771 202.396 20.1667 201.625 18.625 201.125C17.0833 200.604 15.7604 200.094 14.6562 199.594C14.4271 199.49 14.2604 199.437 14.1562 199.437L14.125 199.469C14.125 199.552 14.8542 199.885 16.3125 200.469C17.7708 201.031 19.6875 201.75 22.0625 202.625C23.3542 203.104 24.5833 203.531 25.75 203.906C26.9167 204.281 27.5625 204.469 27.6875 204.469L27.7187 204.469ZM26.6562 202.281C26.5104 202.115 26.0104 201.948 25.1562 201.781L25.125 201.781C26 202.135 26.5 202.312 26.625 202.312L26.6562 202.281ZM25.0312 199.062L23.6562 195.094C23.0312 193.198 22.4896 191.687 22.0312 190.562C21.5521 189.417 21 188.281 20.375 187.156C18.9583 184.594 17.5 182.51 16 180.906C15.7292 180.635 15.3958 180.344 15 180.031C14.5833 179.698 14.1979 179.417 13.8437 179.187C13.4687 178.937 13.2187 178.812 13.0937 178.812C12.9687 178.812 12.7083 179.094 12.3125 179.656C10.6667 182.01 9.58333 185.354 9.06249 189.687C8.99999 190.479 8.96874 191.385 8.96874 192.406C8.96874 193.198 8.98958 193.979 9.03124 194.75C9.05208 195.521 9.09374 196.156 9.15624 196.656C9.21874 197.156 9.29166 197.406 9.37499 197.406L9.40624 197.375C9.44791 197.333 9.48958 197.302 9.53124 197.281C9.57291 197.26 9.64583 197.25 9.74999 197.25L10.2187 197.312C10.2604 197.312 10.2812 197.302 10.2812 197.281C10.2812 197.26 10.2396 197.208 10.1562 197.125C10.0729 197.021 9.99999 196.917 9.93749 196.812C9.87499 196.708 9.84374 196.604 9.84374 196.5C9.84374 196.292 9.93749 196.187 10.125 196.187C10.3125 196.187 10.7604 196.365 11.4687 196.719L11.9062 196.906C11.6562 196.656 11.4375 196.448 11.25 196.281C11.0625 196.115 10.9271 195.979 10.8437 195.875C10.7396 195.75 10.6875 195.646 10.6875 195.562C10.6875 195.5 10.7187 195.448 10.7812 195.406C10.8229 195.365 10.875 195.344 10.9375 195.344C11.0208 195.344 11.2083 195.396 11.5 195.5L11.8125 195.625L11.8437 195.594C11.8021 195.531 11.75 195.469 11.6875 195.406C11.625 195.344 11.5937 195.281 11.5937 195.219C11.5937 195.135 11.6667 195.094 11.8125 195.094C12.1875 195.094 13.2604 195.417 15.0312 196.062C15.8021 196.333 16.9479 196.708 18.4687 197.187C19.9687 197.667 21.4062 198.104 22.7812 198.5C24.1354 198.896 24.875 199.094 25 199.094L25.0312 199.062ZM22.9062 186C22.9062 185.896 22.7708 185.625 22.5 185.187C22.125 184.521 21.6667 183.802 21.125 183.031C20.75 182.552 20.5312 182.312 20.4687 182.312C20.5937 182.562 20.8333 182.969 21.1875 183.531C21.5417 184.094 21.8958 184.635 22.25 185.156C22.6042 185.656 22.8229 185.937 22.9062 186ZM17.7812 181.406L17.6875 181.25C17.0625 180.396 16.4792 179.76 15.9375 179.344C15.5833 179.094 15.375 178.969 15.3125 178.969L15.2812 178.969C15.2812 179.052 15.6875 179.479 16.5 180.25C17.3125 181.021 17.7396 181.406 17.7812 181.406ZM7.84374 200.125L7.21874 195.531C7.13541 194.74 7.04166 193.615 6.93749 192.156C6.97916 195.281 7.22916 197.792 7.68749 199.687L7.84374 200.125ZM7.71874 192.344C7.71874 191.552 7.69791 191.135 7.65624 191.094L7.62499 192.437L7.65624 193.656C7.67708 193.656 7.69791 193.219 7.71874 192.344ZM69.4062 212.031C69.3646 210.656 69.2083 209.26 68.9375 207.844C68.6667 206.594 68.5 205.969 68.4375 205.969L69.4062 212.031ZM53.3437 208.719C53.3437 208.615 53.0833 208.562 52.5625 208.562C51.8958 208.562 50.6771 208.479 48.9062 208.312C47.1146 208.125 45.4896 207.927 44.0312 207.719C40.7812 207.219 37.5729 206.583 34.4062 205.812C33.8021 205.667 33.375 205.594 33.125 205.594C32.9583 205.594 32.875 205.625 32.875 205.687C32.875 205.75 32.9167 205.812 33 205.875C33.1875 206 34.0521 206.229 35.5937 206.562C42.8646 208.083 48.4062 208.844 52.2187 208.844C52.9062 208.844 53.2812 208.802 53.3437 208.719ZM53.0625 207.594C53.0625 207.552 52.5 207.479 51.375 207.375C49 207.104 46.3333 206.719 43.375 206.219C40.4167 205.698 37.8542 205.177 35.6875 204.656C34.6042 204.385 33.9271 204.25 33.6562 204.25C33.6354 204.25 33.625 204.26 33.625 204.281L33.5625 204.312L33.5625 204.344C33.5625 204.427 33.8125 204.531 34.3125 204.656L35.8125 205.062C38.8125 205.792 42.0625 206.417 45.5625 206.937C49.0625 207.458 51.3854 207.719 52.5312 207.719C52.8854 207.719 53.0625 207.677 53.0625 207.594ZM52.7187 206.719L52.5937 206.625C52.4062 206.542 51.3229 206.344 49.3437 206.031C47.3437 205.719 44.9375 205.281 42.125 204.719C39.3125 204.156 37.1354 203.687 35.5937 203.312C34.5104 203.021 33.8437 202.875 33.5937 202.875C33.5104 202.875 33.4687 202.896 33.4687 202.937L33.6562 203.094C34.0104 203.281 35.0729 203.573 36.8437 203.969C38.5937 204.365 40.625 204.781 42.9375 205.219C45.2292 205.656 47.375 206.031 49.375 206.344C51.2292 206.615 52.3021 206.75 52.5937 206.75C52.6771 206.75 52.7187 206.74 52.7187 206.719ZM38.9687 162.75C38.9479 162.729 38.8958 162.719 38.8125 162.719C38.7083 162.719 38.5937 162.719 38.4687 162.719L38.0937 162.719C37.5104 162.74 36.8958 162.812 36.25 162.937C35.5833 163.062 35.0104 163.208 34.5312 163.375C34.0521 163.521 33.8125 163.646 33.8125 163.75C33.8125 163.896 33.9792 164.01 34.3125 164.094C34.6458 164.177 35.0312 164.219 35.4687 164.219C35.9896 164.219 36.4896 164.146 36.9687 164C37.2187 163.896 37.5 163.76 37.8125 163.594C38.125 163.427 38.3958 163.26 38.625 163.094C38.8542 162.927 38.9687 162.823 38.9687 162.781L38.9687 162.75ZM54.5625 168.812C54.5625 168.625 54.4271 168.333 54.1562 167.937C52.6354 165.792 49.625 164.208 45.125 163.187L45.0937 163.187C44.3229 162.979 43.7708 162.875 43.4375 162.875C43.1875 162.875 43 162.948 42.875 163.094C42.75 163.24 42.6146 163.469 42.4687 163.781C42.4479 163.781 42.4375 163.792 42.4375 163.812C41.7917 164.979 40.8437 165.99 39.5937 166.844C39.1771 167.073 38.9687 167.25 38.9687 167.375C38.9687 167.5 39.2187 167.646 39.7187 167.812C42.5729 169.042 45.8125 169.719 49.4375 169.844L50.4687 169.875C52.2812 169.875 53.5312 169.656 54.2187 169.219C54.4479 169.115 54.5625 168.979 54.5625 168.812ZM54.5625 173.094C54.5208 173.094 54.4271 173.135 54.2812 173.219C54.1146 173.281 53.9167 173.375 53.6875 173.5C53.4583 173.646 53.2604 173.771 53.0937 173.875C52.9271 173.979 52.8437 174.042 52.8437 174.062L52.9062 174.062C52.9896 174.062 53.1667 173.99 53.4375 173.844C53.7083 173.719 53.9687 173.573 54.2187 173.406C54.4479 173.26 54.5625 173.156 54.5625 173.094ZM56.9687 168.906C56.9687 169.656 56.8437 170.396 56.5937 171.125C56.4896 171.396 56.3854 171.667 56.2812 171.937C56.1562 172.208 56.0417 172.417 55.9375 172.562C55.2083 173.562 54.1771 174.281 52.8437 174.719C51.4896 175.156 49.9792 175.375 48.3125 175.375C44.7708 175.375 41.1458 174.615 37.4375 173.094C33.7292 171.552 31.3125 169.74 30.1875 167.656C30.0833 167.448 30.0104 167.281 29.9687 167.156C29.9271 167.01 29.9062 166.865 29.9062 166.719L29.9687 166.219C30.0104 166.01 30.0729 165.812 30.1562 165.625C30.2187 165.437 30.2708 165.312 30.3125 165.25C30.375 165.187 30.4271 165.115 30.4687 165.031C30.5104 164.948 30.5312 164.896 30.5312 164.875C30.5312 164.833 30.5521 164.781 30.5937 164.719C30.6354 164.635 30.6875 164.573 30.75 164.531C30.8125 164.469 30.8958 164.333 31 164.125C31.1042 163.917 31.2083 163.687 31.3125 163.437C31.7917 162.208 32.6354 161.271 33.8437 160.625C34.5104 160.271 35.2187 160.031 35.9687 159.906C36.6979 159.76 37.6875 159.687 38.9375 159.687L39.8437 159.687C40.2812 159.687 40.5937 159.677 40.7812 159.656C40.9479 159.615 41.0625 159.542 41.125 159.437C41.1875 159.312 41.2396 159.135 41.2812 158.906C41.3437 158.635 41.375 158.333 41.375 158C41.375 157.667 41.3437 157.271 41.2812 156.812C40.8021 153.312 39.6875 150.354 37.9375 147.937C37.5208 147.417 37.3125 146.958 37.3125 146.562C37.3125 146.396 37.3333 146.26 37.375 146.156C37.3958 146.052 37.4271 146 37.4687 146C37.5104 146 37.5312 145.99 37.5312 145.969L37.4687 145.875C37.4687 145.792 37.5625 145.677 37.75 145.531C37.8333 145.406 37.9271 145.344 38.0312 145.344C38.1146 145.344 38.2396 145.427 38.4062 145.594C38.5729 145.74 38.8333 146.01 39.1875 146.406C40.9375 148.26 42.2292 150.76 43.0625 153.906C43.2917 154.76 43.4792 155.635 43.625 156.531C43.75 157.427 43.8125 158.177 43.8125 158.781L43.7812 159.312L43.7187 159.781C43.7187 159.885 43.7604 159.969 43.8437 160.031C43.9062 160.073 44.0417 160.115 44.25 160.156C44.4375 160.198 44.7187 160.25 45.0937 160.312C45.2604 160.333 45.4479 160.365 45.6562 160.406C47.5104 160.76 49.3021 161.281 51.0312 161.969C52.7604 162.656 54.0521 163.375 54.9062 164.125C56.2812 165.5 56.9687 167.094 56.9687 168.906ZM38.9687 137.312C38.9479 137.292 38.8958 137.281 38.8125 137.281C38.7083 137.281 38.5937 137.281 38.4687 137.281L38.0937 137.281C37.5104 137.302 36.8958 137.375 36.25 137.5C35.5833 137.625 35.0104 137.771 34.5312 137.937C34.0521 138.083 33.8125 138.208 33.8125 138.312C33.8125 138.458 33.9792 138.573 34.3125 138.656C34.6458 138.74 35.0312 138.781 35.4687 138.781C35.9896 138.781 36.4896 138.708 36.9687 138.562C37.2187 138.458 37.5 138.323 37.8125 138.156C38.125 137.99 38.3958 137.823 38.625 137.656C38.8542 137.49 38.9687 137.385 38.9687 137.344L38.9687 137.312ZM54.5625 143.375C54.5625 143.187 54.4271 142.896 54.1562 142.5C52.6354 140.354 49.625 138.771 45.125 137.75L45.0937 137.75C44.3229 137.542 43.7708 137.437 43.4375 137.437C43.1875 137.437 43 137.51 42.875 137.656C42.75 137.802 42.6146 138.031 42.4687 138.344C42.4479 138.344 42.4375 138.354 42.4375 138.375C41.7917 139.542 40.8437 140.552 39.5937 141.406C39.1771 141.635 38.9687 141.812 38.9687 141.937C38.9687 142.062 39.2187 142.208 39.7187 142.375C42.5729 143.604 45.8125 144.281 49.4375 144.406L50.4687 144.437C52.2812 144.437 53.5312 144.219 54.2187 143.781C54.4479 143.677 54.5625 143.542 54.5625 143.375ZM54.5625 147.656C54.5208 147.656 54.4271 147.698 54.2812 147.781C54.1146 147.844 53.9167 147.937 53.6875 148.062C53.4583 148.208 53.2604 148.333 53.0937 148.437C52.9271 148.542 52.8437 148.604 52.8437 148.625L52.9062 148.625C52.9896 148.625 53.1667 148.552 53.4375 148.406C53.7083 148.281 53.9687 148.135 54.2187 147.969C54.4479 147.823 54.5625 147.719 54.5625 147.656ZM56.9687 143.469C56.9687 144.219 56.8437 144.958 56.5937 145.687C56.4896 145.958 56.3854 146.229 56.2812 146.5C56.1562 146.771 56.0417 146.979 55.9375 147.125C55.2083 148.125 54.1771 148.844 52.8437 149.281C51.4896 149.719 49.9792 149.937 48.3125 149.937C44.7708 149.937 41.1458 149.177 37.4375 147.656C33.7292 146.115 31.3125 144.302 30.1875 142.219C30.0833 142.01 30.0104 141.844 29.9687 141.719C29.9271 141.573 29.9062 141.427 29.9062 141.281L29.9687 140.781C30.0104 140.573 30.0729 140.375 30.1562 140.187C30.2187 140 30.2708 139.875 30.3125 139.812C30.375 139.75 30.4271 139.677 30.4687 139.594C30.5104 139.51 30.5312 139.458 30.5312 139.437C30.5312 139.396 30.5521 139.344 30.5937 139.281C30.6354 139.198 30.6875 139.135 30.75 139.094C30.8125 139.031 30.8958 138.896 31 138.687C31.1042 138.479 31.2083 138.25 31.3125 138C31.7917 136.771 32.6354 135.833 33.8437 135.187C34.5104 134.833 35.2187 134.594 35.9687 134.469C36.6979 134.323 37.6875 134.25 38.9375 134.25L39.8437 134.25C40.2812 134.25 40.5937 134.24 40.7812 134.219C40.9479 134.177 41.0625 134.104 41.125 134C41.1875 133.875 41.2396 133.698 41.2812 133.469C41.3437 133.198 41.375 132.896 41.375 132.562C41.375 132.229 41.3437 131.833 41.2812 131.375C40.8021 127.875 39.6875 124.917 37.9375 122.5C37.5208 121.979 37.3125 121.521 37.3125 121.125C37.3125 120.958 37.3333 120.823 37.375 120.719C37.3958 120.615 37.4271 120.562 37.4687 120.562C37.5104 120.562 37.5312 120.552 37.5312 120.531L37.4687 120.437C37.4687 120.354 37.5625 120.24 37.75 120.094C37.8333 119.969 37.9271 119.906 38.0312 119.906C38.1146 119.906 38.2396 119.99 38.4062 120.156C38.5729 120.302 38.8333 120.573 39.1875 120.969C40.9375 122.823 42.2292 125.323 43.0625 128.469C43.2917 129.323 43.4792 130.198 43.625 131.094C43.75 131.99 43.8125 132.74 43.8125 133.344L43.7812 133.875L43.7187 134.344C43.7187 134.448 43.7604 134.531 43.8437 134.594C43.9062 134.635 44.0417 134.677 44.25 134.719C44.4375 134.76 44.7187 134.812 45.0937 134.875C45.2604 134.896 45.4479 134.927 45.6562 134.969C47.5104 135.323 49.3021 135.844 51.0312 136.531C52.7604 137.219 54.0521 137.937 54.9062 138.687C56.2812 140.062 56.9687 141.656 56.9687 143.469ZM48.6562 117.5C48.6562 117.458 48.5104 117.187 48.2187 116.687C48.0937 116.479 47.9271 116.187 47.7187 115.812C47.4896 115.417 47.2604 114.99 47.0312 114.531C46.8646 114.24 46.7083 113.958 46.5625 113.687C46.2917 113.146 46.0625 112.698 45.875 112.344C45.6667 111.99 45.5521 111.812 45.5312 111.812C45.5521 111.917 45.6979 112.24 45.9687 112.781C46.2187 113.323 46.5312 113.937 46.9062 114.625C47.2812 115.312 47.6354 115.927 47.9687 116.469C48.2812 117.01 48.5 117.344 48.625 117.469L48.6562 117.5ZM34.1875 117.594C34.1875 117.573 34.0521 117.531 33.7812 117.469C33.5104 117.385 33.1562 117.281 32.7187 117.156C32.6354 117.135 32.5417 117.115 32.4375 117.094C31.9375 116.969 31.2812 116.802 30.4687 116.594C29.6354 116.365 28.8021 116.146 27.9687 115.937C27.7396 115.875 27.5208 115.812 27.3125 115.75C26.375 115.5 25.3021 115.208 24.0937 114.875C22.8854 114.542 21.8229 114.24 20.9062 113.969C20.0104 113.719 19.25 113.51 18.625 113.344C18 113.177 17.6771 113.094 17.6562 113.094C17.6562 113.115 17.7604 113.167 17.9687 113.25C18.1771 113.333 18.4479 113.427 18.7812 113.531L22.3125 114.625C23.3958 114.958 24.8125 115.354 26.5625 115.812C28.3125 116.271 29.9583 116.687 31.5 117.062C33.0208 117.417 33.9062 117.594 34.1562 117.594L34.1875 117.594ZM65.3437 119.687L65.1562 119.656L64.3125 119.625L63.5 119.656L63.3125 119.687L65.3437 119.687ZM67.25 120.25L67.125 120.219L66.5937 120.187L66 120.219L65.8437 120.25C65.8437 120.271 66.0729 120.281 66.5312 120.281C66.9896 120.281 67.2292 120.271 67.25 120.25ZM68.3125 119.531L68.2187 119.5L67.7187 119.469L67.2187 119.5L67.0625 119.531C67.0625 119.552 67.2604 119.562 67.6562 119.562C68.0729 119.562 68.2917 119.552 68.3125 119.531ZM69.0937 120.094L68.5625 120.062L68 120.094C68 120.115 68.1771 120.125 68.5312 120.125C68.8854 120.125 69.0729 120.115 69.0937 120.094ZM72.5312 120.219L72.5 120.219C72.4583 120.219 72.3229 120.24 72.0937 120.281C71.8646 120.302 71.6042 120.333 71.3125 120.375C70.7917 120.479 70.5312 120.552 70.5312 120.594L70.6562 120.594C70.7812 120.594 70.9479 120.583 71.1562 120.562C71.3646 120.521 71.5729 120.479 71.7812 120.437C71.9896 120.396 72.1667 120.354 72.3125 120.312C72.4583 120.271 72.5312 120.24 72.5312 120.219ZM37.0312 116.344C36.9687 116.302 36.6667 116.208 36.125 116.062C35.5833 115.917 34.9167 115.75 34.125 115.562C34.0208 115.542 33.9167 115.51 33.8125 115.469C33 115.281 32.125 115.073 31.1875 114.844C30.2292 114.594 29.3854 114.375 28.6562 114.187C27.9479 114 27.3437 113.844 26.8437 113.719C26.3229 113.594 26.0208 113.531 25.9375 113.531C25.9792 113.594 26.5208 113.771 27.5625 114.062C28.5833 114.354 29.9062 114.698 31.5312 115.094C33.1354 115.49 34.8333 115.896 36.625 116.312C36.7917 116.354 36.9062 116.375 36.9687 116.375L37.0312 116.375L37.0312 116.344ZM38.5312 117.594C38.5312 117.573 38.5104 117.542 38.4687 117.5C38.4271 117.458 38.1875 117.385 37.75 117.281C37.3125 117.156 36.7917 117.031 36.1875 116.906C35.5625 116.76 34.6771 116.552 33.5312 116.281C32.3854 116.01 31.2396 115.74 30.0937 115.469C29.0104 115.198 28.0937 114.979 27.3437 114.812C26.5729 114.625 26.1458 114.531 26.0625 114.531C26.125 114.594 26.7187 114.781 27.8437 115.094C28.9687 115.406 30.3021 115.75 31.8437 116.125C33.3854 116.5 34.8125 116.833 36.125 117.125C36.3958 117.187 36.6354 117.24 36.8437 117.281C37.3646 117.385 37.75 117.469 38 117.531C38.25 117.573 38.4062 117.594 38.4687 117.594L38.5312 117.594ZM75.9687 121.031C75.9687 121.24 75.9271 121.396 75.8437 121.5C75.7812 121.604 75.6562 121.74 75.4687 121.906C75.1562 122.198 74.7604 122.437 74.2812 122.625C73.8229 122.833 73.1562 123.042 72.2812 123.25C70.5104 123.687 67.8854 124.125 64.4062 124.562C62.3229 124.812 60.1979 124.937 58.0312 124.937C56.4896 124.937 54.9479 124.875 53.4062 124.75L51.5 124.625C51.2917 124.625 51.1354 124.635 51.0312 124.656C50.9271 124.698 50.8333 124.75 50.75 124.812C50.5833 124.937 50.375 125 50.125 125C49.75 125 49.25 124.844 48.625 124.531C48.3542 124.406 47.9896 124.292 47.5312 124.187C47.0729 124.083 46.4271 123.979 45.5937 123.875C41.4687 123.333 37.1146 122.573 32.5312 121.594C27.9271 120.594 24.0521 119.594 20.9062 118.594C20.0937 118.323 19.0312 117.948 17.7187 117.469C16.4062 116.99 15.1458 116.521 13.9375 116.062C12.7083 115.583 11.8437 115.229 11.3437 115C10.9271 114.812 10.5521 114.573 10.2187 114.281C9.86457 113.969 9.68749 113.729 9.68749 113.562L9.71874 113.5L9.71874 113.406C9.71874 113.323 9.68749 113.229 9.62499 113.125C9.56249 113.042 9.53124 112.969 9.53124 112.906C9.53124 112.823 9.59374 112.729 9.71874 112.625C9.80207 112.521 9.84374 112.437 9.84374 112.375C9.84374 112.354 9.83332 112.344 9.81249 112.344C9.77082 112.344 9.72916 112.312 9.68749 112.25C9.64582 112.167 9.62499 112.083 9.62499 112C9.62499 111.875 9.64582 111.792 9.68749 111.75C9.72916 111.687 9.81249 111.656 9.93749 111.656C10.1042 111.656 10.3646 111.698 10.7187 111.781C10.9062 111.823 11.0312 111.844 11.0937 111.844L11.1562 111.844C11.1562 111.823 11.1042 111.771 11 111.687C10.9167 111.646 10.8333 111.604 10.75 111.562C10.6667 111.521 10.6042 111.5 10.5625 111.5C10.3958 111.5 10.2396 111.427 10.0937 111.281C9.94791 111.135 9.87499 110.99 9.87499 110.844L9.87499 110.781C9.89582 110.698 9.92707 110.635 9.96874 110.594C10.0104 110.552 10.0729 110.531 10.1562 110.531L10.7187 110.625L10.75 110.625C10.75 110.583 10.6771 110.49 10.5312 110.344C10.3646 110.219 10.2812 110.104 10.2812 110C10.2812 109.958 10.3125 109.906 10.375 109.844C10.4167 109.781 10.4792 109.74 10.5625 109.719C10.625 109.677 10.6771 109.656 10.7187 109.656C10.8437 109.656 10.9167 109.552 10.9375 109.344C10.9375 109.156 11.0521 109.062 11.2812 109.062C11.3646 109.062 11.4479 109.052 11.5312 109.031C11.5937 108.99 11.625 108.958 11.625 108.937C11.625 108.875 11.6875 108.844 11.8125 108.844C12.1875 108.844 13.3437 109.135 15.2812 109.719C15.5312 109.802 15.8125 109.885 16.125 109.969C16.8542 110.177 17.6354 110.406 18.4687 110.656C19.2812 110.885 20.0208 111.083 20.6875 111.25L26.3125 112.844C27.4792 113.177 28.9062 113.562 30.5937 114C32.2812 114.417 33.8333 114.792 35.25 115.125L35.3437 115.125C35.3437 115.042 35.0937 114.792 34.5937 114.375C33.8229 113.687 33.0104 112.885 32.1562 111.969C31.3021 111.052 30.6667 110.302 30.25 109.719C29.6458 108.823 29.2083 108.021 28.9375 107.312C28.6458 106.604 28.4271 105.792 28.2812 104.875C28.2187 104.5 28.1875 104.156 28.1875 103.844C28.1875 103.052 28.3854 102.385 28.7812 101.844C29.3646 100.99 30.1042 100.562 31 100.562C31.4167 100.562 31.8542 100.646 32.3125 100.812C32.5208 100.896 32.7292 100.969 32.9375 101.031C33.1458 101.073 33.2917 101.094 33.375 101.094C33.6458 101.094 33.7812 101.167 33.7812 101.312C33.7812 101.417 33.6979 101.552 33.5312 101.719C33.4062 101.865 33.25 101.969 33.0625 102.031C32.8542 102.094 32.5521 102.146 32.1562 102.187C31.8646 102.208 31.625 102.24 31.4375 102.281C31.25 102.302 31.1562 102.333 31.1562 102.375C31.1562 102.542 31.6771 103.187 32.7187 104.312C33.7604 105.437 34.9792 106.687 36.375 108.062C37.7708 109.417 39.0625 110.615 40.25 111.656C41.3333 112.594 42.3021 113.417 43.1562 114.125C44.0104 114.812 44.4583 115.156 44.5 115.156L43.875 113.562C43.1667 111.833 42.375 109.698 41.5 107.156C40.625 104.594 39.9271 102.417 39.4062 100.625C39.1562 99.6875 38.9167 98.6875 38.6875 97.625C38.4375 96.5417 38.25 95.6458 38.125 94.9375C38.0208 94.1875 37.9687 93.4375 37.9687 92.6875C37.9687 91.8542 38.0312 91.0937 38.1562 90.4062C38.2812 89.6979 38.4479 89.2083 38.6562 88.9375C38.9687 88.625 39.2187 88.4687 39.4062 88.4687C39.4896 88.4687 39.5521 88.4896 39.5937 88.5312C39.6354 88.5729 39.6875 88.6146 39.75 88.6562C39.8125 88.6979 39.8646 88.7187 39.9062 88.7187C39.9271 88.7396 39.9479 88.7708 39.9687 88.8125C39.9896 88.8333 40 88.875 40 88.9375L40 89C39.9375 89.2083 39.9062 89.5417 39.9062 90C39.9062 90.5208 39.9375 91.1146 40 91.7812C40.0625 92.4271 40.1458 92.9896 40.25 93.4687C40.7708 95.8229 41.5521 98.4479 42.5937 101.344C43.6354 104.219 44.7812 106.958 46.0312 109.562C46.4062 110.354 46.9375 111.375 47.625 112.625C48.3125 113.854 48.9583 114.99 49.5625 116.031C50.1667 117.052 50.5417 117.656 50.6875 117.844C50.7292 117.906 51.3437 118.01 52.5312 118.156C53.7187 118.281 55.8229 118.479 58.8437 118.75C60.9479 118.937 63.0104 119.031 65.0312 119.031C66.4687 119.031 67.8229 118.979 69.0937 118.875C69.8646 118.812 70.5104 118.75 71.0312 118.687C71.5729 118.625 71.8437 118.573 71.8437 118.531C71.8437 118.51 71.7917 118.5 71.6875 118.5C71.5208 118.479 71.4375 118.437 71.4375 118.375C71.4375 118.333 71.4792 118.292 71.5625 118.25C71.6458 118.208 71.7604 118.177 71.9062 118.156C72.0937 118.156 72.1875 118.146 72.1875 118.125L72.0937 118.094C71.8021 118.01 71.6562 117.927 71.6562 117.844C71.6562 117.781 71.75 117.75 71.9375 117.75L72.25 117.719C72.25 117.698 72.1771 117.667 72.0312 117.625C71.8646 117.583 71.7812 117.542 71.7812 117.5C71.7812 117.479 71.8021 117.448 71.8437 117.406C71.9062 117.385 72 117.375 72.125 117.375C72.4375 117.375 72.8646 117.437 73.4062 117.562C73.9687 117.687 74.375 117.823 74.625 117.969C75.3958 118.531 75.8333 119.375 75.9375 120.5L75.9687 121.031ZM55.75 88.7187C55.7083 88.7187 55.5312 88.8437 55.2187 89.0937C55.0521 89.2187 54.9062 89.3437 54.7812 89.4687C54.6354 89.5937 54.5312 89.6875 54.4687 89.75L54.3437 89.9062L54.375 89.9375L54.5937 89.8437C54.6979 89.7812 54.8437 89.6667 55.0312 89.5C55.2187 89.3333 55.3854 89.1771 55.5312 89.0312C55.6771 88.8646 55.75 88.7604 55.75 88.7187ZM48.3125 88.3437C48.3125 88.3021 48.0937 88.2604 47.6562 88.2187C47.3437 88.1771 46.9062 88.125 46.3437 88.0625C45.7812 87.9792 45.2292 87.8958 44.6875 87.8125C44.2083 87.75 43.7917 87.6979 43.4375 87.6562C43.0625 87.5937 42.8333 87.5625 42.75 87.5625L42.7187 87.5625C42.7187 87.6042 42.9583 87.6771 43.4375 87.7812C43.8958 87.8646 44.4479 87.9583 45.0937 88.0625C45.7187 88.1458 46.3333 88.2187 46.9375 88.2812C47.5208 88.3437 47.9271 88.375 48.1562 88.375L48.3125 88.3437ZM26.2812 84C26.2812 84.0625 26.2396 84.0937 26.1562 84.0937C26.1354 84.0937 26.1146 84.1042 26.0937 84.125C26.0729 84.1458 26.0625 84.1667 26.0625 84.1875L26.125 84.3125C26.125 84.4167 26.0417 84.5312 25.875 84.6562C25.7083 84.7604 25.5417 84.8229 25.375 84.8437C25.2917 84.8437 25.25 84.8542 25.25 84.875C25.25 84.8958 25.3437 84.9271 25.5312 84.9687C25.7187 84.9896 25.8125 85.0208 25.8125 85.0625C25.8125 85.125 25.6667 85.2187 25.375 85.3437C25.1667 85.4271 24.9271 85.4896 24.6562 85.5312C24.3646 85.5729 23.9583 85.5937 23.4375 85.5937C22.6667 85.5937 22.1042 85.5417 21.75 85.4375C21.3958 85.3125 21.1146 85.1042 20.9062 84.8125C20.7604 84.625 20.6875 84.5104 20.6875 84.4687C20.6875 84.4062 20.7396 84.375 20.8437 84.375C20.9687 84.375 21.0312 84.3646 21.0312 84.3437L20.8437 84.25C20.6771 84.1458 20.5937 84.0521 20.5937 83.9687C20.5937 83.8646 20.7083 83.8125 20.9375 83.8125C21.0833 83.8125 21.1562 83.8021 21.1562 83.7812L20.9687 83.625C20.8437 83.5208 20.7812 83.4375 20.7812 83.375C20.8021 83.2292 20.9271 83.1562 21.1562 83.1562L21.7187 83.25C21.7187 83.2292 21.6354 83.1771 21.4687 83.0937C21.1979 82.8854 21.0625 82.7083 21.0625 82.5625C21.0625 82.4583 21.125 82.4062 21.25 82.4062C21.375 82.4062 21.4375 82.3646 21.4375 82.2812L21.375 82.0937C21.375 82.0104 21.4375 81.9375 21.5625 81.875C21.6458 81.8333 21.7292 81.7917 21.8125 81.75C21.875 81.6875 21.9271 81.6354 21.9687 81.5937C22.1354 81.4062 22.4062 81.3125 22.7812 81.3125C23.3646 81.3125 24.1667 81.5417 25.1875 82C25.8542 82.3125 26.1875 82.5208 26.1875 82.625C26.1875 82.6667 26.125 82.6875 26 82.6875C25.9375 82.6875 25.9062 82.6979 25.9062 82.7187C25.9062 82.7396 25.9375 82.7708 26 82.8125C26.0833 82.8542 26.1458 82.9271 26.1875 83.0312C26.2292 83.1354 26.25 83.2292 26.25 83.3125C26.25 83.375 26.2396 83.4271 26.2187 83.4687C26.1979 83.5104 26.1667 83.5312 26.125 83.5312C26.0625 83.5312 26.0312 83.5417 26.0312 83.5625L26.125 83.7187C26.2292 83.8437 26.2812 83.9375 26.2812 84ZM56.875 86.2812C56.875 86.5521 56.8333 86.9062 56.75 87.3437C56.4167 89.0937 55.3021 90.3437 53.4062 91.0937C51.5104 91.8437 49.3125 92.2187 46.8125 92.2187C43.8542 92.2187 40.9583 91.8229 38.125 91.0312C35.2708 90.2604 33.2604 89.3125 32.0937 88.1875C31.8437 87.9375 31.6562 87.6771 31.5312 87.4062C31.3854 87.1146 31.3125 86.875 31.3125 86.6875C31.3125 86.5417 31.3542 86.4375 31.4375 86.375C31.5 86.3542 31.5312 86.3125 31.5312 86.25C31.5312 86.2083 31.5 86.1458 31.4375 86.0625C31.375 85.9792 31.3437 85.9062 31.3437 85.8437C31.3646 85.6562 31.5208 85.5625 31.8125 85.5625L32.5 85.6562C32.5 85.6354 32.3854 85.5729 32.1562 85.4687C31.7812 85.3021 31.5937 85.1354 31.5937 84.9687C31.5937 84.8854 31.6562 84.7917 31.7812 84.6875C31.8437 84.625 31.9062 84.5625 31.9687 84.5C32.0104 84.4167 32.0312 84.3542 32.0312 84.3125L32.0312 84.25C32.0312 84.2083 32.0521 84.1562 32.0937 84.0937C32.1354 84.0312 32.1875 83.9792 32.25 83.9375C32.3542 83.8958 32.4375 83.8437 32.5 83.7812C32.5417 83.6979 32.5625 83.6354 32.5625 83.5937C32.5625 83.5312 32.6562 83.4687 32.8437 83.4062C33.0104 83.3229 33.2187 83.2604 33.4687 83.2187C33.7187 83.1562 33.9687 83.125 34.2187 83.125C34.4687 83.125 34.7917 83.1562 35.1875 83.2187C35.5625 83.2604 36.1354 83.3646 36.9062 83.5312C37.6771 83.6979 38.7396 83.9375 40.0937 84.25C42.3021 84.7708 44.0417 85.1458 45.3125 85.375C46.5833 85.6042 48.0312 85.8229 49.6562 86.0312C50.9271 86.1979 51.9062 86.2812 52.5937 86.2812C53.3854 86.2812 53.9687 86.1562 54.3437 85.9062C54.6146 85.7812 54.75 85.6146 54.75 85.4062C54.75 85.1979 54.6146 84.8958 54.3437 84.5C54.1354 84.1458 53.8021 83.7604 53.3437 83.3437C52.8646 82.9062 52.1354 82.3125 51.1562 81.5625C50.1562 80.7917 48.75 79.7396 46.9375 78.4062C44.6667 76.7604 42.9479 75.5 41.7812 74.625C40.6146 73.75 39.3542 72.7708 38 71.6875C37.7917 71.5208 37.6146 71.3542 37.4687 71.1875C37.3229 71.0208 37.2396 70.8854 37.2187 70.7812C37.2187 70.6979 37.2187 70.6042 37.2187 70.5C37.2187 70.3958 37.2083 70.3021 37.1875 70.2187L37.1875 70.1562C37.1875 69.9896 37.2604 69.8542 37.4062 69.75L37.5 69.7187C37.625 69.7187 37.9792 69.8958 38.5625 70.25C39.125 70.5833 40.1146 71.2083 41.5312 72.125C45.5729 74.7292 48.6562 76.8021 50.7812 78.3437C52.9062 79.8646 54.3854 81.125 55.2187 82.125C56.0312 83.1042 56.5208 84.0833 56.6875 85.0625C56.75 85.3542 56.8021 85.5937 56.8437 85.7812C56.8646 85.9479 56.875 86.1146 56.875 86.2812ZM54.5312 49.5937C54.5312 49.5312 53.8646 48.9792 52.5312 47.9375C51.1979 46.8958 50.5104 46.375 50.4687 46.375C50.4687 46.4375 51.4062 47.1979 53.2812 48.6562C54.0729 49.2812 54.4896 49.5937 54.5312 49.5937ZM53.7812 49.5312C53.7812 49.4687 53.2812 49.0521 52.2812 48.2812L52 48.125C52 48.1875 52.5 48.6042 53.5 49.375L53.7812 49.5312ZM51.9375 58.6562L51.7187 58.625C51.3646 58.625 50.5521 58.6875 49.2812 58.8125C47.9896 58.9167 46.9375 58.9687 46.125 58.9687C44.6667 58.9687 42.7396 58.7917 40.3437 58.4375C39.5521 58.3125 39.0312 58.25 38.7812 58.25L38.625 58.2812L38.625 58.3125C38.875 58.4792 40.2604 58.6979 42.7812 58.9687C44.0729 59.1146 45.4375 59.2083 46.875 59.25C47.8125 59.25 48.7604 59.1979 49.7187 59.0937C51.1979 58.9687 51.9375 58.8229 51.9375 58.6562ZM57.1562 71.5625C57.1562 71.625 57.125 71.6771 57.0625 71.7187C57 71.7604 56.9687 71.8333 56.9687 71.9375C57.0104 72.0417 57.0312 72.1458 57.0312 72.25C57.0312 72.3125 57.0104 72.3646 56.9687 72.4062C56.9062 72.4687 56.875 72.5937 56.875 72.7812C56.875 72.9687 56.8333 73.1146 56.75 73.2187C56.6458 73.3437 56.5937 73.4896 56.5937 73.6562C56.5937 73.8229 56.4583 73.9583 56.1875 74.0625C55.9167 74.1667 55.7812 74.2604 55.7812 74.3437C55.9271 74.5312 56 74.6562 56 74.7187C56 74.9062 55.8125 75.0625 55.4375 75.1875C55.0625 75.3125 54.5729 75.375 53.9687 75.375C53.5937 75.375 50.2917 74.625 44.0625 73.125C35.2917 71.0208 30.6771 69.5521 30.2187 68.7187C30.1771 68.5312 30.0937 68.375 29.9687 68.25C29.8229 68.1042 29.75 67.9896 29.75 67.9062C29.75 67.7812 29.8542 67.7187 30.0625 67.7187L30.4375 67.7187C30.4375 67.6979 30.3542 67.6458 30.1875 67.5625C29.9375 67.3958 29.8125 67.25 29.8125 67.125C29.8125 67.0208 29.8854 66.9583 30.0312 66.9375C30.1354 66.9375 30.4687 67.0208 31.0312 67.1875C31.5312 67.3958 31.8958 67.5208 32.125 67.5625C32.3333 67.6042 32.4583 67.625 32.5 67.625C32.5 67.5833 32.2083 67.4479 31.625 67.2187C30.6042 66.8437 30.0937 66.5312 30.0937 66.2812C30.1562 66.0937 30.2604 66 30.4062 66L31.0625 66.125C31.125 66.125 31.1562 66.1042 31.1562 66.0625C31.1562 66.0208 31.0625 65.9167 30.875 65.75C30.75 65.6458 30.6875 65.5312 30.6875 65.4062C30.6875 65.1979 30.8542 65.0104 31.1875 64.8437C31.3333 64.7812 31.4062 64.7396 31.4062 64.7187C31.3437 64.7187 31.3125 64.6979 31.3125 64.6562C31.3125 64.6146 31.3437 64.5521 31.4062 64.4687C31.5937 64.3229 31.7917 64.2292 32 64.1875C32.1875 64.1458 32.2812 64.0729 32.2812 63.9687C32.3437 63.8646 32.5937 63.8125 33.0312 63.8125C33.5937 63.8125 34.2812 63.8854 35.0937 64.0312C35.3646 64.0729 36.5521 64.3854 38.6562 64.9687C40.0104 65.3646 40.8437 65.5937 41.1562 65.6562C41.1562 65.6354 40.0312 64.6979 37.7812 62.8437C35.0729 60.6354 33.4792 59.2917 33 58.8125C32.5208 58.25 32.2812 57.6875 32.2812 57.125C32.2812 56.875 32.3542 56.5521 32.5 56.1562C32.75 55.5521 32.9687 55.1875 33.1562 55.0625C33.3229 54.9167 33.4375 54.75 33.5 54.5625C33.5625 54.3542 33.8021 54.0833 34.2187 53.75C34.6146 53.4167 35.0521 53.125 35.5312 52.875C35.8646 52.6458 36.4167 52.5312 37.1875 52.5312C38.4583 52.5312 41 52.875 44.8125 53.5625C47.3125 54 49.3854 54.2187 51.0312 54.2187C51.9271 54.2187 52.5 54.1771 52.75 54.0937C53.3125 54.0521 53.5937 53.9479 53.5937 53.7812C53.5937 53.5937 53.3646 53.1562 52.9062 52.4687C52.0312 51.1562 50.2708 49.4583 47.625 47.375C44.9583 45.2917 41.9271 43.2292 38.5312 41.1875C37.5729 40.6458 37.0937 40.2187 37.0937 39.9062C37.0937 39.7187 37.2083 39.5625 37.4375 39.4375C37.6667 39.3125 37.9062 39.2292 38.1562 39.1875C38.3854 39.125 38.5417 39.0937 38.625 39.0937C41.7708 40.4896 45.1875 42.4583 48.875 45C51.9375 47.0833 54.0521 48.6771 55.2187 49.7812C55.9271 50.4062 56.3958 51.1771 56.625 52.0937C56.7708 52.5937 56.8437 53.0312 56.8437 53.4062C56.6979 54.8229 56.1458 56.0937 55.1875 57.2187C54.6042 57.9271 54.0104 58.4479 53.4062 58.7812C51.8646 59.5312 49.6875 59.9062 46.875 59.9062C43.5625 59.7812 41.1979 59.5937 39.7812 59.3437C39.7604 59.3437 39.75 59.3542 39.75 59.375C39.75 59.4583 40.0625 59.7604 40.6875 60.2812C43.9375 62.9896 47.9687 65.5521 52.7812 67.9687C55.6771 69.4271 57.125 70.3229 57.125 70.6562C57.125 70.7187 57.0833 70.7708 57 70.8125C56.9375 70.8333 56.9062 70.875 56.9062 70.9375C56.9062 71 56.9479 71.1042 57.0312 71.25C57.1146 71.375 57.1562 71.4792 57.1562 71.5625ZM89.4062 44.9687C89.4062 44.7812 88.9792 44.3125 88.125 43.5625C85.0625 40.6667 80.8542 38.1354 75.5 35.9687C74.25 35.4896 72.7083 34.9271 70.875 34.2812C67.6875 33.1562 65.9479 32.5937 65.6562 32.5937C65.6354 32.5937 65.625 32.6042 65.625 32.625C65.625 32.6667 65.8021 32.8333 66.1562 33.125C67.5521 34.3542 69.4062 35.7812 71.7187 37.4062C79.0312 42.5521 84.6667 45.125 88.625 45.125C89.125 45.125 89.3854 45.0729 89.4062 44.9687ZM85.75 34.0625C85.6667 33.875 84.6146 33.1354 82.5937 31.8437L82.1875 31.5937C81.7917 31.3437 80.5937 30.6667 78.5937 29.5625C76.8854 28.6458 76 28.1875 75.9375 28.1875C75.9375 28.25 76.5937 28.6458 77.9062 29.375C81.1562 31.1875 83.5208 32.6042 85 33.625C85.4167 33.9167 85.6667 34.0625 85.75 34.0625ZM85.4375 34.9062C85.4583 34.8646 84.9792 34.5104 84 33.8437C82.1875 32.6354 80.2604 31.5312 78.2187 30.5312C77.4271 30.1354 77 29.9375 76.9375 29.9375C76.875 29.9375 77.9687 30.5833 80.2187 31.875C82.4896 33.1667 83.9167 34 84.5 34.375C85.0833 34.7292 85.3958 34.9062 85.4375 34.9062ZM81.6562 33.6875C81.6562 33.6042 81.0104 33.2083 79.7187 32.5C79.0729 32.125 78.2604 31.7083 77.2812 31.25C76.3229 30.7708 75.4271 30.3542 74.5937 30C73.7604 29.625 73.2708 29.4375 73.125 29.4375L73.0937 29.4687C73.1354 29.5104 73.7083 29.8125 74.8125 30.375L77.6875 31.8125C80.2292 33.0625 81.5521 33.6875 81.6562 33.6875ZM49.7187 42.5312C49.7187 42.4896 49.6875 42.4687 49.625 42.4687C49.4792 42.4687 49.2917 42.5417 49.0625 42.6875C48.8333 42.8333 48.7187 42.9271 48.7187 42.9687C48.7187 42.9896 48.7708 43 48.875 43C48.9792 43 49.0937 42.9687 49.2187 42.9062C49.3437 42.8437 49.4583 42.7708 49.5625 42.6875C49.6667 42.625 49.7187 42.5729 49.7187 42.5312ZM45.0312 36.125C45.0312 36.0208 43.5521 34.6979 40.5937 32.1562C38.4479 30.3229 37.1771 29.3125 36.7812 29.125C36.5104 29 36.2292 28.9375 35.9375 28.9375C35.1458 28.9375 34.4687 29.0208 33.9062 29.1875C33.4687 29.3333 33.25 29.4896 33.25 29.6562C33.25 29.8646 33.5208 30.2396 34.0625 30.7812C34.6042 31.3021 35.2708 31.8542 36.0625 32.4375C37.5 33.4792 39.0417 34.3125 40.6875 34.9375C42.8125 35.75 44.2292 36.1562 44.9375 36.1562C45 36.1562 45.0312 36.1458 45.0312 36.125ZM44.6875 30.3125L44.5312 30.1875C44.1146 29.8333 43.4792 29.3958 42.625 28.875C42.8542 29.1042 43.2708 29.4167 43.875 29.8125C44.375 30.1458 44.6458 30.3125 44.6875 30.3125ZM43.375 30.125C43.375 30.1042 43.25 30 43 29.8125C41.5208 28.6458 40.6979 28.0625 40.5312 28.0625L40.5937 28.1562C42.3229 29.4271 43.2396 30.0937 43.3437 30.1562C43.3646 30.1562 43.375 30.1458 43.375 30.125ZM39.875 37.5625C39.875 37.5208 39.4479 37.2604 38.5937 36.7812C37.6354 36.2187 36.9271 35.7812 36.4687 35.4687C36.1771 35.2604 36.0104 35.1562 35.9687 35.1562L35.9687 35.1875C35.9687 35.3125 36.4167 35.6667 37.3125 36.25C37.9375 36.6667 38.5104 36.9896 39.0312 37.2187C39.5312 37.4479 39.8125 37.5625 39.875 37.5625ZM36.5 34.5312L36.1875 34.25C35.875 33.9375 35.4896 33.6458 35.0312 33.375L35.75 34C36.2083 34.3542 36.4583 34.5312 36.5 34.5312ZM53.9062 26.0625C53.9062 26 53.6562 25.9062 53.1562 25.7812C46.2604 24.2396 41.5104 23.1146 38.9062 22.4062C38.1354 22.1979 37.6979 22.0937 37.5937 22.0937C37.5937 22.1354 38.3021 22.375 39.7187 22.8125C42.9062 23.7708 47.4167 24.8437 53.25 26.0312C53.5 26.0729 53.6771 26.0937 53.7812 26.0937C53.8646 26.0937 53.9062 26.0833 53.9062 26.0625ZM93.9062 44.4062C93.9062 45.0521 93.8646 45.5937 93.7812 46.0312C93.6354 46.5521 93.4062 47.0833 93.0937 47.625C92.8021 48.1875 92.4896 48.6146 92.1562 48.9062C91.8437 49.1979 91.4583 49.3958 91 49.5C90.5625 49.625 89.9583 49.6875 89.1875 49.6875C86.1458 49.6875 82.375 48.6042 77.875 46.4375C72.3125 43.75 66.5104 39.25 60.4687 32.9375C59.6771 32.0833 58.9896 31.4479 58.4062 31.0312C57.8437 30.5937 57.0208 30.2187 55.9375 29.9062C54.8333 29.5729 53.1146 29.125 50.7812 28.5625C48.7396 28.0417 46.9167 27.5833 45.3125 27.1875C43.6875 26.7708 42.6458 26.4896 42.1875 26.3437C41.7083 26.1979 41.3958 26.125 41.25 26.125C41.1875 26.125 41.1562 26.1458 41.1562 26.1875C41.1562 26.3125 41.5521 26.7604 42.3437 27.5312C42.8229 28.0521 43.25 28.4792 43.625 28.8125C44.1667 29.2917 45.3854 30.1771 47.2812 31.4687C49.1562 32.7604 50.4792 33.9062 51.25 34.9062C52.0208 35.8854 52.4062 36.9687 52.4062 38.1562C52.4062 39.5104 52.1771 40.6562 51.7187 41.5937C51.2604 42.5312 50.6146 43.2187 49.7812 43.6562C48.8646 44.0521 47.7604 44.25 46.4687 44.25C45.3437 44.25 44.1979 44.0937 43.0312 43.7812C41.6562 43.3646 40.1667 42.6875 38.5625 41.75C36.9375 40.8333 35.5937 39.875 34.5312 38.875C32.0729 36.4583 30.8437 33.9062 30.8437 31.2187C30.8437 29.9271 31.1042 28.9375 31.625 28.25C32.125 27.5417 32.8333 27.1875 33.75 27.1875C34.2708 27.1875 34.5312 27.1458 34.5312 27.0625C34.3229 26.6875 33.875 26.2812 33.1875 25.8437C32.5833 25.4687 32.0104 25.0208 31.4687 24.5C30.9062 23.9583 30.625 23.2917 30.625 22.5C30.625 21.9167 30.8437 21.2396 31.2812 20.4687C31.7187 19.6979 32.4062 19.0417 33.3437 18.5C34.2812 17.9583 35.4167 17.6875 36.75 17.6875C37.2708 17.6875 37.8229 17.7396 38.4062 17.8437C44.3021 18.8229 47.4479 19.3125 47.8437 19.3125L47.8437 19.2812C47.8437 19.1562 47.375 18.5312 46.4375 17.4062C41.5208 11.4271 38.4896 6.76041 37.3437 3.40625C37.0104 2.28125 36.8437 1.51041 36.8437 1.09375C36.8437 0.927081 36.8646 0.843748 36.9062 0.843748C36.9479 0.843748 37.0104 0.812498 37.0937 0.749998C37.1562 0.687498 37.2083 0.604165 37.25 0.499998C37.3333 0.291665 37.4792 0.187498 37.6875 0.187498C37.8125 0.187498 37.9375 0.124998 38.0625 -2.10224e-06L38.125 0.281248C38.1458 0.281248 38.1771 0.249998 38.2187 0.187498C38.2604 0.124998 38.2917 0.0937479 38.3125 0.0937479C38.3542 0.0937479 38.4271 0.302081 38.5312 0.718748C39.3229 3.96875 43.125 9.41666 49.9375 17.0625L50.6562 17.875C51.3229 18.6458 51.8333 19.2083 52.1875 19.5625C52.5417 19.8958 52.9167 20.125 53.3125 20.25C53.8542 20.4375 54.6562 20.625 55.7187 20.8125C62.0937 22.125 67.6146 23.7292 72.2812 25.625C76.2396 27.3333 80.2292 29.4896 84.25 32.0937C89.75 35.7187 92.9062 39.0937 93.7187 42.2187C93.8437 42.8854 93.9062 43.6146 93.9062 44.4062Z" fill="#E21A43"/>
</svg>
