<svg width="562" height="39" viewBox="0 0 562 39" fill="none" xmlns="http://www.w3.org/2000/svg">
<path d="M1.96695e-06 0.511995V1.92H3.344V11.536H4.848V1.92H8.192V0.511995H1.96695e-06ZM11.3178 7.504C11.3178 5.904 12.5658 5.328 13.5898 5.328C14.6138 5.328 15.3498 6.08 15.3498 7.312V11.536H16.8058V7.216C16.8218 5.104 15.6538 3.904 13.7818 3.904C12.9818 3.904 11.7498 4.288 11.3178 5.184V-4.76837e-06H9.86175V11.536H11.3178V7.504ZM20.103 7.216C20.279 5.952 21.239 5.216 22.471 5.216C23.687 5.216 24.567 5.952 24.743 7.216H20.103ZM26.183 7.776C26.183 5.408 24.599 3.904 22.471 3.904C20.343 3.904 18.647 5.408 18.647 7.776C18.647 10.144 20.343 11.696 22.471 11.696C23.927 11.696 25.271 11.04 25.911 9.712C25.511 9.536 25.047 9.408 24.663 9.232C24.231 9.984 23.415 10.384 22.519 10.384C21.239 10.384 20.279 9.616 20.103 8.352H26.167C26.183 8.176 26.183 7.952 26.183 7.776ZM29.4896 8.816C29.4896 6.832 30.0976 5.296 31.5376 5.296C31.8416 5.296 32.2416 5.36 32.6416 5.552L32.8656 4.192C32.6576 4.048 32.0976 3.904 31.5696 3.904C30.5936 3.904 29.8736 4.416 29.4896 5.744V4.064H28.0336V11.536H29.4896V8.816ZM35.1186 7.216C35.2946 5.952 36.2546 5.216 37.4866 5.216C38.7026 5.216 39.5826 5.952 39.7586 7.216H35.1186ZM41.1986 7.776C41.1986 5.408 39.6146 3.904 37.4866 3.904C35.3586 3.904 33.6626 5.408 33.6626 7.776C33.6626 10.144 35.3586 11.696 37.4866 11.696C38.9426 11.696 40.2866 11.04 40.9266 9.712C40.5266 9.536 40.0626 9.408 39.6786 9.232C39.2466 9.984 38.4306 10.384 37.5346 10.384C36.2546 10.384 35.2946 9.616 35.1186 8.352H41.1826C41.1986 8.176 41.1986 7.952 41.1986 7.776ZM53.1255 11.536H54.5655V4.064H53.1255V5.184C52.6135 4.336 51.5415 3.904 50.5015 3.904C48.4535 3.904 46.7095 5.408 46.7095 7.792C46.7095 10.16 48.4535 11.696 50.5015 11.696C51.5415 11.696 52.6295 11.216 53.1255 10.384V11.536ZM53.1095 7.776C53.1095 9.36 51.9575 10.272 50.6295 10.272C49.2855 10.272 48.1975 9.248 48.1975 7.776C48.1975 6.304 49.2855 5.328 50.6295 5.328C51.8455 5.328 53.1095 6.176 53.1095 7.776ZM58.4584 8.816C58.4584 6.832 59.0664 5.296 60.5064 5.296C60.8104 5.296 61.2104 5.36 61.6104 5.552L61.8344 4.192C61.6264 4.048 61.0664 3.904 60.5384 3.904C59.5624 3.904 58.8424 4.416 58.4584 5.744V4.064H57.0024V11.536H58.4584V8.816ZM64.0874 7.216C64.2634 5.952 65.2234 5.216 66.4554 5.216C67.6714 5.216 68.5514 5.952 68.7274 7.216H64.0874ZM70.1674 7.776C70.1674 5.408 68.5834 3.904 66.4554 3.904C64.3274 3.904 62.6314 5.408 62.6314 7.776C62.6314 10.144 64.3274 11.696 66.4554 11.696C67.9114 11.696 69.2554 11.04 69.8954 9.712C69.4954 9.536 69.0314 9.408 68.6474 9.232C68.2154 9.984 67.3994 10.384 66.5034 10.384C65.2234 10.384 64.2634 9.616 64.0874 8.352H70.1514C70.1674 8.176 70.1674 7.952 70.1674 7.776ZM84.7663 5.328C85.8543 5.328 86.4783 6.08 86.4783 7.312V11.536H87.9343V7.216C87.9343 5.104 86.9263 3.904 85.0543 3.904C84.3343 3.904 83.1503 4.112 82.4623 5.44C82.1103 4.624 81.4543 4.128 80.5103 3.98399C80.2543 3.936 79.9823 3.92 79.6943 3.936C79.0863 3.98399 78.0143 4.35199 77.6303 5.184V4.064H76.1743V11.536H77.6303V7.504C77.6303 5.936 78.6703 5.328 79.7103 5.328C80.6863 5.328 81.3263 6.064 81.3263 7.296V11.536H82.7823V7.504C82.7823 6.256 83.5343 5.328 84.7663 5.328ZM96.188 11.536H97.628V4.064H96.188V5.184C95.676 4.336 94.604 3.904 93.564 3.904C91.516 3.904 89.772 5.408 89.772 7.792C89.772 10.16 91.516 11.696 93.564 11.696C94.604 11.696 95.692 11.216 96.188 10.384V11.536ZM96.172 7.776C96.172 9.36 95.02 10.272 93.692 10.272C92.348 10.272 91.26 9.248 91.26 7.776C91.26 6.304 92.348 5.328 93.692 5.328C94.908 5.328 96.172 6.176 96.172 7.776ZM101.521 7.504C101.521 5.92 102.577 5.328 103.633 5.328C104.657 5.328 105.281 6.048 105.281 7.312V11.536H106.737V7.216C106.737 5.104 105.729 3.904 103.857 3.904C103.041 3.904 101.953 4.288 101.521 5.184V4.064H100.065V11.536H101.521V7.504ZM110.972 15.168L115.612 4.064H114.06L111.82 9.472L109.58 4.064H108.028L111.02 11.312L109.452 15.168H110.972ZM119.496 4.064L122.6 11.536H124.008H123.992L127.112 4.064H125.56L123.304 9.68L121.032 4.064H119.496ZM134.344 11.536H135.784V4.064H134.344V5.184C133.832 4.336 132.76 3.904 131.72 3.904C129.672 3.904 127.928 5.408 127.928 7.792C127.928 10.16 129.672 11.696 131.72 11.696C132.76 11.696 133.848 11.216 134.344 10.384V11.536ZM134.328 7.776C134.328 9.36 133.176 10.272 131.848 10.272C130.504 10.272 129.416 9.248 129.416 7.776C129.416 6.304 130.504 5.328 131.848 5.328C133.064 5.328 134.328 6.176 134.328 7.776ZM139.677 8.816C139.677 6.832 140.285 5.296 141.725 5.296C142.029 5.296 142.429 5.36 142.829 5.552L143.053 4.192C142.845 4.048 142.285 3.904 141.757 3.904C140.781 3.904 140.061 4.416 139.677 5.744V4.064H138.221V11.536H139.677V8.816ZM145.974 4.064H144.534V11.536H145.974V4.064ZM144.246 1.31199C144.246 1.87199 144.694 2.25599 145.254 2.25599C145.814 2.25599 146.262 1.87199 146.262 1.31199C146.262 0.751995 145.814 0.367995 145.254 0.367995C144.694 0.367995 144.246 0.751995 144.246 1.31199ZM154.329 11.536H155.769V4.064H154.329V5.184C153.817 4.336 152.745 3.904 151.705 3.904C149.657 3.904 147.913 5.408 147.913 7.792C147.913 10.16 149.657 11.696 151.705 11.696C152.745 11.696 153.833 11.216 154.329 10.384V11.536ZM154.313 7.776C154.313 9.36 153.161 10.272 151.833 10.272C150.489 10.272 149.401 9.248 149.401 7.776C149.401 6.304 150.489 5.328 151.833 5.328C153.049 5.328 154.313 6.176 154.313 7.776ZM160.222 4.064V1.248H158.766V4.064H157.422V5.296H158.766V11.536H160.222V5.296H161.806V4.064H160.222ZM164.896 4.064H163.456V11.536H164.896V4.064ZM163.168 1.31199C163.168 1.87199 163.616 2.25599 164.176 2.25599C164.736 2.25599 165.184 1.87199 165.184 1.31199C165.184 0.751995 164.736 0.367995 164.176 0.367995C163.616 0.367995 163.168 0.751995 163.168 1.31199ZM170.739 11.696C172.867 11.696 174.659 10.144 174.659 7.776C174.659 5.408 172.867 3.904 170.739 3.904C168.611 3.904 166.835 5.408 166.835 7.776C166.835 10.144 168.611 11.696 170.739 11.696ZM170.739 10.288C169.379 10.288 168.275 9.312 168.275 7.776C168.275 6.272 169.379 5.328 170.739 5.328C172.067 5.328 173.203 6.272 173.203 7.776C173.203 9.312 172.067 10.288 170.739 10.288ZM178.052 7.504C178.052 5.92 179.108 5.328 180.164 5.328C181.188 5.328 181.812 6.048 181.812 7.312V11.536H183.268V7.216C183.268 5.104 182.26 3.904 180.388 3.904C179.572 3.904 178.484 4.288 178.052 5.184V4.064H176.596V11.536H178.052V7.504ZM188.332 8.48C188.892 8.608 189.34 8.864 189.324 9.424C189.308 9.984 188.876 10.352 188.188 10.4C187.724 10.432 187.34 10.352 187.004 10.144C186.636 9.968 186.444 9.616 186.396 9.296H185.068C185.116 10.832 186.508 11.696 187.852 11.696C189.404 11.696 190.748 10.864 190.748 9.456C190.748 8.608 190.348 7.664 188.812 7.28L187.708 7.008C187.324 6.896 186.972 6.736 186.828 6.432C186.748 6.272 186.748 6.08 186.812 5.84C186.924 5.44 187.372 5.16799 187.932 5.16799C188.508 5.16799 189.02 5.456 189.1 6.016H190.492C190.364 4.496 189.164 3.904 187.9 3.904C186.556 3.904 185.436 4.72 185.308 5.808C185.18 7.2 185.948 7.872 187.308 8.24L188.332 8.48ZM200.207 11.696C202.335 11.696 204.127 10.144 204.127 7.776C204.127 5.408 202.335 3.904 200.207 3.904C198.079 3.904 196.303 5.408 196.303 7.776C196.303 10.144 198.079 11.696 200.207 11.696ZM200.207 10.288C198.847 10.288 197.743 9.312 197.743 7.776C197.743 6.272 198.847 5.328 200.207 5.328C201.535 5.328 202.671 6.272 202.671 7.776C202.671 9.312 201.535 10.288 200.207 10.288ZM210.401 -4.76837e-06H209.585C207.569 -4.76837e-06 206.721 1.344 206.721 3.312V4.064H205.281V5.296H206.721V11.536H208.193V5.296H209.921V4.064H208.193V3.312C208.193 2.352 208.369 1.392 209.585 1.392H210.401V-4.76837e-06ZM216.818 4.064H215.362V15.168H216.818V10.416C217.33 11.264 218.37 11.696 219.426 11.696C221.474 11.696 223.17 10.192 223.17 7.824C223.17 5.456 221.474 3.904 219.426 3.904C218.37 3.904 217.33 4.384 216.818 5.232V4.064ZM216.834 7.84C216.834 6.256 217.97 5.328 219.282 5.328C220.626 5.328 221.698 6.352 221.698 7.84C221.698 9.328 220.626 10.272 219.282 10.272C218.082 10.272 216.834 9.44 216.834 7.84ZM231.032 11.536H232.472V4.064H231.032V5.184C230.52 4.336 229.448 3.904 228.408 3.904C226.36 3.904 224.616 5.408 224.616 7.792C224.616 10.16 226.36 11.696 228.408 11.696C229.448 11.696 230.536 11.216 231.032 10.384V11.536ZM231.016 7.776C231.016 9.36 229.864 10.272 228.536 10.272C227.192 10.272 226.104 9.248 226.104 7.776C226.104 6.304 227.192 5.328 228.536 5.328C229.752 5.328 231.016 6.176 231.016 7.776ZM237.629 8.48C238.189 8.608 238.637 8.864 238.621 9.424C238.605 9.984 238.173 10.352 237.485 10.4C237.021 10.432 236.637 10.352 236.301 10.144C235.933 9.968 235.741 9.616 235.693 9.296H234.365C234.413 10.832 235.805 11.696 237.149 11.696C238.701 11.696 240.045 10.864 240.045 9.456C240.045 8.608 239.645 7.664 238.109 7.28L237.005 7.008C236.621 6.896 236.269 6.736 236.125 6.432C236.045 6.272 236.045 6.08 236.109 5.84C236.221 5.44 236.669 5.16799 237.229 5.16799C237.805 5.16799 238.317 5.456 238.397 6.016H239.789C239.661 4.496 238.461 3.904 237.197 3.904C235.853 3.904 234.733 4.72 234.605 5.808C234.477 7.2 235.245 7.872 236.605 8.24L237.629 8.48ZM244.66 8.48C245.22 8.608 245.668 8.864 245.652 9.424C245.636 9.984 245.204 10.352 244.516 10.4C244.052 10.432 243.668 10.352 243.332 10.144C242.964 9.968 242.772 9.616 242.724 9.296H241.396C241.444 10.832 242.836 11.696 244.18 11.696C245.732 11.696 247.076 10.864 247.076 9.456C247.076 8.608 246.676 7.664 245.14 7.28L244.036 7.008C243.652 6.896 243.3 6.736 243.156 6.432C243.076 6.272 243.076 6.08 243.14 5.84C243.252 5.44 243.7 5.16799 244.26 5.16799C244.836 5.16799 245.348 5.456 245.428 6.016H246.82C246.692 4.496 245.492 3.904 244.228 3.904C242.884 3.904 241.764 4.72 241.636 5.808C241.508 7.2 242.276 7.872 243.636 8.24L244.66 8.48ZM254.891 11.536H256.331V4.064H254.891V5.184C254.379 4.336 253.307 3.904 252.267 3.904C250.219 3.904 248.475 5.408 248.475 7.792C248.475 10.16 250.219 11.696 252.267 11.696C253.307 11.696 254.395 11.216 254.891 10.384V11.536ZM254.875 7.776C254.875 9.36 253.723 10.272 252.395 10.272C251.051 10.272 249.963 9.248 249.963 7.776C249.963 6.304 251.051 5.328 252.395 5.328C253.611 5.328 254.875 6.176 254.875 7.776ZM259.888 12.608C259.696 12.688 258.848 13.152 258.672 13.248C259.392 14.576 260.656 15.264 262.048 15.264C264.528 15.264 266.128 13.92 266.128 10.4V4.064H264.688V5.232C264.176 4.384 263.104 3.904 262.064 3.904C260.016 3.904 258.272 5.456 258.272 7.824C258.272 10.192 260.016 11.696 262.064 11.696C263.12 11.696 264.224 11.216 264.688 10.32C264.688 10.384 264.704 10.432 264.704 10.496C264.704 12.976 263.664 13.888 262.048 13.888C261.216 13.888 260.336 13.44 259.888 12.608ZM264.672 7.808C264.672 9.408 263.408 10.272 262.192 10.272C260.848 10.272 259.76 9.344 259.76 7.808C259.76 6.352 260.848 5.328 262.192 5.328C263.52 5.328 264.672 6.208 264.672 7.808ZM269.509 7.216C269.685 5.952 270.645 5.216 271.877 5.216C273.093 5.216 273.973 5.952 274.149 7.216H269.509ZM275.589 7.776C275.589 5.408 274.005 3.904 271.877 3.904C269.749 3.904 268.053 5.408 268.053 7.776C268.053 10.144 269.749 11.696 271.877 11.696C273.333 11.696 274.677 11.04 275.317 9.712C274.917 9.536 274.453 9.408 274.069 9.232C273.637 9.984 272.821 10.384 271.925 10.384C270.645 10.384 269.685 9.616 269.509 8.352H275.573C275.589 8.176 275.589 7.952 275.589 7.776ZM281.884 0.511995V11.536H287.868V10.144H283.372V0.511995H281.884ZM292.77 11.696C294.898 11.696 296.69 10.144 296.69 7.776C296.69 5.408 294.898 3.904 292.77 3.904C290.642 3.904 288.866 5.408 288.866 7.776C288.866 10.144 290.642 11.696 292.77 11.696ZM292.77 10.288C291.41 10.288 290.306 9.312 290.306 7.776C290.306 6.272 291.41 5.328 292.77 5.328C294.098 5.328 295.234 6.272 295.234 7.776C295.234 9.312 294.098 10.288 292.77 10.288ZM300.083 8.816C300.083 6.832 300.691 5.296 302.131 5.296C302.435 5.296 302.835 5.36 303.235 5.552L303.459 4.192C303.251 4.048 302.691 3.904 302.163 3.904C301.187 3.904 300.467 4.416 300.083 5.744V4.064H298.627V11.536H300.083V8.816ZM305.712 7.216C305.888 5.952 306.848 5.216 308.08 5.216C309.296 5.216 310.176 5.952 310.352 7.216H305.712ZM311.792 7.776C311.792 5.408 310.208 3.904 308.08 3.904C305.952 3.904 304.256 5.408 304.256 7.776C304.256 10.144 305.952 11.696 308.08 11.696C309.536 11.696 310.88 11.04 311.52 9.712C311.12 9.536 310.656 9.408 310.272 9.232C309.84 9.984 309.024 10.384 308.128 10.384C306.848 10.384 305.888 9.616 305.712 8.352H311.776C311.792 8.176 311.792 7.952 311.792 7.776ZM322.235 5.328C323.323 5.328 323.947 6.08 323.947 7.312V11.536H325.403V7.216C325.403 5.104 324.395 3.904 322.523 3.904C321.803 3.904 320.619 4.112 319.931 5.44C319.579 4.624 318.923 4.128 317.979 3.98399C317.723 3.936 317.451 3.92 317.163 3.936C316.555 3.98399 315.483 4.35199 315.099 5.184V4.064H313.643V11.536H315.099V7.504C315.099 5.936 316.139 5.328 317.179 5.328C318.155 5.328 318.795 6.064 318.795 7.296V11.536H320.251V7.504C320.251 6.256 321.003 5.328 322.235 5.328ZM332.181 0.511995V11.536H333.669V0.511995H332.181ZM337.849 4.064H336.393V15.168H337.849V10.416C338.361 11.264 339.401 11.696 340.457 11.696C342.505 11.696 344.201 10.192 344.201 7.824C344.201 5.456 342.505 3.904 340.457 3.904C339.401 3.904 338.361 4.384 337.849 5.232V4.064ZM337.865 7.84C337.865 6.256 339.001 5.328 340.313 5.328C341.657 5.328 342.729 6.352 342.729 7.84C342.729 9.328 341.657 10.272 340.313 10.272C339.113 10.272 337.865 9.44 337.865 7.84ZM348.863 8.48C349.423 8.608 349.871 8.864 349.855 9.424C349.839 9.984 349.407 10.352 348.719 10.4C348.255 10.432 347.871 10.352 347.535 10.144C347.167 9.968 346.975 9.616 346.927 9.296H345.599C345.647 10.832 347.039 11.696 348.383 11.696C349.935 11.696 351.279 10.864 351.279 9.456C351.279 8.608 350.879 7.664 349.343 7.28L348.239 7.008C347.855 6.896 347.503 6.736 347.359 6.432C347.279 6.272 347.279 6.08 347.343 5.84C347.455 5.44 347.903 5.16799 348.463 5.16799C349.039 5.16799 349.551 5.456 349.631 6.016H351.023C350.895 4.496 349.695 3.904 348.431 3.904C347.087 3.904 345.967 4.72 345.839 5.808C345.711 7.2 346.479 7.872 347.839 8.24L348.863 8.48ZM358.278 8.096C358.278 9.696 357.222 10.272 356.166 10.272C355.142 10.272 354.534 9.552 354.534 8.288V4.064H353.078V8.384C353.062 10.496 354.086 11.696 355.958 11.696C356.774 11.696 357.814 11.312 358.278 10.416V11.536H359.734V4.064H358.278V8.096ZM370.751 5.328C371.839 5.328 372.463 6.08 372.463 7.312V11.536H373.919V7.216C373.919 5.104 372.911 3.904 371.039 3.904C370.319 3.904 369.135 4.112 368.447 5.44C368.095 4.624 367.439 4.128 366.495 3.98399C366.239 3.936 365.967 3.92 365.679 3.936C365.071 3.98399 363.999 4.35199 363.615 5.184V4.064H362.159V11.536H363.615V7.504C363.615 5.936 364.655 5.328 365.695 5.328C366.671 5.328 367.311 6.064 367.311 7.296V11.536H368.767V7.504C368.767 6.256 369.519 5.328 370.751 5.328ZM386.329 11.536H387.769V4.064H386.329V5.184C385.817 4.336 384.745 3.904 383.705 3.904C381.657 3.904 379.913 5.408 379.913 7.792C379.913 10.16 381.657 11.696 383.705 11.696C384.745 11.696 385.833 11.216 386.329 10.384V11.536ZM386.313 7.776C386.313 9.36 385.161 10.272 383.833 10.272C382.489 10.272 381.401 9.248 381.401 7.776C381.401 6.304 382.489 5.328 383.833 5.328C385.049 5.328 386.313 6.176 386.313 7.776ZM389.262 4.064L392.366 11.536H393.774H393.758L396.878 4.064H395.326L393.07 9.68L390.798 4.064H389.262ZM404.11 11.536H405.55V4.064H404.11V5.184C403.598 4.336 402.526 3.904 401.486 3.904C399.438 3.904 397.694 5.408 397.694 7.792C397.694 10.16 399.438 11.696 401.486 11.696C402.526 11.696 403.614 11.216 404.11 10.384V11.536ZM404.094 7.776C404.094 9.36 402.942 10.272 401.614 10.272C400.27 10.272 399.182 9.248 399.182 7.776C399.182 6.304 400.27 5.328 401.614 5.328C402.83 5.328 404.094 6.176 404.094 7.776ZM409.427 4.064H407.987V11.536H409.427V4.064ZM407.699 1.31199C407.699 1.87199 408.147 2.25599 408.707 2.25599C409.267 2.25599 409.715 1.87199 409.715 1.31199C409.715 0.751995 409.267 0.367995 408.707 0.367995C408.147 0.367995 407.699 0.751995 407.699 1.31199ZM411.862 -4.76837e-06V11.536H413.318V-4.76837e-06H411.862ZM421.672 11.536H423.112V4.064H421.672V5.184C421.16 4.336 420.088 3.904 419.048 3.904C417 3.904 415.256 5.408 415.256 7.792C415.256 10.16 417 11.696 419.048 11.696C420.088 11.696 421.176 11.216 421.672 10.384V11.536ZM421.656 7.776C421.656 9.36 420.504 10.272 419.176 10.272C417.832 10.272 416.744 9.248 416.744 7.776C416.744 6.304 417.832 5.328 419.176 5.328C420.392 5.328 421.656 6.176 421.656 7.776ZM427.005 10.384C427.501 11.216 428.573 11.696 429.613 11.696C431.661 11.696 433.405 10.16 433.405 7.792C433.405 5.408 431.693 3.904 429.629 3.904C428.541 3.904 427.501 4.336 427.005 5.184V-4.76837e-06H425.549V11.536H427.005V10.384ZM427.021 7.776C427.021 6.176 428.285 5.328 429.501 5.328C430.845 5.328 431.917 6.304 431.917 7.776C431.917 9.248 430.845 10.272 429.501 10.272C428.173 10.272 427.021 9.36 427.021 7.776ZM435.346 -4.76837e-06V11.536H436.802V-4.76837e-06H435.346ZM440.197 7.216C440.373 5.952 441.333 5.216 442.565 5.216C443.781 5.216 444.661 5.952 444.837 7.216H440.197ZM446.277 7.776C446.277 5.408 444.693 3.904 442.565 3.904C440.437 3.904 438.741 5.408 438.741 7.776C438.741 10.144 440.437 11.696 442.565 11.696C444.021 11.696 445.365 11.04 446.005 9.712C445.605 9.536 445.141 9.408 444.757 9.232C444.325 9.984 443.509 10.384 442.613 10.384C441.333 10.384 440.373 9.616 440.197 8.352H446.261C446.277 8.176 446.277 7.952 446.277 7.776ZM448.207 13.552C448.895 12.992 449.679 11.696 449.807 9.696H448.271C448.319 11.232 447.807 12.336 447.183 13.216L448.207 13.552ZM457.849 10.384C458.345 11.216 459.417 11.696 460.457 11.696C462.505 11.696 464.249 10.16 464.249 7.792C464.249 5.408 462.537 3.904 460.473 3.904C459.385 3.904 458.345 4.336 457.849 5.184V-4.76837e-06H456.393V11.536H457.849V10.384ZM457.865 7.776C457.865 6.176 459.129 5.328 460.345 5.328C461.689 5.328 462.761 6.304 462.761 7.776C462.761 9.248 461.689 10.272 460.345 10.272C459.017 10.272 457.865 9.36 457.865 7.776ZM471.294 8.096C471.294 9.696 470.238 10.272 469.182 10.272C468.158 10.272 467.55 9.552 467.55 8.288V4.064H466.094V8.384C466.078 10.496 467.102 11.696 468.974 11.696C469.79 11.696 470.83 11.312 471.294 10.416V11.536H472.75V4.064H471.294V8.096ZM477.19 4.064V1.248H475.734V4.064H474.39V5.296H475.734V11.536H477.19V5.296H478.774V4.064H477.19ZM486.3 4.064V1.248H484.844V4.064H483.5V5.296H484.844V11.536H486.3V5.296H487.884V4.064H486.3ZM490.384 7.216C490.56 5.952 491.52 5.216 492.752 5.216C493.968 5.216 494.848 5.952 495.024 7.216H490.384ZM496.464 7.776C496.464 5.408 494.88 3.904 492.752 3.904C490.624 3.904 488.928 5.408 488.928 7.776C488.928 10.144 490.624 11.696 492.752 11.696C494.208 11.696 495.552 11.04 496.192 9.712C495.792 9.536 495.328 9.408 494.944 9.232C494.512 9.984 493.696 10.384 492.8 10.384C491.52 10.384 490.56 9.616 490.384 8.352H496.448C496.464 8.176 496.464 7.952 496.464 7.776ZM511.063 5.328C512.151 5.328 512.775 6.08 512.775 7.312V11.536H514.231V7.216C514.231 5.104 513.223 3.904 511.351 3.904C510.631 3.904 509.447 4.112 508.759 5.44C508.407 4.624 507.751 4.128 506.807 3.98399C506.551 3.936 506.279 3.92 505.991 3.936C505.383 3.98399 504.311 4.35199 503.927 5.184V4.064H502.471V11.536H503.927V7.504C503.927 5.936 504.967 5.328 506.007 5.328C506.983 5.328 507.623 6.064 507.623 7.296V11.536H509.079V7.504C509.079 6.256 509.831 5.328 511.063 5.328ZM522.485 11.536H523.925V4.064H522.485V5.184C521.973 4.336 520.901 3.904 519.861 3.904C517.813 3.904 516.069 5.408 516.069 7.792C516.069 10.16 517.813 11.696 519.861 11.696C520.901 11.696 521.989 11.216 522.485 10.384V11.536ZM522.469 7.776C522.469 9.36 521.317 10.272 519.989 10.272C518.645 10.272 517.557 9.248 517.557 7.776C517.557 6.304 518.645 5.328 519.989 5.328C521.205 5.328 522.469 6.176 522.469 7.776ZM524.154 15.2H525.146C527.162 15.2 527.834 13.856 527.834 12V4.064H526.362V11.984C526.362 12.832 526.25 13.84 525.018 13.84H524.154V15.2ZM526.09 1.31199C526.09 1.87199 526.538 2.25599 527.098 2.25599C527.658 2.25599 528.106 1.87199 528.106 1.31199C528.106 0.751995 527.658 0.367995 527.098 0.367995C526.538 0.367995 526.09 0.751995 526.09 1.31199ZM533.676 11.696C535.804 11.696 537.596 10.144 537.596 7.776C537.596 5.408 535.804 3.904 533.676 3.904C531.548 3.904 529.772 5.408 529.772 7.776C529.772 10.144 531.548 11.696 533.676 11.696ZM533.676 10.288C532.316 10.288 531.212 9.312 531.212 7.776C531.212 6.272 532.316 5.328 533.676 5.328C535.004 5.328 536.14 6.272 536.14 7.776C536.14 9.312 535.004 10.288 533.676 10.288ZM540.99 8.816C540.99 6.832 541.598 5.296 543.038 5.296C543.342 5.296 543.742 5.36 544.142 5.552L544.366 4.192C544.158 4.048 543.598 3.904 543.07 3.904C542.094 3.904 541.374 4.416 540.99 5.744V4.064H539.534V11.536H540.99V8.816ZM547.286 4.064H545.846V11.536H547.286V4.064ZM545.558 1.31199C545.558 1.87199 546.006 2.25599 546.566 2.25599C547.126 2.25599 547.574 1.87199 547.574 1.31199C547.574 0.751995 547.126 0.367995 546.566 0.367995C546.006 0.367995 545.558 0.751995 545.558 1.31199ZM551.737 4.064V1.248H550.281V4.064H548.937V5.296H550.281V11.536H551.737V5.296H553.321V4.064H551.737ZM556.987 15.168L561.627 4.064H560.075L557.835 9.472L555.595 4.064H554.043L557.035 11.312L555.467 15.168H556.987ZM2.224 30.504C2.224 28.904 3.472 28.328 4.496 28.328C5.52 28.328 6.256 29.08 6.256 30.312V34.536H7.712V30.216C7.728 28.104 6.56 26.904 4.688 26.904C3.888 26.904 2.656 27.288 2.224 28.184V23H0.768002V34.536H2.224V30.504ZM15.9693 34.536H17.4093V27.064H15.9693V28.184C15.4573 27.336 14.3853 26.904 13.3453 26.904C11.2973 26.904 9.55325 28.408 9.55325 30.792C9.55325 33.16 11.2973 34.696 13.3453 34.696C14.3853 34.696 15.4733 34.216 15.9693 33.384V34.536ZM15.9533 30.776C15.9533 32.36 14.8013 33.272 13.4733 33.272C12.1293 33.272 11.0413 32.248 11.0413 30.776C11.0413 29.304 12.1293 28.328 13.4733 28.328C14.6893 28.328 15.9533 29.176 15.9533 30.776ZM18.9021 27.064L22.0061 34.536H23.4141H23.3981L26.5181 27.064H24.9661L22.7101 32.68L20.4381 27.064H18.9021ZM34.4724 31.48C35.0324 31.608 35.4804 31.864 35.4644 32.424C35.4484 32.984 35.0164 33.352 34.3284 33.4C33.8644 33.432 33.4804 33.352 33.1444 33.144C32.7764 32.968 32.5844 32.616 32.5364 32.296H31.2084C31.2564 33.832 32.6484 34.696 33.9924 34.696C35.5444 34.696 36.8884 33.864 36.8884 32.456C36.8884 31.608 36.4884 30.664 34.9524 30.28L33.8484 30.008C33.4644 29.896 33.1124 29.736 32.9684 29.432C32.8884 29.272 32.8884 29.08 32.9524 28.84C33.0644 28.44 33.5124 28.168 34.0724 28.168C34.6484 28.168 35.1604 28.456 35.2404 29.016H36.6324C36.5044 27.496 35.3044 26.904 34.0404 26.904C32.6964 26.904 31.5764 27.72 31.4484 28.808C31.3204 30.2 32.0884 30.872 33.4484 31.24L34.4724 31.48ZM43.8876 31.096C43.8876 32.696 42.8316 33.272 41.7756 33.272C40.7516 33.272 40.1436 32.552 40.1436 31.288V27.064H38.6876V31.384C38.6716 33.496 39.6956 34.696 41.5676 34.696C42.3836 34.696 43.4236 34.312 43.8876 33.416V34.536H45.3436V27.064H43.8876V31.096ZM57.928 23H57.112C55.096 23 54.248 24.344 54.248 26.312V27.064H49.896V26.312C49.896 25.352 50.072 24.392 51.288 24.392H52.104V23H51.288C49.272 23 48.424 24.344 48.424 26.312V27.064H46.984V28.296H48.424V34.536H49.896V28.296H54.248V34.536H55.72V28.296H57.448V27.064H55.72V26.312C55.72 25.352 55.896 24.392 57.112 24.392H57.928V23ZM59.9311 30.216C60.1071 28.952 61.0671 28.216 62.2991 28.216C63.5151 28.216 64.3951 28.952 64.5711 30.216H59.9311ZM66.0111 30.776C66.0111 28.408 64.4271 26.904 62.2991 26.904C60.1711 26.904 58.4751 28.408 58.4751 30.776C58.4751 33.144 60.1711 34.696 62.2991 34.696C63.7551 34.696 65.0991 34.04 65.7391 32.712C65.3391 32.536 64.8751 32.408 64.4911 32.232C64.0591 32.984 63.2431 33.384 62.3471 33.384C61.0671 33.384 60.1071 32.616 59.9311 31.352H65.9951C66.0111 31.176 66.0111 30.952 66.0111 30.776ZM69.3178 31.816C69.3178 29.832 69.9258 28.296 71.3658 28.296C71.6698 28.296 72.0698 28.36 72.4698 28.552L72.6938 27.192C72.4858 27.048 71.9258 26.904 71.3978 26.904C70.4218 26.904 69.7018 27.416 69.3178 28.744V27.064H67.8618V34.536H69.3178V31.816ZM74.9468 30.216C75.1228 28.952 76.0828 28.216 77.3148 28.216C78.5308 28.216 79.4108 28.952 79.5868 30.216H74.9468ZM81.0268 30.776C81.0268 28.408 79.4428 26.904 77.3148 26.904C75.1868 26.904 73.4908 28.408 73.4908 30.776C73.4908 33.144 75.1868 34.696 77.3148 34.696C78.7708 34.696 80.1148 34.04 80.7548 32.712C80.3548 32.536 79.8908 32.408 79.5068 32.232C79.0748 32.984 78.2588 33.384 77.3628 33.384C76.0828 33.384 75.1228 32.616 74.9468 31.352H81.0108C81.0268 31.176 81.0268 30.952 81.0268 30.776ZM88.7814 34.536H90.2374V23H88.7814V28.184C88.2854 27.336 87.2454 26.904 86.1414 26.904C84.0934 26.904 82.3814 28.408 82.3814 30.792C82.3814 33.16 84.1094 34.696 86.1574 34.696C87.1974 34.696 88.2854 34.216 88.7814 33.384V34.536ZM88.7654 30.776C88.7654 32.36 87.6134 33.272 86.2854 33.272C84.9414 33.272 83.8694 32.248 83.8694 30.776C83.8694 29.304 84.9414 28.328 86.2854 28.328C87.5014 28.328 88.7654 29.176 88.7654 30.776ZM102.751 34.536H104.191V27.064H102.751V28.184C102.239 27.336 101.167 26.904 100.127 26.904C98.0785 26.904 96.3345 28.408 96.3345 30.792C96.3345 33.16 98.0785 34.696 100.127 34.696C101.167 34.696 102.255 34.216 102.751 33.384V34.536ZM102.735 30.776C102.735 32.36 101.583 33.272 100.255 33.272C98.9105 33.272 97.8225 32.248 97.8225 30.776C97.8225 29.304 98.9105 28.328 100.255 28.328C101.471 28.328 102.735 29.176 102.735 30.776ZM106.627 23V34.536H108.083V23H106.627ZM112.534 27.064V24.248H111.078V27.064H109.734V28.296H111.078V34.536H112.534V28.296H114.118V27.064H112.534ZM116.619 30.216C116.795 28.952 117.755 28.216 118.987 28.216C120.203 28.216 121.083 28.952 121.259 30.216H116.619ZM122.699 30.776C122.699 28.408 121.115 26.904 118.987 26.904C116.859 26.904 115.163 28.408 115.163 30.776C115.163 33.144 116.859 34.696 118.987 34.696C120.443 34.696 121.787 34.04 122.427 32.712C122.027 32.536 121.563 32.408 121.179 32.232C120.747 32.984 119.931 33.384 119.035 33.384C117.755 33.384 116.795 32.616 116.619 31.352H122.683C122.699 31.176 122.699 30.952 122.699 30.776ZM126.005 31.816C126.005 29.832 126.613 28.296 128.053 28.296C128.357 28.296 128.757 28.36 129.157 28.552L129.381 27.192C129.173 27.048 128.613 26.904 128.085 26.904C127.109 26.904 126.389 27.416 126.005 28.744V27.064H124.549V34.536H126.005V31.816ZM136.594 34.536H138.034V27.064H136.594V28.184C136.082 27.336 135.01 26.904 133.97 26.904C131.922 26.904 130.178 28.408 130.178 30.792C130.178 33.16 131.922 34.696 133.97 34.696C135.01 34.696 136.098 34.216 136.594 33.384V34.536ZM136.578 30.776C136.578 32.36 135.426 33.272 134.098 33.272C132.754 33.272 131.666 32.248 131.666 30.776C131.666 29.304 132.754 28.328 134.098 28.328C135.314 28.328 136.578 29.176 136.578 30.776ZM142.487 27.064V24.248H141.031V27.064H139.687V28.296H141.031V34.536H142.487V28.296H144.071V27.064H142.487ZM147.161 27.064H145.721V34.536H147.161V27.064ZM145.433 24.312C145.433 24.872 145.881 25.256 146.441 25.256C147.001 25.256 147.449 24.872 147.449 24.312C147.449 23.752 147.001 23.368 146.441 23.368C145.881 23.368 145.433 23.752 145.433 24.312ZM153.004 34.696C155.132 34.696 156.924 33.144 156.924 30.776C156.924 28.408 155.132 26.904 153.004 26.904C150.876 26.904 149.1 28.408 149.1 30.776C149.1 33.144 150.876 34.696 153.004 34.696ZM153.004 33.288C151.644 33.288 150.54 32.312 150.54 30.776C150.54 29.272 151.644 28.328 153.004 28.328C154.332 28.328 155.468 29.272 155.468 30.776C155.468 32.312 154.332 33.288 153.004 33.288ZM160.318 30.504C160.318 28.92 161.374 28.328 162.43 28.328C163.454 28.328 164.078 29.048 164.078 30.312V34.536H165.534V30.216C165.534 28.104 164.526 26.904 162.654 26.904C161.838 26.904 160.75 27.288 160.318 28.184V27.064H158.862V34.536H160.318V30.504ZM173.474 27.064H172.034V34.536H173.474V27.064ZM171.746 24.312C171.746 24.872 172.194 25.256 172.754 25.256C173.314 25.256 173.762 24.872 173.762 24.312C173.762 23.752 173.314 23.368 172.754 23.368C172.194 23.368 171.746 23.752 171.746 24.312ZM177.365 30.504C177.365 28.92 178.421 28.328 179.477 28.328C180.501 28.328 181.125 29.048 181.125 30.312V34.536H182.581V30.216C182.581 28.104 181.573 26.904 179.701 26.904C178.885 26.904 177.797 27.288 177.365 28.184V27.064H175.909V34.536H177.365V30.504ZM191.801 31.48C192.361 31.608 192.809 31.864 192.793 32.424C192.777 32.984 192.345 33.352 191.657 33.4C191.193 33.432 190.809 33.352 190.473 33.144C190.105 32.968 189.913 32.616 189.865 32.296H188.537C188.585 33.832 189.977 34.696 191.321 34.696C192.873 34.696 194.217 33.864 194.217 32.456C194.217 31.608 193.817 30.664 192.281 30.28L191.177 30.008C190.793 29.896 190.441 29.736 190.297 29.432C190.217 29.272 190.217 29.08 190.281 28.84C190.393 28.44 190.841 28.168 191.401 28.168C191.977 28.168 192.489 28.456 192.569 29.016H193.961C193.833 27.496 192.633 26.904 191.369 26.904C190.025 26.904 188.905 27.72 188.777 28.808C188.649 30.2 189.417 30.872 190.777 31.24L191.801 31.48ZM199.52 34.696C201.648 34.696 203.44 33.144 203.44 30.776C203.44 28.408 201.648 26.904 199.52 26.904C197.392 26.904 195.616 28.408 195.616 30.776C195.616 33.144 197.392 34.696 199.52 34.696ZM199.52 33.288C198.16 33.288 197.056 32.312 197.056 30.776C197.056 29.272 198.16 28.328 199.52 28.328C200.848 28.328 201.984 29.272 201.984 30.776C201.984 32.312 200.848 33.288 199.52 33.288ZM213.969 28.328C215.057 28.328 215.681 29.08 215.681 30.312V34.536H217.137V30.216C217.137 28.104 216.129 26.904 214.257 26.904C213.537 26.904 212.353 27.112 211.665 28.44C211.313 27.624 210.657 27.128 209.713 26.984C209.457 26.936 209.185 26.92 208.897 26.936C208.289 26.984 207.217 27.352 206.833 28.184V27.064H205.377V34.536H206.833V30.504C206.833 28.936 207.873 28.328 208.913 28.328C209.889 28.328 210.529 29.064 210.529 30.296V34.536H211.985V30.504C211.985 29.256 212.737 28.328 213.969 28.328ZM220.431 30.216C220.607 28.952 221.567 28.216 222.799 28.216C224.015 28.216 224.895 28.952 225.071 30.216H220.431ZM226.511 30.776C226.511 28.408 224.927 26.904 222.799 26.904C220.671 26.904 218.975 28.408 218.975 30.776C218.975 33.144 220.671 34.696 222.799 34.696C224.255 34.696 225.599 34.04 226.239 32.712C225.839 32.536 225.375 32.408 224.991 32.232C224.559 32.984 223.743 33.384 222.847 33.384C221.567 33.384 220.607 32.616 220.431 31.352H226.495C226.511 31.176 226.511 30.952 226.511 30.776ZM236.635 23H235.819C233.803 23 232.955 24.344 232.955 26.312V27.064H231.515V28.296H232.955V34.536H234.427V28.296H236.155V27.064H234.427V26.312C234.427 25.352 234.603 24.392 235.819 24.392H236.635V23ZM241.082 34.696C243.21 34.696 245.002 33.144 245.002 30.776C245.002 28.408 243.21 26.904 241.082 26.904C238.954 26.904 237.178 28.408 237.178 30.776C237.178 33.144 238.954 34.696 241.082 34.696ZM241.082 33.288C239.722 33.288 238.618 32.312 238.618 30.776C238.618 29.272 239.722 28.328 241.082 28.328C242.41 28.328 243.546 29.272 243.546 30.776C243.546 32.312 242.41 33.288 241.082 33.288ZM248.396 31.816C248.396 29.832 249.004 28.296 250.444 28.296C250.748 28.296 251.148 28.36 251.548 28.552L251.772 27.192C251.564 27.048 251.004 26.904 250.476 26.904C249.5 26.904 248.78 27.416 248.396 28.744V27.064H246.94V34.536H248.396V31.816ZM261.844 28.328C262.932 28.328 263.556 29.08 263.556 30.312V34.536H265.012V30.216C265.012 28.104 264.004 26.904 262.132 26.904C261.412 26.904 260.228 27.112 259.54 28.44C259.188 27.624 258.532 27.128 257.588 26.984C257.332 26.936 257.06 26.92 256.772 26.936C256.164 26.984 255.092 27.352 254.708 28.184V27.064H253.252V34.536H254.708V30.504C254.708 28.936 255.748 28.328 256.788 28.328C257.764 28.328 258.404 29.064 258.404 30.296V34.536H259.86V30.504C259.86 29.256 260.612 28.328 261.844 28.328ZM267.426 36.552C268.114 35.992 268.898 34.696 269.026 32.696H267.49C267.538 34.232 267.026 35.336 266.402 36.216L267.426 36.552ZM277.068 33.384C277.564 34.216 278.636 34.696 279.676 34.696C281.724 34.696 283.468 33.16 283.468 30.792C283.468 28.408 281.756 26.904 279.692 26.904C278.604 26.904 277.564 27.336 277.068 28.184V23H275.612V34.536H277.068V33.384ZM277.084 30.776C277.084 29.176 278.348 28.328 279.564 28.328C280.908 28.328 281.98 29.304 281.98 30.776C281.98 32.248 280.908 33.272 279.564 33.272C278.236 33.272 277.084 32.36 277.084 30.776ZM287.425 38.168L292.065 27.064H290.513L288.273 32.472L286.033 27.064H284.481L287.473 34.312L285.905 38.168H287.425ZM298.739 27.064H297.299V34.536H298.739V27.064ZM297.011 24.312C297.011 24.872 297.459 25.256 298.019 25.256C298.579 25.256 299.027 24.872 299.027 24.312C299.027 23.752 298.579 23.368 298.019 23.368C297.459 23.368 297.011 23.752 297.011 24.312ZM302.63 30.504C302.63 28.92 303.686 28.328 304.742 28.328C305.766 28.328 306.39 29.048 306.39 30.312V34.536H307.846V30.216C307.846 28.104 306.838 26.904 304.966 26.904C304.15 26.904 303.062 27.288 302.63 28.184V27.064H301.174V34.536H302.63V30.504ZM307.982 38.2H308.974C310.99 38.2 311.662 36.856 311.662 35V27.064H310.19V34.984C310.19 35.832 310.078 36.84 308.846 36.84H307.982V38.2ZM309.918 24.312C309.918 24.872 310.366 25.256 310.926 25.256C311.486 25.256 311.934 24.872 311.934 24.312C311.934 23.752 311.486 23.368 310.926 23.368C310.366 23.368 309.918 23.752 309.918 24.312ZM315.056 30.216C315.232 28.952 316.192 28.216 317.424 28.216C318.64 28.216 319.52 28.952 319.696 30.216H315.056ZM321.136 30.776C321.136 28.408 319.552 26.904 317.424 26.904C315.296 26.904 313.6 28.408 313.6 30.776C313.6 33.144 315.296 34.696 317.424 34.696C318.88 34.696 320.224 34.04 320.864 32.712C320.464 32.536 320 32.408 319.616 32.232C319.184 32.984 318.368 33.384 317.472 33.384C316.192 33.384 315.232 32.616 315.056 31.352H321.12C321.136 31.176 321.136 30.952 321.136 30.776ZM322.491 30.776C322.491 33.144 324.315 34.696 326.443 34.696C327.595 34.696 328.635 34.248 329.339 33.48L328.219 32.552C327.771 33.016 327.131 33.288 326.443 33.288C325.099 33.288 323.931 32.264 323.931 30.776C323.931 29.272 325.099 28.328 326.443 28.328C327.131 28.328 327.771 28.584 328.219 29.032L329.323 28.104C328.619 27.336 327.595 26.904 326.443 26.904C324.315 26.904 322.491 28.408 322.491 30.776ZM333.19 27.064V24.248H331.734V27.064H330.39V28.296H331.734V34.536H333.19V28.296H334.774V27.064H333.19ZM337.275 30.216C337.451 28.952 338.411 28.216 339.643 28.216C340.859 28.216 341.739 28.952 341.915 30.216H337.275ZM343.355 30.776C343.355 28.408 341.771 26.904 339.643 26.904C337.515 26.904 335.819 28.408 335.819 30.776C335.819 33.144 337.515 34.696 339.643 34.696C341.099 34.696 342.443 34.04 343.083 32.712C342.683 32.536 342.219 32.408 341.835 32.232C341.403 32.984 340.587 33.384 339.691 33.384C338.411 33.384 337.451 32.616 337.275 31.352H343.339C343.355 31.176 343.355 30.952 343.355 30.776ZM351.11 34.536H352.566V23H351.11V28.184C350.614 27.336 349.574 26.904 348.47 26.904C346.422 26.904 344.71 28.408 344.71 30.792C344.71 33.16 346.438 34.696 348.486 34.696C349.526 34.696 350.614 34.216 351.11 33.384V34.536ZM351.094 30.776C351.094 32.36 349.942 33.272 348.614 33.272C347.27 33.272 346.198 32.248 346.198 30.776C346.198 29.304 347.27 28.328 348.614 28.328C349.83 28.328 351.094 29.176 351.094 30.776ZM360.615 30.504C360.615 28.904 361.863 28.328 362.887 28.328C363.911 28.328 364.647 29.08 364.647 30.312V34.536H366.103V30.216C366.119 28.104 364.951 26.904 363.079 26.904C362.279 26.904 361.047 27.288 360.615 28.184V23H359.159V34.536H360.615V30.504ZM373.544 31.096C373.544 32.696 372.488 33.272 371.432 33.272C370.408 33.272 369.8 32.552 369.8 31.288V27.064H368.344V31.384C368.328 33.496 369.352 34.696 371.224 34.696C372.04 34.696 373.08 34.312 373.544 33.416V34.536H375V27.064H373.544V31.096ZM386.016 28.328C387.104 28.328 387.728 29.08 387.728 30.312V34.536H389.184V30.216C389.184 28.104 388.176 26.904 386.304 26.904C385.584 26.904 384.4 27.112 383.712 28.44C383.36 27.624 382.704 27.128 381.76 26.984C381.504 26.936 381.232 26.92 380.944 26.936C380.336 26.984 379.264 27.352 378.88 28.184V27.064H377.424V34.536H378.88V30.504C378.88 28.936 379.92 28.328 380.96 28.328C381.936 28.328 382.576 29.064 382.576 30.296V34.536H384.032V30.504C384.032 29.256 384.784 28.328 386.016 28.328ZM394.926 34.696C397.054 34.696 398.846 33.144 398.846 30.776C398.846 28.408 397.054 26.904 394.926 26.904C392.798 26.904 391.022 28.408 391.022 30.776C391.022 33.144 392.798 34.696 394.926 34.696ZM394.926 33.288C393.566 33.288 392.462 32.312 392.462 30.776C392.462 29.272 393.566 28.328 394.926 28.328C396.254 28.328 397.39 29.272 397.39 30.776C397.39 32.312 396.254 33.288 394.926 33.288ZM405.888 31.096C405.888 32.696 404.832 33.272 403.776 33.272C402.752 33.272 402.144 32.552 402.144 31.288V27.064H400.688V31.384C400.672 33.496 401.696 34.696 403.568 34.696C404.384 34.696 405.424 34.312 405.888 33.416V34.536H407.344V27.064H405.888V31.096ZM411.224 31.816C411.224 29.832 411.832 28.296 413.272 28.296C413.576 28.296 413.976 28.36 414.376 28.552L414.6 27.192C414.392 27.048 413.832 26.904 413.304 26.904C412.328 26.904 411.608 27.416 411.224 28.744V27.064H409.768V34.536H411.224V31.816Z" fill="#666666"/>
</svg>
