<svg width="587" height="54" viewBox="0 0 587 54" fill="none" xmlns="http://www.w3.org/2000/svg">
<path d="M0.448 4.976V6.384H3.792V16H5.296V6.384H8.64V4.976H0.448ZM11.7658 11.968C11.7658 10.368 13.0138 9.792 14.0378 9.792C15.0618 9.792 15.7978 10.544 15.7978 11.776V16H17.2538V11.68C17.2698 9.568 16.1018 8.368 14.2298 8.368C13.4298 8.368 12.1978 8.752 11.7658 9.648V4.464H10.3098V16H11.7658V11.968ZM20.551 11.68C20.727 10.416 21.687 9.68 22.919 9.68C24.135 9.68 25.015 10.416 25.191 11.68H20.551ZM26.631 12.24C26.631 9.872 25.047 8.368 22.919 8.368C20.791 8.368 19.095 9.872 19.095 12.24C19.095 14.608 20.791 16.16 22.919 16.16C24.375 16.16 25.719 15.504 26.359 14.176C25.959 14 25.495 13.872 25.111 13.696C24.679 14.448 23.863 14.848 22.967 14.848C21.687 14.848 20.727 14.08 20.551 12.816H26.615C26.631 12.64 26.631 12.416 26.631 12.24ZM29.9376 13.28C29.9376 11.296 30.5456 9.76 31.9856 9.76C32.2896 9.76 32.6896 9.824 33.0896 10.016L33.3136 8.656C33.1056 8.512 32.5456 8.368 32.0176 8.368C31.0416 8.368 30.3216 8.88 29.9376 10.208V8.528H28.4816V16H29.9376V13.28ZM35.5666 11.68C35.7426 10.416 36.7026 9.68 37.9346 9.68C39.1506 9.68 40.0306 10.416 40.2066 11.68H35.5666ZM41.6466 12.24C41.6466 9.872 40.0626 8.368 37.9346 8.368C35.8066 8.368 34.1106 9.872 34.1106 12.24C34.1106 14.608 35.8066 16.16 37.9346 16.16C39.3906 16.16 40.7346 15.504 41.3746 14.176C40.9746 14 40.5106 13.872 40.1266 13.696C39.6946 14.448 38.8786 14.848 37.9826 14.848C36.7026 14.848 35.7426 14.08 35.5666 12.816H41.6306C41.6466 12.64 41.6466 12.416 41.6466 12.24ZM53.5735 16H55.0135V8.528H53.5735V9.648C53.0615 8.8 51.9895 8.368 50.9495 8.368C48.9015 8.368 47.1575 9.872 47.1575 12.256C47.1575 14.624 48.9015 16.16 50.9495 16.16C51.9895 16.16 53.0775 15.68 53.5735 14.848V16ZM53.5575 12.24C53.5575 13.824 52.4055 14.736 51.0775 14.736C49.7335 14.736 48.6455 13.712 48.6455 12.24C48.6455 10.768 49.7335 9.792 51.0775 9.792C52.2935 9.792 53.5575 10.64 53.5575 12.24ZM58.9064 13.28C58.9064 11.296 59.5144 9.76 60.9544 9.76C61.2584 9.76 61.6584 9.824 62.0584 10.016L62.2824 8.656C62.0744 8.512 61.5144 8.368 60.9864 8.368C60.0104 8.368 59.2904 8.88 58.9064 10.208V8.528H57.4504V16H58.9064V13.28ZM64.5354 11.68C64.7114 10.416 65.6714 9.68 66.9034 9.68C68.1194 9.68 68.9994 10.416 69.1754 11.68H64.5354ZM70.6154 12.24C70.6154 9.872 69.0314 8.368 66.9034 8.368C64.7754 8.368 63.0794 9.872 63.0794 12.24C63.0794 14.608 64.7754 16.16 66.9034 16.16C68.3594 16.16 69.7034 15.504 70.3434 14.176C69.9434 14 69.4794 13.872 69.0954 13.696C68.6634 14.448 67.8474 14.848 66.9514 14.848C65.6714 14.848 64.7114 14.08 64.5354 12.816H70.5994C70.6154 12.64 70.6154 12.416 70.6154 12.24ZM85.2143 9.792C86.3023 9.792 86.9263 10.544 86.9263 11.776V16H88.3823V11.68C88.3823 9.568 87.3743 8.368 85.5023 8.368C84.7823 8.368 83.5983 8.576 82.9103 9.904C82.5583 9.088 81.9023 8.592 80.9583 8.448C80.7023 8.4 80.4303 8.384 80.1423 8.4C79.5343 8.448 78.4623 8.816 78.0783 9.648V8.528H76.6223V16H78.0783V11.968C78.0783 10.4 79.1183 9.792 80.1583 9.792C81.1343 9.792 81.7743 10.528 81.7743 11.76V16H83.2303V11.968C83.2303 10.72 83.9823 9.792 85.2143 9.792ZM96.636 16H98.076V8.528H96.636V9.648C96.124 8.8 95.052 8.368 94.012 8.368C91.964 8.368 90.22 9.872 90.22 12.256C90.22 14.624 91.964 16.16 94.012 16.16C95.052 16.16 96.14 15.68 96.636 14.848V16ZM96.62 12.24C96.62 13.824 95.468 14.736 94.14 14.736C92.796 14.736 91.708 13.712 91.708 12.24C91.708 10.768 92.796 9.792 94.14 9.792C95.356 9.792 96.62 10.64 96.62 12.24ZM101.969 11.968C101.969 10.384 103.025 9.792 104.081 9.792C105.105 9.792 105.729 10.512 105.729 11.776V16H107.185V11.68C107.185 9.568 106.177 8.368 104.305 8.368C103.489 8.368 102.401 8.752 101.969 9.648V8.528H100.513V16H101.969V11.968ZM111.42 19.632L116.06 8.528H114.508L112.268 13.936L110.028 8.528H108.476L111.468 15.776L109.9 19.632H111.42ZM119.944 8.528L123.048 16H124.456H124.44L127.56 8.528H126.008L123.752 14.144L121.48 8.528H119.944ZM134.792 16H136.232V8.528H134.792V9.648C134.28 8.8 133.208 8.368 132.168 8.368C130.12 8.368 128.376 9.872 128.376 12.256C128.376 14.624 130.12 16.16 132.168 16.16C133.208 16.16 134.296 15.68 134.792 14.848V16ZM134.776 12.24C134.776 13.824 133.624 14.736 132.296 14.736C130.952 14.736 129.864 13.712 129.864 12.24C129.864 10.768 130.952 9.792 132.296 9.792C133.512 9.792 134.776 10.64 134.776 12.24ZM140.125 13.28C140.125 11.296 140.733 9.76 142.173 9.76C142.477 9.76 142.877 9.824 143.277 10.016L143.501 8.656C143.293 8.512 142.733 8.368 142.205 8.368C141.229 8.368 140.509 8.88 140.125 10.208V8.528H138.669V16H140.125V13.28ZM146.422 8.528H144.982V16H146.422V8.528ZM144.694 5.776C144.694 6.336 145.142 6.72 145.702 6.72C146.262 6.72 146.71 6.336 146.71 5.776C146.71 5.216 146.262 4.832 145.702 4.832C145.142 4.832 144.694 5.216 144.694 5.776ZM154.777 16H156.217V8.528H154.777V9.648C154.265 8.8 153.193 8.368 152.153 8.368C150.105 8.368 148.361 9.872 148.361 12.256C148.361 14.624 150.105 16.16 152.153 16.16C153.193 16.16 154.281 15.68 154.777 14.848V16ZM154.761 12.24C154.761 13.824 153.609 14.736 152.281 14.736C150.937 14.736 149.849 13.712 149.849 12.24C149.849 10.768 150.937 9.792 152.281 9.792C153.497 9.792 154.761 10.64 154.761 12.24ZM160.67 8.528V5.712H159.214V8.528H157.87V9.76H159.214V16H160.67V9.76H162.254V8.528H160.67ZM165.344 8.528H163.904V16H165.344V8.528ZM163.616 5.776C163.616 6.336 164.064 6.72 164.624 6.72C165.184 6.72 165.632 6.336 165.632 5.776C165.632 5.216 165.184 4.832 164.624 4.832C164.064 4.832 163.616 5.216 163.616 5.776ZM171.187 16.16C173.315 16.16 175.107 14.608 175.107 12.24C175.107 9.872 173.315 8.368 171.187 8.368C169.059 8.368 167.283 9.872 167.283 12.24C167.283 14.608 169.059 16.16 171.187 16.16ZM171.187 14.752C169.827 14.752 168.723 13.776 168.723 12.24C168.723 10.736 169.827 9.792 171.187 9.792C172.515 9.792 173.651 10.736 173.651 12.24C173.651 13.776 172.515 14.752 171.187 14.752ZM178.5 11.968C178.5 10.384 179.556 9.792 180.612 9.792C181.636 9.792 182.26 10.512 182.26 11.776V16H183.716V11.68C183.716 9.568 182.708 8.368 180.836 8.368C180.02 8.368 178.932 8.752 178.5 9.648V8.528H177.044V16H178.5V11.968ZM188.78 12.944C189.34 13.072 189.788 13.328 189.772 13.888C189.756 14.448 189.324 14.816 188.636 14.864C188.172 14.896 187.788 14.816 187.452 14.608C187.084 14.432 186.892 14.08 186.844 13.76H185.516C185.564 15.296 186.956 16.16 188.3 16.16C189.852 16.16 191.196 15.328 191.196 13.92C191.196 13.072 190.796 12.128 189.26 11.744L188.156 11.472C187.772 11.36 187.42 11.2 187.276 10.896C187.196 10.736 187.196 10.544 187.26 10.304C187.372 9.904 187.82 9.632 188.38 9.632C188.956 9.632 189.468 9.92 189.548 10.48H190.94C190.812 8.96 189.612 8.368 188.348 8.368C187.004 8.368 185.884 9.184 185.756 10.272C185.628 11.664 186.396 12.336 187.756 12.704L188.78 12.944ZM200.655 16.16C202.783 16.16 204.575 14.608 204.575 12.24C204.575 9.872 202.783 8.368 200.655 8.368C198.527 8.368 196.751 9.872 196.751 12.24C196.751 14.608 198.527 16.16 200.655 16.16ZM200.655 14.752C199.295 14.752 198.191 13.776 198.191 12.24C198.191 10.736 199.295 9.792 200.655 9.792C201.983 9.792 203.119 10.736 203.119 12.24C203.119 13.776 201.983 14.752 200.655 14.752ZM210.849 4.464H210.033C208.017 4.464 207.169 5.808 207.169 7.776V8.528H205.729V9.76H207.169V16H208.641V9.76H210.369V8.528H208.641V7.776C208.641 6.816 208.817 5.856 210.033 5.856H210.849V4.464ZM217.266 8.528H215.81V19.632H217.266V14.88C217.778 15.728 218.818 16.16 219.874 16.16C221.922 16.16 223.618 14.656 223.618 12.288C223.618 9.92 221.922 8.368 219.874 8.368C218.818 8.368 217.778 8.848 217.266 9.696V8.528ZM217.282 12.304C217.282 10.72 218.418 9.792 219.73 9.792C221.074 9.792 222.146 10.816 222.146 12.304C222.146 13.792 221.074 14.736 219.73 14.736C218.53 14.736 217.282 13.904 217.282 12.304ZM231.48 16H232.92V8.528H231.48V9.648C230.968 8.8 229.896 8.368 228.856 8.368C226.808 8.368 225.064 9.872 225.064 12.256C225.064 14.624 226.808 16.16 228.856 16.16C229.896 16.16 230.984 15.68 231.48 14.848V16ZM231.464 12.24C231.464 13.824 230.312 14.736 228.984 14.736C227.64 14.736 226.552 13.712 226.552 12.24C226.552 10.768 227.64 9.792 228.984 9.792C230.2 9.792 231.464 10.64 231.464 12.24ZM238.077 12.944C238.637 13.072 239.085 13.328 239.069 13.888C239.053 14.448 238.621 14.816 237.933 14.864C237.469 14.896 237.085 14.816 236.749 14.608C236.381 14.432 236.189 14.08 236.141 13.76H234.813C234.861 15.296 236.253 16.16 237.597 16.16C239.149 16.16 240.493 15.328 240.493 13.92C240.493 13.072 240.093 12.128 238.557 11.744L237.453 11.472C237.069 11.36 236.717 11.2 236.573 10.896C236.493 10.736 236.493 10.544 236.557 10.304C236.669 9.904 237.117 9.632 237.677 9.632C238.253 9.632 238.765 9.92 238.845 10.48H240.237C240.109 8.96 238.909 8.368 237.645 8.368C236.301 8.368 235.181 9.184 235.053 10.272C234.925 11.664 235.693 12.336 237.053 12.704L238.077 12.944ZM245.108 12.944C245.668 13.072 246.116 13.328 246.1 13.888C246.084 14.448 245.652 14.816 244.964 14.864C244.5 14.896 244.116 14.816 243.78 14.608C243.412 14.432 243.22 14.08 243.172 13.76H241.844C241.892 15.296 243.284 16.16 244.628 16.16C246.18 16.16 247.524 15.328 247.524 13.92C247.524 13.072 247.124 12.128 245.588 11.744L244.484 11.472C244.1 11.36 243.748 11.2 243.604 10.896C243.524 10.736 243.524 10.544 243.588 10.304C243.7 9.904 244.148 9.632 244.708 9.632C245.284 9.632 245.796 9.92 245.876 10.48H247.268C247.14 8.96 245.94 8.368 244.676 8.368C243.332 8.368 242.212 9.184 242.084 10.272C241.956 11.664 242.724 12.336 244.084 12.704L245.108 12.944ZM255.339 16H256.779V8.528H255.339V9.648C254.827 8.8 253.755 8.368 252.715 8.368C250.667 8.368 248.923 9.872 248.923 12.256C248.923 14.624 250.667 16.16 252.715 16.16C253.755 16.16 254.843 15.68 255.339 14.848V16ZM255.323 12.24C255.323 13.824 254.171 14.736 252.843 14.736C251.499 14.736 250.411 13.712 250.411 12.24C250.411 10.768 251.499 9.792 252.843 9.792C254.059 9.792 255.323 10.64 255.323 12.24ZM260.336 17.072C260.144 17.152 259.296 17.616 259.12 17.712C259.84 19.04 261.104 19.728 262.496 19.728C264.976 19.728 266.576 18.384 266.576 14.864V8.528H265.136V9.696C264.624 8.848 263.552 8.368 262.512 8.368C260.464 8.368 258.72 9.92 258.72 12.288C258.72 14.656 260.464 16.16 262.512 16.16C263.568 16.16 264.672 15.68 265.136 14.784C265.136 14.848 265.152 14.896 265.152 14.96C265.152 17.44 264.112 18.352 262.496 18.352C261.664 18.352 260.784 17.904 260.336 17.072ZM265.12 12.272C265.12 13.872 263.856 14.736 262.64 14.736C261.296 14.736 260.208 13.808 260.208 12.272C260.208 10.816 261.296 9.792 262.64 9.792C263.968 9.792 265.12 10.672 265.12 12.272ZM269.957 11.68C270.133 10.416 271.093 9.68 272.325 9.68C273.541 9.68 274.421 10.416 274.597 11.68H269.957ZM276.037 12.24C276.037 9.872 274.453 8.368 272.325 8.368C270.197 8.368 268.501 9.872 268.501 12.24C268.501 14.608 270.197 16.16 272.325 16.16C273.781 16.16 275.125 15.504 275.765 14.176C275.365 14 274.901 13.872 274.517 13.696C274.085 14.448 273.269 14.848 272.373 14.848C271.093 14.848 270.133 14.08 269.957 12.816H276.021C276.037 12.64 276.037 12.416 276.037 12.24ZM280.608 12.944C281.168 13.072 281.616 13.328 281.6 13.888C281.584 14.448 281.152 14.816 280.464 14.864C280 14.896 279.616 14.816 279.28 14.608C278.912 14.432 278.72 14.08 278.672 13.76H277.344C277.392 15.296 278.784 16.16 280.128 16.16C281.68 16.16 283.024 15.328 283.024 13.92C283.024 13.072 282.624 12.128 281.088 11.744L279.984 11.472C279.6 11.36 279.248 11.2 279.104 10.896C279.024 10.736 279.024 10.544 279.088 10.304C279.2 9.904 279.648 9.632 280.208 9.632C280.784 9.632 281.296 9.92 281.376 10.48H282.768C282.64 8.96 281.44 8.368 280.176 8.368C278.832 8.368 277.712 9.184 277.584 10.272C277.456 11.664 278.224 12.336 279.584 12.704L280.608 12.944ZM292.483 16.16C294.611 16.16 296.403 14.608 296.403 12.24C296.403 9.872 294.611 8.368 292.483 8.368C290.355 8.368 288.579 9.872 288.579 12.24C288.579 14.608 290.355 16.16 292.483 16.16ZM292.483 14.752C291.123 14.752 290.019 13.776 290.019 12.24C290.019 10.736 291.123 9.792 292.483 9.792C293.811 9.792 294.947 10.736 294.947 12.24C294.947 13.776 293.811 14.752 292.483 14.752ZM302.677 4.464H301.861C299.845 4.464 298.997 5.808 298.997 7.776V8.528H297.557V9.76H298.997V16H300.469V9.76H302.197V8.528H300.469V7.776C300.469 6.816 300.645 5.856 301.861 5.856H302.677V4.464ZM307.926 4.976V16H313.91V14.608H309.414V4.976H307.926ZM318.812 16.16C320.94 16.16 322.732 14.608 322.732 12.24C322.732 9.872 320.94 8.368 318.812 8.368C316.684 8.368 314.908 9.872 314.908 12.24C314.908 14.608 316.684 16.16 318.812 16.16ZM318.812 14.752C317.452 14.752 316.348 13.776 316.348 12.24C316.348 10.736 317.452 9.792 318.812 9.792C320.14 9.792 321.276 10.736 321.276 12.24C321.276 13.776 320.14 14.752 318.812 14.752ZM326.125 13.28C326.125 11.296 326.733 9.76 328.173 9.76C328.477 9.76 328.877 9.824 329.277 10.016L329.501 8.656C329.293 8.512 328.733 8.368 328.205 8.368C327.229 8.368 326.509 8.88 326.125 10.208V8.528H324.669V16H326.125V13.28ZM331.754 11.68C331.93 10.416 332.89 9.68 334.122 9.68C335.338 9.68 336.218 10.416 336.394 11.68H331.754ZM337.834 12.24C337.834 9.872 336.25 8.368 334.122 8.368C331.994 8.368 330.298 9.872 330.298 12.24C330.298 14.608 331.994 16.16 334.122 16.16C335.578 16.16 336.922 15.504 337.562 14.176C337.162 14 336.698 13.872 336.314 13.696C335.882 14.448 335.066 14.848 334.17 14.848C332.89 14.848 331.93 14.08 331.754 12.816H337.818C337.834 12.64 337.834 12.416 337.834 12.24ZM348.277 9.792C349.365 9.792 349.989 10.544 349.989 11.776V16H351.445V11.68C351.445 9.568 350.437 8.368 348.565 8.368C347.845 8.368 346.661 8.576 345.973 9.904C345.621 9.088 344.965 8.592 344.021 8.448C343.765 8.4 343.493 8.384 343.205 8.4C342.597 8.448 341.525 8.816 341.141 9.648V8.528H339.685V16H341.141V11.968C341.141 10.4 342.181 9.792 343.221 9.792C344.197 9.792 344.837 10.528 344.837 11.76V16H346.293V11.968C346.293 10.72 347.045 9.792 348.277 9.792ZM358.223 4.976V16H359.711V4.976H358.223ZM363.891 8.528H362.435V19.632H363.891V14.88C364.403 15.728 365.443 16.16 366.499 16.16C368.547 16.16 370.243 14.656 370.243 12.288C370.243 9.92 368.547 8.368 366.499 8.368C365.443 8.368 364.403 8.848 363.891 9.696V8.528ZM363.907 12.304C363.907 10.72 365.043 9.792 366.355 9.792C367.699 9.792 368.771 10.816 368.771 12.304C368.771 13.792 367.699 14.736 366.355 14.736C365.155 14.736 363.907 13.904 363.907 12.304ZM374.905 12.944C375.465 13.072 375.913 13.328 375.897 13.888C375.881 14.448 375.449 14.816 374.761 14.864C374.297 14.896 373.913 14.816 373.577 14.608C373.209 14.432 373.017 14.08 372.969 13.76H371.641C371.689 15.296 373.081 16.16 374.425 16.16C375.977 16.16 377.321 15.328 377.321 13.92C377.321 13.072 376.921 12.128 375.385 11.744L374.281 11.472C373.897 11.36 373.545 11.2 373.401 10.896C373.321 10.736 373.321 10.544 373.385 10.304C373.497 9.904 373.945 9.632 374.505 9.632C375.081 9.632 375.593 9.92 375.673 10.48H377.065C376.937 8.96 375.737 8.368 374.473 8.368C373.129 8.368 372.009 9.184 371.881 10.272C371.753 11.664 372.521 12.336 373.881 12.704L374.905 12.944ZM384.32 12.56C384.32 14.16 383.264 14.736 382.208 14.736C381.184 14.736 380.576 14.016 380.576 12.752V8.528H379.12V12.848C379.104 14.96 380.128 16.16 382 16.16C382.816 16.16 383.856 15.776 384.32 14.88V16H385.776V8.528H384.32V12.56ZM396.792 9.792C397.88 9.792 398.504 10.544 398.504 11.776V16H399.96V11.68C399.96 9.568 398.952 8.368 397.08 8.368C396.36 8.368 395.176 8.576 394.488 9.904C394.136 9.088 393.48 8.592 392.536 8.448C392.28 8.4 392.008 8.384 391.72 8.4C391.112 8.448 390.04 8.816 389.656 9.648V8.528H388.2V16H389.656V11.968C389.656 10.4 390.696 9.792 391.736 9.792C392.712 9.792 393.352 10.528 393.352 11.76V16H394.808V11.968C394.808 10.72 395.56 9.792 396.792 9.792ZM412.37 16H413.81V8.528H412.37V9.648C411.858 8.8 410.786 8.368 409.746 8.368C407.698 8.368 405.954 9.872 405.954 12.256C405.954 14.624 407.698 16.16 409.746 16.16C410.786 16.16 411.874 15.68 412.37 14.848V16ZM412.354 12.24C412.354 13.824 411.202 14.736 409.874 14.736C408.53 14.736 407.442 13.712 407.442 12.24C407.442 10.768 408.53 9.792 409.874 9.792C411.09 9.792 412.354 10.64 412.354 12.24ZM415.303 8.528L418.407 16H419.815H419.799L422.919 8.528H421.367L419.111 14.144L416.839 8.528H415.303ZM430.152 16H431.592V8.528H430.152V9.648C429.64 8.8 428.568 8.368 427.528 8.368C425.48 8.368 423.736 9.872 423.736 12.256C423.736 14.624 425.48 16.16 427.528 16.16C428.568 16.16 429.656 15.68 430.152 14.848V16ZM430.136 12.24C430.136 13.824 428.984 14.736 427.656 14.736C426.312 14.736 425.224 13.712 425.224 12.24C425.224 10.768 426.312 9.792 427.656 9.792C428.872 9.792 430.136 10.64 430.136 12.24ZM435.469 8.528H434.029V16H435.469V8.528ZM433.741 5.776C433.741 6.336 434.189 6.72 434.749 6.72C435.309 6.72 435.757 6.336 435.757 5.776C435.757 5.216 435.309 4.832 434.749 4.832C434.189 4.832 433.741 5.216 433.741 5.776ZM437.904 4.464V16H439.36V4.464H437.904ZM447.714 16H449.154V8.528H447.714V9.648C447.202 8.8 446.13 8.368 445.09 8.368C443.042 8.368 441.298 9.872 441.298 12.256C441.298 14.624 443.042 16.16 445.09 16.16C446.13 16.16 447.218 15.68 447.714 14.848V16ZM447.698 12.24C447.698 13.824 446.546 14.736 445.218 14.736C443.874 14.736 442.786 13.712 442.786 12.24C442.786 10.768 443.874 9.792 445.218 9.792C446.434 9.792 447.698 10.64 447.698 12.24ZM453.047 14.848C453.543 15.68 454.615 16.16 455.655 16.16C457.703 16.16 459.447 14.624 459.447 12.256C459.447 9.872 457.735 8.368 455.671 8.368C454.583 8.368 453.543 8.8 453.047 9.648V4.464H451.591V16H453.047V14.848ZM453.063 12.24C453.063 10.64 454.327 9.792 455.543 9.792C456.887 9.792 457.959 10.768 457.959 12.24C457.959 13.712 456.887 14.736 455.543 14.736C454.215 14.736 453.063 13.824 453.063 12.24ZM461.388 4.464V16H462.844V4.464H461.388ZM466.239 11.68C466.414 10.416 467.375 9.68 468.607 9.68C469.823 9.68 470.703 10.416 470.879 11.68H466.239ZM472.319 12.24C472.319 9.872 470.735 8.368 468.607 8.368C466.479 8.368 464.783 9.872 464.783 12.24C464.783 14.608 466.479 16.16 468.607 16.16C470.063 16.16 471.407 15.504 472.047 14.176C471.647 14 471.183 13.872 470.799 13.696C470.367 14.448 469.551 14.848 468.655 14.848C467.375 14.848 466.414 14.08 466.239 12.816H472.303C472.319 12.64 472.319 12.416 472.319 12.24ZM474.249 18.016C474.937 17.456 475.721 16.16 475.849 14.16H474.313C474.361 15.696 473.849 16.8 473.225 17.68L474.249 18.016ZM483.891 14.848C484.387 15.68 485.459 16.16 486.499 16.16C488.547 16.16 490.291 14.624 490.291 12.256C490.291 9.872 488.579 8.368 486.515 8.368C485.427 8.368 484.387 8.8 483.891 9.648V4.464H482.435V16H483.891V14.848ZM483.907 12.24C483.907 10.64 485.171 9.792 486.387 9.792C487.731 9.792 488.803 10.768 488.803 12.24C488.803 13.712 487.731 14.736 486.387 14.736C485.059 14.736 483.907 13.824 483.907 12.24ZM497.336 12.56C497.336 14.16 496.28 14.736 495.224 14.736C494.2 14.736 493.592 14.016 493.592 12.752V8.528H492.136V12.848C492.12 14.96 493.144 16.16 495.016 16.16C495.832 16.16 496.872 15.776 497.336 14.88V16H498.792V8.528H497.336V12.56ZM503.232 8.528V5.712H501.776V8.528H500.432V9.76H501.776V16H503.232V9.76H504.816V8.528H503.232ZM512.341 8.528V5.712H510.885V8.528H509.541V9.76H510.885V16H512.341V9.76H513.925V8.528H512.341ZM517.031 11.968C517.031 10.368 518.279 9.792 519.303 9.792C520.327 9.792 521.063 10.544 521.063 11.776V16H522.519V11.68C522.535 9.568 521.367 8.368 519.495 8.368C518.695 8.368 517.463 8.752 517.031 9.648V4.464H515.575V16H517.031V11.968ZM525.817 11.68C525.993 10.416 526.953 9.68 528.185 9.68C529.401 9.68 530.281 10.416 530.457 11.68H525.817ZM531.897 12.24C531.897 9.872 530.313 8.368 528.185 8.368C526.057 8.368 524.361 9.872 524.361 12.24C524.361 14.608 526.057 16.16 528.185 16.16C529.641 16.16 530.985 15.504 531.625 14.176C531.225 14 530.761 13.872 530.377 13.696C529.945 14.448 529.129 14.848 528.233 14.848C526.953 14.848 525.993 14.08 525.817 12.816H531.881C531.897 12.64 531.897 12.416 531.897 12.24ZM9.808 33.792C10.896 33.792 11.52 34.544 11.52 35.776V40H12.976V35.68C12.976 33.568 11.968 32.368 10.096 32.368C9.376 32.368 8.192 32.576 7.504 33.904C7.152 33.088 6.496 32.592 5.552 32.448C5.296 32.4 5.024 32.384 4.736 32.4C4.128 32.448 3.056 32.816 2.672 33.648V32.528H1.216V40H2.672V35.968C2.672 34.4 3.712 33.792 4.752 33.792C5.728 33.792 6.368 34.528 6.368 35.76V40H7.824V35.968C7.824 34.72 8.576 33.792 9.808 33.792ZM21.2298 40H22.6698V32.528H21.2298V33.648C20.7178 32.8 19.6458 32.368 18.6058 32.368C16.5578 32.368 14.8138 33.872 14.8138 36.256C14.8138 38.624 16.5578 40.16 18.6058 40.16C19.6458 40.16 20.7338 39.68 21.2298 38.848V40ZM21.2138 36.24C21.2138 37.824 20.0618 38.736 18.7338 38.736C17.3898 38.736 16.3018 37.712 16.3018 36.24C16.3018 34.768 17.3898 33.792 18.7338 33.792C19.9498 33.792 21.2138 34.64 21.2138 36.24ZM22.8986 43.664H23.8906C25.9066 43.664 26.5786 42.32 26.5786 40.464V32.528H25.1066V40.448C25.1066 41.296 24.9946 42.304 23.7626 42.304H22.8986V43.664ZM24.8346 29.776C24.8346 30.336 25.2826 30.72 25.8426 30.72C26.4026 30.72 26.8506 30.336 26.8506 29.776C26.8506 29.216 26.4026 28.832 25.8426 28.832C25.2826 28.832 24.8346 29.216 24.8346 29.776ZM32.4209 40.16C34.5489 40.16 36.3409 38.608 36.3409 36.24C36.3409 33.872 34.5489 32.368 32.4209 32.368C30.2929 32.368 28.5169 33.872 28.5169 36.24C28.5169 38.608 30.2929 40.16 32.4209 40.16ZM32.4209 38.752C31.0609 38.752 29.9569 37.776 29.9569 36.24C29.9569 34.736 31.0609 33.792 32.4209 33.792C33.7489 33.792 34.8849 34.736 34.8849 36.24C34.8849 37.776 33.7489 38.752 32.4209 38.752ZM39.7345 37.28C39.7345 35.296 40.3425 33.76 41.7825 33.76C42.0865 33.76 42.4865 33.824 42.8865 34.016L43.1105 32.656C42.9025 32.512 42.3425 32.368 41.8145 32.368C40.8385 32.368 40.1185 32.88 39.7345 34.208V32.528H38.2785V40H39.7345V37.28ZM46.031 32.528H44.591V40H46.031V32.528ZM44.303 29.776C44.303 30.336 44.751 30.72 45.311 30.72C45.871 30.72 46.319 30.336 46.319 29.776C46.319 29.216 45.871 28.832 45.311 28.832C44.751 28.832 44.303 29.216 44.303 29.776ZM50.482 32.528V29.712H49.026V32.528H47.682V33.76H49.026V40H50.482V33.76H52.066V32.528H50.482ZM55.732 43.632L60.372 32.528H58.82L56.58 37.936L54.34 32.528H52.788L55.78 39.776L54.212 43.632H55.732ZM67.0626 35.968C67.0626 34.368 68.3106 33.792 69.3346 33.792C70.3586 33.792 71.0946 34.544 71.0946 35.776V40H72.5506V35.68C72.5666 33.568 71.3986 32.368 69.5266 32.368C68.7266 32.368 67.4946 32.752 67.0626 33.648V28.464H65.6066V40H67.0626V35.968ZM80.8079 40H82.2479V32.528H80.8079V33.648C80.2959 32.8 79.2239 32.368 78.1839 32.368C76.1359 32.368 74.3919 33.872 74.3919 36.256C74.3919 38.624 76.1359 40.16 78.1839 40.16C79.2239 40.16 80.3119 39.68 80.8079 38.848V40ZM80.7919 36.24C80.7919 37.824 79.6399 38.736 78.3119 38.736C76.9679 38.736 75.8799 37.712 75.8799 36.24C75.8799 34.768 76.9679 33.792 78.3119 33.792C79.5279 33.792 80.7919 34.64 80.7919 36.24ZM83.7408 32.528L86.8448 40H88.2528H88.2368L91.3568 32.528H89.8048L87.5488 38.144L85.2768 32.528H83.7408ZM93.6291 35.68C93.8051 34.416 94.7651 33.68 95.9971 33.68C97.2131 33.68 98.0931 34.416 98.2691 35.68H93.6291ZM99.7091 36.24C99.7091 33.872 98.1251 32.368 95.9971 32.368C93.8691 32.368 92.1731 33.872 92.1731 36.24C92.1731 38.608 93.8691 40.16 95.9971 40.16C97.4531 40.16 98.7971 39.504 99.4371 38.176C99.0371 38 98.5731 37.872 98.1891 37.696C97.7571 38.448 96.9411 38.848 96.0451 38.848C94.7651 38.848 93.8051 38.08 93.6291 36.816H99.6931C99.7091 36.64 99.7091 36.416 99.7091 36.24ZM108.436 36.944C108.996 37.072 109.444 37.328 109.428 37.888C109.412 38.448 108.98 38.816 108.292 38.864C107.828 38.896 107.444 38.816 107.108 38.608C106.74 38.432 106.548 38.08 106.5 37.76H105.172C105.22 39.296 106.612 40.16 107.956 40.16C109.508 40.16 110.852 39.328 110.852 37.92C110.852 37.072 110.452 36.128 108.916 35.744L107.812 35.472C107.428 35.36 107.076 35.2 106.932 34.896C106.852 34.736 106.852 34.544 106.916 34.304C107.028 33.904 107.476 33.632 108.036 33.632C108.612 33.632 109.124 33.92 109.204 34.48H110.596C110.468 32.96 109.268 32.368 108.004 32.368C106.66 32.368 105.54 33.184 105.412 34.272C105.284 35.664 106.052 36.336 107.412 36.704L108.436 36.944ZM117.851 36.56C117.851 38.16 116.795 38.736 115.739 38.736C114.715 38.736 114.107 38.016 114.107 36.752V32.528H112.651V36.848C112.635 38.96 113.659 40.16 115.531 40.16C116.347 40.16 117.387 39.776 117.851 38.88V40H119.307V32.528H117.851V36.56ZM131.892 28.464H131.076C129.06 28.464 128.212 29.808 128.212 31.776V32.528H123.86V31.776C123.86 30.816 124.036 29.856 125.252 29.856H126.068V28.464H125.252C123.236 28.464 122.388 29.808 122.388 31.776V32.528H120.948V33.76H122.388V40H123.86V33.76H128.212V40H129.684V33.76H131.412V32.528H129.684V31.776C129.684 30.816 129.86 29.856 131.076 29.856H131.892V28.464ZM133.895 35.68C134.071 34.416 135.031 33.68 136.263 33.68C137.479 33.68 138.359 34.416 138.535 35.68H133.895ZM139.975 36.24C139.975 33.872 138.391 32.368 136.263 32.368C134.135 32.368 132.439 33.872 132.439 36.24C132.439 38.608 134.135 40.16 136.263 40.16C137.719 40.16 139.063 39.504 139.703 38.176C139.303 38 138.839 37.872 138.455 37.696C138.023 38.448 137.207 38.848 136.311 38.848C135.031 38.848 134.071 38.08 133.895 36.816H139.959C139.975 36.64 139.975 36.416 139.975 36.24ZM143.281 37.28C143.281 35.296 143.889 33.76 145.329 33.76C145.633 33.76 146.033 33.824 146.433 34.016L146.657 32.656C146.449 32.512 145.889 32.368 145.361 32.368C144.385 32.368 143.665 32.88 143.281 34.208V32.528H141.825V40H143.281V37.28ZM148.91 35.68C149.086 34.416 150.046 33.68 151.278 33.68C152.494 33.68 153.374 34.416 153.55 35.68H148.91ZM154.99 36.24C154.99 33.872 153.406 32.368 151.278 32.368C149.15 32.368 147.454 33.872 147.454 36.24C147.454 38.608 149.15 40.16 151.278 40.16C152.734 40.16 154.078 39.504 154.718 38.176C154.318 38 153.854 37.872 153.47 37.696C153.038 38.448 152.222 38.848 151.326 38.848C150.046 38.848 149.086 38.08 148.91 36.816H154.974C154.99 36.64 154.99 36.416 154.99 36.24ZM162.745 40H164.201V28.464H162.745V33.648C162.249 32.8 161.209 32.368 160.105 32.368C158.057 32.368 156.345 33.872 156.345 36.256C156.345 38.624 158.073 40.16 160.121 40.16C161.161 40.16 162.249 39.68 162.745 38.848V40ZM162.729 36.24C162.729 37.824 161.577 38.736 160.249 38.736C158.905 38.736 157.833 37.712 157.833 36.24C157.833 34.768 158.905 33.792 160.249 33.792C161.465 33.792 162.729 34.64 162.729 36.24ZM176.714 40H178.154V32.528H176.714V33.648C176.202 32.8 175.13 32.368 174.09 32.368C172.042 32.368 170.298 33.872 170.298 36.256C170.298 38.624 172.042 40.16 174.09 40.16C175.13 40.16 176.218 39.68 176.714 38.848V40ZM176.698 36.24C176.698 37.824 175.546 38.736 174.218 38.736C172.874 38.736 171.786 37.712 171.786 36.24C171.786 34.768 172.874 33.792 174.218 33.792C175.434 33.792 176.698 34.64 176.698 36.24ZM180.591 28.464V40H182.047V28.464H180.591ZM186.498 32.528V29.712H185.042V32.528H183.698V33.76H185.042V40H186.498V33.76H188.082V32.528H186.498ZM190.582 35.68C190.758 34.416 191.718 33.68 192.95 33.68C194.166 33.68 195.046 34.416 195.222 35.68H190.582ZM196.662 36.24C196.662 33.872 195.078 32.368 192.95 32.368C190.822 32.368 189.126 33.872 189.126 36.24C189.126 38.608 190.822 40.16 192.95 40.16C194.406 40.16 195.75 39.504 196.39 38.176C195.99 38 195.526 37.872 195.142 37.696C194.71 38.448 193.894 38.848 192.998 38.848C191.718 38.848 190.758 38.08 190.582 36.816H196.646C196.662 36.64 196.662 36.416 196.662 36.24ZM199.969 37.28C199.969 35.296 200.577 33.76 202.017 33.76C202.321 33.76 202.721 33.824 203.121 34.016L203.345 32.656C203.137 32.512 202.577 32.368 202.049 32.368C201.073 32.368 200.353 32.88 199.969 34.208V32.528H198.513V40H199.969V37.28ZM210.558 40H211.998V32.528H210.558V33.648C210.046 32.8 208.974 32.368 207.934 32.368C205.886 32.368 204.142 33.872 204.142 36.256C204.142 38.624 205.886 40.16 207.934 40.16C208.974 40.16 210.062 39.68 210.558 38.848V40ZM210.542 36.24C210.542 37.824 209.39 38.736 208.062 38.736C206.718 38.736 205.63 37.712 205.63 36.24C205.63 34.768 206.718 33.792 208.062 33.792C209.278 33.792 210.542 34.64 210.542 36.24ZM216.451 32.528V29.712H214.995V32.528H213.651V33.76H214.995V40H216.451V33.76H218.035V32.528H216.451ZM221.125 32.528H219.685V40H221.125V32.528ZM219.397 29.776C219.397 30.336 219.845 30.72 220.405 30.72C220.965 30.72 221.413 30.336 221.413 29.776C221.413 29.216 220.965 28.832 220.405 28.832C219.845 28.832 219.397 29.216 219.397 29.776ZM226.968 40.16C229.096 40.16 230.888 38.608 230.888 36.24C230.888 33.872 229.096 32.368 226.968 32.368C224.84 32.368 223.064 33.872 223.064 36.24C223.064 38.608 224.84 40.16 226.968 40.16ZM226.968 38.752C225.608 38.752 224.504 37.776 224.504 36.24C224.504 34.736 225.608 33.792 226.968 33.792C228.296 33.792 229.432 34.736 229.432 36.24C229.432 37.776 228.296 38.752 226.968 38.752ZM234.281 35.968C234.281 34.384 235.337 33.792 236.393 33.792C237.417 33.792 238.041 34.512 238.041 35.776V40H239.497V35.68C239.497 33.568 238.489 32.368 236.617 32.368C235.801 32.368 234.713 32.752 234.281 33.648V32.528H232.825V40H234.281V35.968ZM247.437 32.528H245.997V40H247.437V32.528ZM245.709 29.776C245.709 30.336 246.157 30.72 246.717 30.72C247.277 30.72 247.725 30.336 247.725 29.776C247.725 29.216 247.277 28.832 246.717 28.832C246.157 28.832 245.709 29.216 245.709 29.776ZM251.328 35.968C251.328 34.384 252.384 33.792 253.44 33.792C254.464 33.792 255.088 34.512 255.088 35.776V40H256.544V35.68C256.544 33.568 255.536 32.368 253.664 32.368C252.848 32.368 251.76 32.752 251.328 33.648V32.528H249.872V40H251.328V35.968ZM265.764 36.944C266.324 37.072 266.772 37.328 266.756 37.888C266.74 38.448 266.308 38.816 265.62 38.864C265.156 38.896 264.772 38.816 264.436 38.608C264.068 38.432 263.876 38.08 263.828 37.76H262.5C262.548 39.296 263.94 40.16 265.284 40.16C266.836 40.16 268.18 39.328 268.18 37.92C268.18 37.072 267.78 36.128 266.244 35.744L265.14 35.472C264.756 35.36 264.404 35.2 264.26 34.896C264.18 34.736 264.18 34.544 264.244 34.304C264.356 33.904 264.804 33.632 265.364 33.632C265.94 33.632 266.452 33.92 266.532 34.48H267.924C267.796 32.96 266.596 32.368 265.332 32.368C263.988 32.368 262.868 33.184 262.74 34.272C262.612 35.664 263.38 36.336 264.74 36.704L265.764 36.944ZM273.483 40.16C275.611 40.16 277.403 38.608 277.403 36.24C277.403 33.872 275.611 32.368 273.483 32.368C271.355 32.368 269.579 33.872 269.579 36.24C269.579 38.608 271.355 40.16 273.483 40.16ZM273.483 38.752C272.123 38.752 271.019 37.776 271.019 36.24C271.019 34.736 272.123 33.792 273.483 33.792C274.811 33.792 275.947 34.736 275.947 36.24C275.947 37.776 274.811 38.752 273.483 38.752ZM287.933 33.792C289.021 33.792 289.645 34.544 289.645 35.776V40H291.101V35.68C291.101 33.568 290.093 32.368 288.221 32.368C287.501 32.368 286.317 32.576 285.629 33.904C285.277 33.088 284.621 32.592 283.677 32.448C283.421 32.4 283.149 32.384 282.861 32.4C282.253 32.448 281.181 32.816 280.797 33.648V32.528H279.341V40H280.797V35.968C280.797 34.4 281.837 33.792 282.877 33.792C283.853 33.792 284.493 34.528 284.493 35.76V40H285.949V35.968C285.949 34.72 286.701 33.792 287.933 33.792ZM294.395 35.68C294.571 34.416 295.531 33.68 296.763 33.68C297.979 33.68 298.859 34.416 299.035 35.68H294.395ZM300.475 36.24C300.475 33.872 298.891 32.368 296.763 32.368C294.635 32.368 292.939 33.872 292.939 36.24C292.939 38.608 294.635 40.16 296.763 40.16C298.219 40.16 299.563 39.504 300.203 38.176C299.803 38 299.339 37.872 298.955 37.696C298.523 38.448 297.707 38.848 296.811 38.848C295.531 38.848 294.571 38.08 294.395 36.816H300.459C300.475 36.64 300.475 36.416 300.475 36.24ZM310.599 28.464H309.783C307.767 28.464 306.919 29.808 306.919 31.776V32.528H305.479V33.76H306.919V40H308.391V33.76H310.119V32.528H308.391V31.776C308.391 30.816 308.567 29.856 309.783 29.856H310.599V28.464ZM315.046 40.16C317.174 40.16 318.966 38.608 318.966 36.24C318.966 33.872 317.174 32.368 315.046 32.368C312.918 32.368 311.142 33.872 311.142 36.24C311.142 38.608 312.918 40.16 315.046 40.16ZM315.046 38.752C313.686 38.752 312.582 37.776 312.582 36.24C312.582 34.736 313.686 33.792 315.046 33.792C316.374 33.792 317.51 34.736 317.51 36.24C317.51 37.776 316.374 38.752 315.046 38.752ZM322.36 37.28C322.36 35.296 322.968 33.76 324.408 33.76C324.712 33.76 325.112 33.824 325.512 34.016L325.736 32.656C325.528 32.512 324.968 32.368 324.44 32.368C323.464 32.368 322.744 32.88 322.36 34.208V32.528H320.904V40H322.36V37.28ZM335.808 33.792C336.896 33.792 337.52 34.544 337.52 35.776V40H338.976V35.68C338.976 33.568 337.968 32.368 336.096 32.368C335.376 32.368 334.192 32.576 333.504 33.904C333.152 33.088 332.496 32.592 331.552 32.448C331.296 32.4 331.024 32.384 330.736 32.4C330.128 32.448 329.056 32.816 328.672 33.648V32.528H327.216V40H328.672V35.968C328.672 34.4 329.712 33.792 330.752 33.792C331.728 33.792 332.368 34.528 332.368 35.76V40H333.824V35.968C333.824 34.72 334.576 33.792 335.808 33.792ZM341.39 42.016C342.078 41.456 342.862 40.16 342.99 38.16H341.454C341.502 39.696 340.99 40.8 340.366 41.68L341.39 42.016ZM351.031 38.848C351.527 39.68 352.599 40.16 353.639 40.16C355.687 40.16 357.431 38.624 357.431 36.256C357.431 33.872 355.719 32.368 353.655 32.368C352.567 32.368 351.527 32.8 351.031 33.648V28.464H349.575V40H351.031V38.848ZM351.047 36.24C351.047 34.64 352.311 33.792 353.527 33.792C354.871 33.792 355.943 34.768 355.943 36.24C355.943 37.712 354.871 38.736 353.527 38.736C352.199 38.736 351.047 37.824 351.047 36.24ZM361.388 43.632L366.028 32.528H364.476L362.236 37.936L359.996 32.528H358.444L361.436 39.776L359.868 43.632H361.388ZM372.703 32.528H371.263V40H372.703V32.528ZM370.975 29.776C370.975 30.336 371.423 30.72 371.983 30.72C372.543 30.72 372.991 30.336 372.991 29.776C372.991 29.216 372.543 28.832 371.983 28.832C371.423 28.832 370.975 29.216 370.975 29.776ZM376.594 35.968C376.594 34.384 377.65 33.792 378.706 33.792C379.73 33.792 380.354 34.512 380.354 35.776V40H381.81V35.68C381.81 33.568 380.802 32.368 378.93 32.368C378.114 32.368 377.026 32.752 376.594 33.648V32.528H375.138V40H376.594V35.968ZM381.945 43.664H382.938C384.954 43.664 385.626 42.32 385.626 40.464V32.528H384.154V40.448C384.154 41.296 384.042 42.304 382.809 42.304H381.945V43.664ZM383.882 29.776C383.882 30.336 384.33 30.72 384.89 30.72C385.45 30.72 385.898 30.336 385.898 29.776C385.898 29.216 385.45 28.832 384.89 28.832C384.33 28.832 383.882 29.216 383.882 29.776ZM389.02 35.68C389.196 34.416 390.156 33.68 391.388 33.68C392.604 33.68 393.484 34.416 393.66 35.68H389.02ZM395.1 36.24C395.1 33.872 393.516 32.368 391.388 32.368C389.26 32.368 387.564 33.872 387.564 36.24C387.564 38.608 389.26 40.16 391.388 40.16C392.844 40.16 394.188 39.504 394.828 38.176C394.428 38 393.964 37.872 393.58 37.696C393.148 38.448 392.332 38.848 391.436 38.848C390.156 38.848 389.196 38.08 389.02 36.816H395.084C395.1 36.64 395.1 36.416 395.1 36.24ZM396.454 36.24C396.454 38.608 398.278 40.16 400.406 40.16C401.558 40.16 402.598 39.712 403.302 38.944L402.182 38.016C401.734 38.48 401.094 38.752 400.406 38.752C399.062 38.752 397.894 37.728 397.894 36.24C397.894 34.736 399.062 33.792 400.406 33.792C401.094 33.792 401.734 34.048 402.182 34.496L403.286 33.568C402.582 32.8 401.558 32.368 400.406 32.368C398.278 32.368 396.454 33.872 396.454 36.24ZM407.154 32.528V29.712H405.698V32.528H404.354V33.76H405.698V40H407.154V33.76H408.738V32.528H407.154ZM411.239 35.68C411.414 34.416 412.375 33.68 413.607 33.68C414.823 33.68 415.703 34.416 415.879 35.68H411.239ZM417.319 36.24C417.319 33.872 415.735 32.368 413.607 32.368C411.479 32.368 409.783 33.872 409.783 36.24C409.783 38.608 411.479 40.16 413.607 40.16C415.063 40.16 416.407 39.504 417.047 38.176C416.647 38 416.183 37.872 415.799 37.696C415.367 38.448 414.551 38.848 413.655 38.848C412.375 38.848 411.414 38.08 411.239 36.816H417.303C417.319 36.64 417.319 36.416 417.319 36.24ZM425.073 40H426.529V28.464H425.073V33.648C424.577 32.8 423.537 32.368 422.433 32.368C420.385 32.368 418.673 33.872 418.673 36.256C418.673 38.624 420.401 40.16 422.449 40.16C423.489 40.16 424.577 39.68 425.073 38.848V40ZM425.057 36.24C425.057 37.824 423.905 38.736 422.577 38.736C421.233 38.736 420.161 37.712 420.161 36.24C420.161 34.768 421.233 33.792 422.577 33.792C423.793 33.792 425.057 34.64 425.057 36.24ZM434.578 35.968C434.578 34.368 435.826 33.792 436.85 33.792C437.874 33.792 438.61 34.544 438.61 35.776V40H440.066V35.68C440.082 33.568 438.914 32.368 437.042 32.368C436.242 32.368 435.01 32.752 434.578 33.648V28.464H433.122V40H434.578V35.968ZM447.508 36.56C447.508 38.16 446.452 38.736 445.396 38.736C444.372 38.736 443.764 38.016 443.764 36.752V32.528H442.308V36.848C442.292 38.96 443.316 40.16 445.188 40.16C446.004 40.16 447.044 39.776 447.508 38.88V40H448.964V32.528H447.508V36.56ZM459.98 33.792C461.068 33.792 461.692 34.544 461.692 35.776V40H463.148V35.68C463.148 33.568 462.14 32.368 460.268 32.368C459.548 32.368 458.364 32.576 457.676 33.904C457.324 33.088 456.668 32.592 455.724 32.448C455.468 32.4 455.196 32.384 454.908 32.4C454.3 32.448 453.228 32.816 452.844 33.648V32.528H451.388V40H452.844V35.968C452.844 34.4 453.884 33.792 454.924 33.792C455.9 33.792 456.54 34.528 456.54 35.76V40H457.996V35.968C457.996 34.72 458.748 33.792 459.98 33.792ZM468.89 40.16C471.018 40.16 472.81 38.608 472.81 36.24C472.81 33.872 471.018 32.368 468.89 32.368C466.762 32.368 464.986 33.872 464.986 36.24C464.986 38.608 466.762 40.16 468.89 40.16ZM468.89 38.752C467.53 38.752 466.426 37.776 466.426 36.24C466.426 34.736 467.53 33.792 468.89 33.792C470.218 33.792 471.354 34.736 471.354 36.24C471.354 37.776 470.218 38.752 468.89 38.752ZM479.851 36.56C479.851 38.16 478.795 38.736 477.739 38.736C476.715 38.736 476.107 38.016 476.107 36.752V32.528H474.651V36.848C474.635 38.96 475.659 40.16 477.531 40.16C478.347 40.16 479.387 39.776 479.851 38.88V40H481.307V32.528H479.851V36.56ZM485.188 37.28C485.188 35.296 485.796 33.76 487.236 33.76C487.54 33.76 487.94 33.824 488.34 34.016L488.564 32.656C488.356 32.512 487.796 32.368 487.268 32.368C486.292 32.368 485.572 32.88 485.188 34.208V32.528H483.732V40H485.188V37.28Z" fill="#666666"/>
</svg>
