<svg width="222" height="46" viewBox="0 0 222 46" fill="none" xmlns="http://www.w3.org/2000/svg">
<path d="M2.98023e-05 8.35201C2.98023e-05 10.08 1.61603 11.696 3.85603 11.696C6.03203 11.696 7.32803 10.416 7.53603 8.81601C7.77603 7.04001 6.65603 5.88801 4.59203 5.36001L3.15203 5.00801C1.76003 4.67201 1.58403 3.95201 1.58403 3.47201C1.58403 2.46401 2.56003 1.80801 3.64803 1.80801C4.86403 1.80801 5.72803 2.51201 5.72803 3.61601H7.21603C7.21603 1.63201 5.66403 0.38401 3.66403 0.38401C1.79203 0.38401 0.0960298 1.63201 0.0960298 3.48801C0.0960298 4.44801 0.43203 5.77601 2.78403 6.36801L4.20803 6.72001C5.20003 6.94401 6.16003 7.50401 6.08003 8.68801C5.95203 9.52001 5.26403 10.304 3.85603 10.304C2.46403 10.304 1.48803 9.31201 1.48803 8.35201H2.98023e-05ZM12.9639 11.696C15.0919 11.696 16.8839 10.144 16.8839 7.77601C16.8839 5.40801 15.0919 3.90401 12.9639 3.90401C10.8359 3.90401 9.0599 5.40801 9.0599 7.77601C9.0599 10.144 10.8359 11.696 12.9639 11.696ZM12.9639 10.288C11.6039 10.288 10.4999 9.31201 10.4999 7.77601C10.4999 6.27201 11.6039 5.32801 12.9639 5.32801C14.2919 5.32801 15.4279 6.27201 15.4279 7.77601C15.4279 9.31201 14.2919 10.288 12.9639 10.288ZM20.2775 4.06401H18.8215V15.168H20.2775V10.416C20.7895 11.264 21.8295 11.696 22.8855 11.696C24.9335 11.696 26.6295 10.192 26.6295 7.82401C26.6295 5.45601 24.9335 3.90401 22.8855 3.90401C21.8295 3.90401 20.7895 4.38401 20.2775 5.23201V4.06401ZM20.2935 7.84001C20.2935 6.25601 21.4295 5.32801 22.7415 5.32801C24.0855 5.32801 25.1575 6.35201 25.1575 7.84001C25.1575 9.32801 24.0855 10.272 22.7415 10.272C21.5415 10.272 20.2935 9.44001 20.2935 7.84001ZM30.0275 7.50401C30.0275 5.90401 31.2755 5.32801 32.2995 5.32801C33.3235 5.32801 34.0595 6.08001 34.0595 7.31201V11.536H35.5155V7.21601C35.5315 5.10401 34.3635 3.90401 32.4915 3.90401C31.6915 3.90401 30.4595 4.28801 30.0275 5.18401V1.04904e-05H28.5715V11.536H30.0275V7.50401ZM39.2928 4.06401H37.8528V11.536H39.2928V4.06401ZM37.5648 1.31201C37.5648 1.87201 38.0128 2.25601 38.5728 2.25601C39.1328 2.25601 39.5808 1.87201 39.5808 1.31201C39.5808 0.75201 39.1328 0.368011 38.5728 0.368011C38.0128 0.368011 37.5648 0.75201 37.5648 1.31201ZM44.4478 8.48001C45.0078 8.60801 45.4558 8.86401 45.4398 9.42401C45.4238 9.98401 44.9918 10.352 44.3038 10.4C43.8398 10.432 43.4558 10.352 43.1198 10.144C42.7518 9.96801 42.5598 9.61601 42.5118 9.29601H41.1838C41.2318 10.832 42.6238 11.696 43.9678 11.696C45.5198 11.696 46.8638 10.864 46.8638 9.45601C46.8638 8.60801 46.4638 7.66401 44.9278 7.28001L43.8238 7.00801C43.4398 6.89601 43.0878 6.73601 42.9438 6.43201C42.8638 6.27201 42.8638 6.08001 42.9278 5.84001C43.0398 5.44001 43.4878 5.16801 44.0478 5.16801C44.6238 5.16801 45.1358 5.45601 45.2158 6.01601H46.6078C46.4798 4.49601 45.2798 3.90401 44.0158 3.90401C42.6718 3.90401 41.5518 4.72001 41.4238 5.80801C41.2958 7.20001 42.0638 7.87201 43.4238 8.24001L44.4478 8.48001ZM50.775 4.06401V1.24801H49.319V4.06401H47.975V5.29601H49.319V11.536H50.775V5.29601H52.359V4.06401H50.775ZM55.449 4.06401H54.009V11.536H55.449V4.06401ZM53.721 1.31201C53.721 1.87201 54.169 2.25601 54.729 2.25601C55.289 2.25601 55.737 1.87201 55.737 1.31201C55.737 0.75201 55.289 0.368011 54.729 0.368011C54.169 0.368011 53.721 0.75201 53.721 1.31201ZM57.388 7.77601C57.388 10.144 59.212 11.696 61.34 11.696C62.492 11.696 63.532 11.248 64.236 10.48L63.116 9.55201C62.668 10.016 62.028 10.288 61.34 10.288C59.996 10.288 58.828 9.26401 58.828 7.77601C58.828 6.27201 59.996 5.32801 61.34 5.32801C62.028 5.32801 62.668 5.58401 63.116 6.03201L64.22 5.10401C63.516 4.33601 62.492 3.90401 61.34 3.90401C59.212 3.90401 57.388 5.40801 57.388 7.77601ZM71.804 11.536H73.244V4.06401H71.804V5.18401C71.292 4.33601 70.22 3.90401 69.18 3.90401C67.132 3.90401 65.388 5.40801 65.388 7.79201C65.388 10.16 67.132 11.696 69.18 11.696C70.22 11.696 71.308 11.216 71.804 10.384V11.536ZM71.788 7.77601C71.788 9.36001 70.636 10.272 69.308 10.272C67.964 10.272 66.876 9.24801 66.876 7.77601C66.876 6.30401 67.964 5.32801 69.308 5.32801C70.524 5.32801 71.788 6.17601 71.788 7.77601ZM77.6969 4.06401V1.24801H76.2409V4.06401H74.8969V5.29601H76.2409V11.536H77.6969V5.29601H79.2809V4.06401H77.6969ZM81.7815 7.21601C81.9575 5.95201 82.9175 5.21601 84.1495 5.21601C85.3655 5.21601 86.2455 5.95201 86.4215 7.21601H81.7815ZM87.8615 7.77601C87.8615 5.40801 86.2775 3.90401 84.1495 3.90401C82.0215 3.90401 80.3255 5.40801 80.3255 7.77601C80.3255 10.144 82.0215 11.696 84.1495 11.696C85.6055 11.696 86.9495 11.04 87.5895 9.71201C87.1895 9.53601 86.7255 9.40801 86.3415 9.23201C85.9095 9.98401 85.0935 10.384 84.1975 10.384C82.9175 10.384 81.9575 9.61601 81.7815 8.35201H87.8455C87.8615 8.17601 87.8615 7.95201 87.8615 7.77601ZM95.6162 11.536H97.0722V1.04904e-05H95.6162V5.18401C95.1202 4.33601 94.0802 3.90401 92.9762 3.90401C90.9282 3.90401 89.2162 5.40801 89.2162 7.79201C89.2162 10.16 90.9442 11.696 92.9922 11.696C94.0322 11.696 95.1202 11.216 95.6162 10.384V11.536ZM95.6002 7.77601C95.6002 9.36001 94.4482 10.272 93.1202 10.272C91.7762 10.272 90.7042 9.24801 90.7042 7.77601C90.7042 6.30401 91.7762 5.32801 93.1202 5.32801C94.3362 5.32801 95.6002 6.17601 95.6002 7.77601ZM106.385 8.48001C106.945 8.60801 107.393 8.86401 107.377 9.42401C107.361 9.98401 106.929 10.352 106.241 10.4C105.777 10.432 105.393 10.352 105.057 10.144C104.689 9.96801 104.497 9.61601 104.449 9.29601H103.121C103.169 10.832 104.561 11.696 105.905 11.696C107.457 11.696 108.801 10.864 108.801 9.45601C108.801 8.60801 108.401 7.66401 106.865 7.28001L105.761 7.00801C105.377 6.89601 105.025 6.73601 104.881 6.43201C104.801 6.27201 104.801 6.08001 104.865 5.84001C104.977 5.44001 105.425 5.16801 105.985 5.16801C106.561 5.16801 107.073 5.45601 107.153 6.01601H108.545C108.417 4.49601 107.217 3.90401 105.953 3.90401C104.609 3.90401 103.489 4.72001 103.361 5.80801C103.233 7.20001 104.001 7.87201 105.361 8.24001L106.385 8.48001ZM112.137 4.06401H110.697V11.536H112.137V4.06401ZM110.409 1.31201C110.409 1.87201 110.857 2.25601 111.417 2.25601C111.977 2.25601 112.425 1.87201 112.425 1.31201C112.425 0.75201 111.977 0.368011 111.417 0.368011C110.857 0.368011 110.409 0.75201 110.409 1.31201ZM123.164 5.32801C124.252 5.32801 124.876 6.08001 124.876 7.31201V11.536H126.332V7.21601C126.332 5.10401 125.324 3.90401 123.452 3.90401C122.732 3.90401 121.548 4.11201 120.86 5.44001C120.508 4.62401 119.852 4.12801 118.908 3.98401C118.652 3.93601 118.38 3.92001 118.092 3.93601C117.484 3.98401 116.412 4.35201 116.028 5.18401V4.06401H114.572V11.536H116.028V7.50401C116.028 5.93601 117.068 5.32801 118.108 5.32801C119.084 5.32801 119.724 6.06401 119.724 7.29601V11.536H121.18V7.50401C121.18 6.25601 121.932 5.32801 123.164 5.32801ZM130.121 4.06401H128.665V15.168H130.121V10.416C130.633 11.264 131.673 11.696 132.729 11.696C134.777 11.696 136.473 10.192 136.473 7.82401C136.473 5.45601 134.777 3.90401 132.729 3.90401C131.673 3.90401 130.633 4.38401 130.121 5.23201V4.06401ZM130.137 7.84001C130.137 6.25601 131.273 5.32801 132.585 5.32801C133.929 5.32801 135.001 6.35201 135.001 7.84001C135.001 9.32801 133.929 10.272 132.585 10.272C131.385 10.272 130.137 9.44001 130.137 7.84001ZM138.415 1.04904e-05V11.536H139.871V1.04904e-05H138.415ZM143.746 4.06401H142.306V11.536H143.746V4.06401ZM142.018 1.31201C142.018 1.87201 142.466 2.25601 143.026 2.25601C143.586 2.25601 144.034 1.87201 144.034 1.31201C144.034 0.75201 143.586 0.368011 143.026 0.368011C142.466 0.368011 142.018 0.75201 142.018 1.31201ZM145.685 7.77601C145.685 10.144 147.509 11.696 149.637 11.696C150.789 11.696 151.829 11.248 152.533 10.48L151.413 9.55201C150.965 10.016 150.325 10.288 149.637 10.288C148.293 10.288 147.125 9.26401 147.125 7.77601C147.125 6.27201 148.293 5.32801 149.637 5.32801C150.325 5.32801 150.965 5.58401 151.413 6.03201L152.517 5.10401C151.813 4.33601 150.789 3.90401 149.637 3.90401C147.509 3.90401 145.685 5.40801 145.685 7.77601ZM155.808 4.06401H154.368V11.536H155.808V4.06401ZM154.08 1.31201C154.08 1.87201 154.528 2.25601 155.088 2.25601C155.648 2.25601 156.096 1.87201 156.096 1.31201C156.096 0.75201 155.648 0.368011 155.088 0.368011C154.528 0.368011 154.08 0.75201 154.08 1.31201ZM160.259 4.06401V1.24801H158.803V4.06401H157.459V5.29601H158.803V11.536H160.259V5.29601H161.843V4.06401H160.259ZM165.509 15.168L170.149 4.06401H168.597L166.357 9.47201L164.117 4.06401H162.565L165.557 11.312L163.989 15.168H165.509ZM179.501 1.04904e-05H178.685C176.669 1.04904e-05 175.821 1.34401 175.821 3.31201V4.06401H174.381V5.29601H175.821V11.536H177.293V5.29601H179.021V4.06401H177.293V3.31201C177.293 2.35201 177.469 1.39201 178.685 1.39201H179.501V1.04904e-05ZM183.948 11.696C186.076 11.696 187.868 10.144 187.868 7.77601C187.868 5.40801 186.076 3.90401 183.948 3.90401C181.82 3.90401 180.044 5.40801 180.044 7.77601C180.044 10.144 181.82 11.696 183.948 11.696ZM183.948 10.288C182.588 10.288 181.484 9.31201 181.484 7.77601C181.484 6.27201 182.588 5.32801 183.948 5.32801C185.276 5.32801 186.412 6.27201 186.412 7.77601C186.412 9.31201 185.276 10.288 183.948 10.288ZM191.262 8.81601C191.262 6.83201 191.87 5.29601 193.31 5.29601C193.614 5.29601 194.014 5.36001 194.414 5.55201L194.638 4.19201C194.43 4.04801 193.87 3.90401 193.342 3.90401C192.366 3.90401 191.646 4.41601 191.262 5.74401V4.06401H189.806V11.536H191.262V8.81601ZM201.9 4.06401V1.24801H200.444V4.06401H199.1V5.29601H200.444V11.536H201.9V5.29601H203.484V4.06401H201.9ZM206.59 7.50401C206.59 5.90401 207.838 5.32801 208.862 5.32801C209.886 5.32801 210.622 6.08001 210.622 7.31201V11.536H212.078V7.21601C212.094 5.10401 210.926 3.90401 209.054 3.90401C208.254 3.90401 207.022 4.28801 206.59 5.18401V1.04904e-05H205.134V11.536H206.59V7.50401ZM215.375 7.21601C215.551 5.95201 216.511 5.21601 217.743 5.21601C218.959 5.21601 219.839 5.95201 220.015 7.21601H215.375ZM221.455 7.77601C221.455 5.40801 219.871 3.90401 217.743 3.90401C215.615 3.90401 213.919 5.40801 213.919 7.77601C213.919 10.144 215.615 11.696 217.743 11.696C219.199 11.696 220.543 11.04 221.183 9.71201C220.783 9.53601 220.319 9.40801 219.935 9.23201C219.503 9.98401 218.687 10.384 217.791 10.384C216.511 10.384 215.551 9.61601 215.375 8.35201H221.439C221.455 8.17601 221.455 7.95201 221.455 7.77601ZM1.82403 34.064H0.38403V41.536H1.82403V34.064ZM0.0960298 31.312C0.0960298 31.872 0.54403 32.256 1.10403 32.256C1.66403 32.256 2.11203 31.872 2.11203 31.312C2.11203 30.752 1.66403 30.368 1.10403 30.368C0.54403 30.368 0.0960298 30.752 0.0960298 31.312ZM5.71503 37.504C5.71503 35.92 6.77103 35.328 7.82703 35.328C8.85103 35.328 9.47503 36.048 9.47503 37.312V41.536H10.931V37.216C10.931 35.104 9.92303 33.904 8.05103 33.904C7.23503 33.904 6.14703 34.288 5.71503 35.184V34.064H4.25903V41.536H5.71503V37.504ZM19.1787 41.536H20.6347V30H19.1787V35.184C18.6827 34.336 17.6427 33.904 16.5387 33.904C14.4907 33.904 12.7787 35.408 12.7787 37.792C12.7787 40.16 14.5067 41.696 16.5547 41.696C17.5947 41.696 18.6827 41.216 19.1787 40.384V41.536ZM19.1627 37.776C19.1627 39.36 18.0107 40.272 16.6827 40.272C15.3387 40.272 14.2667 39.248 14.2667 37.776C14.2667 36.304 15.3387 35.328 16.6827 35.328C17.8987 35.328 19.1627 36.176 19.1627 37.776ZM24.0315 37.216C24.2075 35.952 25.1675 35.216 26.3995 35.216C27.6155 35.216 28.4955 35.952 28.6715 37.216H24.0315ZM30.1115 37.776C30.1115 35.408 28.5275 33.904 26.3995 33.904C24.2715 33.904 22.5755 35.408 22.5755 37.776C22.5755 40.144 24.2715 41.696 26.3995 41.696C27.8555 41.696 29.1995 41.04 29.8395 39.712C29.4395 39.536 28.9755 39.408 28.5915 39.232C28.1595 39.984 27.3435 40.384 26.4475 40.384C25.1675 40.384 24.2075 39.616 24.0315 38.352H30.0955C30.1115 38.176 30.1115 37.952 30.1115 37.776ZM33.4182 34.064H31.9622V45.168H33.4182V40.416C33.9302 41.264 34.9702 41.696 36.0262 41.696C38.0742 41.696 39.7702 40.192 39.7702 37.824C39.7702 35.456 38.0742 33.904 36.0262 33.904C34.9702 33.904 33.9302 34.384 33.4182 35.232V34.064ZM33.4342 37.84C33.4342 36.256 34.5702 35.328 35.8822 35.328C37.2262 35.328 38.2982 36.352 38.2982 37.84C38.2982 39.328 37.2262 40.272 35.8822 40.272C34.6822 40.272 33.4342 39.44 33.4342 37.84ZM42.6722 37.216C42.8482 35.952 43.8082 35.216 45.0402 35.216C46.2562 35.216 47.1362 35.952 47.3122 37.216H42.6722ZM48.7522 37.776C48.7522 35.408 47.1682 33.904 45.0402 33.904C42.9122 33.904 41.2162 35.408 41.2162 37.776C41.2162 40.144 42.9122 41.696 45.0402 41.696C46.4962 41.696 47.8402 41.04 48.4802 39.712C48.0802 39.536 47.6162 39.408 47.2322 39.232C46.8002 39.984 45.9842 40.384 45.0882 40.384C43.8082 40.384 42.8482 39.616 42.6722 38.352H48.7362C48.7522 38.176 48.7522 37.952 48.7522 37.776ZM52.0588 37.504C52.0588 35.92 53.1148 35.328 54.1708 35.328C55.1948 35.328 55.8188 36.048 55.8188 37.312V41.536H57.2748V37.216C57.2748 35.104 56.2668 33.904 54.3948 33.904C53.5788 33.904 52.4908 34.288 52.0588 35.184V34.064H50.6028V41.536H52.0588V37.504ZM65.5224 41.536H66.9784V30H65.5224V35.184C65.0264 34.336 63.9864 33.904 62.8824 33.904C60.8344 33.904 59.1224 35.408 59.1224 37.792C59.1224 40.16 60.8504 41.696 62.8984 41.696C63.9384 41.696 65.0264 41.216 65.5224 40.384V41.536ZM65.5064 37.776C65.5064 39.36 64.3544 40.272 63.0264 40.272C61.6824 40.272 60.6104 39.248 60.6104 37.776C60.6104 36.304 61.6824 35.328 63.0264 35.328C64.2424 35.328 65.5064 36.176 65.5064 37.776ZM70.3753 37.216C70.5513 35.952 71.5113 35.216 72.7433 35.216C73.9593 35.216 74.8393 35.952 75.0153 37.216H70.3753ZM76.4553 37.776C76.4553 35.408 74.8713 33.904 72.7433 33.904C70.6153 33.904 68.9193 35.408 68.9193 37.776C68.9193 40.144 70.6153 41.696 72.7433 41.696C74.1993 41.696 75.5433 41.04 76.1833 39.712C75.7833 39.536 75.3193 39.408 74.9353 39.232C74.5033 39.984 73.6873 40.384 72.7913 40.384C71.5113 40.384 70.5513 39.616 70.3753 38.352H76.4393C76.4553 38.176 76.4553 37.952 76.4553 37.776ZM79.7619 37.504C79.7619 35.92 80.8179 35.328 81.8739 35.328C82.8979 35.328 83.5219 36.048 83.5219 37.312V41.536H84.9779V37.216C84.9779 35.104 83.9699 33.904 82.0979 33.904C81.2819 33.904 80.1939 34.288 79.7619 35.184V34.064H78.3059V41.536H79.7619V37.504ZM89.3375 34.064V31.248H87.8815V34.064H86.5375V35.296H87.8815V41.536H89.3375V35.296H90.9215V34.064H89.3375ZM105.023 35.328C106.111 35.328 106.735 36.08 106.735 37.312V41.536H108.191V37.216C108.191 35.104 107.183 33.904 105.311 33.904C104.591 33.904 103.407 34.112 102.719 35.44C102.367 34.624 101.711 34.128 100.767 33.984C100.511 33.936 100.239 33.92 99.9509 33.936C99.3429 33.984 98.2709 34.352 97.8869 35.184V34.064H96.4309V41.536H97.8869V37.504C97.8869 35.936 98.9269 35.328 99.9669 35.328C100.943 35.328 101.583 36.064 101.583 37.296V41.536H103.039V37.504C103.039 36.256 103.791 35.328 105.023 35.328ZM111.965 34.064H110.525V41.536H111.965V34.064ZM110.237 31.312C110.237 31.872 110.685 32.256 111.245 32.256C111.805 32.256 112.253 31.872 112.253 31.312C112.253 30.752 111.805 30.368 111.245 30.368C110.685 30.368 110.237 30.752 110.237 31.312ZM115.856 37.504C115.856 35.92 116.912 35.328 117.968 35.328C118.992 35.328 119.616 36.048 119.616 37.312V41.536H121.072V37.216C121.072 35.104 120.064 33.904 118.192 33.904C117.376 33.904 116.288 34.288 115.856 35.184V34.064H114.4V41.536H115.856V37.504ZM129.319 41.536H130.775V30H129.319V35.184C128.823 34.336 127.783 33.904 126.679 33.904C124.631 33.904 122.919 35.408 122.919 37.792C122.919 40.16 124.647 41.696 126.695 41.696C127.735 41.696 128.823 41.216 129.319 40.384V41.536ZM129.303 37.776C129.303 39.36 128.151 40.272 126.823 40.272C125.479 40.272 124.407 39.248 124.407 37.776C124.407 36.304 125.479 35.328 126.823 35.328C128.039 35.328 129.303 36.176 129.303 37.776Z" fill="#666666"/>
</svg>
