<svg width="221" height="23" viewBox="0 0 221 23" fill="none" xmlns="http://www.w3.org/2000/svg">
<path d="M2.96936 2.04277C2.23979 2.16367 1.63528 2.48885 1.06413 3.06C0.476306 3.64782 0.167802 4.23148 0.0469011 4.99857C-0.0156337 5.37378 -0.0156337 14.6289 0.0469011 15.0041C0.167802 15.7712 0.476306 16.3549 1.06413 16.9427C1.65613 17.5347 2.24812 17.8432 3.02772 17.9641C3.22367 17.9933 4.87041 18.0058 8.19309 17.9975L13.0708 17.985L13.371 17.8891C14.0297 17.689 14.5216 17.3971 14.9552 16.9552C15.4179 16.4883 15.6973 16.0172 15.889 15.3793C15.9849 15.0708 15.9849 15.025 16.0016 12.5569C16.0099 10.9102 15.9974 9.99302 15.9724 9.88462C15.9474 9.79707 15.8599 9.64699 15.7806 9.55527C15.3888 9.09668 14.6675 9.16756 14.3549 9.69702L14.2381 9.89713L14.1964 14.8999L14.063 15.1792C13.8796 15.5711 13.6086 15.8463 13.2209 16.038L12.9082 16.1923H3.10693L2.82761 16.0589C2.43573 15.8755 2.16058 15.6045 1.9688 15.2168L1.81455 14.9041V5.1028L1.94796 4.82348C2.13139 4.43159 2.40238 4.15644 2.79009 3.96467L3.10277 3.81041L8.23478 3.76873L8.42239 3.6645C8.70171 3.50608 8.85179 3.26428 8.87264 2.9391C8.89348 2.6431 8.81427 2.43882 8.60165 2.23871C8.34318 1.99274 8.40571 1.99691 5.68337 2.00108C4.31177 2.00525 3.09026 2.02192 2.96936 2.04277Z" fill="#666666"/>
<path d="M15.739 2.92242C15.593 2.95994 15.0969 3.43938 11.7909 6.74121L8.00549 10.5225L6.45463 8.97162C4.7787 7.30402 4.7787 7.30402 4.37847 7.34154C4.09498 7.37073 3.8782 7.4958 3.72394 7.72092C3.56552 7.95438 3.51966 8.20869 3.58637 8.463C3.62806 8.62976 3.82817 8.84238 5.5583 10.5808C6.85068 11.8732 7.53856 12.5361 7.65113 12.5903C7.85541 12.6862 8.12222 12.6903 8.33067 12.607C8.52244 12.5278 16.6811 4.3899 16.8062 4.15644C16.9063 3.95633 16.9104 3.61447 16.8062 3.38935C16.7103 3.17673 16.4685 2.97662 16.2351 2.91825C16.0266 2.86406 15.9641 2.86406 15.739 2.92242Z" fill="#666666"/>
<path d="M29.44 16H31.136V11.36H34.976V9.808H31.136V6.544H35.984V4.976H29.44V16ZM38.6906 13.312C38.6906 11.328 39.2826 9.92 40.6906 9.92C41.0106 9.92 41.3626 9.968 41.7946 10.176L42.0666 8.656C41.8266 8.48 41.2666 8.368 40.7386 8.368C39.7946 8.368 39.0746 8.896 38.6906 10.24V8.528H37.0426V16H38.6906V13.312ZM50.381 12.24C50.381 9.872 48.749 8.368 46.637 8.368C44.525 8.368 42.797 9.872 42.797 12.24C42.797 14.608 44.525 16.16 46.637 16.16C48.029 16.16 49.453 15.568 50.093 14.24L48.749 13.648C48.365 14.336 47.549 14.72 46.717 14.72C45.501 14.72 44.605 14 44.429 12.848H50.365C50.381 12.672 50.381 12.416 50.381 12.24ZM44.429 11.648C44.605 10.496 45.485 9.808 46.637 9.808C47.773 9.808 48.589 10.48 48.765 11.648H44.429ZM59.2248 12.24C59.2248 9.872 57.5928 8.368 55.4808 8.368C53.3688 8.368 51.6408 9.872 51.6408 12.24C51.6408 14.608 53.3688 16.16 55.4808 16.16C56.8728 16.16 58.2968 15.568 58.9368 14.24L57.5928 13.648C57.2088 14.336 56.3928 14.72 55.5608 14.72C54.3448 14.72 53.4488 14 53.2728 12.848H59.2088C59.2248 12.672 59.2248 12.416 59.2248 12.24ZM53.2728 11.648C53.4488 10.496 54.3288 9.808 55.4808 9.808C56.6168 9.808 57.4328 10.48 57.6088 11.648H53.2728ZM67.011 6.56H69.603C71.763 6.56 72.867 8.336 72.867 10.512C72.867 12.704 71.763 14.432 69.603 14.432H67.011V6.56ZM69.603 16C72.739 16 74.563 13.648 74.563 10.512C74.563 7.376 72.739 4.976 69.603 4.976H65.315V16H69.603ZM83.5529 12.24C83.5529 9.872 81.9209 8.368 79.8089 8.368C77.6969 8.368 75.9689 9.872 75.9689 12.24C75.9689 14.608 77.6969 16.16 79.8089 16.16C81.2009 16.16 82.6249 15.568 83.2649 14.24L81.9209 13.648C81.5369 14.336 80.7209 14.72 79.8889 14.72C78.6729 14.72 77.7769 14 77.6009 12.848H83.5369C83.5529 12.672 83.5529 12.416 83.5529 12.24ZM77.6009 11.648C77.7769 10.496 78.6569 9.808 79.8089 9.808C80.9449 9.808 81.7609 10.48 81.9369 11.648H77.6009ZM85.2926 16H86.9406V4.464H85.2926V16ZM90.8778 8.528H89.2458V16H90.8778V8.528ZM88.9578 5.504C88.9578 6.096 89.4698 6.544 90.0618 6.544C90.6858 6.544 91.1498 6.096 91.1498 5.504C91.1498 4.912 90.6858 4.464 90.0618 4.464C89.4698 4.464 88.9578 4.912 88.9578 5.504ZM95.3593 16H96.8793L99.9993 8.528H98.2393L96.1273 13.904L93.9833 8.528H92.2393L95.3593 16ZM108.303 12.24C108.303 9.872 106.671 8.368 104.559 8.368C102.447 8.368 100.719 9.872 100.719 12.24C100.719 14.608 102.447 16.16 104.559 16.16C105.951 16.16 107.375 15.568 108.015 14.24L106.671 13.648C106.287 14.336 105.471 14.72 104.639 14.72C103.423 14.72 102.527 14 102.351 12.848H108.287C108.303 12.672 108.303 12.416 108.303 12.24ZM102.351 11.648C102.527 10.496 103.407 9.808 104.559 9.808C105.695 9.808 106.511 10.48 106.687 11.648H102.351ZM111.691 13.312C111.691 11.328 112.283 9.92 113.691 9.92C114.011 9.92 114.363 9.968 114.795 10.176L115.067 8.656C114.827 8.48 114.267 8.368 113.739 8.368C112.795 8.368 112.075 8.896 111.691 10.24V8.528H110.043V16H111.691V13.312ZM123.185 8.528H121.425L119.329 13.648L117.249 8.528H115.489L118.449 15.648L116.833 19.648H118.561L123.185 8.528ZM128.487 16H130.183V11.36H134.023V9.808H130.183V6.544H135.031V4.976H128.487V16ZM139.435 14.56C138.203 14.56 137.179 13.648 137.179 12.24C137.179 10.88 138.203 9.984 139.435 9.984C140.683 9.984 141.707 10.88 141.707 12.24C141.707 13.648 140.683 14.56 139.435 14.56ZM139.435 16.16C141.563 16.16 143.355 14.608 143.355 12.24C143.355 9.872 141.563 8.368 139.435 8.368C137.323 8.368 135.547 9.872 135.547 12.24C135.547 14.608 137.323 16.16 139.435 16.16ZM146.831 13.312C146.831 11.328 147.423 9.92 148.831 9.92C149.151 9.92 149.503 9.968 149.935 10.176L150.207 8.656C149.967 8.48 149.407 8.368 148.879 8.368C147.935 8.368 147.215 8.896 146.831 10.24V8.528H145.183V16H146.831V13.312ZM162.573 16H164.365L160.205 4.976H158.365L154.205 16H156.013L157.069 13.248H161.517L162.573 16ZM159.293 7.104L160.941 11.728H157.645L159.293 7.104ZM165.621 16H167.269V4.464H165.621V16ZM169.574 16H171.222V4.464H169.574V16ZM178.886 10.512C178.886 8.288 180.582 6.512 182.758 6.512C184.95 6.512 186.646 8.288 186.646 10.512C186.646 12.736 184.95 14.496 182.758 14.496C180.582 14.496 178.886 12.736 178.886 10.512ZM177.19 10.512C177.19 13.648 179.622 16.16 182.758 16.16C185.91 16.16 188.358 13.648 188.358 10.512C188.358 7.392 185.91 4.848 182.758 4.848C179.622 4.848 177.19 7.392 177.19 10.512ZM191.816 13.312C191.816 11.328 192.408 9.92 193.816 9.92C194.136 9.92 194.488 9.968 194.92 10.176L195.192 8.656C194.952 8.48 194.392 8.368 193.864 8.368C192.92 8.368 192.2 8.896 191.816 10.24V8.528H190.168V16H191.816V13.312ZM202.194 16H203.826V4.464H202.194V9.6C201.73 8.784 200.738 8.368 199.666 8.368C197.65 8.368 195.938 9.872 195.938 12.272C195.938 14.624 197.65 16.16 199.666 16.16C200.69 16.16 201.73 15.728 202.194 14.912V16ZM202.162 12.24C202.162 13.696 201.09 14.56 199.874 14.56C198.642 14.56 197.634 13.616 197.634 12.24C197.634 10.864 198.642 9.968 199.874 9.968C200.978 9.968 202.162 10.784 202.162 12.24ZM213.24 12.24C213.24 9.872 211.608 8.368 209.496 8.368C207.384 8.368 205.656 9.872 205.656 12.24C205.656 14.608 207.384 16.16 209.496 16.16C210.888 16.16 212.312 15.568 212.952 14.24L211.608 13.648C211.224 14.336 210.408 14.72 209.576 14.72C208.36 14.72 207.464 14 207.288 12.848H213.224C213.24 12.672 213.24 12.416 213.24 12.24ZM207.288 11.648C207.464 10.496 208.344 9.808 209.496 9.808C210.632 9.808 211.448 10.48 211.624 11.648H207.288ZM216.628 13.312C216.628 11.328 217.22 9.92 218.628 9.92C218.948 9.92 219.3 9.968 219.732 10.176L220.004 8.656C219.764 8.48 219.204 8.368 218.676 8.368C217.732 8.368 217.012 8.896 216.628 10.24V8.528H214.98V16H216.628V13.312Z" fill="#666666"/>
</svg>
