<svg width="145" height="23" viewBox="0 0 145 23" fill="none" xmlns="http://www.w3.org/2000/svg">
<path d="M2.96936 2.04277C2.23979 2.16367 1.63528 2.48885 1.06413 3.06C0.476306 3.64782 0.167802 4.23148 0.0469011 4.99857C-0.0156337 5.37378 -0.0156337 14.6289 0.0469011 15.0041C0.167802 15.7712 0.476306 16.3549 1.06413 16.9427C1.65613 17.5347 2.24812 17.8432 3.02772 17.9641C3.22367 17.9933 4.87041 18.0058 8.19309 17.9975L13.0708 17.985L13.371 17.8891C14.0297 17.689 14.5216 17.3971 14.9552 16.9552C15.4179 16.4883 15.6973 16.0172 15.889 15.3793C15.9849 15.0708 15.9849 15.025 16.0016 12.5569C16.0099 10.9102 15.9974 9.99302 15.9724 9.88462C15.9474 9.79707 15.8599 9.64699 15.7806 9.55527C15.3888 9.09668 14.6675 9.16756 14.3549 9.69702L14.2381 9.89713L14.1964 14.8999L14.063 15.1792C13.8796 15.5711 13.6086 15.8463 13.2209 16.038L12.9082 16.1923H3.10693L2.82761 16.0589C2.43573 15.8755 2.16058 15.6045 1.9688 15.2168L1.81455 14.9041V5.1028L1.94796 4.82348C2.13139 4.43159 2.40238 4.15644 2.79009 3.96467L3.10277 3.81041L8.23478 3.76873L8.42239 3.6645C8.70171 3.50608 8.85179 3.26428 8.87264 2.9391C8.89348 2.6431 8.81427 2.43882 8.60165 2.23871C8.34318 1.99274 8.40571 1.99691 5.68337 2.00108C4.31177 2.00525 3.09026 2.02192 2.96936 2.04277Z" fill="#666666"/>
<path d="M15.739 2.92242C15.593 2.95994 15.0969 3.43938 11.7909 6.74121L8.00549 10.5225L6.45463 8.97162C4.7787 7.30402 4.7787 7.30402 4.37847 7.34154C4.09498 7.37073 3.8782 7.4958 3.72394 7.72092C3.56552 7.95438 3.51966 8.20869 3.58637 8.463C3.62806 8.62976 3.82817 8.84238 5.5583 10.5808C6.85068 11.8732 7.53856 12.5361 7.65113 12.5903C7.85541 12.6862 8.12222 12.6903 8.33067 12.607C8.52244 12.5278 16.6811 4.3899 16.8062 4.15644C16.9063 3.95633 16.9104 3.61447 16.8062 3.38935C16.7103 3.17673 16.4685 2.97662 16.2351 2.91825C16.0266 2.86406 15.9641 2.86406 15.739 2.92242Z" fill="#666666"/>
<path d="M30.448 10.512C30.448 8.288 32.144 6.512 34.32 6.512C36.512 6.512 38.208 8.288 38.208 10.512C38.208 12.736 36.512 14.496 34.32 14.496C32.144 14.496 30.448 12.736 30.448 10.512ZM28.752 10.512C28.752 13.648 31.184 16.16 34.32 16.16C37.472 16.16 39.92 13.648 39.92 10.512C39.92 7.392 37.472 4.848 34.32 4.848C31.184 4.848 28.752 7.392 28.752 10.512ZM43.3781 11.984C43.3781 10.512 44.3221 9.984 45.2981 9.984C46.2581 9.984 46.8661 10.64 46.8661 11.84V16H48.5141V11.648C48.5141 9.52 47.4741 8.368 45.6661 8.368C44.8501 8.368 43.8101 8.8 43.3781 9.648V8.528H41.7301V16H43.3781V11.984ZM50.7458 16H52.3938V4.464H50.7458V16ZM61.4509 8.528H59.6909L57.5949 13.648L55.5149 8.528H53.7549L56.7149 15.648L55.0989 19.648H56.8269L61.4509 8.528ZM66.7525 16H68.4485V11.36H72.2885V9.808H68.4485V6.544H73.2965V4.976H66.7525V16ZM76.0031 13.312C76.0031 11.328 76.5951 9.92 78.0031 9.92C78.3231 9.92 78.6751 9.968 79.1071 10.176L79.3791 8.656C79.1391 8.48 78.5791 8.368 78.0511 8.368C77.1071 8.368 76.3871 8.896 76.0031 10.24V8.528H74.3551V16H76.0031V13.312ZM87.6935 12.24C87.6935 9.872 86.0615 8.368 83.9495 8.368C81.8375 8.368 80.1095 9.872 80.1095 12.24C80.1095 14.608 81.8375 16.16 83.9495 16.16C85.3415 16.16 86.7655 15.568 87.4055 14.24L86.0615 13.648C85.6775 14.336 84.8615 14.72 84.0295 14.72C82.8135 14.72 81.9175 14 81.7415 12.848H87.6775C87.6935 12.672 87.6935 12.416 87.6935 12.24ZM81.7415 11.648C81.9175 10.496 82.7975 9.808 83.9495 9.808C85.0855 9.808 85.9015 10.48 86.0775 11.648H81.7415ZM92.1853 13.008C92.7453 13.136 93.2253 13.392 93.2253 13.888C93.2253 14.448 92.6493 14.784 91.8973 14.784C91.0173 14.784 90.5053 14.352 90.4253 13.712H88.9053C88.9533 15.296 90.3613 16.16 91.7693 16.16C93.4813 16.16 94.7453 15.344 94.7453 13.904C94.7453 13.168 94.3933 12.112 92.7933 11.728L91.6413 11.44C91.2413 11.328 90.8413 11.168 90.7293 10.864C90.6493 10.624 90.6653 10.4 90.7933 10.192C90.9693 9.936 91.4173 9.776 91.8493 9.776C92.3613 9.776 92.8733 10.016 92.9373 10.576H94.5053C94.4253 8.976 93.0973 8.368 91.7853 8.368C90.4253 8.368 89.1933 9.232 89.1133 10.336C89.0013 11.552 89.5773 12.336 91.1773 12.768L92.1853 13.008ZM98.1906 11.984C98.1906 10.512 99.3266 9.984 100.271 9.984C101.215 9.984 101.935 10.672 101.935 11.84V16H103.583V11.744C103.583 9.616 102.479 8.368 100.559 8.368C99.7746 8.368 98.6226 8.752 98.1906 9.664V4.464H96.5426V16H98.1906V11.984ZM110.143 16H111.839V11.36H115.679V9.808H111.839V6.544H116.687V4.976H110.143V16ZM121.091 14.56C119.859 14.56 118.835 13.648 118.835 12.24C118.835 10.88 119.859 9.984 121.091 9.984C122.339 9.984 123.363 10.88 123.363 12.24C123.363 13.648 122.339 14.56 121.091 14.56ZM121.091 16.16C123.219 16.16 125.011 14.608 125.011 12.24C125.011 9.872 123.219 8.368 121.091 8.368C118.979 8.368 117.203 9.872 117.203 12.24C117.203 14.608 118.979 16.16 121.091 16.16ZM130.248 14.56C129.016 14.56 127.992 13.648 127.992 12.24C127.992 10.88 129.016 9.984 130.248 9.984C131.496 9.984 132.52 10.88 132.52 12.24C132.52 13.648 131.496 14.56 130.248 14.56ZM130.248 16.16C132.376 16.16 134.168 14.608 134.168 12.24C134.168 9.872 132.376 8.368 130.248 8.368C128.136 8.368 126.36 9.872 126.36 12.24C126.36 14.608 128.136 16.16 130.248 16.16ZM141.788 16H143.42V4.464H141.788V9.6C141.324 8.784 140.332 8.368 139.26 8.368C137.244 8.368 135.532 9.872 135.532 12.272C135.532 14.624 137.244 16.16 139.26 16.16C140.284 16.16 141.324 15.728 141.788 14.912V16ZM141.756 12.24C141.756 13.696 140.684 14.56 139.468 14.56C138.236 14.56 137.228 13.616 137.228 12.24C137.228 10.864 138.236 9.968 139.468 9.968C140.572 9.968 141.756 10.784 141.756 12.24Z" fill="#666666"/>
</svg>
