<svg width="587" height="140" viewBox="0 0 587 140" fill="none" xmlns="http://www.w3.org/2000/svg">
<path d="M22.032 36.296L11.472 13.928H6.288L2.208 47H8.352L10.944 24.968L19.632 43.256H24.528L33.168 24.968L35.712 47H41.856L37.824 13.928H32.544L22.032 36.296ZM64.1321 47H69.9881V24.584H64.1321V27.368C62.4521 24.92 59.2361 24.104 57.1721 24.104C51.2681 24.104 45.7481 28.616 45.7481 35.768C45.7481 42.92 51.2681 47.432 57.1721 47.432C59.3321 47.432 62.7401 46.424 64.1321 44.12V47ZM51.7961 35.768C51.7961 32.12 54.7241 29.72 57.9881 29.72C61.0601 29.72 64.1321 31.928 64.1321 35.768C64.1321 39.608 61.2041 41.816 57.9881 41.816C54.7241 41.816 51.7961 39.416 51.7961 35.768ZM90.8805 47H98.2245L86.8005 34.424L96.2085 24.584H88.6245L82.4325 31.304V12.392H76.6245V47H82.4325V37.4L90.8805 47ZM121.662 35.72C121.662 28.616 116.622 24.104 110.286 24.104C103.902 24.104 98.67 28.616 98.67 35.72C98.67 42.776 103.902 47.48 110.286 47.48C114.414 47.48 118.686 45.896 120.75 42.056C119.262 41.288 117.678 40.424 116.286 39.656C115.182 41.576 112.926 42.536 110.67 42.536C107.358 42.536 104.862 40.76 104.478 37.736H121.566C121.614 37.208 121.662 36.296 121.662 35.72ZM104.43 33.752C104.862 30.68 107.262 29 110.334 29C113.214 29 115.518 30.68 115.95 33.752H104.43ZM159.284 24.584H153.044L147.428 38.552L141.86 24.584H135.62L144.356 45.272L139.22 57.944H145.412L159.284 24.584ZM172.818 41.72C169.554 41.72 166.962 39.368 166.962 35.72C166.962 32.12 169.554 29.864 172.818 29.864C176.082 29.864 178.674 32.12 178.674 35.72C178.674 39.368 176.082 41.72 172.818 41.72ZM172.818 47.432C179.154 47.432 184.482 42.776 184.482 35.72C184.482 28.616 179.154 24.104 172.818 24.104C166.482 24.104 161.154 28.616 161.154 35.72C161.154 42.776 166.482 47.432 172.818 47.432ZM204.47 36.536C204.47 40.424 202.07 41.768 199.622 41.768C197.558 41.768 195.35 40.424 195.35 36.776V24.584H189.446V37.832C189.446 44.168 192.95 47.48 198.278 47.48C200.534 47.48 203.222 46.232 204.47 43.832V47H210.326V24.584H204.47V36.536ZM222.824 39.08C222.824 33.128 224.456 29.576 228.44 29.576C229.016 29.576 230.456 29.576 231.848 30.2L232.856 24.92C231.944 24.392 230.744 24.104 229.16 24.104C226.616 24.104 223.976 25.784 222.824 29.864V24.584H216.968V47H222.824V39.08ZM257.756 41.72C254.492 41.72 251.9 39.368 251.9 35.72C251.9 32.12 254.492 29.864 257.756 29.864C261.02 29.864 263.612 32.12 263.612 35.72C263.612 39.368 261.02 41.72 257.756 41.72ZM257.756 47.432C264.092 47.432 269.42 42.776 269.42 35.72C269.42 28.616 264.092 24.104 257.756 24.104C251.42 24.104 246.092 28.616 246.092 35.72C246.092 42.776 251.42 47.432 257.756 47.432ZM280.527 35.048C280.527 31.16 282.735 29.816 285.423 29.816C287.967 29.816 289.695 31.544 289.695 34.808V47H295.551V33.752C295.551 27.368 292.431 24.104 287.199 24.104C284.559 24.104 281.823 25.448 280.527 27.896V24.584H274.671V47H280.527V35.048ZM301.906 47H307.762V12.392H301.906V47ZM320.183 24.584H314.375V47H320.183V24.584ZM313.511 15.896C313.511 17.96 315.239 19.448 317.303 19.448C319.367 19.448 320.999 17.96 320.999 15.896C320.999 13.928 319.367 12.392 317.303 12.392C315.239 12.392 313.511 13.928 313.511 15.896ZM332.652 35.048C332.652 31.16 334.86 29.816 337.548 29.816C340.092 29.816 341.82 31.544 341.82 34.808V47H347.676V33.752C347.676 27.368 344.556 24.104 339.324 24.104C336.684 24.104 333.948 25.448 332.652 27.896V24.584H326.796V47H332.652V35.048ZM375.631 35.72C375.631 28.616 370.591 24.104 364.255 24.104C357.871 24.104 352.639 28.616 352.639 35.72C352.639 42.776 357.871 47.48 364.255 47.48C368.383 47.48 372.655 45.896 374.719 42.056C373.231 41.288 371.647 40.424 370.255 39.656C369.151 41.576 366.895 42.536 364.639 42.536C361.327 42.536 358.831 40.76 358.447 37.736H375.535C375.583 37.208 375.631 36.296 375.631 35.72ZM358.399 33.752C358.831 30.68 361.231 29 364.303 29C367.183 29 369.487 30.68 369.919 33.752H358.399ZM400.964 38.408C402.644 38.792 403.46 39.368 403.412 40.52C403.412 41.816 402.164 42.728 400.484 42.776C398.324 42.92 396.5 41.528 396.356 39.944H390.884C391.028 44.744 395.492 47.48 399.908 47.48C404.564 47.48 409.076 45.176 409.076 40.568C409.076 38.744 408.404 35.288 403.22 33.848L399.476 32.936C398.18 32.6 397.124 31.976 397.124 31.064C397.124 29.384 398.468 28.856 399.956 28.856C401.3 28.856 402.836 29.48 402.98 31.16H408.548C408.308 26.024 404.084 24.104 399.812 24.104C395.396 24.104 391.556 27.128 391.556 30.776C391.556 33.368 392.084 36.104 397.892 37.64L400.964 38.408ZM420.121 35.048C420.121 31.16 423.049 29.816 425.497 29.816C427.897 29.816 430.249 31.592 430.249 34.808V47H436.105V34.52C436.105 27.944 432.889 24.104 427.081 24.104C424.873 24.104 421.129 25.352 420.121 28.04V12.392H414.265V47H420.121V35.048ZM452.709 41.72C449.445 41.72 446.853 39.368 446.853 35.72C446.853 32.12 449.445 29.864 452.709 29.864C455.973 29.864 458.565 32.12 458.565 35.72C458.565 39.368 455.973 41.72 452.709 41.72ZM452.709 47.432C459.045 47.432 464.373 42.776 464.373 35.72C464.373 28.616 459.045 24.104 452.709 24.104C446.373 24.104 441.045 28.616 441.045 35.72C441.045 42.776 446.373 47.432 452.709 47.432ZM475.481 24.584H469.625V57.896H475.481V44.024C476.681 46.28 479.561 47.48 482.489 47.48C488.345 47.48 493.432 42.92 493.432 35.768C493.432 28.712 488.345 24.104 482.489 24.104C479.561 24.104 476.681 25.352 475.481 27.608V24.584ZM475.577 35.864C475.577 32.12 478.312 29.72 481.529 29.72C484.745 29.72 487.433 32.168 487.433 35.864C487.433 39.512 484.745 41.912 481.529 41.912C478.457 41.912 475.577 39.704 475.577 35.864ZM519.089 38.408C520.769 38.792 521.585 39.368 521.537 40.52C521.537 41.816 520.289 42.728 518.609 42.776C516.449 42.92 514.625 41.528 514.481 39.944H509.009C509.153 44.744 513.617 47.48 518.033 47.48C522.689 47.48 527.201 45.176 527.201 40.568C527.201 38.744 526.529 35.288 521.345 33.848L517.601 32.936C516.305 32.6 515.249 31.976 515.249 31.064C515.249 29.384 516.593 28.856 518.081 28.856C519.425 28.856 520.961 29.48 521.105 31.16H526.673C526.433 26.024 522.209 24.104 517.937 24.104C513.521 24.104 509.681 27.128 509.681 30.776C509.681 33.368 510.209 36.104 516.017 37.64L519.089 38.408ZM542.662 41.72C539.398 41.72 536.806 39.368 536.806 35.72C536.806 32.12 539.398 29.864 542.662 29.864C545.926 29.864 548.518 32.12 548.518 35.72C548.518 39.368 545.926 41.72 542.662 41.72ZM542.662 47.432C548.998 47.432 554.326 42.776 554.326 35.72C554.326 28.616 548.998 24.104 542.662 24.104C536.326 24.104 530.998 28.616 530.998 35.72C530.998 42.776 536.326 47.432 542.662 47.432ZM565.53 35.72C565.53 31.88 568.458 29.672 571.482 29.672C574.746 29.672 577.386 32.072 577.386 35.72C577.386 39.416 574.746 41.864 571.482 41.864C568.266 41.864 565.53 39.464 565.53 35.72ZM565.434 47V43.976C566.634 46.232 569.514 47.48 572.442 47.48C578.346 47.48 583.434 42.92 583.434 35.816C583.434 28.664 578.346 24.104 572.442 24.104C569.418 24.104 566.634 25.304 565.434 27.56V12.392H559.578V47H565.434ZM9.168 109.08C9.168 103.128 10.8 99.576 14.784 99.576C15.36 99.576 16.8 99.576 18.192 100.2L19.2 94.92C18.288 94.392 17.088 94.104 15.504 94.104C12.96 94.104 10.32 95.784 9.168 99.864V94.584H3.312V117H9.168V109.08ZM44.1776 105.72C44.1776 98.616 39.1376 94.104 32.8016 94.104C26.4176 94.104 21.1856 98.616 21.1856 105.72C21.1856 112.776 26.4176 117.48 32.8016 117.48C36.9296 117.48 41.2016 115.896 43.2656 112.056C41.7776 111.288 40.1936 110.424 38.8016 109.656C37.6976 111.576 35.4416 112.536 33.1856 112.536C29.8736 112.536 27.3776 110.76 26.9936 107.736H44.0816C44.1296 107.208 44.1776 106.296 44.1776 105.72ZM26.9456 103.752C27.3776 100.68 29.7776 99 32.8496 99C35.7296 99 38.0336 100.68 38.4656 103.752H26.9456ZM66.1009 117H71.9569V94.584H66.1009V97.368C64.4209 94.92 61.2049 94.104 59.1409 94.104C53.2369 94.104 47.7169 98.616 47.7169 105.768C47.7169 112.92 53.2369 117.432 59.1409 117.432C61.3009 117.432 64.7089 116.424 66.1009 114.12V117ZM53.7649 105.768C53.7649 102.12 56.6929 99.72 59.9569 99.72C63.0289 99.72 66.1009 101.928 66.1009 105.768C66.1009 109.608 63.1729 111.816 59.9569 111.816C56.6929 111.816 53.7649 109.416 53.7649 105.768ZM95.2493 117H101.057V82.392H95.2493V97.56C93.9533 95.304 91.2173 94.104 88.1933 94.104C82.2893 94.104 77.2013 98.664 77.2013 105.816C77.2013 112.92 82.2893 117.48 88.1933 117.48C91.1213 117.48 93.9533 116.232 95.2493 113.976V117ZM95.1533 105.72C95.1533 109.464 92.3693 111.864 89.1533 111.864C85.8893 111.864 83.2493 109.416 83.2493 105.72C83.2493 102.072 85.8893 99.672 89.1533 99.672C92.2253 99.672 95.1533 101.88 95.1533 105.72ZM128.487 94.584H122.247L116.631 108.552L111.063 94.584H104.823L113.559 115.272L108.423 127.944H114.615L128.487 94.584ZM176.026 94.584H169.786L165.226 108.744L160.666 94.584H155.482L150.97 108.744L146.41 94.584H140.17L148.426 117H153.274L158.122 101.976L163.114 117H168.01L176.026 94.584ZM185.886 94.584H180.078V117H185.886V94.584ZM179.214 85.896C179.214 87.96 180.942 89.448 183.006 89.448C185.07 89.448 186.702 87.96 186.702 85.896C186.702 83.928 185.07 82.392 183.006 82.392C180.942 82.392 179.214 83.928 179.214 85.896ZM200.18 86.04H194.372V94.584H190.292V99.288H194.372V117H200.18V99.288H204.932V94.584H200.18V86.04ZM215.184 105.048C215.184 101.16 218.112 99.816 220.56 99.816C222.96 99.816 225.312 101.592 225.312 104.808V117H231.168V104.52C231.168 97.944 227.952 94.104 222.144 94.104C219.936 94.104 216.192 95.352 215.184 98.04V82.392H209.328V117H215.184V105.048ZM259.678 111.72C256.414 111.72 253.822 109.368 253.822 105.72C253.822 102.12 256.414 99.864 259.678 99.864C262.942 99.864 265.534 102.12 265.534 105.72C265.534 109.368 262.942 111.72 259.678 111.72ZM259.678 117.432C266.014 117.432 271.342 112.776 271.342 105.72C271.342 98.616 266.014 94.104 259.678 94.104C253.342 94.104 248.014 98.616 248.014 105.72C248.014 112.776 253.342 117.432 259.678 117.432ZM291.329 106.536C291.329 110.424 288.929 111.768 286.481 111.768C284.417 111.768 282.209 110.424 282.209 106.776V94.584H276.305V107.832C276.305 114.168 279.809 117.48 285.137 117.48C287.393 117.48 290.081 116.232 291.329 113.832V117H297.185V94.584H291.329V106.536ZM309.684 109.08C309.684 103.128 311.316 99.576 315.3 99.576C315.876 99.576 317.316 99.576 318.708 100.2L319.716 94.92C318.804 94.392 317.604 94.104 316.02 94.104C313.476 94.104 310.836 95.784 309.684 99.864V94.584H303.828V117H309.684V109.08ZM359.447 99.816C361.895 99.816 363.671 101.544 363.671 104.808V117H369.479V104.184C369.479 97.608 366.263 94.104 360.839 94.104C359.111 94.104 355.847 94.584 353.783 98.328C352.487 95.592 350.231 94.344 346.631 94.152C344.471 94.152 341.495 95.16 340.199 97.896V94.584H334.343V117H340.199V105.048C340.199 101.208 342.503 99.816 344.903 99.816C347.207 99.816 348.983 101.544 349.031 104.664V117H354.887V105.048C354.887 101.592 356.759 99.816 359.447 99.816ZM386.1 111.72C382.836 111.72 380.244 109.368 380.244 105.72C380.244 102.12 382.836 99.864 386.1 99.864C389.364 99.864 391.956 102.12 391.956 105.72C391.956 109.368 389.364 111.72 386.1 111.72ZM386.1 117.432C392.436 117.432 397.764 112.776 397.764 105.72C397.764 98.616 392.436 94.104 386.1 94.104C379.764 94.104 374.436 98.616 374.436 105.72C374.436 112.776 379.764 117.432 386.1 117.432ZM408.967 105.72C408.967 101.88 411.895 99.672 414.919 99.672C418.183 99.672 420.823 102.072 420.823 105.72C420.823 109.416 418.183 111.864 414.919 111.864C411.703 111.864 408.967 109.464 408.967 105.72ZM408.871 117V113.976C410.071 116.232 412.951 117.48 415.879 117.48C421.783 117.48 426.871 112.92 426.871 105.816C426.871 98.664 421.783 94.104 415.879 94.104C412.855 94.104 410.071 95.304 408.871 97.56V82.392H403.015V117H408.871ZM437.933 94.584H432.125V117H437.933V94.584ZM431.261 85.896C431.261 87.96 432.989 89.448 435.053 89.448C437.117 89.448 438.749 87.96 438.749 85.896C438.749 83.928 437.117 82.392 435.053 82.392C432.989 82.392 431.261 83.928 431.261 85.896ZM444.546 117H450.402V82.392H444.546V117ZM478.615 105.72C478.615 98.616 473.575 94.104 467.239 94.104C460.855 94.104 455.623 98.616 455.623 105.72C455.623 112.776 460.855 117.48 467.239 117.48C471.367 117.48 475.639 115.896 477.703 112.056C476.215 111.288 474.631 110.424 473.239 109.656C472.135 111.576 469.879 112.536 467.623 112.536C464.311 112.536 461.815 110.76 461.431 107.736H478.519C478.567 107.208 478.615 106.296 478.615 105.72ZM461.383 103.752C461.815 100.68 464.215 99 467.287 99C470.167 99 472.471 100.68 472.903 103.752H461.383ZM512.445 117H518.301V94.584H512.445V97.368C510.765 94.92 507.549 94.104 505.485 94.104C499.581 94.104 494.061 98.616 494.061 105.768C494.061 112.92 499.581 117.432 505.485 117.432C507.645 117.432 511.053 116.424 512.445 114.12V117ZM500.109 105.768C500.109 102.12 503.037 99.72 506.301 99.72C509.373 99.72 512.445 101.928 512.445 105.768C512.445 109.608 509.517 111.816 506.301 111.816C503.037 111.816 500.109 109.416 500.109 105.768ZM524.937 117H530.793V82.392H524.937V117ZM537.406 117H543.262V82.392H537.406V117Z" fill="#333333"/>
</svg>
