<svg width="236" height="51" viewBox="0 0 236 51" fill="none" xmlns="http://www.w3.org/2000/svg">
<path d="M2.842 34H7.546V25.2H14.746V21.104H7.546V16.08H16.634V11.952H2.842V34ZM23.0585 28.784C23.0585 24.816 24.2105 22.832 26.7705 22.832C27.5065 22.832 28.2425 22.896 29.0425 23.28L29.8425 19.28C29.1065 18.928 28.3385 18.736 27.2825 18.736C25.7465 18.736 23.8265 19.888 23.0585 22.672V19.056H18.6105V34H23.0585V28.784ZM42.3878 29.072C41.6518 30.064 40.3718 30.48 39.1238 30.48C37.5238 30.48 35.6998 29.712 35.4438 27.984H46.3878C46.4198 27.6 46.4518 26.992 46.4518 26.608C46.4518 21.904 43.0598 18.736 38.8038 18.736C34.5477 18.736 30.9958 21.744 30.9958 26.48C30.9958 31.184 34.5477 34.32 38.8038 34.32C41.3638 34.32 44.0838 33.52 45.6198 31.28L42.3878 29.072ZM35.5078 25.2C35.8598 23.28 37.6198 22.64 38.8358 22.64C40.1158 22.64 41.7158 23.376 41.9718 25.2H35.5078ZM55.3095 28.368C56.4295 28.656 56.7815 29.008 56.7815 29.648C56.7815 30.416 55.9495 30.864 54.9575 30.896C53.7095 30.896 52.7815 30.032 52.7495 29.168H48.5895C48.5895 32.496 51.8215 34.32 54.8295 34.32C57.9655 34.32 61.2935 32.816 61.2935 29.648C61.2935 28.656 60.8455 26.32 57.2295 25.296L54.7015 24.624C53.8055 24.4 53.4215 23.984 53.3895 23.504C53.3575 22.832 53.9655 22.384 54.9575 22.384C55.6935 22.384 56.6215 22.576 56.6535 23.696H60.8455C60.8455 20.016 57.6455 18.736 54.7015 18.736C51.5655 18.736 48.8775 20.784 48.8775 22.992C48.8775 24.368 48.8455 26.672 53.3575 27.856L55.3095 28.368ZM68.871 26.096C68.871 23.824 70.439 23.056 71.847 23.056C73.223 23.056 74.599 24.08 74.599 26.032V34H79.047V25.872C79.047 21.36 77.031 18.736 73.063 18.736C71.655 18.736 69.447 19.536 68.871 21.392V10.928H64.423V34H68.871V26.096ZM88.2308 11.952L94.9508 34H99.1108L105.831 11.952H100.935L97.0308 26.416L93.0948 11.952H88.2308ZM117.325 29.072C116.589 30.064 115.309 30.48 114.061 30.48C112.461 30.48 110.637 29.712 110.381 27.984H121.325C121.357 27.6 121.389 26.992 121.389 26.608C121.389 21.904 117.997 18.736 113.741 18.736C109.485 18.736 105.933 21.744 105.933 26.48C105.933 31.184 109.485 34.32 113.741 34.32C116.301 34.32 119.021 33.52 120.557 31.28L117.325 29.072ZM110.445 25.2C110.797 23.28 112.557 22.64 113.773 22.64C115.053 22.64 116.653 23.376 116.909 25.2H110.445ZM135.367 26.48C135.367 28.688 133.575 30.128 131.751 30.128C129.831 30.128 128.167 28.688 128.167 26.48C128.167 24.368 129.831 22.96 131.751 22.96C133.607 22.96 135.367 24.272 135.367 26.48ZM123.975 36.816C125.255 39.6 128.039 41.456 131.335 41.456C136.615 41.456 139.783 38.352 139.783 31.92V19.056H135.463V20.912C134.695 19.568 132.839 18.736 130.983 18.736C127.143 18.736 123.527 21.776 123.527 26.576C123.527 31.312 127.143 34.32 130.983 34.32C132.871 34.32 134.727 33.52 135.463 32.144C135.623 35.088 134.759 37.456 131.335 37.456C129.831 37.456 128.071 36.464 127.559 35.056L123.975 36.816ZM154.388 29.072C153.652 30.064 152.372 30.48 151.124 30.48C149.524 30.48 147.7 29.712 147.444 27.984H158.388C158.42 27.6 158.452 26.992 158.452 26.608C158.452 21.904 155.06 18.736 150.804 18.736C146.548 18.736 142.996 21.744 142.996 26.48C142.996 31.184 146.548 34.32 150.804 34.32C153.364 34.32 156.084 33.52 157.62 31.28L154.388 29.072ZM147.508 25.2C147.86 23.28 149.62 22.64 150.836 22.64C152.116 22.64 153.716 23.376 153.972 25.2H147.508ZM167.185 19.056V13.328H162.769V19.056H160.049V22.576H162.769V34H167.185V22.576H170.321V19.056H167.185ZM183.901 34H188.317V19.056H183.901V20.72C182.685 19.088 180.541 18.736 179.549 18.736C175.741 18.736 171.933 21.744 171.933 26.512C171.933 31.28 175.741 34.288 179.549 34.288C180.669 34.288 182.973 33.712 183.901 32.304V34ZM176.541 26.512C176.541 24.368 178.397 22.96 180.285 22.96C182.109 22.96 183.901 24.304 183.901 26.512C183.901 28.752 182.109 30.064 180.285 30.064C178.397 30.064 176.541 28.656 176.541 26.512ZM196.935 26.48C196.935 24.272 198.599 22.928 200.391 22.928C202.311 22.928 203.847 24.304 203.847 26.48C203.847 28.688 202.279 30.096 200.391 30.096C198.503 30.096 196.935 28.656 196.935 26.48ZM196.839 34V32.144C197.575 33.52 199.335 34.32 201.223 34.32C205.063 34.32 208.455 31.312 208.455 26.576C208.455 21.776 205.063 18.736 201.223 18.736C199.335 18.736 197.575 19.504 196.839 20.88V10.928H192.423V34H196.839ZM211.673 10.928V34H216.121V10.928H211.673ZM230.7 29.072C229.964 30.064 228.684 30.48 227.436 30.48C225.836 30.48 224.012 29.712 223.756 27.984H234.7C234.732 27.6 234.764 26.992 234.764 26.608C234.764 21.904 231.372 18.736 227.116 18.736C222.86 18.736 219.308 21.744 219.308 26.48C219.308 31.184 222.86 34.32 227.116 34.32C229.676 34.32 232.396 33.52 233.932 31.28L230.7 29.072ZM223.82 25.2C224.172 23.28 225.932 22.64 227.148 22.64C228.428 22.64 230.028 23.376 230.284 25.2H223.82Z" fill="#333333"/>
</svg>
