<svg width="536" height="134" viewBox="0 0 536 134" fill="none" xmlns="http://www.w3.org/2000/svg">
<path d="M7.62 22.68C7.62 15.18 13.44 9.00001 20.94 9.00001C28.32 9.00001 34.26 15.18 34.26 22.68C34.26 30.24 28.32 36.3 20.94 36.3C13.44 36.3 7.62 30.24 7.62 22.68ZM8.19564e-07 22.68C8.19564e-07 34.32 9.18 43.86 20.94 43.86C32.7 43.86 41.94 34.32 41.94 22.68C41.94 10.98 32.7 1.44001 20.94 1.44001C9.18 1.44001 8.19564e-07 10.98 8.19564e-07 22.68ZM67.1466 30.18C67.1466 35.04 64.1466 36.72 61.0866 36.72C58.5066 36.72 55.7466 35.04 55.7466 30.48V15.24H48.3666V31.8C48.3666 39.72 52.7466 43.86 59.4066 43.86C62.2266 43.86 65.5866 42.3 67.1466 39.3V43.26H74.4666V15.24H67.1466V30.18ZM90.0895 33.36C90.0895 25.92 92.1295 21.48 97.1095 21.48C97.8295 21.48 99.6295 21.48 101.37 22.26L102.63 15.66C101.49 15 99.9895 14.64 98.0095 14.64C94.8295 14.64 91.5295 16.74 90.0895 21.84V15.24H82.7695V43.26H90.0895V33.36ZM119.534 31.2C119.534 38.28 125.534 43.92 134.354 43.92C141.854 43.92 148.574 39.66 148.874 32.22C149.174 27.36 146.894 22.2 137.594 19.62L132.494 18.12C128.054 17.04 127.574 14.58 127.574 13.38C127.574 10.44 130.334 8.52001 133.754 8.52001C137.594 8.52001 139.934 10.62 139.934 13.92H147.614C147.614 6.24001 141.674 1.44001 133.874 1.44001C126.254 1.44001 119.954 6.30001 119.954 13.56C119.954 17.16 121.394 22.5 130.394 25.08L135.494 26.4C139.454 27.48 141.374 29.34 141.194 32.04C141.014 34.86 138.494 37.02 134.354 37.02C129.914 37.02 127.394 34.26 127.214 31.2H119.534ZM162.57 15.24H155.25V56.88H162.57V39.54C164.07 42.36 167.67 43.86 171.33 43.86C178.65 43.86 185.01 38.16 185.01 29.22C185.01 20.4 178.65 14.64 171.33 14.64C167.67 14.64 164.07 16.2 162.57 19.02V15.24ZM162.69 29.34C162.69 24.66 166.11 21.66 170.13 21.66C174.15 21.66 177.51 24.72 177.51 29.34C177.51 33.9 174.15 36.9 170.13 36.9C166.29 36.9 162.69 34.14 162.69 29.34ZM198.838 15.24H191.578V43.26H198.838V15.24ZM190.498 4.38001C190.498 6.96001 192.658 8.82001 195.238 8.82001C197.818 8.82001 199.858 6.96001 199.858 4.38001C199.858 1.92001 197.818 8.82149e-06 195.238 8.82149e-06C192.658 8.82149e-06 190.498 1.92001 190.498 4.38001ZM205.305 29.16C205.305 37.98 212.385 43.86 220.425 43.86C225.225 43.86 229.485 41.88 232.125 38.34L226.245 34.02C224.865 35.88 222.765 36.84 220.425 36.84C216.345 36.84 212.565 33.72 212.565 29.16C212.565 24.6 216.345 21.72 220.425 21.72C222.765 21.72 224.865 22.62 226.245 24.48L232.065 20.1C229.425 16.56 225.165 14.64 220.425 14.64C212.385 14.64 205.305 20.28 205.305 29.16ZM264.867 29.16C264.867 20.28 258.567 14.64 250.647 14.64C242.667 14.64 236.127 20.28 236.127 29.16C236.127 37.98 242.667 43.86 250.647 43.86C255.807 43.86 261.147 41.88 263.727 37.08C261.867 36.12 259.887 35.04 258.147 34.08C256.767 36.48 253.947 37.68 251.127 37.68C246.987 37.68 243.867 35.46 243.387 31.68H264.747C264.807 31.02 264.867 29.88 264.867 29.16ZM243.327 26.7C243.867 22.86 246.867 20.76 250.707 20.76C254.307 20.76 257.187 22.86 257.727 26.7H243.327ZM292.271 43.26H299.591V15.24H292.271V18.72C290.171 15.66 286.151 14.64 283.571 14.64C276.191 14.64 269.291 20.28 269.291 29.22C269.291 38.16 276.191 43.8 283.571 43.8C286.271 43.8 290.531 42.54 292.271 39.66V43.26ZM276.851 29.22C276.851 24.66 280.511 21.66 284.591 21.66C288.431 21.66 292.271 24.42 292.271 29.22C292.271 34.02 288.611 36.78 284.591 36.78C280.511 36.78 276.851 33.78 276.851 29.22ZM307.887 43.26H315.207V8.82149e-06H307.887V43.26ZM336.975 31.2C336.975 38.28 342.975 43.92 351.795 43.92C359.295 43.92 366.015 39.66 366.315 32.22C366.615 27.36 364.335 22.2 355.035 19.62L349.935 18.12C345.495 17.04 345.015 14.58 345.015 13.38C345.015 10.44 347.775 8.52001 351.195 8.52001C355.035 8.52001 357.375 10.62 357.375 13.92H365.055C365.055 6.24001 359.115 1.44001 351.315 1.44001C343.695 1.44001 337.395 6.30001 337.395 13.56C337.395 17.16 338.835 22.5 347.835 25.08L352.935 26.4C356.895 27.48 358.815 29.34 358.635 32.04C358.455 34.86 355.935 37.02 351.795 37.02C347.355 37.02 344.835 34.26 344.655 31.2H336.975ZM399.984 29.16C399.984 20.28 393.684 14.64 385.764 14.64C377.784 14.64 371.244 20.28 371.244 29.16C371.244 37.98 377.784 43.86 385.764 43.86C390.924 43.86 396.264 41.88 398.844 37.08C396.984 36.12 395.004 35.04 393.264 34.08C391.884 36.48 389.064 37.68 386.244 37.68C382.104 37.68 378.984 35.46 378.504 31.68H399.864C399.924 31.02 399.984 29.88 399.984 29.16ZM378.444 26.7C378.984 22.86 381.984 20.76 385.824 20.76C389.424 20.76 392.304 22.86 392.844 26.7H378.444ZM413.468 33.36C413.468 25.92 415.508 21.48 420.488 21.48C421.208 21.48 423.008 21.48 424.748 22.26L426.008 15.66C424.868 15 423.368 14.64 421.388 14.64C418.208 14.64 414.908 16.74 413.468 21.84V15.24H406.148V43.26H413.468V33.36ZM438.976 43.26H445.456L457.276 15.24H449.416L442.216 33.9L435.016 15.24H427.216L438.976 43.26ZM469.131 15.24H461.871V43.26H469.131V15.24ZM460.791 4.38001C460.791 6.96001 462.951 8.82001 465.531 8.82001C468.111 8.82001 470.151 6.96001 470.151 4.38001C470.151 1.92001 468.111 8.82149e-06 465.531 8.82149e-06C462.951 8.82149e-06 460.791 1.92001 460.791 4.38001ZM475.598 29.16C475.598 37.98 482.678 43.86 490.718 43.86C495.518 43.86 499.778 41.88 502.418 38.34L496.538 34.02C495.158 35.88 493.058 36.84 490.718 36.84C486.638 36.84 482.858 33.72 482.858 29.16C482.858 24.6 486.638 21.72 490.718 21.72C493.058 21.72 495.158 22.62 496.538 24.48L502.358 20.1C499.718 16.56 495.458 14.64 490.718 14.64C482.678 14.64 475.598 20.28 475.598 29.16ZM535.16 29.16C535.16 20.28 528.86 14.64 520.94 14.64C512.96 14.64 506.42 20.28 506.42 29.16C506.42 37.98 512.96 43.86 520.94 43.86C526.1 43.86 531.44 41.88 534.02 37.08C532.16 36.12 530.18 35.04 528.44 34.08C527.06 36.48 524.24 37.68 521.42 37.68C517.28 37.68 514.16 35.46 513.68 31.68H535.04C535.1 31.02 535.16 29.88 535.16 29.16ZM513.62 26.7C514.16 22.86 517.16 20.76 521 20.76C524.6 20.76 527.48 22.86 528.02 26.7H513.62ZM2.52 133.26H10.2V116.34H24.12V109.5H10.2V98.76H27.78V91.92H2.52V133.26ZM39.0544 123.36C39.0544 115.92 41.0944 111.48 46.0744 111.48C46.7944 111.48 48.5944 111.48 50.3344 112.26L51.5944 105.66C50.4544 105 48.9544 104.64 46.9744 104.64C43.7944 104.64 40.4944 106.74 39.0544 111.84V105.24H31.7344V133.26H39.0544V123.36ZM82.8164 119.16C82.8164 110.28 76.5164 104.64 68.5964 104.64C60.6164 104.64 54.0764 110.28 54.0764 119.16C54.0764 127.98 60.6164 133.86 68.5964 133.86C73.7564 133.86 79.0964 131.88 81.6764 127.08C79.8164 126.12 77.8364 125.04 76.0964 124.08C74.7164 126.48 71.8964 127.68 69.0764 127.68C64.9364 127.68 61.8164 125.46 61.3364 121.68H82.6964C82.7564 121.02 82.8164 119.88 82.8164 119.16ZM61.2764 116.7C61.8164 112.86 64.8164 110.76 68.6564 110.76C72.2564 110.76 75.1364 112.86 75.6764 116.7H61.2764ZM99.6005 122.52C101.7 123 102.72 123.72 102.66 125.16C102.66 126.78 101.1 127.92 99.0005 127.98C96.3005 128.16 94.0205 126.42 93.8405 124.44H87.0005C87.1805 130.44 92.7605 133.86 98.2805 133.86C104.1 133.86 109.74 130.98 109.74 125.22C109.74 122.94 108.9 118.62 102.42 116.82L97.7405 115.68C96.1205 115.26 94.8005 114.48 94.8005 113.34C94.8005 111.24 96.4805 110.58 98.3405 110.58C100.02 110.58 101.94 111.36 102.12 113.46H109.08C108.78 107.04 103.5 104.64 98.1605 104.64C92.6405 104.64 87.8405 108.42 87.8405 112.98C87.8405 116.22 88.5005 119.64 95.7605 121.56L99.6005 122.52ZM123.547 118.32C123.547 113.46 127.207 111.78 130.267 111.78C133.267 111.78 136.207 114 136.207 118.02V133.26H143.527V117.66C143.527 109.44 139.507 104.64 132.247 104.64C129.487 104.64 124.807 106.2 123.547 109.56V90H116.227V133.26H123.547V118.32ZM195.424 103.14C195.424 96.18 190.804 91.92 183.544 91.92H167.344V133.26H184.804C192.844 133.26 197.644 127.56 197.644 120.84C197.644 117.18 195.064 112.44 189.964 111.18C194.104 109.56 195.424 106.2 195.424 103.14ZM175.024 108.54V98.76H182.764C185.824 98.76 187.444 100.62 187.444 103.56C187.444 106.38 185.824 108.54 183.004 108.54H175.024ZM184.204 114.96C187.744 114.96 189.604 118.02 189.604 120.72C189.604 123.6 187.744 126.42 184.384 126.42H175.024V114.96H184.204ZM231.352 119.16C231.352 110.28 225.052 104.64 217.132 104.64C209.152 104.64 202.612 110.28 202.612 119.16C202.612 127.98 209.152 133.86 217.132 133.86C222.292 133.86 227.632 131.88 230.212 127.08C228.352 126.12 226.372 125.04 224.632 124.08C223.252 126.48 220.432 127.68 217.612 127.68C213.472 127.68 210.352 125.46 209.872 121.68H231.232C231.292 121.02 231.352 119.88 231.352 119.16ZM209.812 116.7C210.352 112.86 213.352 110.76 217.192 110.76C220.792 110.76 223.672 112.86 224.212 116.7H209.812ZM264.516 119.16C264.516 110.28 258.216 104.64 250.296 104.64C242.316 104.64 235.776 110.28 235.776 119.16C235.776 127.98 242.316 133.86 250.296 133.86C255.456 133.86 260.796 131.88 263.376 127.08C261.516 126.12 259.536 125.04 257.796 124.08C256.416 126.48 253.596 127.68 250.776 127.68C246.636 127.68 243.516 125.46 243.036 121.68H264.396C264.456 121.02 264.516 119.88 264.516 119.16ZM242.976 116.7C243.516 112.86 246.516 110.76 250.356 110.76C253.956 110.76 256.836 112.86 257.376 116.7H242.976ZM288.26 90H285.2C277.28 90 273.26 94.8 273.26 103.02V105.24H267.92V111.12H273.26V133.26H280.64V111.12H286.58V105.24H280.64V103.02C280.64 99.6 281.78 97.02 285.2 97.02H288.26V90Z" fill="#666666"/>
</svg>
