<svg width="294" height="24" viewBox="0 0 294 24" fill="none" xmlns="http://www.w3.org/2000/svg">
<line x1="1.31134e-07" y1="10.5" x2="30" y2="10.5" stroke="#666666" stroke-width="3"/>
<line x1="264" y1="10.5" x2="294" y2="10.5" stroke="#666666" stroke-width="3"/>
<path d="M51.296 5.952C51.296 3.168 49.448 1.464 46.544 1.464H40.064V18H47.048C50.264 18 52.184 15.72 52.184 13.032C52.184 11.568 51.152 9.672 49.112 9.168C50.768 8.52 51.296 7.176 51.296 5.952ZM43.136 8.112V4.2H46.232C47.456 4.2 48.104 4.944 48.104 6.12C48.104 7.248 47.456 8.112 46.328 8.112H43.136ZM46.808 10.68C48.224 10.68 48.968 11.904 48.968 12.984C48.968 14.136 48.224 15.264 46.88 15.264H43.136V10.68H46.808ZM65.6669 12.36C65.6669 8.808 63.1469 6.552 59.9789 6.552C56.7869 6.552 54.1709 8.808 54.1709 12.36C54.1709 15.888 56.7869 18.24 59.9789 18.24C62.0429 18.24 64.1789 17.448 65.2109 15.528C64.4669 15.144 63.6749 14.712 62.9789 14.328C62.4269 15.288 61.2989 15.768 60.1709 15.768C58.5149 15.768 57.2669 14.88 57.0749 13.368H65.6189C65.6429 13.104 65.6669 12.648 65.6669 12.36ZM57.0509 11.376C57.2669 9.84 58.4669 9 60.0029 9C61.4429 9 62.5949 9.84 62.8109 11.376H57.0509ZM72.3806 13.704C73.2206 13.896 73.6286 14.184 73.6046 14.76C73.6046 15.408 72.9806 15.864 72.1406 15.888C71.0606 15.96 70.1486 15.264 70.0766 14.472H67.3406C67.4126 16.872 69.6446 18.24 71.8526 18.24C74.1806 18.24 76.4366 17.088 76.4366 14.784C76.4366 13.872 76.1006 12.144 73.5086 11.424L71.6366 10.968C70.9886 10.8 70.4606 10.488 70.4606 10.032C70.4606 9.192 71.1326 8.928 71.8766 8.928C72.5486 8.928 73.3166 9.24 73.3886 10.08H76.1726C76.0526 7.512 73.9406 6.552 71.8046 6.552C69.5966 6.552 67.6766 8.064 67.6766 9.888C67.6766 11.184 67.9406 12.552 70.8446 13.32L72.3806 13.704ZM82.871 2.52H79.967V6.792H77.927V9.144H79.967V18H82.871V9.144H85.247V6.792H82.871V2.52ZM92.3774 13.176C92.3774 16.008 94.7774 18.264 98.3054 18.264C101.305 18.264 103.993 16.56 104.113 13.584C104.233 11.64 103.321 9.576 99.6014 8.544L97.5614 7.944C95.7854 7.512 95.5934 6.528 95.5934 6.048C95.5934 4.872 96.6974 4.104 98.0654 4.104C99.6014 4.104 100.537 4.944 100.537 6.264H103.609C103.609 3.192 101.233 1.272 98.1134 1.272C95.0654 1.272 92.5454 3.216 92.5454 6.12C92.5454 7.56 93.1214 9.696 96.7214 10.728L98.7614 11.256C100.345 11.688 101.113 12.432 101.041 13.512C100.969 14.64 99.9614 15.504 98.3054 15.504C96.5294 15.504 95.5214 14.4 95.4494 13.176H92.3774ZM117.581 12.36C117.581 8.808 115.061 6.552 111.893 6.552C108.701 6.552 106.085 8.808 106.085 12.36C106.085 15.888 108.701 18.24 111.893 18.24C113.957 18.24 116.093 17.448 117.125 15.528C116.381 15.144 115.589 14.712 114.893 14.328C114.341 15.288 113.213 15.768 112.085 15.768C110.429 15.768 109.181 14.88 108.989 13.368H117.533C117.557 13.104 117.581 12.648 117.581 12.36ZM108.965 11.376C109.181 9.84 110.381 9 111.917 9C113.357 9 114.509 9.84 114.725 11.376H108.965ZM120.047 18H122.975V0.696H120.047V18ZM126.281 18H129.209V0.696H126.281V18ZM135.419 6.792H132.515V18H135.419V6.792ZM132.083 2.448C132.083 3.48 132.947 4.224 133.979 4.224C135.011 4.224 135.827 3.48 135.827 2.448C135.827 1.464 135.011 0.696 133.979 0.696C132.947 0.696 132.083 1.464 132.083 2.448ZM141.654 12.024C141.654 10.08 142.758 9.408 144.102 9.408C145.374 9.408 146.238 10.272 146.238 11.904V18H149.166V11.376C149.166 8.184 147.606 6.552 144.99 6.552C143.67 6.552 142.302 7.224 141.654 8.448V6.792H138.726V18H141.654V12.024ZM160.768 12.384C160.768 14.28 159.232 15.456 157.72 15.456C156.088 15.456 154.696 14.256 154.696 12.384C154.696 10.56 156.088 9.36 157.72 9.36C159.328 9.36 160.768 10.464 160.768 12.384ZM154.456 19.08C153.808 19.392 152.728 19.968 152.08 20.28C153.064 22.32 155.104 23.592 157.432 23.592C161.32 23.592 163.696 21.384 163.696 16.392V6.792H160.84V8.304C160.192 7.176 158.728 6.552 157.264 6.552C154.336 6.552 151.648 8.832 151.648 12.432C151.648 15.984 154.336 18.24 157.264 18.24C158.704 18.24 160.264 17.592 160.84 16.464C161.032 18.816 160.264 20.928 157.432 20.928C156.256 20.928 154.936 20.208 154.456 19.08ZM180.049 4.2C181.585 4.2 182.281 5.616 182.281 6.816C182.281 8.04 181.537 9.384 179.953 9.384H176.449V4.2H180.049ZM173.377 18H176.449V12.12H180.097C183.769 12.12 185.353 9.504 185.353 6.816C185.353 4.128 183.769 1.464 180.097 1.464H173.377V18ZM190.451 14.04C190.451 11.064 191.267 9.288 193.259 9.288C193.547 9.288 194.267 9.288 194.963 9.6L195.467 6.96C195.011 6.696 194.411 6.552 193.619 6.552C192.347 6.552 191.027 7.392 190.451 9.432V6.792H187.523V18H190.451V14.04ZM202.292 15.36C200.66 15.36 199.364 14.184 199.364 12.36C199.364 10.56 200.66 9.432 202.292 9.432C203.924 9.432 205.22 10.56 205.22 12.36C205.22 14.184 203.924 15.36 202.292 15.36ZM202.292 18.216C205.46 18.216 208.124 15.888 208.124 12.36C208.124 8.808 205.46 6.552 202.292 6.552C199.124 6.552 196.46 8.808 196.46 12.36C196.46 15.888 199.124 18.216 202.292 18.216ZM219.078 18H221.982V0.696H219.078V8.28C218.43 7.152 217.062 6.552 215.55 6.552C212.598 6.552 210.054 8.832 210.054 12.408C210.054 15.96 212.598 18.24 215.55 18.24C217.014 18.24 218.43 17.616 219.078 16.488V18ZM219.03 12.36C219.03 14.232 217.638 15.432 216.03 15.432C214.398 15.432 213.078 14.208 213.078 12.36C213.078 10.536 214.398 9.336 216.03 9.336C217.566 9.336 219.03 10.44 219.03 12.36ZM232.672 12.768C232.672 14.712 231.472 15.384 230.248 15.384C229.216 15.384 228.112 14.712 228.112 12.888V6.792H225.16V13.416C225.16 16.584 226.912 18.24 229.576 18.24C230.704 18.24 232.048 17.616 232.672 16.416V18H235.6V6.792H232.672V12.768ZM238.202 12.36C238.202 15.888 241.034 18.24 244.25 18.24C246.17 18.24 247.874 17.448 248.93 16.032L246.578 14.304C246.026 15.048 245.186 15.432 244.25 15.432C242.618 15.432 241.106 14.184 241.106 12.36C241.106 10.536 242.618 9.384 244.25 9.384C245.186 9.384 246.026 9.744 246.578 10.488L248.906 8.736C247.85 7.32 246.146 6.552 244.25 6.552C241.034 6.552 238.202 8.808 238.202 12.36ZM255.23 2.52H252.326V6.792H250.286V9.144H252.326V18H255.23V9.144H257.606V6.792H255.23V2.52Z" fill="#333333"/>
</svg>
