<svg width="561" height="204" viewBox="0 0 561 204" fill="none" xmlns="http://www.w3.org/2000/svg">
<path d="M3.13201 38.934H10.044V23.706H22.572V17.55H10.044V7.884H25.866V1.728H3.13201V38.934ZM36.0129 30.024C36.0129 23.328 37.8489 19.332 42.3309 19.332C42.9789 19.332 44.5989 19.332 46.1649 20.034L47.2989 14.094C46.2729 13.5 44.9229 13.176 43.1409 13.176C40.2789 13.176 37.3089 15.066 36.0129 19.656V13.716H29.4249V38.934H36.0129V30.024ZM75.3988 26.244C75.3988 18.252 69.7288 13.176 62.6008 13.176C55.4188 13.176 49.5328 18.252 49.5328 26.244C49.5328 34.182 55.4188 39.474 62.6008 39.474C67.2448 39.474 72.0508 37.692 74.3728 33.372C72.6988 32.508 70.9168 31.536 69.3508 30.672C68.1088 32.832 65.5708 33.912 63.0328 33.912C59.3068 33.912 56.4988 31.914 56.0668 28.512H75.2908C75.3448 27.918 75.3988 26.892 75.3988 26.244ZM56.0128 24.03C56.4988 20.574 59.1988 18.684 62.6548 18.684C65.8948 18.684 68.4868 20.574 68.9728 24.03H56.0128ZM90.5044 29.268C92.3944 29.7 93.3124 30.348 93.2584 31.644C93.2584 33.102 91.8544 34.128 89.9644 34.182C87.5344 34.344 85.4824 32.778 85.3204 30.996H79.1644C79.3264 36.396 84.3484 39.474 89.3164 39.474C94.5544 39.474 99.6304 36.882 99.6304 31.698C99.6304 29.646 98.8744 25.758 93.0424 24.138L88.8304 23.112C87.3724 22.734 86.1844 22.032 86.1844 21.006C86.1844 19.116 87.6964 18.522 89.3704 18.522C90.8824 18.522 92.6104 19.224 92.7724 21.114H99.0364C98.7664 15.336 94.0144 13.176 89.2084 13.176C84.2404 13.176 79.9204 16.578 79.9204 20.682C79.9204 23.598 80.5144 26.676 87.0484 28.404L90.5044 29.268ZM112.056 25.488C112.056 21.114 115.35 19.602 118.104 19.602C120.804 19.602 123.45 21.6 123.45 25.218V38.934H130.038V24.894C130.038 17.496 126.42 13.176 119.886 13.176C117.402 13.176 113.19 14.58 112.056 17.604V-2.74181e-06H105.468V38.934H112.056V25.488ZM166.486 7.884C169.942 7.884 171.508 11.07 171.508 13.77C171.508 16.524 169.834 19.548 166.27 19.548H158.386V7.884H166.486ZM151.474 38.934H158.386V25.704H166.594C174.856 25.704 178.42 19.818 178.42 13.77C178.42 7.722 174.856 1.728 166.594 1.728H151.474V38.934ZM189.892 30.024C189.892 23.328 191.728 19.332 196.21 19.332C196.858 19.332 198.478 19.332 200.044 20.034L201.178 14.094C200.152 13.5 198.802 13.176 197.02 13.176C194.158 13.176 191.188 15.066 189.892 19.656V13.716H183.304V38.934H189.892V30.024ZM216.534 32.994C212.862 32.994 209.946 30.348 209.946 26.244C209.946 22.194 212.862 19.656 216.534 19.656C220.206 19.656 223.122 22.194 223.122 26.244C223.122 30.348 220.206 32.994 216.534 32.994ZM216.534 39.42C223.662 39.42 229.656 34.182 229.656 26.244C229.656 18.252 223.662 13.176 216.534 13.176C209.406 13.176 203.412 18.252 203.412 26.244C203.412 34.182 209.406 39.42 216.534 39.42ZM254.302 38.934H260.836V-2.74181e-06H254.302V17.064C252.844 14.526 249.766 13.176 246.364 13.176C239.722 13.176 233.998 18.306 233.998 26.352C233.998 34.344 239.722 39.474 246.364 39.474C249.658 39.474 252.844 38.07 254.302 35.532V38.934ZM254.194 26.244C254.194 30.456 251.062 33.156 247.444 33.156C243.772 33.156 240.802 30.402 240.802 26.244C240.802 22.14 243.772 19.44 247.444 19.44C250.9 19.44 254.194 21.924 254.194 26.244ZM284.89 27.162C284.89 31.536 282.19 33.048 279.436 33.048C277.114 33.048 274.63 31.536 274.63 27.432V13.716H267.988V28.62C267.988 35.748 271.93 39.474 277.924 39.474C280.462 39.474 283.486 38.07 284.89 35.37V38.934H291.478V13.716H284.89V27.162ZM297.33 26.244C297.33 34.182 303.702 39.474 310.938 39.474C315.258 39.474 319.092 37.692 321.468 34.506L316.176 30.618C314.934 32.292 313.044 33.156 310.938 33.156C307.266 33.156 303.864 30.348 303.864 26.244C303.864 22.14 307.266 19.548 310.938 19.548C313.044 19.548 314.934 20.358 316.176 22.032L321.414 18.09C319.038 14.904 315.204 13.176 310.938 13.176C303.702 13.176 297.33 18.252 297.33 26.244ZM335.645 4.104H329.111V13.716H324.521V19.008H329.111V38.934H335.645V19.008H340.991V13.716H335.645V4.104ZM366.107 8.046H373.721C380.309 8.046 383.603 13.662 383.603 20.412C383.603 27.108 380.309 32.616 373.721 32.616H366.107V8.046ZM373.721 38.934C384.359 38.934 390.515 30.996 390.515 20.412C390.515 9.828 384.359 1.728 373.721 1.728H359.195V38.934H373.721ZM403.096 13.716H396.562V38.934H403.096V13.716ZM395.59 3.942C395.59 6.264 397.534 7.938 399.856 7.938C402.178 7.938 404.014 6.264 404.014 3.942C404.014 1.728 402.178 -2.74181e-06 399.856 -2.74181e-06C397.534 -2.74181e-06 395.59 1.728 395.59 3.942ZM417.124 30.024C417.124 23.328 418.96 19.332 423.442 19.332C424.09 19.332 425.71 19.332 427.276 20.034L428.41 14.094C427.384 13.5 426.034 13.176 424.252 13.176C421.39 13.176 418.42 15.066 417.124 19.656V13.716H410.536V38.934H417.124V30.024ZM456.51 26.244C456.51 18.252 450.84 13.176 443.712 13.176C436.53 13.176 430.644 18.252 430.644 26.244C430.644 34.182 436.53 39.474 443.712 39.474C448.356 39.474 453.162 37.692 455.484 33.372C453.81 32.508 452.028 31.536 450.462 30.672C449.22 32.832 446.682 33.912 444.144 33.912C440.418 33.912 437.61 31.914 437.178 28.512H456.402C456.456 27.918 456.51 26.892 456.51 26.244ZM437.124 24.03C437.61 20.574 440.31 18.684 443.766 18.684C447.006 18.684 449.598 20.574 450.084 24.03H437.124ZM460.438 26.244C460.438 34.182 466.81 39.474 474.046 39.474C478.366 39.474 482.2 37.692 484.576 34.506L479.284 30.618C478.042 32.292 476.152 33.156 474.046 33.156C470.374 33.156 466.972 30.348 466.972 26.244C466.972 22.14 470.374 19.548 474.046 19.548C476.152 19.548 478.042 20.358 479.284 22.032L484.522 18.09C482.146 14.904 478.312 13.176 474.046 13.176C466.81 13.176 460.438 18.252 460.438 26.244ZM498.752 4.104H492.218V13.716H487.628V19.008H492.218V38.934H498.752V19.008H504.098V13.716H498.752V4.104ZM509.044 38.934H515.632V-2.74181e-06H509.044V38.934ZM546.453 13.716H539.433L533.115 29.43L526.851 13.716H519.831L529.659 36.99L523.881 51.246H530.847L546.453 13.716ZM6.63847e-06 84.046H10.476V114.934H17.442V84.046H27.918V77.728H6.63847e-06V84.046ZM40.3481 108.994C36.6761 108.994 33.7601 106.348 33.7601 102.244C33.7601 98.194 36.6761 95.656 40.3481 95.656C44.0201 95.656 46.9361 98.194 46.9361 102.244C46.9361 106.348 44.0201 108.994 40.3481 108.994ZM40.3481 115.42C47.4761 115.42 53.4701 110.182 53.4701 102.244C53.4701 94.252 47.4761 89.176 40.3481 89.176C33.2201 89.176 27.2261 94.252 27.2261 102.244C27.2261 110.182 33.2201 115.42 40.3481 115.42ZM89.9446 114.934V98.086L104.309 77.728H96.0466L86.3806 92.038L76.8226 77.728H68.6146L82.8706 97.978V114.934H89.9446ZM113.596 108.994C109.924 108.994 107.008 106.348 107.008 102.244C107.008 98.194 109.924 95.656 113.596 95.656C117.268 95.656 120.184 98.194 120.184 102.244C120.184 106.348 117.268 108.994 113.596 108.994ZM113.596 115.42C120.724 115.42 126.718 110.182 126.718 102.244C126.718 94.252 120.724 89.176 113.596 89.176C106.468 89.176 100.474 94.252 100.474 102.244C100.474 110.182 106.468 115.42 113.596 115.42ZM149.204 103.162C149.204 107.536 146.504 109.048 143.75 109.048C141.428 109.048 138.944 107.536 138.944 103.432V89.716H132.302V104.62C132.302 111.748 136.244 115.474 142.238 115.474C144.776 115.474 147.8 114.07 149.204 111.37V114.934H155.792V89.716H149.204V103.162ZM169.853 106.024C169.853 99.328 171.689 95.332 176.171 95.332C176.819 95.332 178.439 95.332 180.005 96.034L181.139 90.094C180.113 89.5 178.763 89.176 176.981 89.176C174.119 89.176 171.149 91.066 169.853 95.656V89.716H163.265V114.934H169.853V106.024ZM205.425 84.046H213.039C219.627 84.046 222.921 89.662 222.921 96.412C222.921 103.108 219.627 108.616 213.039 108.616H205.425V84.046ZM213.039 114.934C223.677 114.934 229.833 106.996 229.833 96.412C229.833 85.828 223.677 77.728 213.039 77.728H198.513V114.934H213.039ZM247.436 108.994C243.764 108.994 240.848 106.348 240.848 102.244C240.848 98.194 243.764 95.656 247.436 95.656C251.108 95.656 254.024 98.194 254.024 102.244C254.024 106.348 251.108 108.994 247.436 108.994ZM247.436 115.42C254.564 115.42 260.558 110.182 260.558 102.244C260.558 94.252 254.564 89.176 247.436 89.176C240.308 89.176 234.314 94.252 234.314 102.244C234.314 110.182 240.308 115.42 247.436 115.42ZM278.022 108.994C274.35 108.994 271.434 106.348 271.434 102.244C271.434 98.194 274.35 95.656 278.022 95.656C281.694 95.656 284.61 98.194 284.61 102.244C284.61 106.348 281.694 108.994 278.022 108.994ZM278.022 115.42C285.15 115.42 291.144 110.182 291.144 102.244C291.144 94.252 285.15 89.176 278.022 89.176C270.894 89.176 264.9 94.252 264.9 102.244C264.9 110.182 270.894 115.42 278.022 115.42ZM303.64 106.024C303.64 99.328 305.476 95.332 309.958 95.332C310.606 95.332 312.226 95.332 313.792 96.034L314.926 90.094C313.9 89.5 312.55 89.176 310.768 89.176C307.906 89.176 304.936 91.066 303.64 95.656V89.716H297.052V114.934H303.64V106.024ZM360.11 103.648L354.494 82.912H348.986L343.316 103.648L335.378 77.728H327.926L340.454 114.934H346.07L351.686 93.82L357.41 114.934H362.972L375.608 77.728H368.102L360.11 103.648ZM386.062 89.716H379.528V114.934H386.062V89.716ZM378.556 79.942C378.556 82.264 380.5 83.938 382.822 83.938C385.144 83.938 386.98 82.264 386.98 79.942C386.98 77.728 385.144 76 382.822 76C380.5 76 378.556 77.728 378.556 79.942ZM402.143 80.104H395.609V89.716H391.019V95.008H395.609V114.934H402.143V95.008H407.489V89.716H402.143V80.104ZM419.023 101.488C419.023 97.114 422.317 95.602 425.071 95.602C427.771 95.602 430.417 97.6 430.417 101.218V114.934H437.005V100.894C437.005 93.496 433.387 89.176 426.853 89.176C424.369 89.176 420.157 90.58 419.023 93.604V76H412.435V114.934H419.023V101.488ZM458.441 114.934H465.353V99.706H477.881V93.55H465.353V83.884H481.175V77.728H458.441V114.934ZM491.322 106.024C491.322 99.328 493.158 95.332 497.64 95.332C498.288 95.332 499.908 95.332 501.474 96.034L502.608 90.094C501.582 89.5 500.232 89.176 498.45 89.176C495.588 89.176 492.618 91.066 491.322 95.656V89.716H484.734V114.934H491.322V106.024ZM530.707 102.244C530.707 94.252 525.037 89.176 517.909 89.176C510.727 89.176 504.841 94.252 504.841 102.244C504.841 110.182 510.727 115.474 517.909 115.474C522.553 115.474 527.359 113.692 529.681 109.372C528.007 108.508 526.225 107.536 524.659 106.672C523.417 108.832 520.879 109.912 518.341 109.912C514.615 109.912 511.807 107.914 511.375 104.512H530.599C530.653 103.918 530.707 102.892 530.707 102.244ZM511.321 100.03C511.807 96.574 514.507 94.684 517.963 94.684C521.203 94.684 523.795 96.574 524.281 100.03H511.321ZM560.555 102.244C560.555 94.252 554.885 89.176 547.757 89.176C540.575 89.176 534.689 94.252 534.689 102.244C534.689 110.182 540.575 115.474 547.757 115.474C552.401 115.474 557.207 113.692 559.529 109.372C557.855 108.508 556.073 107.536 554.507 106.672C553.265 108.832 550.727 109.912 548.189 109.912C544.463 109.912 541.655 107.914 541.223 104.512H560.447C560.501 103.918 560.555 102.892 560.555 102.244ZM541.169 100.03C541.655 96.574 544.355 94.684 547.811 94.684C551.051 94.684 553.643 96.574 554.129 100.03H541.169ZM10.044 160.046H17.658C24.246 160.046 27.54 165.662 27.54 172.412C27.54 179.108 24.246 184.616 17.658 184.616H10.044V160.046ZM17.658 190.934C28.296 190.934 34.452 182.996 34.452 172.412C34.452 161.828 28.296 153.728 17.658 153.728H3.13201V190.934H17.658ZM64.7992 178.244C64.7992 170.252 59.1292 165.176 52.0012 165.176C44.8192 165.176 38.9332 170.252 38.9332 178.244C38.9332 186.182 44.8192 191.474 52.0012 191.474C56.6452 191.474 61.4512 189.692 63.7732 185.372C62.0992 184.508 60.3172 183.536 58.7512 182.672C57.5092 184.832 54.9712 185.912 52.4332 185.912C48.7072 185.912 45.8992 183.914 45.4672 180.512H64.6912C64.7452 179.918 64.7992 178.892 64.7992 178.244ZM45.4132 176.03C45.8992 172.574 48.5992 170.684 52.0552 170.684C55.2952 170.684 57.8872 172.574 58.3732 176.03H45.4132ZM70.3468 190.934H76.9348V152H70.3468V190.934ZM90.9082 165.716H84.3742V190.934H90.9082V165.716ZM83.4022 155.942C83.4022 158.264 85.3462 159.938 87.6682 159.938C89.9902 159.938 91.8262 158.264 91.8262 155.942C91.8262 153.728 89.9902 152 87.6682 152C85.3462 152 83.4022 153.728 83.4022 155.942ZM105.693 190.934H111.525L122.163 165.716H115.089L108.609 182.51L102.129 165.716H95.1088L105.693 190.934ZM150.071 178.244C150.071 170.252 144.401 165.176 137.273 165.176C130.091 165.176 124.205 170.252 124.205 178.244C124.205 186.182 130.091 191.474 137.273 191.474C141.917 191.474 146.723 189.692 149.045 185.372C147.371 184.508 145.589 183.536 144.023 182.672C142.781 184.832 140.243 185.912 137.705 185.912C133.979 185.912 131.171 183.914 130.739 180.512H149.963C150.017 179.918 150.071 178.892 150.071 178.244ZM130.685 176.03C131.171 172.574 133.871 170.684 137.327 170.684C140.567 170.684 143.159 172.574 143.645 176.03H130.685ZM162.206 182.024C162.206 175.328 164.042 171.332 168.524 171.332C169.172 171.332 170.792 171.332 172.358 172.034L173.492 166.094C172.466 165.5 171.116 165.176 169.334 165.176C166.472 165.176 163.502 167.066 162.206 171.656V165.716H155.618V190.934H162.206V182.024ZM201.201 165.716H194.181L187.863 181.43L181.599 165.716H174.579L184.407 188.99L178.629 203.246H185.595L201.201 165.716Z" fill="#333333"/>
</svg>
